<?xml version="1.0" encoding="utf-8" standalone="no"?>
<!DOCTYPE svg PUBLIC "-//W3C//DTD SVG 1.1//EN"
  "http://www.w3.org/Graphics/SVG/1.1/DTD/svg11.dtd">
<!-- Created with matplotlib (https://matplotlib.org/) -->
<svg height="345.6pt" version="1.1" viewBox="0 0 460.8 345.6" width="460.8pt" xmlns="http://www.w3.org/2000/svg" xmlns:xlink="http://www.w3.org/1999/xlink">
 <metadata>
  <rdf:RDF xmlns:cc="http://creativecommons.org/ns#" xmlns:dc="http://purl.org/dc/elements/1.1/" xmlns:rdf="http://www.w3.org/1999/02/22-rdf-syntax-ns#">
   <cc:Work>
    <dc:type rdf:resource="http://purl.org/dc/dcmitype/StillImage"/>
    <dc:date>2021-08-17T13:08:17.532486</dc:date>
    <dc:format>image/svg+xml</dc:format>
    <dc:creator>
     <cc:Agent>
      <dc:title>Matplotlib v3.3.0, https://matplotlib.org/</dc:title>
     </cc:Agent>
    </dc:creator>
   </cc:Work>
  </rdf:RDF>
 </metadata>
 <defs>
  <style type="text/css">*{stroke-linecap:butt;stroke-linejoin:round;}</style>
 </defs>
 <g id="figure_1">
  <g id="patch_1">
   <path d="M 0 345.6 
L 460.8 345.6 
L 460.8 0 
L 0 0 
z
" style="fill:#ffffff;"/>
  </g>
  <g id="axes_1">
   <g id="patch_2">
    <path d="M 57.6 307.584 
L 414.72 307.584 
L 414.72 41.472 
L 57.6 41.472 
z
" style="fill:#ffffff;"/>
   </g>
   <g id="matplotlib.axis_1">
    <g id="xtick_1">
     <g id="line2d_1">
      <defs>
       <path d="M 0 0 
L 0 3.5 
" id="mffb705056b" style="stroke:#000000;stroke-width:0.8;"/>
      </defs>
      <g>
       <use style="stroke:#000000;stroke-width:0.8;" x="57.6" xlink:href="#mffb705056b" y="307.584"/>
      </g>
     </g>
     <g id="text_1">
      <!-- 0 -->
      <g transform="translate(54.667969 322.57775)scale(0.1 -0.1)">
       <defs>
        <path d="M 4.4375 36.328125 
Q 4.4375 56.34375 11.078125 66.625 
Q 17.71875 76.90625 30.328125 76.90625 
Q 54.34375 76.90625 54.34375 38.140625 
Q 54.34375 19 47.578125 8.859375 
Q 40.828125 -1.265625 28.609375 -1.265625 
Q 17.09375 -1.265625 10.765625 8.34375 
Q 4.4375 17.96875 4.4375 36.328125 
z
M 14.203125 36.765625 
Q 14.203125 6.640625 29.5 6.640625 
Q 44.53125 6.640625 44.53125 37.25 
Q 44.53125 68.953125 29.78125 68.953125 
Q 14.203125 68.953125 14.203125 36.765625 
z
" id="MicrosoftYaHei-48"/>
       </defs>
       <use xlink:href="#MicrosoftYaHei-48"/>
      </g>
     </g>
    </g>
    <g id="xtick_2">
     <g id="line2d_2">
      <g>
       <use style="stroke:#000000;stroke-width:0.8;" x="129.024" xlink:href="#mffb705056b" y="307.584"/>
      </g>
     </g>
     <g id="text_2">
      <!-- 20 -->
      <g transform="translate(123.159937 322.57775)scale(0.1 -0.1)">
       <defs>
        <path d="M 41.65625 55.8125 
Q 41.65625 61.921875 37.796875 65.40625 
Q 33.9375 68.890625 27.296875 68.890625 
Q 22.609375 68.890625 17.8125 66.5 
Q 13.03125 64.109375 8.890625 59.671875 
L 8.890625 68.953125 
Q 12.59375 72.796875 17.296875 74.84375 
Q 22.015625 76.90625 28.375 76.90625 
Q 38.625 76.90625 44.875 71.40625 
Q 51.125 65.921875 51.125 56.546875 
Q 51.125 48.1875 47.28125 42.078125 
Q 43.453125 35.984375 34.1875 29.59375 
Q 24.703125 23.046875 21.5 20.21875 
Q 18.3125 17.390625 17.03125 14.796875 
Q 15.765625 12.203125 15.765625 8.5 
L 53.375 8.5 
L 53.375 0 
L 5.8125 0 
L 5.8125 3.765625 
Q 5.8125 10.296875 7.59375 14.859375 
Q 9.375 19.4375 13.46875 23.75 
Q 17.578125 28.078125 26.265625 34.125 
Q 35.15625 40.375 38.40625 45.09375 
Q 41.65625 49.8125 41.65625 55.8125 
z
" id="MicrosoftYaHei-50"/>
       </defs>
       <use xlink:href="#MicrosoftYaHei-50"/>
       <use x="58.642578" xlink:href="#MicrosoftYaHei-48"/>
      </g>
     </g>
    </g>
    <g id="xtick_3">
     <g id="line2d_3">
      <g>
       <use style="stroke:#000000;stroke-width:0.8;" x="200.448" xlink:href="#mffb705056b" y="307.584"/>
      </g>
     </g>
     <g id="text_3">
      <!-- 40 -->
      <g transform="translate(194.583938 322.57775)scale(0.1 -0.1)">
       <defs>
        <path d="M 45.40625 75.640625 
L 45.40625 25.6875 
L 56.734375 25.6875 
L 56.734375 17.78125 
L 45.40625 17.78125 
L 45.40625 0 
L 36.140625 0 
L 36.140625 17.78125 
L 0.828125 17.78125 
L 0.828125 25.25 
Q 10.25 35.84375 19.765625 49.65625 
Q 29.296875 63.484375 35.5 75.640625 
z
M 11.578125 25.6875 
L 36.140625 25.6875 
L 36.140625 61.71875 
Q 31.0625 52.59375 25.25 44.015625 
Q 19.4375 35.453125 11.578125 25.6875 
z
" id="MicrosoftYaHei-52"/>
       </defs>
       <use xlink:href="#MicrosoftYaHei-52"/>
       <use x="58.642578" xlink:href="#MicrosoftYaHei-48"/>
      </g>
     </g>
    </g>
    <g id="xtick_4">
     <g id="line2d_4">
      <g>
       <use style="stroke:#000000;stroke-width:0.8;" x="271.872" xlink:href="#mffb705056b" y="307.584"/>
      </g>
     </g>
     <g id="text_4">
      <!-- 60 -->
      <g transform="translate(266.007938 322.57775)scale(0.1 -0.1)">
       <defs>
        <path d="M 49.703125 65.921875 
Q 43.796875 68.953125 37.359375 68.953125 
Q 27.546875 68.953125 21.578125 60.40625 
Q 15.625 51.859375 15.53125 37.0625 
L 15.765625 37.0625 
Q 21.140625 47.46875 32.90625 47.46875 
Q 42.71875 47.46875 48.578125 41.0625 
Q 54.4375 34.671875 54.4375 24.078125 
Q 54.4375 12.984375 47.671875 5.859375 
Q 40.921875 -1.265625 30.421875 -1.265625 
Q 18.890625 -1.265625 12.328125 7.734375 
Q 5.765625 16.75 5.765625 33.296875 
Q 5.765625 53.328125 14.375 65.109375 
Q 23 76.90625 37.0625 76.90625 
Q 45.125 76.90625 49.703125 74.703125 
z
M 16.109375 24.75 
Q 16.109375 17.28125 20.09375 11.953125 
Q 24.078125 6.640625 30.671875 6.640625 
Q 36.921875 6.640625 40.828125 11.234375 
Q 44.734375 15.828125 44.734375 23.046875 
Q 44.734375 30.859375 41.046875 35.203125 
Q 37.359375 39.546875 30.5625 39.546875 
Q 24.125 39.546875 20.109375 35.15625 
Q 16.109375 30.765625 16.109375 24.75 
z
" id="MicrosoftYaHei-54"/>
       </defs>
       <use xlink:href="#MicrosoftYaHei-54"/>
       <use x="58.642578" xlink:href="#MicrosoftYaHei-48"/>
      </g>
     </g>
    </g>
    <g id="xtick_5">
     <g id="line2d_5">
      <g>
       <use style="stroke:#000000;stroke-width:0.8;" x="343.296" xlink:href="#mffb705056b" y="307.584"/>
      </g>
     </g>
     <g id="text_5">
      <!-- 80 -->
      <g transform="translate(337.431938 322.57775)scale(0.1 -0.1)">
       <defs>
        <path d="M 4.78125 21.09375 
Q 4.78125 27.640625 8.6875 33.15625 
Q 12.59375 38.671875 18.75 41.015625 
Q 13.8125 43.796875 10.9375 48.140625 
Q 8.0625 52.484375 8.0625 57.5625 
Q 8.0625 62.9375 10.8125 67.375 
Q 13.578125 71.828125 18.484375 74.359375 
Q 23.390625 76.90625 29.296875 76.90625 
Q 35.25 76.90625 40.1875 74.390625 
Q 45.125 71.875 47.859375 67.421875 
Q 50.59375 62.984375 50.59375 57.5625 
Q 50.59375 52.59375 47.78125 48.21875 
Q 44.96875 43.84375 39.984375 41.015625 
Q 46.140625 38.625 50 33.109375 
Q 53.859375 27.59375 53.859375 21.09375 
Q 53.859375 14.65625 50.78125 9.546875 
Q 47.703125 4.4375 42.03125 1.609375 
Q 36.375 -1.21875 29.296875 -1.21875 
Q 22.265625 -1.21875 16.640625 1.609375 
Q 11.03125 4.4375 7.90625 9.5625 
Q 4.78125 14.703125 4.78125 21.09375 
z
M 14.15625 21.53125 
Q 14.15625 14.796875 18.3125 10.734375 
Q 22.46875 6.6875 29.34375 6.6875 
Q 36.078125 6.6875 40.34375 10.8125 
Q 44.625 14.9375 44.625 21.53125 
Q 44.625 27.78125 40.296875 32.046875 
Q 35.984375 36.328125 29.34375 36.328125 
Q 22.75 36.328125 18.453125 32.15625 
Q 14.15625 27.984375 14.15625 21.53125 
z
M 16.890625 56.78125 
Q 16.890625 51.703125 20.5 48.0625 
Q 24.125 44.4375 29.34375 44.4375 
Q 34.46875 44.4375 38.203125 48.09375 
Q 41.9375 51.765625 41.9375 56.78125 
Q 41.9375 61.921875 38.34375 65.484375 
Q 34.765625 69.046875 29.34375 69.046875 
Q 23.96875 69.046875 20.421875 65.546875 
Q 16.890625 62.0625 16.890625 56.78125 
z
" id="MicrosoftYaHei-56"/>
       </defs>
       <use xlink:href="#MicrosoftYaHei-56"/>
       <use x="58.642578" xlink:href="#MicrosoftYaHei-48"/>
      </g>
     </g>
    </g>
    <g id="xtick_6">
     <g id="line2d_6">
      <g>
       <use style="stroke:#000000;stroke-width:0.8;" x="414.72" xlink:href="#mffb705056b" y="307.584"/>
      </g>
     </g>
     <g id="text_6">
      <!-- 100 -->
      <g transform="translate(405.923906 322.57775)scale(0.1 -0.1)">
       <defs>
        <path d="M 27.828125 0 
L 27.828125 64.703125 
Q 25.59375 62.453125 20.234375 59.671875 
Q 14.890625 56.890625 10.359375 55.765625 
L 10.359375 65.140625 
Q 16.359375 66.796875 23.1875 70.4375 
Q 30.03125 74.078125 33.6875 77.296875 
L 37.3125 77.296875 
L 37.3125 0 
z
" id="MicrosoftYaHei-49"/>
       </defs>
       <use xlink:href="#MicrosoftYaHei-49"/>
       <use x="58.642578" xlink:href="#MicrosoftYaHei-48"/>
       <use x="117.285156" xlink:href="#MicrosoftYaHei-48"/>
      </g>
     </g>
    </g>
    <g id="text_7">
     <!-- 时间 -->
     <g transform="translate(226.16 337.057437)scale(0.1 -0.1)">
      <defs>
       <path d="M 5.375 73.875 
L 39.0625 73.875 
L 39.0625 -5.71875 
L 31.34375 -5.71875 
L 31.34375 2.390625 
L 13.09375 2.390625 
L 13.09375 -6.890625 
L 5.375 -6.890625 
z
M 42.28125 61.578125 
L 76.953125 61.578125 
L 76.953125 83.15625 
L 84.765625 83.15625 
L 84.765625 61.578125 
L 98.640625 61.578125 
L 98.640625 54.34375 
L 84.765625 54.34375 
L 84.765625 1.8125 
Q 84.765625 -11.28125 72.265625 -11.28125 
Q 66.609375 -11.28125 55.671875 -10.984375 
Q 55.171875 -7.46875 54.109375 -2.78125 
Q 64.359375 -3.5625 70.125 -3.5625 
Q 76.953125 -3.5625 76.953125 3.375 
L 76.953125 54.34375 
L 42.28125 54.34375 
z
M 13.09375 9.625 
L 31.34375 9.625 
L 31.34375 34.90625 
L 13.09375 34.90625 
z
M 31.34375 66.65625 
L 13.09375 66.65625 
L 13.09375 41.9375 
L 31.34375 41.9375 
z
M 53.21875 44.96875 
Q 61.03125 30.71875 65.046875 22.21875 
Q 62.5 21.046875 57.234375 18.3125 
Q 53.421875 27.59375 46.296875 41.453125 
z
" id="MicrosoftYaHei-26102"/>
       <path d="M 29.109375 56.984375 
L 70.515625 56.984375 
L 70.515625 8.640625 
L 36.140625 8.640625 
L 36.140625 2.59375 
L 29.109375 2.59375 
z
M 37.3125 69.578125 
L 37.3125 76.90625 
L 93.953125 76.90625 
L 93.953125 -0.4375 
Q 93.953125 -12.75 79.984375 -12.75 
Q 74.3125 -12.75 65.140625 -12.546875 
Q 64.75 -9.625 63.578125 -4.640625 
Q 71.6875 -5.21875 79 -5.21875 
Q 86.328125 -5.21875 86.328125 1.90625 
L 86.328125 69.578125 
z
M 6.546875 63.8125 
L 14.15625 63.8125 
L 14.15625 -12.75 
L 6.546875 -12.75 
z
M 36.140625 15.578125 
L 63.484375 15.578125 
L 63.484375 29.4375 
L 36.140625 29.4375 
z
M 63.484375 50.046875 
L 36.140625 50.046875 
L 36.140625 36.375 
L 63.484375 36.375 
z
M 11.625 78.171875 
L 17.1875 83.15625 
Q 24.609375 76.125 30.953125 69.484375 
L 24.609375 63.921875 
Q 18.65625 70.953125 11.625 78.171875 
z
" id="MicrosoftYaHei-38388"/>
      </defs>
      <use xlink:href="#MicrosoftYaHei-26102"/>
      <use x="100" xlink:href="#MicrosoftYaHei-38388"/>
     </g>
    </g>
   </g>
   <g id="matplotlib.axis_2">
    <g id="ytick_1">
     <g id="line2d_7">
      <defs>
       <path d="M 0 0 
L -3.5 0 
" id="m7bdcf6fe81" style="stroke:#000000;stroke-width:0.8;"/>
      </defs>
      <g>
       <use style="stroke:#000000;stroke-width:0.8;" x="57.6" xlink:href="#m7bdcf6fe81" y="295.488"/>
      </g>
     </g>
     <g id="text_8">
      <!-- 0 -->
      <g transform="translate(44.735937 299.484875)scale(0.1 -0.1)">
       <use xlink:href="#MicrosoftYaHei-48"/>
      </g>
     </g>
    </g>
    <g id="ytick_2">
     <g id="line2d_8">
      <g>
       <use style="stroke:#000000;stroke-width:0.8;" x="57.6" xlink:href="#m7bdcf6fe81" y="252.320376"/>
      </g>
     </g>
     <g id="text_9">
      <!-- 20000 -->
      <g transform="translate(21.279688 256.317251)scale(0.1 -0.1)">
       <use xlink:href="#MicrosoftYaHei-50"/>
       <use x="58.642578" xlink:href="#MicrosoftYaHei-48"/>
       <use x="117.285156" xlink:href="#MicrosoftYaHei-48"/>
       <use x="175.927734" xlink:href="#MicrosoftYaHei-48"/>
       <use x="234.570312" xlink:href="#MicrosoftYaHei-48"/>
      </g>
     </g>
    </g>
    <g id="ytick_3">
     <g id="line2d_9">
      <g>
       <use style="stroke:#000000;stroke-width:0.8;" x="57.6" xlink:href="#m7bdcf6fe81" y="209.152751"/>
      </g>
     </g>
     <g id="text_10">
      <!-- 40000 -->
      <g transform="translate(21.279688 213.149626)scale(0.1 -0.1)">
       <use xlink:href="#MicrosoftYaHei-52"/>
       <use x="58.642578" xlink:href="#MicrosoftYaHei-48"/>
       <use x="117.285156" xlink:href="#MicrosoftYaHei-48"/>
       <use x="175.927734" xlink:href="#MicrosoftYaHei-48"/>
       <use x="234.570312" xlink:href="#MicrosoftYaHei-48"/>
      </g>
     </g>
    </g>
    <g id="ytick_4">
     <g id="line2d_10">
      <g>
       <use style="stroke:#000000;stroke-width:0.8;" x="57.6" xlink:href="#m7bdcf6fe81" y="165.985127"/>
      </g>
     </g>
     <g id="text_11">
      <!-- 60000 -->
      <g transform="translate(21.279688 169.982002)scale(0.1 -0.1)">
       <use xlink:href="#MicrosoftYaHei-54"/>
       <use x="58.642578" xlink:href="#MicrosoftYaHei-48"/>
       <use x="117.285156" xlink:href="#MicrosoftYaHei-48"/>
       <use x="175.927734" xlink:href="#MicrosoftYaHei-48"/>
       <use x="234.570312" xlink:href="#MicrosoftYaHei-48"/>
      </g>
     </g>
    </g>
    <g id="ytick_5">
     <g id="line2d_11">
      <g>
       <use style="stroke:#000000;stroke-width:0.8;" x="57.6" xlink:href="#m7bdcf6fe81" y="122.817503"/>
      </g>
     </g>
     <g id="text_12">
      <!-- 80000 -->
      <g transform="translate(21.279688 126.814378)scale(0.1 -0.1)">
       <use xlink:href="#MicrosoftYaHei-56"/>
       <use x="58.642578" xlink:href="#MicrosoftYaHei-48"/>
       <use x="117.285156" xlink:href="#MicrosoftYaHei-48"/>
       <use x="175.927734" xlink:href="#MicrosoftYaHei-48"/>
       <use x="234.570312" xlink:href="#MicrosoftYaHei-48"/>
      </g>
     </g>
    </g>
    <g id="ytick_6">
     <g id="line2d_12">
      <g>
       <use style="stroke:#000000;stroke-width:0.8;" x="57.6" xlink:href="#m7bdcf6fe81" y="79.649879"/>
      </g>
     </g>
     <g id="text_13">
      <!-- 100000 -->
      <g transform="translate(15.415625 83.646754)scale(0.1 -0.1)">
       <use xlink:href="#MicrosoftYaHei-49"/>
       <use x="58.642578" xlink:href="#MicrosoftYaHei-48"/>
       <use x="117.285156" xlink:href="#MicrosoftYaHei-48"/>
       <use x="175.927734" xlink:href="#MicrosoftYaHei-48"/>
       <use x="234.570312" xlink:href="#MicrosoftYaHei-48"/>
       <use x="293.212891" xlink:href="#MicrosoftYaHei-48"/>
      </g>
     </g>
    </g>
    <g id="text_14">
     <!-- 感染情况 -->
     <g transform="translate(8.929687 194.528)rotate(-90)scale(0.1 -0.1)">
      <defs>
       <path d="M 55.171875 22.21875 
Q 62.703125 27.203125 68.5625 33.296875 
Q 62.84375 45.453125 61.625 64.796875 
L 18.953125 64.796875 
L 18.953125 51.90625 
Q 18.953125 28.171875 7.234375 13.625 
Q 5.171875 17.71875 2.15625 21.046875 
Q 11.921875 31.78125 11.921875 52 
L 11.921875 71.046875 
L 61.28125 71.046875 
Q 60.984375 77 60.9375 82.5625 
L 68.171875 82.5625 
Q 68.171875 77 68.40625 71.046875 
L 96.875 71.046875 
L 96.875 64.796875 
L 68.75 64.796875 
Q 69.78125 49.75 73.875 39.546875 
Q 80.46875 48.25 84.28125 58.9375 
L 90.921875 55.609375 
Q 85.25 42.828125 77.296875 32.859375 
Q 79.046875 30.03125 81.15625 27.78125 
Q 83.5 25.34375 85.546875 25.34375 
Q 87.40625 25.34375 88.578125 28.46875 
Q 90.046875 32.5625 91.5 39.40625 
Q 94.046875 38.03125 98.734375 36.28125 
Q 96.484375 27.59375 94.828125 23.484375 
Q 92 16.65625 86.53125 16.65625 
Q 82.03125 16.65625 76.953125 21.34375 
Q 74.3125 23.78125 72.125 26.953125 
Q 66.84375 21.484375 60.75 17.046875 
Q 58.40625 19.671875 55.171875 22.21875 
z
M 25.59375 45.171875 
L 55.671875 45.171875 
L 55.671875 24.078125 
L 32.234375 24.078125 
L 32.234375 21.34375 
L 25.59375 21.34375 
z
M 26.765625 15.578125 
L 34.1875 15.578125 
L 34.1875 2.09375 
Q 34.1875 -3.953125 40.4375 -3.953125 
L 58.015625 -3.953125 
Q 65.53125 -3.953125 66.609375 1.703125 
Q 67.390625 4.9375 68.359375 12.15625 
Q 71.6875 10.796875 76.078125 9.234375 
Q 74.8125 2.59375 73.53125 -1.609375 
Q 71.1875 -10.796875 59.578125 -10.796875 
L 38.875 -10.796875 
Q 26.765625 -10.796875 26.765625 1.21875 
z
M 22.5625 57.765625 
L 58.109375 57.765625 
L 58.109375 51.90625 
L 22.5625 51.90625 
z
M 13.1875 16.0625 
L 20.125 13.328125 
Q 15.140625 0.734375 9.28125 -8.34375 
Q 6.84375 -6.890625 2.734375 -4.640625 
Q 9.078125 4.546875 13.1875 16.0625 
z
M 49.03125 29.9375 
L 49.03125 39.3125 
L 32.234375 39.3125 
L 32.234375 29.9375 
z
M 79.890625 9.90625 
L 85.359375 13.8125 
Q 91.609375 6.59375 98.046875 -2.59375 
L 91.609375 -7.171875 
Q 86.921875 0.53125 79.890625 9.90625 
z
M 42.28125 16.75 
L 47.5625 20.75 
Q 54 13.921875 59.078125 7.671875 
L 52.9375 2.984375 
Q 47.65625 10.59375 42.28125 16.75 
z
M 88.375 76.03125 
L 83.59375 71.234375 
Q 79.390625 75.140625 74.421875 79.15625 
L 78.71875 83.640625 
Q 83.796875 79.9375 88.375 76.03125 
z
" id="MicrosoftYaHei-24863"/>
       <path d="M 99.03125 -1.703125 
Q 95.3125 -5.71875 92.96875 -9.125 
Q 66.703125 -0.25 53.609375 18.3125 
L 53.609375 -14.015625 
L 46 -14.015625 
L 46 18.3125 
Q 32.328125 1.8125 7.234375 -10.40625 
Q 4.890625 -7.375 1.65625 -3.65625 
Q 23.828125 4.640625 37.59375 18.40625 
L 3.328125 18.40625 
L 3.328125 25.25 
L 46 25.25 
L 46 36.078125 
L 53.609375 36.078125 
L 53.609375 25.25 
L 97.5625 25.25 
L 97.5625 18.40625 
L 61.03125 18.40625 
Q 74.03125 3.765625 99.03125 -1.703125 
z
M 35.9375 70.265625 
L 48.046875 70.265625 
Q 48.25 75.140625 48.4375 82.953125 
L 55.953125 82.953125 
Q 55.765625 75.734375 55.5625 70.265625 
L 80.28125 70.265625 
L 80.28125 44.78125 
Q 80.28125 40.96875 83.890625 40.96875 
L 86.140625 40.96875 
Q 89.9375 40.96875 90.71875 45.953125 
Q 91.3125 50.046875 91.703125 56.390625 
Q 95.40625 54.9375 99.03125 53.953125 
Q 98.4375 47.90625 97.65625 43.609375 
Q 96.1875 34.328125 87.5 34.328125 
L 82.421875 34.328125 
Q 72.859375 34.328125 72.859375 43.796875 
L 72.859375 63.625 
L 55.171875 63.625 
Q 53.328125 41.15625 33.5 30.328125 
Q 31.0625 33.34375 28.125 36.46875 
Q 46.1875 44.96875 47.75 63.625 
L 35.9375 63.625 
z
M 29.6875 53.375 
Q 31.25 48.96875 32.625 46.046875 
Q 19.828125 38.625 7.421875 30.515625 
L 2.828125 37.453125 
Q 16.3125 44.96875 29.6875 53.375 
z
M 14.75 82.671875 
Q 24.21875 77.875 31.9375 73.390625 
Q 29.296875 70.0625 27.34375 67.046875 
Q 18.84375 72.515625 10.84375 76.90625 
z
M 5.953125 67.828125 
Q 13.578125 64.3125 22.65625 59.234375 
Q 20.21875 55.328125 18.453125 52.59375 
Q 8.015625 58.84375 2.25 61.578125 
z
" id="MicrosoftYaHei-26579"/>
       <path d="M 43.84375 -12.453125 
L 36.421875 -12.453125 
L 36.421875 37.0625 
L 91.3125 37.0625 
L 91.3125 -0.640625 
Q 91.3125 -11.46875 81.453125 -11.671875 
Q 75 -11.765625 64.84375 -11.671875 
Q 64.359375 -8.546875 63.375 -4.15625 
Q 72.65625 -4.734375 78.515625 -4.734375 
Q 83.890625 -4.734375 83.890625 -0.046875 
L 83.890625 5.21875 
L 43.84375 5.21875 
z
M 30.078125 49.171875 
L 59.96875 49.171875 
L 59.96875 55.90625 
L 35.359375 55.90625 
L 35.359375 62.0625 
L 59.96875 62.0625 
L 59.96875 68.609375 
L 32.625 68.609375 
L 32.625 74.75 
L 59.96875 74.75 
L 59.96875 83.546875 
L 67.390625 83.546875 
L 67.390625 74.75 
L 96.6875 74.75 
L 96.6875 68.609375 
L 67.390625 68.609375 
L 67.390625 62.0625 
L 93.953125 62.0625 
L 93.953125 55.90625 
L 67.390625 55.90625 
L 67.390625 49.171875 
L 98.734375 49.171875 
L 98.734375 43.015625 
L 30.078125 43.015625 
z
M 14.546875 82.671875 
L 21.484375 82.671875 
L 21.484375 62.796875 
L 25.203125 65.484375 
Q 30.171875 59.625 34.078125 54.640625 
L 28.609375 50.640625 
Q 25.59375 55.078125 21.484375 60.453125 
L 21.484375 -12.75 
L 14.546875 -12.75 
z
M 83.890625 30.8125 
L 43.84375 30.8125 
L 43.84375 24.078125 
L 83.890625 24.078125 
z
M 43.84375 11.28125 
L 83.890625 11.28125 
L 83.890625 18.015625 
L 43.84375 18.015625 
z
M 4.984375 60.40625 
L 11.234375 59.625 
Q 10.15625 47.796875 7.71875 34.515625 
Q 5.46875 35.109375 1.375 35.890625 
Q 3.515625 45.453125 4.984375 60.40625 
z
" id="MicrosoftYaHei-24773"/>
       <path d="M 39.84375 31 
L 32.234375 31 
L 32.234375 78.078125 
L 90.046875 78.078125 
L 90.046875 31 
L 82.421875 31 
L 82.421875 35.296875 
L 73.046875 35.296875 
L 73.046875 1.125 
Q 73.046875 -3.765625 77.640625 -3.765625 
L 84.375 -3.765625 
Q 89.0625 -3.765625 89.65625 1.421875 
Q 90.328125 6 90.53125 13.53125 
Q 93.84375 12.15625 98.4375 10.59375 
Q 97.75 2.875 96.78125 -2.296875 
Q 95.40625 -10.796875 86.03125 -10.796875 
L 76.375 -10.796875 
Q 65.4375 -10.796875 65.4375 -0.140625 
L 65.4375 35.296875 
L 55.328125 35.296875 
Q 54.984375 16.703125 49.421875 7.078125 
Q 43.359375 -3.953125 25.984375 -13.53125 
Q 23.828125 -10.203125 21.09375 -6.890625 
Q 37.109375 1.90625 42.578125 11.1875 
Q 47.46875 19 47.796875 35.296875 
L 39.84375 35.296875 
z
M 82.421875 71.046875 
L 39.84375 71.046875 
L 39.84375 42.328125 
L 82.421875 42.328125 
z
M 18.453125 37.75 
Q 22.65625 34.8125 25.984375 32.859375 
Q 17.78125 13.421875 9.1875 -7.765625 
L 1.375 -3.078125 
Q 10.640625 14.984375 18.453125 37.75 
z
M 8.296875 76.3125 
Q 17.28125 67.53125 26.078125 57.375 
L 19.34375 51.3125 
Q 11.328125 61.765625 2.546875 71.140625 
z
" id="MicrosoftYaHei-20917"/>
      </defs>
      <use xlink:href="#MicrosoftYaHei-24863"/>
      <use x="100" xlink:href="#MicrosoftYaHei-26579"/>
      <use x="200" xlink:href="#MicrosoftYaHei-24773"/>
      <use x="300" xlink:href="#MicrosoftYaHei-20917"/>
     </g>
    </g>
   </g>
   <g id="line2d_13">
    <path clip-path="url(#p39d0850379)" d="M 57.6 53.568 
L 61.1712 53.710453 
L 64.7424 53.880965 
L 68.3136 54.116229 
L 71.8848 54.468045 
L 75.456 55.076708 
L 79.0272 56.022079 
L 82.5984 57.166021 
L 86.1696 58.784807 
L 89.7408 60.900021 
L 93.312 63.772826 
L 96.8832 68.033471 
L 100.4544 73.746706 
L 104.0256 81.173696 
L 107.5968 91.000805 
L 111.168 103.489199 
L 114.7392 117.615804 
L 118.3104 132.653246 
L 121.8816 147.798607 
L 125.4528 161.385617 
L 129.024 172.447321 
L 132.5952 181.363593 
L 136.1664 187.970398 
L 139.7376 193.159147 
L 143.3088 196.819761 
L 146.88 199.444353 
L 150.4512 201.365312 
L 154.0224 202.774735 
L 157.5936 203.84745 
L 161.1648 204.639576 
L 164.736 205.222339 
L 168.3072 205.824528 
L 171.8784 206.305847 
L 175.4496 206.791482 
L 179.0208 207.27496 
L 182.592 207.67426 
L 186.1632 208.080036 
L 189.7344 208.565672 
L 193.3056 208.906696 
L 196.8768 209.232612 
L 200.448 209.536943 
L 204.0192 209.804583 
L 207.5904 210.04848 
L 211.1616 210.283743 
L 214.7328 210.480156 
L 218.304 210.663618 
L 221.8752 210.819022 
L 225.4464 211.004643 
L 229.0176 211.119037 
L 232.5888 211.222639 
L 236.16 211.321925 
L 239.7312 211.412577 
L 243.3024 211.490278 
L 246.8736 211.58093 
L 250.4448 211.652157 
L 254.016 211.716908 
L 257.5872 211.792452 
L 261.1584 211.857203 
L 264.7296 211.915479 
L 268.3008 211.978072 
L 271.872 212.03419 
L 275.4432 212.079516 
L 279.0144 212.109734 
L 282.5856 212.161535 
L 286.1568 212.202544 
L 289.728 212.237078 
L 293.2992 212.258662 
L 296.8704 212.269454 
L 300.4416 212.288879 
L 304.0128 212.299671 
L 307.584 212.308305 
L 311.1552 212.316938 
L 314.7264 212.319097 
L 318.2976 212.329889 
L 321.8688 212.332047 
L 325.44 212.338522 
L 329.0112 212.342839 
L 332.5824 212.349314 
L 336.1536 212.353631 
L 339.7248 212.357948 
L 343.296 212.360106 
L 346.8672 212.362264 
L 350.4384 212.364423 
L 354.0096 212.368739 
L 357.5808 212.368739 
L 361.152 212.373056 
L 364.7232 212.375215 
L 368.2944 212.38169 
L 371.8656 212.383848 
L 375.4368 212.386006 
L 379.008 212.386006 
L 382.5792 212.386006 
L 386.1504 212.388165 
L 389.7216 212.388165 
L 393.2928 212.388165 
L 396.864 212.388165 
L 400.4352 212.388165 
L 404.0064 212.388165 
L 407.5776 212.388165 
L 411.1488 212.388165 
" style="fill:none;stroke:#1f77b4;stroke-linecap:square;stroke-width:1.5;"/>
   </g>
   <g id="line2d_14">
    <path clip-path="url(#p39d0850379)" d="M 57.6 53.568 
L 61.1712 53.710453 
L 64.7424 53.880965 
L 68.3136 54.116229 
L 71.8848 54.468045 
L 75.456 55.076708 
L 79.0272 56.022079 
L 82.5984 57.166021 
L 86.1696 58.784807 
L 89.7408 60.900021 
L 93.312 63.772826 
L 96.8832 68.033471 
L 100.4544 73.746706 
L 104.0256 81.173696 
L 107.5968 91.000805 
L 111.168 103.489199 
L 114.7392 117.615804 
L 118.3104 132.653246 
L 121.8816 147.798607 
L 125.4528 161.385617 
L 129.024 172.447321 
L 132.5952 181.363593 
L 136.1664 187.970398 
L 139.7376 193.159147 
L 143.3088 196.819761 
L 146.88 199.444353 
L 150.4512 201.365312 
L 154.0224 202.774735 
L 157.5936 203.84745 
L 161.1648 204.639576 
L 164.736 205.222339 
L 168.3072 205.824528 
L 171.8784 206.305847 
L 175.4496 206.791482 
L 179.0208 207.27496 
L 182.592 207.67426 
L 186.1632 208.080036 
L 189.7344 208.565672 
L 193.3056 208.906696 
L 196.8768 209.232612 
L 200.448 209.536943 
L 204.0192 209.804583 
L 207.5904 210.04848 
L 211.1616 210.283743 
L 214.7328 210.480156 
L 218.304 210.663618 
L 221.8752 210.819022 
L 225.4464 211.004643 
L 229.0176 211.119037 
L 232.5888 211.222639 
L 236.16 211.321925 
L 239.7312 211.412577 
L 243.3024 211.490278 
L 246.8736 211.58093 
L 250.4448 211.652157 
L 254.016 211.716908 
L 257.5872 211.792452 
L 261.1584 211.857203 
L 264.7296 211.915479 
L 268.3008 211.978072 
L 271.872 212.03419 
L 275.4432 212.079516 
L 279.0144 212.109734 
L 282.5856 212.161535 
L 286.1568 212.202544 
L 289.728 212.237078 
L 293.2992 212.258662 
L 296.8704 212.269454 
L 300.4416 212.288879 
L 304.0128 212.299671 
L 307.584 212.308305 
L 311.1552 212.316938 
L 314.7264 212.319097 
L 318.2976 212.329889 
L 321.8688 212.332047 
L 325.44 212.338522 
L 329.0112 212.342839 
L 332.5824 212.349314 
L 336.1536 212.353631 
L 339.7248 212.357948 
L 343.296 212.360106 
L 346.8672 212.362264 
L 350.4384 212.364423 
L 354.0096 212.368739 
L 357.5808 212.368739 
L 361.152 212.373056 
L 364.7232 212.375215 
L 368.2944 212.38169 
L 371.8656 212.383848 
L 375.4368 212.386006 
L 379.008 212.386006 
L 382.5792 212.386006 
L 386.1504 212.388165 
L 389.7216 212.388165 
L 393.2928 212.388165 
L 396.864 212.388165 
L 400.4352 212.388165 
L 404.0064 212.388165 
L 407.5776 212.388165 
L 411.1488 212.388165 
" style="fill:none;stroke:#000000;stroke-linecap:square;stroke-width:4;"/>
   </g>
   <g id="line2d_15">
    <path clip-path="url(#p39d0850379)" d="M 57.6 295.453466 
L 61.1712 295.319646 
L 64.7424 295.18151 
L 68.3136 295.004523 
L 71.8848 294.767101 
L 75.456 294.331108 
L 79.0272 293.642584 
L 82.5984 292.921685 
L 86.1696 291.885662 
L 89.7408 290.612217 
L 93.312 288.838027 
L 96.8832 286.215594 
L 100.4544 282.70175 
L 104.0256 278.391462 
L 107.5968 272.585417 
L 111.168 265.52751 
L 114.7392 258.635799 
L 118.3104 252.646291 
L 121.8816 248.543209 
L 125.4528 247.511502 
L 129.024 249.473471 
L 132.5952 253.725482 
L 136.1664 259.516419 
L 139.7376 265.395849 
L 143.3088 271.361615 
L 146.88 276.582739 
L 150.4512 280.946986 
L 154.0224 284.592492 
L 157.5936 287.275359 
L 161.1648 289.431582 
L 164.736 290.935974 
L 168.3072 291.88782 
L 171.8784 292.654045 
L 175.4496 293.115939 
L 179.0208 293.403004 
L 182.592 293.636109 
L 186.1632 293.782879 
L 189.7344 293.836838 
L 193.3056 293.983608 
L 196.8768 294.119586 
L 200.448 294.231822 
L 204.0192 294.30089 
L 207.5904 294.430393 
L 211.1616 294.529679 
L 214.7328 294.609539 
L 218.304 294.669974 
L 221.8752 294.743358 
L 225.4464 294.771417 
L 229.0176 294.862069 
L 232.5888 294.969989 
L 236.16 295.028265 
L 239.7312 295.080066 
L 243.3024 295.12755 
L 246.8736 295.151293 
L 250.4448 295.185827 
L 254.016 295.218202 
L 257.5872 295.226836 
L 261.1584 295.233311 
L 264.7296 295.250578 
L 268.3008 295.24842 
L 271.872 295.263528 
L 275.4432 295.289429 
L 279.0144 295.317488 
L 282.5856 295.31533 
L 286.1568 295.323963 
L 289.728 295.339072 
L 293.2992 295.358497 
L 296.8704 295.382239 
L 300.4416 295.397348 
L 304.0128 295.414615 
L 307.584 295.429724 
L 311.1552 295.440516 
L 314.7264 295.455624 
L 318.2976 295.457783 
L 321.8688 295.466416 
L 325.44 295.468575 
L 329.0112 295.470733 
L 332.5824 295.470733 
L 336.1536 295.470733 
L 339.7248 295.470733 
L 343.296 295.477208 
L 346.8672 295.477208 
L 350.4384 295.477208 
L 354.0096 295.47505 
L 357.5808 295.479366 
L 361.152 295.479366 
L 364.7232 295.479366 
L 368.2944 295.477208 
L 371.8656 295.477208 
L 375.4368 295.477208 
L 379.008 295.481525 
L 382.5792 295.485842 
L 386.1504 295.485842 
L 389.7216 295.485842 
L 393.2928 295.488 
L 396.864 295.488 
L 400.4352 295.488 
L 404.0064 295.488 
L 407.5776 295.488 
L 411.1488 295.488 
" style="fill:none;stroke:#ff7f0e;stroke-linecap:square;stroke-width:1.5;"/>
   </g>
   <g id="line2d_16">
    <path clip-path="url(#p39d0850379)" d="M 57.6 295.453466 
L 61.1712 295.319646 
L 64.7424 295.18151 
L 68.3136 295.004523 
L 71.8848 294.767101 
L 75.456 294.331108 
L 79.0272 293.642584 
L 82.5984 292.921685 
L 86.1696 291.885662 
L 89.7408 290.612217 
L 93.312 288.838027 
L 96.8832 286.215594 
L 100.4544 282.70175 
L 104.0256 278.391462 
L 107.5968 272.585417 
L 111.168 265.52751 
L 114.7392 258.635799 
L 118.3104 252.646291 
L 121.8816 248.543209 
L 125.4528 247.511502 
L 129.024 249.473471 
L 132.5952 253.725482 
L 136.1664 259.516419 
L 139.7376 265.395849 
L 143.3088 271.361615 
L 146.88 276.582739 
L 150.4512 280.946986 
L 154.0224 284.592492 
L 157.5936 287.275359 
L 161.1648 289.431582 
L 164.736 290.935974 
L 168.3072 291.88782 
L 171.8784 292.654045 
L 175.4496 293.115939 
L 179.0208 293.403004 
L 182.592 293.636109 
L 186.1632 293.782879 
L 189.7344 293.836838 
L 193.3056 293.983608 
L 196.8768 294.119586 
L 200.448 294.231822 
L 204.0192 294.30089 
L 207.5904 294.430393 
L 211.1616 294.529679 
L 214.7328 294.609539 
L 218.304 294.669974 
L 221.8752 294.743358 
L 225.4464 294.771417 
L 229.0176 294.862069 
L 232.5888 294.969989 
L 236.16 295.028265 
L 239.7312 295.080066 
L 243.3024 295.12755 
L 246.8736 295.151293 
L 250.4448 295.185827 
L 254.016 295.218202 
L 257.5872 295.226836 
L 261.1584 295.233311 
L 264.7296 295.250578 
L 268.3008 295.24842 
L 271.872 295.263528 
L 275.4432 295.289429 
L 279.0144 295.317488 
L 282.5856 295.31533 
L 286.1568 295.323963 
L 289.728 295.339072 
L 293.2992 295.358497 
L 296.8704 295.382239 
L 300.4416 295.397348 
L 304.0128 295.414615 
L 307.584 295.429724 
L 311.1552 295.440516 
L 314.7264 295.455624 
L 318.2976 295.457783 
L 321.8688 295.466416 
L 325.44 295.468575 
L 329.0112 295.470733 
L 332.5824 295.470733 
L 336.1536 295.470733 
L 339.7248 295.470733 
L 343.296 295.477208 
L 346.8672 295.477208 
L 350.4384 295.477208 
L 354.0096 295.47505 
L 357.5808 295.479366 
L 361.152 295.479366 
L 364.7232 295.479366 
L 368.2944 295.477208 
L 371.8656 295.477208 
L 375.4368 295.477208 
L 379.008 295.481525 
L 382.5792 295.485842 
L 386.1504 295.485842 
L 389.7216 295.485842 
L 393.2928 295.488 
L 396.864 295.488 
L 400.4352 295.488 
L 404.0064 295.488 
L 407.5776 295.488 
L 411.1488 295.488 
" style="fill:none;stroke:#0000ff;stroke-linecap:square;stroke-width:4;"/>
   </g>
   <g id="line2d_17">
    <path clip-path="url(#p39d0850379)" d="M 57.6 295.488 
L 61.1712 295.479366 
L 64.7424 295.446991 
L 68.3136 295.388714 
L 71.8848 295.27432 
L 75.456 295.10165 
L 79.0272 294.844802 
L 82.5984 294.42176 
L 86.1696 293.838997 
L 89.7408 292.997228 
L 93.312 291.898612 
L 96.8832 290.260401 
L 100.4544 288.06101 
L 104.0256 284.944308 
L 107.5968 280.923244 
L 111.168 275.497073 
L 114.7392 268.270813 
L 118.3104 259.250938 
L 121.8816 248.282044 
L 125.4528 235.845452 
L 129.024 223.011717 
L 132.5952 210.108914 
L 136.1664 198.134215 
L 139.7376 187.748085 
L 143.3088 179.073551 
L 146.88 172.451637 
L 150.4512 167.873711 
L 154.0224 165.139042 
L 157.5936 164.681465 
L 161.1648 166.108155 
L 164.736 169.999716 
L 168.3072 176.198587 
L 171.8784 184.782469 
L 175.4496 195.451347 
L 179.0208 207.745487 
L 182.592 220.965572 
L 186.1632 233.937443 
L 189.7344 245.860341 
L 193.3056 256.259421 
L 196.8768 264.761285 
L 200.448 271.583928 
L 204.0192 276.91513 
L 207.5904 280.888709 
L 211.1616 283.752881 
L 214.7328 285.844353 
L 218.304 287.376803 
L 221.8752 288.481895 
L 225.4464 289.284812 
L 229.0176 289.884842 
L 232.5888 290.338102 
L 236.16 290.763304 
L 239.7312 291.14102 
L 243.3024 291.51442 
L 246.8736 291.857603 
L 250.4448 292.16841 
L 254.016 292.479217 
L 257.5872 292.749014 
L 261.1584 293.023129 
L 264.7296 293.279976 
L 268.3008 293.485022 
L 271.872 293.666326 
L 275.4432 293.830363 
L 279.0144 293.987925 
L 282.5856 294.104478 
L 286.1568 294.225347 
L 289.728 294.335424 
L 293.2992 294.423918 
L 296.8704 294.516728 
L 300.4416 294.592272 
L 304.0128 294.665657 
L 307.584 294.726091 
L 311.1552 294.777893 
L 314.7264 294.83401 
L 318.2976 294.903079 
L 321.8688 294.976464 
L 325.44 295.026106 
L 329.0112 295.077908 
L 332.5824 295.134025 
L 336.1536 295.170718 
L 339.7248 295.20741 
L 343.296 295.250578 
L 346.8672 295.295904 
L 350.4384 295.336913 
L 354.0096 295.362814 
L 357.5808 295.377923 
L 361.152 295.393031 
L 364.7232 295.403823 
L 368.2944 295.414615 
L 371.8656 295.423249 
L 375.4368 295.427565 
L 379.008 295.427565 
L 382.5792 295.431882 
L 386.1504 295.43404 
L 389.7216 295.440516 
L 393.2928 295.442674 
L 396.864 295.446991 
L 400.4352 295.449149 
L 404.0064 295.455624 
L 407.5776 295.459941 
L 411.1488 295.464258 
" style="fill:none;stroke:#2ca02c;stroke-linecap:square;stroke-width:1.5;"/>
   </g>
   <g id="line2d_18">
    <path clip-path="url(#p39d0850379)" d="M 57.6 295.488 
L 61.1712 295.479366 
L 64.7424 295.446991 
L 68.3136 295.388714 
L 71.8848 295.27432 
L 75.456 295.10165 
L 79.0272 294.844802 
L 82.5984 294.42176 
L 86.1696 293.838997 
L 89.7408 292.997228 
L 93.312 291.898612 
L 96.8832 290.260401 
L 100.4544 288.06101 
L 104.0256 284.944308 
L 107.5968 280.923244 
L 111.168 275.497073 
L 114.7392 268.270813 
L 118.3104 259.250938 
L 121.8816 248.282044 
L 125.4528 235.845452 
L 129.024 223.011717 
L 132.5952 210.108914 
L 136.1664 198.134215 
L 139.7376 187.748085 
L 143.3088 179.073551 
L 146.88 172.451637 
L 150.4512 167.873711 
L 154.0224 165.139042 
L 157.5936 164.681465 
L 161.1648 166.108155 
L 164.736 169.999716 
L 168.3072 176.198587 
L 171.8784 184.782469 
L 175.4496 195.451347 
L 179.0208 207.745487 
L 182.592 220.965572 
L 186.1632 233.937443 
L 189.7344 245.860341 
L 193.3056 256.259421 
L 196.8768 264.761285 
L 200.448 271.583928 
L 204.0192 276.91513 
L 207.5904 280.888709 
L 211.1616 283.752881 
L 214.7328 285.844353 
L 218.304 287.376803 
L 221.8752 288.481895 
L 225.4464 289.284812 
L 229.0176 289.884842 
L 232.5888 290.338102 
L 236.16 290.763304 
L 239.7312 291.14102 
L 243.3024 291.51442 
L 246.8736 291.857603 
L 250.4448 292.16841 
L 254.016 292.479217 
L 257.5872 292.749014 
L 261.1584 293.023129 
L 264.7296 293.279976 
L 268.3008 293.485022 
L 271.872 293.666326 
L 275.4432 293.830363 
L 279.0144 293.987925 
L 282.5856 294.104478 
L 286.1568 294.225347 
L 289.728 294.335424 
L 293.2992 294.423918 
L 296.8704 294.516728 
L 300.4416 294.592272 
L 304.0128 294.665657 
L 307.584 294.726091 
L 311.1552 294.777893 
L 314.7264 294.83401 
L 318.2976 294.903079 
L 321.8688 294.976464 
L 325.44 295.026106 
L 329.0112 295.077908 
L 332.5824 295.134025 
L 336.1536 295.170718 
L 339.7248 295.20741 
L 343.296 295.250578 
L 346.8672 295.295904 
L 350.4384 295.336913 
L 354.0096 295.362814 
L 357.5808 295.377923 
L 361.152 295.393031 
L 364.7232 295.403823 
L 368.2944 295.414615 
L 371.8656 295.423249 
L 375.4368 295.427565 
L 379.008 295.427565 
L 382.5792 295.431882 
L 386.1504 295.43404 
L 389.7216 295.440516 
L 393.2928 295.442674 
L 396.864 295.446991 
L 400.4352 295.449149 
L 404.0064 295.455624 
L 407.5776 295.459941 
L 411.1488 295.464258 
" style="fill:none;stroke:#ff0000;stroke-linecap:square;stroke-width:4;"/>
   </g>
   <g id="line2d_19">
    <path clip-path="url(#p39d0850379)" d="M 57.6 295.488 
L 61.1712 295.488 
L 64.7424 295.488 
L 68.3136 295.488 
L 71.8848 295.488 
L 75.456 295.488 
L 79.0272 295.488 
L 82.5984 295.488 
L 86.1696 295.488 
L 89.7408 295.488 
L 93.312 295.488 
L 96.8832 295.488 
L 100.4544 295.488 
L 104.0256 295.488 
L 107.5968 295.488 
L 111.168 295.488 
L 114.7392 295.488 
L 118.3104 295.488 
L 121.8816 295.488 
L 125.4528 295.488 
L 129.024 295.488 
L 132.5952 295.488 
L 136.1664 295.488 
L 139.7376 295.488 
L 143.3088 295.488 
L 146.88 295.488 
L 150.4512 295.488 
L 154.0224 295.488 
L 157.5936 295.488 
L 161.1648 295.488 
L 164.736 295.488 
L 168.3072 295.488 
L 171.8784 295.488 
L 175.4496 295.488 
L 179.0208 295.488 
L 182.592 295.488 
L 186.1632 295.488 
L 189.7344 295.488 
L 193.3056 295.488 
L 196.8768 295.488 
L 200.448 295.488 
L 204.0192 295.488 
L 207.5904 295.488 
L 211.1616 295.488 
L 214.7328 295.488 
L 218.304 295.488 
L 221.8752 295.488 
L 225.4464 295.488 
L 229.0176 295.488 
L 232.5888 295.488 
L 236.16 295.488 
L 239.7312 295.488 
L 243.3024 295.488 
L 246.8736 295.488 
L 250.4448 295.488 
L 254.016 295.488 
L 257.5872 295.488 
L 261.1584 295.488 
L 264.7296 295.488 
L 268.3008 295.488 
L 271.872 295.488 
L 275.4432 295.488 
L 279.0144 295.488 
L 282.5856 295.488 
L 286.1568 295.488 
L 289.728 295.488 
L 293.2992 295.488 
L 296.8704 295.488 
L 300.4416 295.488 
L 304.0128 295.488 
L 307.584 295.488 
L 311.1552 295.488 
L 314.7264 295.488 
L 318.2976 295.488 
L 321.8688 295.488 
L 325.44 295.488 
L 329.0112 295.488 
L 332.5824 295.488 
L 336.1536 295.488 
L 339.7248 295.488 
L 343.296 295.488 
L 346.8672 295.488 
L 350.4384 295.488 
L 354.0096 295.488 
L 357.5808 295.488 
L 361.152 295.488 
L 364.7232 295.488 
L 368.2944 295.488 
L 371.8656 295.488 
L 375.4368 295.488 
L 379.008 295.488 
L 382.5792 295.488 
L 386.1504 295.488 
L 389.7216 295.488 
L 393.2928 295.488 
L 396.864 295.488 
L 400.4352 295.488 
L 404.0064 295.488 
L 407.5776 295.488 
L 411.1488 295.488 
" style="fill:none;stroke:#d62728;stroke-linecap:square;stroke-width:1.5;"/>
   </g>
   <g id="line2d_20">
    <path clip-path="url(#p39d0850379)" d="M 57.6 295.488 
L 61.1712 295.488 
L 64.7424 295.488 
L 68.3136 295.488 
L 71.8848 295.488 
L 75.456 295.488 
L 79.0272 295.488 
L 82.5984 295.488 
L 86.1696 295.488 
L 89.7408 295.488 
L 93.312 295.488 
L 96.8832 295.488 
L 100.4544 295.488 
L 104.0256 295.488 
L 107.5968 295.488 
L 111.168 295.488 
L 114.7392 295.488 
L 118.3104 295.488 
L 121.8816 295.488 
L 125.4528 295.488 
L 129.024 295.488 
L 132.5952 295.488 
L 136.1664 295.488 
L 139.7376 295.488 
L 143.3088 295.488 
L 146.88 295.488 
L 150.4512 295.488 
L 154.0224 295.488 
L 157.5936 295.488 
L 161.1648 295.488 
L 164.736 295.488 
L 168.3072 295.488 
L 171.8784 295.488 
L 175.4496 295.488 
L 179.0208 295.488 
L 182.592 295.488 
L 186.1632 295.488 
L 189.7344 295.488 
L 193.3056 295.488 
L 196.8768 295.488 
L 200.448 295.488 
L 204.0192 295.488 
L 207.5904 295.488 
L 211.1616 295.488 
L 214.7328 295.488 
L 218.304 295.488 
L 221.8752 295.488 
L 225.4464 295.488 
L 229.0176 295.488 
L 232.5888 295.488 
L 236.16 295.488 
L 239.7312 295.488 
L 243.3024 295.488 
L 246.8736 295.488 
L 250.4448 295.488 
L 254.016 295.488 
L 257.5872 295.488 
L 261.1584 295.488 
L 264.7296 295.488 
L 268.3008 295.488 
L 271.872 295.488 
L 275.4432 295.488 
L 279.0144 295.488 
L 282.5856 295.488 
L 286.1568 295.488 
L 289.728 295.488 
L 293.2992 295.488 
L 296.8704 295.488 
L 300.4416 295.488 
L 304.0128 295.488 
L 307.584 295.488 
L 311.1552 295.488 
L 314.7264 295.488 
L 318.2976 295.488 
L 321.8688 295.488 
L 325.44 295.488 
L 329.0112 295.488 
L 332.5824 295.488 
L 336.1536 295.488 
L 339.7248 295.488 
L 343.296 295.488 
L 346.8672 295.488 
L 350.4384 295.488 
L 354.0096 295.488 
L 357.5808 295.488 
L 361.152 295.488 
L 364.7232 295.488 
L 368.2944 295.488 
L 371.8656 295.488 
L 375.4368 295.488 
L 379.008 295.488 
L 382.5792 295.488 
L 386.1504 295.488 
L 389.7216 295.488 
L 393.2928 295.488 
L 396.864 295.488 
L 400.4352 295.488 
L 404.0064 295.488 
L 407.5776 295.488 
L 411.1488 295.488 
" style="fill:none;stroke:#800080;stroke-linecap:square;stroke-width:4;"/>
   </g>
   <g id="line2d_21">
    <path clip-path="url(#p39d0850379)" d="M 57.6 295.453466 
L 61.1712 295.311013 
L 64.7424 295.140501 
L 68.3136 294.905237 
L 71.8848 294.553421 
L 75.456 293.944757 
L 79.0272 292.999386 
L 82.5984 291.855444 
L 86.1696 290.236659 
L 89.7408 288.121445 
L 93.312 285.24864 
L 96.8832 280.987995 
L 100.4544 275.27476 
L 104.0256 267.84777 
L 107.5968 258.020661 
L 111.168 245.532267 
L 114.7392 231.405662 
L 118.3104 216.36822 
L 121.8816 201.222859 
L 125.4528 187.635849 
L 129.024 176.574145 
L 132.5952 167.657873 
L 136.1664 161.051068 
L 139.7376 155.862319 
L 143.3088 152.201705 
L 146.88 149.577113 
L 150.4512 147.656154 
L 154.0224 146.246731 
L 157.5936 145.174015 
L 161.1648 144.38189 
L 164.736 143.799127 
L 168.3072 143.196938 
L 171.8784 142.715619 
L 175.4496 142.229984 
L 179.0208 141.746506 
L 182.592 141.347206 
L 186.1632 140.94143 
L 189.7344 140.455794 
L 193.3056 140.11477 
L 196.8768 139.788854 
L 200.448 139.484523 
L 204.0192 139.216883 
L 207.5904 138.972986 
L 211.1616 138.737723 
L 214.7328 138.54131 
L 218.304 138.357848 
L 221.8752 138.202444 
L 225.4464 138.016823 
L 229.0176 137.902429 
L 232.5888 137.798827 
L 236.16 137.699541 
L 239.7312 137.608889 
L 243.3024 137.531188 
L 246.8736 137.440536 
L 250.4448 137.369309 
L 254.016 137.304558 
L 257.5872 137.229014 
L 261.1584 137.164263 
L 264.7296 137.105987 
L 268.3008 137.043393 
L 271.872 136.987276 
L 275.4432 136.94195 
L 279.0144 136.911732 
L 282.5856 136.859931 
L 286.1568 136.818922 
L 289.728 136.784388 
L 293.2992 136.762804 
L 296.8704 136.752012 
L 300.4416 136.732587 
L 304.0128 136.721795 
L 307.584 136.713161 
L 311.1552 136.704528 
L 314.7264 136.702369 
L 318.2976 136.691577 
L 321.8688 136.689419 
L 325.44 136.682944 
L 329.0112 136.678627 
L 332.5824 136.672152 
L 336.1536 136.667835 
L 339.7248 136.663518 
L 343.296 136.66136 
L 346.8672 136.659202 
L 350.4384 136.657043 
L 354.0096 136.652726 
L 357.5808 136.652726 
L 361.152 136.64841 
L 364.7232 136.646251 
L 368.2944 136.639776 
L 371.8656 136.637618 
L 375.4368 136.635459 
L 379.008 136.635459 
L 382.5792 136.635459 
L 386.1504 136.633301 
L 389.7216 136.633301 
L 393.2928 136.633301 
L 396.864 136.633301 
L 400.4352 136.633301 
L 404.0064 136.633301 
L 407.5776 136.633301 
L 411.1488 136.633301 
" style="fill:none;stroke:#9467bd;stroke-linecap:square;stroke-width:1.5;"/>
   </g>
   <g id="line2d_22">
    <path clip-path="url(#p39d0850379)" d="M 57.6 295.453466 
L 61.1712 295.311013 
L 64.7424 295.140501 
L 68.3136 294.905237 
L 71.8848 294.553421 
L 75.456 293.944757 
L 79.0272 292.999386 
L 82.5984 291.855444 
L 86.1696 290.236659 
L 89.7408 288.121445 
L 93.312 285.24864 
L 96.8832 280.987995 
L 100.4544 275.27476 
L 104.0256 267.84777 
L 107.5968 258.020661 
L 111.168 245.532267 
L 114.7392 231.405662 
L 118.3104 216.36822 
L 121.8816 201.222859 
L 125.4528 187.635849 
L 129.024 176.574145 
L 132.5952 167.657873 
L 136.1664 161.051068 
L 139.7376 155.862319 
L 143.3088 152.201705 
L 146.88 149.577113 
L 150.4512 147.656154 
L 154.0224 146.246731 
L 157.5936 145.174015 
L 161.1648 144.38189 
L 164.736 143.799127 
L 168.3072 143.196938 
L 171.8784 142.715619 
L 175.4496 142.229984 
L 179.0208 141.746506 
L 182.592 141.347206 
L 186.1632 140.94143 
L 189.7344 140.455794 
L 193.3056 140.11477 
L 196.8768 139.788854 
L 200.448 139.484523 
L 204.0192 139.216883 
L 207.5904 138.972986 
L 211.1616 138.737723 
L 214.7328 138.54131 
L 218.304 138.357848 
L 221.8752 138.202444 
L 225.4464 138.016823 
L 229.0176 137.902429 
L 232.5888 137.798827 
L 236.16 137.699541 
L 239.7312 137.608889 
L 243.3024 137.531188 
L 246.8736 137.440536 
L 250.4448 137.369309 
L 254.016 137.304558 
L 257.5872 137.229014 
L 261.1584 137.164263 
L 264.7296 137.105987 
L 268.3008 137.043393 
L 271.872 136.987276 
L 275.4432 136.94195 
L 279.0144 136.911732 
L 282.5856 136.859931 
L 286.1568 136.818922 
L 289.728 136.784388 
L 293.2992 136.762804 
L 296.8704 136.752012 
L 300.4416 136.732587 
L 304.0128 136.721795 
L 307.584 136.713161 
L 311.1552 136.704528 
L 314.7264 136.702369 
L 318.2976 136.691577 
L 321.8688 136.689419 
L 325.44 136.682944 
L 329.0112 136.678627 
L 332.5824 136.672152 
L 336.1536 136.667835 
L 339.7248 136.663518 
L 343.296 136.66136 
L 346.8672 136.659202 
L 350.4384 136.657043 
L 354.0096 136.652726 
L 357.5808 136.652726 
L 361.152 136.64841 
L 364.7232 136.646251 
L 368.2944 136.639776 
L 371.8656 136.637618 
L 375.4368 136.635459 
L 379.008 136.635459 
L 382.5792 136.635459 
L 386.1504 136.633301 
L 389.7216 136.633301 
L 393.2928 136.633301 
L 396.864 136.633301 
L 400.4352 136.633301 
L 404.0064 136.633301 
L 407.5776 136.633301 
L 411.1488 136.633301 
" style="fill:none;stroke:#ff0000;stroke-dasharray:32,8,5,8;stroke-dashoffset:0;stroke-width:5;"/>
   </g>
   <g id="line2d_23">
    <path clip-path="url(#p39d0850379)" d="M 57.6 295.488 
L 61.1712 295.488 
L 64.7424 295.488 
L 68.3136 295.488 
L 71.8848 295.488 
L 75.456 295.488 
L 79.0272 295.488 
L 82.5984 295.488 
L 86.1696 295.488 
L 89.7408 295.488 
L 93.312 295.488 
L 96.8832 295.488 
L 100.4544 295.488 
L 104.0256 295.488 
L 107.5968 295.488 
L 111.168 295.483683 
L 114.7392 295.47505 
L 118.3104 295.446991 
L 121.8816 295.375764 
L 125.4528 295.270003 
L 129.024 295.082224 
L 132.5952 294.827535 
L 136.1664 294.43471 
L 139.7376 293.795829 
L 143.3088 292.887151 
L 146.88 291.732417 
L 150.4512 290.107156 
L 154.0224 287.88834 
L 157.5936 284.760845 
L 161.1648 280.580061 
L 164.736 274.927261 
L 168.3072 267.59524 
L 171.8784 258.290458 
L 175.4496 247.217963 
L 179.0208 234.815904 
L 182.592 221.651937 
L 186.1632 208.800935 
L 189.7344 196.977323 
L 193.3056 186.584717 
L 196.8768 178.138972 
L 200.448 171.327121 
L 204.0192 165.98081 
L 207.5904 161.843194 
L 211.1616 158.782609 
L 214.7328 156.524942 
L 218.304 154.858672 
L 221.8752 153.593861 
L 225.4464 152.629064 
L 229.0176 151.856364 
L 232.5888 151.217483 
L 236.16 150.664937 
L 239.7312 150.157718 
L 243.3024 149.695824 
L 246.8736 149.266306 
L 250.4448 148.867006 
L 254.016 148.476339 
L 257.5872 148.130998 
L 261.1584 147.809399 
L 264.7296 147.489959 
L 268.3008 147.226636 
L 271.872 146.982739 
L 275.4432 146.751792 
L 279.0144 146.555379 
L 282.5856 146.393501 
L 286.1568 146.231622 
L 289.728 146.078377 
L 293.2992 145.951033 
L 296.8704 145.83448 
L 300.4416 145.724403 
L 304.0128 145.627276 
L 307.584 145.547415 
L 311.1552 145.476189 
L 314.7264 145.402804 
L 318.2976 145.325102 
L 321.8688 145.240925 
L 325.44 145.186966 
L 329.0112 145.128689 
L 332.5824 145.070413 
L 336.1536 145.033721 
L 339.7248 144.99487 
L 343.296 144.943069 
L 346.8672 144.904218 
L 350.4384 144.863209 
L 354.0096 144.83515 
L 357.5808 144.815724 
L 361.152 144.796299 
L 364.7232 144.785507 
L 368.2944 144.770398 
L 371.8656 144.759606 
L 375.4368 144.753131 
L 379.008 144.748814 
L 382.5792 144.740181 
L 386.1504 144.735864 
L 389.7216 144.729389 
L 393.2928 144.725072 
L 396.864 144.720755 
L 400.4352 144.718597 
L 404.0064 144.712122 
L 407.5776 144.707805 
L 411.1488 144.703488 
" style="fill:none;stroke:#8c564b;stroke-linecap:square;stroke-width:1.5;"/>
   </g>
   <g id="line2d_24">
    <path clip-path="url(#p39d0850379)" d="M 57.6 295.488 
L 61.1712 295.488 
L 64.7424 295.488 
L 68.3136 295.488 
L 71.8848 295.488 
L 75.456 295.488 
L 79.0272 295.488 
L 82.5984 295.488 
L 86.1696 295.488 
L 89.7408 295.488 
L 93.312 295.488 
L 96.8832 295.488 
L 100.4544 295.488 
L 104.0256 295.488 
L 107.5968 295.488 
L 111.168 295.483683 
L 114.7392 295.47505 
L 118.3104 295.446991 
L 121.8816 295.375764 
L 125.4528 295.270003 
L 129.024 295.082224 
L 132.5952 294.827535 
L 136.1664 294.43471 
L 139.7376 293.795829 
L 143.3088 292.887151 
L 146.88 291.732417 
L 150.4512 290.107156 
L 154.0224 287.88834 
L 157.5936 284.760845 
L 161.1648 280.580061 
L 164.736 274.927261 
L 168.3072 267.59524 
L 171.8784 258.290458 
L 175.4496 247.217963 
L 179.0208 234.815904 
L 182.592 221.651937 
L 186.1632 208.800935 
L 189.7344 196.977323 
L 193.3056 186.584717 
L 196.8768 178.138972 
L 200.448 171.327121 
L 204.0192 165.98081 
L 207.5904 161.843194 
L 211.1616 158.782609 
L 214.7328 156.524942 
L 218.304 154.858672 
L 221.8752 153.593861 
L 225.4464 152.629064 
L 229.0176 151.856364 
L 232.5888 151.217483 
L 236.16 150.664937 
L 239.7312 150.157718 
L 243.3024 149.695824 
L 246.8736 149.266306 
L 250.4448 148.867006 
L 254.016 148.476339 
L 257.5872 148.130998 
L 261.1584 147.809399 
L 264.7296 147.489959 
L 268.3008 147.226636 
L 271.872 146.982739 
L 275.4432 146.751792 
L 279.0144 146.555379 
L 282.5856 146.393501 
L 286.1568 146.231622 
L 289.728 146.078377 
L 293.2992 145.951033 
L 296.8704 145.83448 
L 300.4416 145.724403 
L 304.0128 145.627276 
L 307.584 145.547415 
L 311.1552 145.476189 
L 314.7264 145.402804 
L 318.2976 145.325102 
L 321.8688 145.240925 
L 325.44 145.186966 
L 329.0112 145.128689 
L 332.5824 145.070413 
L 336.1536 145.033721 
L 339.7248 144.99487 
L 343.296 144.943069 
L 346.8672 144.904218 
L 350.4384 144.863209 
L 354.0096 144.83515 
L 357.5808 144.815724 
L 361.152 144.796299 
L 364.7232 144.785507 
L 368.2944 144.770398 
L 371.8656 144.759606 
L 375.4368 144.753131 
L 379.008 144.748814 
L 382.5792 144.740181 
L 386.1504 144.735864 
L 389.7216 144.729389 
L 393.2928 144.725072 
L 396.864 144.720755 
L 400.4352 144.718597 
L 404.0064 144.712122 
L 407.5776 144.707805 
L 411.1488 144.703488 
" style="fill:none;stroke:#008000;stroke-linecap:square;stroke-width:4;"/>
   </g>
   <g id="line2d_25">
    <path clip-path="url(#p39d0850379)" d="M 57.6 295.488 
L 61.1712 295.488 
L 64.7424 295.488 
L 68.3136 295.488 
L 71.8848 295.488 
L 75.456 295.488 
L 79.0272 295.488 
L 82.5984 295.488 
L 86.1696 295.488 
L 89.7408 295.488 
L 93.312 295.488 
L 96.8832 295.488 
L 100.4544 295.488 
L 104.0256 295.488 
L 107.5968 295.488 
L 111.168 295.488 
L 114.7392 295.488 
L 118.3104 295.488 
L 121.8816 295.485842 
L 125.4528 295.472891 
L 129.024 295.470733 
L 132.5952 295.459941 
L 136.1664 295.429724 
L 139.7376 295.386556 
L 143.3088 295.343388 
L 146.88 295.27432 
L 150.4512 295.192302 
L 154.0224 295.090858 
L 157.5936 294.920346 
L 161.1648 294.726091 
L 164.736 294.400176 
L 168.3072 293.979292 
L 171.8784 293.452647 
L 175.4496 292.908734 
L 179.0208 292.246111 
L 182.592 291.557588 
L 186.1632 290.884173 
L 189.7344 290.245292 
L 193.3056 289.751023 
L 196.8768 289.233011 
L 200.448 288.805652 
L 204.0192 288.484053 
L 207.5904 288.27469 
L 211.1616 288.136554 
L 214.7328 288.026476 
L 218.304 287.916399 
L 221.8752 287.847331 
L 225.4464 287.795529 
L 229.0176 287.763154 
L 232.5888 287.737253 
L 236.16 287.707036 
L 239.7312 287.694085 
L 243.3024 287.657393 
L 246.8736 287.629334 
L 250.4448 287.612067 
L 254.016 287.5948 
L 257.5872 287.586166 
L 261.1584 287.562424 
L 264.7296 287.549474 
L 268.3008 287.547316 
L 271.872 287.538682 
L 275.4432 287.534365 
L 279.0144 287.51494 
L 282.5856 287.510623 
L 286.1568 287.50199 
L 289.728 287.495514 
L 293.2992 287.493356 
L 296.8704 287.482564 
L 300.4416 287.482564 
L 304.0128 287.478247 
L 307.584 287.473931 
L 311.1552 287.473931 
L 314.7264 287.473931 
L 318.2976 287.469614 
L 321.8688 287.469614 
L 325.44 287.465297 
L 329.0112 287.465297 
L 332.5824 287.46098 
L 336.1536 287.456664 
L 339.7248 287.454505 
L 343.296 287.454505 
L 346.8672 287.445872 
L 350.4384 287.443713 
L 354.0096 287.443713 
L 357.5808 287.443713 
L 361.152 287.443713 
L 364.7232 287.441555 
L 368.2944 287.441555 
L 371.8656 287.441555 
L 375.4368 287.441555 
L 379.008 287.441555 
L 382.5792 287.441555 
L 386.1504 287.441555 
L 389.7216 287.441555 
L 393.2928 287.441555 
L 396.864 287.441555 
L 400.4352 287.441555 
L 404.0064 287.441555 
L 407.5776 287.441555 
L 411.1488 287.441555 
" style="fill:none;stroke:#e377c2;stroke-linecap:square;stroke-width:1.5;"/>
   </g>
   <g id="line2d_26">
    <path clip-path="url(#p39d0850379)" d="M 57.6 295.488 
L 61.1712 295.488 
L 64.7424 295.488 
L 68.3136 295.488 
L 71.8848 295.488 
L 75.456 295.488 
L 79.0272 295.488 
L 82.5984 295.488 
L 86.1696 295.488 
L 89.7408 295.488 
L 93.312 295.488 
L 96.8832 295.488 
L 100.4544 295.488 
L 104.0256 295.488 
L 107.5968 295.488 
L 111.168 295.488 
L 114.7392 295.488 
L 118.3104 295.488 
L 121.8816 295.485842 
L 125.4528 295.472891 
L 129.024 295.470733 
L 132.5952 295.459941 
L 136.1664 295.429724 
L 139.7376 295.386556 
L 143.3088 295.343388 
L 146.88 295.27432 
L 150.4512 295.192302 
L 154.0224 295.090858 
L 157.5936 294.920346 
L 161.1648 294.726091 
L 164.736 294.400176 
L 168.3072 293.979292 
L 171.8784 293.452647 
L 175.4496 292.908734 
L 179.0208 292.246111 
L 182.592 291.557588 
L 186.1632 290.884173 
L 189.7344 290.245292 
L 193.3056 289.751023 
L 196.8768 289.233011 
L 200.448 288.805652 
L 204.0192 288.484053 
L 207.5904 288.27469 
L 211.1616 288.136554 
L 214.7328 288.026476 
L 218.304 287.916399 
L 221.8752 287.847331 
L 225.4464 287.795529 
L 229.0176 287.763154 
L 232.5888 287.737253 
L 236.16 287.707036 
L 239.7312 287.694085 
L 243.3024 287.657393 
L 246.8736 287.629334 
L 250.4448 287.612067 
L 254.016 287.5948 
L 257.5872 287.586166 
L 261.1584 287.562424 
L 264.7296 287.549474 
L 268.3008 287.547316 
L 271.872 287.538682 
L 275.4432 287.534365 
L 279.0144 287.51494 
L 282.5856 287.510623 
L 286.1568 287.50199 
L 289.728 287.495514 
L 293.2992 287.493356 
L 296.8704 287.482564 
L 300.4416 287.482564 
L 304.0128 287.478247 
L 307.584 287.473931 
L 311.1552 287.473931 
L 314.7264 287.473931 
L 318.2976 287.469614 
L 321.8688 287.469614 
L 325.44 287.465297 
L 329.0112 287.465297 
L 332.5824 287.46098 
L 336.1536 287.456664 
L 339.7248 287.454505 
L 343.296 287.454505 
L 346.8672 287.445872 
L 350.4384 287.443713 
L 354.0096 287.443713 
L 357.5808 287.443713 
L 361.152 287.443713 
L 364.7232 287.441555 
L 368.2944 287.441555 
L 371.8656 287.441555 
L 375.4368 287.441555 
L 379.008 287.441555 
L 382.5792 287.441555 
L 386.1504 287.441555 
L 389.7216 287.441555 
L 393.2928 287.441555 
L 396.864 287.441555 
L 400.4352 287.441555 
L 404.0064 287.441555 
L 407.5776 287.441555 
L 411.1488 287.441555 
" style="fill:none;stroke:#808080;stroke-linecap:square;stroke-width:4;"/>
   </g>
   <g id="patch_3">
    <path d="M 57.6 307.584 
L 57.6 41.472 
" style="fill:none;stroke:#000000;stroke-linecap:square;stroke-linejoin:miter;stroke-width:0.8;"/>
   </g>
   <g id="patch_4">
    <path d="M 414.72 307.584 
L 414.72 41.472 
" style="fill:none;stroke:#000000;stroke-linecap:square;stroke-linejoin:miter;stroke-width:0.8;"/>
   </g>
   <g id="patch_5">
    <path d="M 57.6 307.584 
L 414.72 307.584 
" style="fill:none;stroke:#000000;stroke-linecap:square;stroke-linejoin:miter;stroke-width:0.8;"/>
   </g>
   <g id="patch_6">
    <path d="M 57.6 41.472 
L 414.72 41.472 
" style="fill:none;stroke:#000000;stroke-linecap:square;stroke-linejoin:miter;stroke-width:0.8;"/>
   </g>
   <g id="text_15">
    <!-- 模型运行1次的感染情况 -->
    <g transform="translate(172.641562 35.472)scale(0.12 -0.12)">
     <defs>
      <path d="M 32.03125 15.375 
L 60.296875 15.375 
Q 60.9375 18.953125 61.140625 24.171875 
L 46.09375 24.171875 
L 46.09375 21.4375 
L 39.0625 21.4375 
L 39.0625 56.78125 
L 91.3125 56.78125 
L 91.3125 21.4375 
L 84.28125 21.4375 
L 84.28125 24.171875 
L 67.875 24.171875 
Q 67.578125 18.796875 67 15.375 
L 97.65625 15.375 
L 97.65625 9.125 
L 70.703125 9.125 
Q 81.296875 -2.734375 98.734375 -5.328125 
Q 96 -8.9375 93.953125 -12.640625 
Q 75.046875 -7.125 64.5 7.28125 
Q 57.515625 -6.734375 32.421875 -13.234375 
Q 30.765625 -9.8125 28.609375 -6.5 
Q 51.609375 -1.65625 58.015625 9.125 
L 32.03125 9.125 
z
M 0.984375 22.015625 
Q 9.421875 36.1875 14.40625 54.828125 
L 2.15625 54.828125 
L 2.15625 61.28125 
L 15.71875 61.28125 
L 15.71875 82.953125 
L 22.5625 82.953125 
L 22.5625 61.28125 
L 35.25 61.28125 
L 35.25 54.828125 
L 22.5625 54.828125 
L 22.5625 41.9375 
L 26.375 45.0625 
Q 31.9375 39.109375 36.71875 33.0625 
L 31.34375 28.5625 
Q 26.859375 35.0625 22.5625 40.046875 
L 22.5625 -12.84375 
L 15.71875 -12.84375 
L 15.71875 40.328125 
Q 10.5 22.46875 4.296875 13.421875 
Q 2.9375 17.625 0.984375 22.015625 
z
M 73.640625 82.859375 
L 80.46875 82.859375 
L 80.46875 73.484375 
L 97.265625 73.484375 
L 97.265625 67.234375 
L 80.46875 67.234375 
L 80.46875 59.328125 
L 73.640625 59.328125 
L 73.640625 67.234375 
L 56.25 67.234375 
L 56.25 59.328125 
L 49.421875 59.328125 
L 49.421875 67.234375 
L 33.984375 67.234375 
L 33.984375 73.484375 
L 49.421875 73.484375 
L 49.421875 82.953125 
L 56.25 82.953125 
L 56.25 73.484375 
L 73.640625 73.484375 
z
M 84.28125 50.734375 
L 46.09375 50.734375 
L 46.09375 43.40625 
L 84.28125 43.40625 
z
M 46.09375 30.21875 
L 84.28125 30.21875 
L 84.28125 37.546875 
L 46.09375 37.546875 
z
" id="MicrosoftYaHei-27169"/>
      <path d="M 2.34375 54.734375 
L 17.1875 54.734375 
Q 17.28125 56.84375 17.28125 71.046875 
L 6.453125 71.046875 
L 6.453125 77.484375 
L 57.421875 77.484375 
L 57.421875 71.046875 
L 46.78125 71.046875 
L 46.78125 54.734375 
L 60.640625 54.734375 
L 60.640625 48.296875 
L 46.78125 48.296875 
L 46.78125 27.296875 
L 39.65625 27.296875 
L 39.65625 48.296875 
L 23.875 48.296875 
Q 22.65625 34.234375 9.96875 23.96875 
Q 7.421875 26.8125 4.59375 29.640625 
Q 15.828125 38.328125 16.65625 48.296875 
L 2.34375 48.296875 
z
M 2.15625 -1.609375 
L 45.90625 -1.609375 
L 45.90625 11.578125 
L 11.03125 11.578125 
L 11.03125 18.3125 
L 45.90625 18.3125 
L 45.90625 25.921875 
L 53.515625 25.921875 
L 53.515625 18.3125 
L 89.265625 18.3125 
L 89.265625 11.578125 
L 53.515625 11.578125 
L 53.515625 -1.609375 
L 97.75 -1.609375 
L 97.75 -8.34375 
L 2.15625 -8.34375 
z
M 91.5 81.390625 
L 91.5 36.46875 
Q 91.5 26.125 81.25 25.921875 
Q 75.390625 25.734375 67.671875 25.921875 
Q 67.28125 29.640625 66.5 33.640625 
Q 74.703125 33.15625 78.8125 33.15625 
Q 84.375 33.15625 84.375 39.3125 
L 84.375 81.390625 
z
M 24.3125 54.734375 
L 39.65625 54.734375 
L 39.65625 71.046875 
L 24.421875 71.046875 
Q 24.421875 59.234375 24.3125 54.734375 
z
M 64.65625 75.921875 
L 71.6875 75.921875 
L 71.6875 42.140625 
L 64.65625 42.140625 
z
" id="MicrosoftYaHei-22411"/>
      <path d="M 67.484375 34.328125 
L 73.640625 38.234375 
Q 84.671875 23.78125 93.171875 10.40625 
L 86.140625 5.609375 
Q 83.9375 9.328125 81.640625 13.03125 
Q 53.90625 11.28125 41.890625 9.71875 
Q 38.578125 9.234375 34.96875 8.0625 
L 31.34375 15.09375 
Q 35.15625 17.71875 37.703125 21.34375 
Q 44.34375 31.390625 50.78125 44.671875 
L 29.984375 44.671875 
L 29.984375 52.09375 
L 96.875 52.09375 
L 96.875 44.671875 
L 60.0625 44.671875 
Q 51.609375 29.15625 43.75 17.4375 
Q 58.59375 18.3125 77.484375 19.578125 
Q 72.65625 27.046875 67.484375 34.328125 
z
M 43.0625 -2.203125 
L 71.6875 -2.78125 
L 98.640625 -1.703125 
Q 96.96875 -5.71875 95.515625 -9.515625 
L 66.40625 -9.71875 
L 41.40625 -9.421875 
Q 25.875 -9.03125 18.0625 1.90625 
Q 12.015625 -3.265625 5.765625 -10.890625 
L 1.5625 -2.59375 
Q 1.8125 -2.296875 14.546875 8.546875 
L 14.546875 41.84375 
L 2.046875 41.84375 
L 2.046875 49.078125 
L 22.359375 49.078125 
L 22.359375 7.171875 
Q 29.734375 -1.953125 43.0625 -2.203125 
z
M 36.53125 77.296875 
L 91.21875 77.296875 
L 91.21875 69.875 
L 36.53125 69.875 
z
M 12.40625 82.46875 
Q 19.921875 73.390625 27.25 63.71875 
L 20.3125 59.03125 
Q 13.765625 68.796875 6.453125 78.171875 
z
" id="MicrosoftYaHei-36816"/>
      <path d="M 36.921875 46.53125 
L 98.734375 46.53125 
L 98.734375 39.203125 
L 79.78125 39.203125 
L 79.78125 1.03125 
Q 79.78125 -11.078125 67.578125 -11.078125 
Q 59.375 -11.078125 50.875 -10.984375 
Q 50.296875 -7.078125 49.421875 -2.203125 
Q 57.03125 -2.984375 64.75 -2.984375 
Q 71.484375 -2.984375 71.484375 3.65625 
L 71.484375 39.203125 
L 36.921875 39.203125 
z
M 1.5625 24.65625 
Q 16.703125 37.0625 29.109375 59.515625 
L 35.9375 55.328125 
Q 30.90625 46.625 25.296875 39.0625 
L 25.296875 -12.640625 
L 17.1875 -12.640625 
L 17.1875 29 
Q 11.328125 22.359375 4.984375 16.75 
Q 3.421875 20.84375 1.5625 24.65625 
z
M 42.578125 76.03125 
L 93.265625 76.03125 
L 93.265625 68.703125 
L 42.578125 68.703125 
z
M 2.046875 55.609375 
Q 17.578125 67.625 27.046875 83.546875 
L 34.078125 79.25 
Q 22.75 61.859375 5.953125 48.09375 
Q 4.203125 51.8125 2.046875 55.609375 
z
" id="MicrosoftYaHei-34892"/>
      <path d="M 64.359375 54.25 
Q 64.265625 49.359375 63.921875 44.625 
Q 70.453125 11.375 98.734375 -4.4375 
Q 94.734375 -8.734375 92.390625 -12.0625 
Q 67.875 5.171875 60.9375 30.375 
Q 54.546875 3.125 25.78125 -13.53125 
Q 23.828125 -10.5 20.40625 -6.59375 
Q 50.390625 9.234375 55.078125 37.9375 
Q 56.453125 44.96875 56.546875 54.25 
z
M 77.25 41.359375 
Q 81.640625 49.46875 85.15625 58.84375 
L 46.734375 58.84375 
Q 42.484375 49.125 37.3125 40.1875 
Q 33.796875 42.71875 30.28125 44.390625 
Q 41.703125 63.03125 46.875 82.953125 
L 54.78125 80.71875 
Q 52.4375 73.046875 49.609375 65.765625 
L 93.5625 65.765625 
L 93.5625 58.84375 
Q 89.546875 48 84.765625 38.53125 
Q 81.453125 40.1875 77.25 41.359375 
z
M 21.6875 40.96875 
Q 26.171875 37.546875 29.296875 35.6875 
Q 16.796875 13.421875 8.984375 -2.78125 
L 1.078125 2.390625 
Q 11.140625 17.625 21.6875 40.96875 
z
M 10.0625 76.8125 
Q 17.96875 68.890625 27.828125 57.375 
L 21.484375 51.515625 
Q 12.015625 64.015625 4.390625 71.734375 
z
" id="MicrosoftYaHei-27425"/>
      <path d="M 5.5625 66.9375 
L 15.4375 66.9375 
Q 19.046875 75.828125 21.390625 83.15625 
L 29.59375 80.8125 
Q 26.515625 73.34375 23.640625 66.9375 
L 43.171875 66.9375 
L 43.171875 -10.796875 
L 35.359375 -10.796875 
L 35.359375 -3.171875 
L 13.375 -3.171875 
L 13.375 -11.46875 
L 5.5625 -11.46875 
z
M 44.625 46.921875 
Q 53.8125 61.46875 60.15625 83.15625 
L 68.359375 81.109375 
Q 65.875 73.734375 63.28125 67.234375 
L 94.734375 67.234375 
Q 93.5625 17.046875 92.78125 4.046875 
Q 92.09375 -11.28125 76.65625 -11.28125 
Q 67.78125 -11.28125 58.59375 -10.6875 
Q 58.015625 -5.8125 57.03125 -2 
L 57.328125 -2 
Q 67.09375 -3.375 75.203125 -3.375 
Q 84.078125 -3.375 84.765625 6 
Q 85.84375 20.5625 86.328125 59.90625 
L 60.15625 59.90625 
Q 55.90625 50.484375 51.375 43.3125 
Q 48.734375 45.171875 44.625 46.921875 
z
M 13.375 4.15625 
L 35.359375 4.15625 
L 35.359375 28.859375 
L 13.375 28.859375 
z
M 35.359375 59.625 
L 13.375 59.625 
L 13.375 35.890625 
L 35.359375 35.890625 
z
M 53.21875 40.28125 
L 59.1875 44.671875 
Q 70.015625 31.890625 76.46875 22.515625 
L 69.234375 17.4375 
Q 62.3125 28.765625 53.21875 40.28125 
z
" id="MicrosoftYaHei-30340"/>
     </defs>
     <use xlink:href="#MicrosoftYaHei-27169"/>
     <use x="100" xlink:href="#MicrosoftYaHei-22411"/>
     <use x="200" xlink:href="#MicrosoftYaHei-36816"/>
     <use x="300" xlink:href="#MicrosoftYaHei-34892"/>
     <use x="400" xlink:href="#MicrosoftYaHei-49"/>
     <use x="458.642578" xlink:href="#MicrosoftYaHei-27425"/>
     <use x="558.642578" xlink:href="#MicrosoftYaHei-30340"/>
     <use x="658.642578" xlink:href="#MicrosoftYaHei-24863"/>
     <use x="758.642578" xlink:href="#MicrosoftYaHei-26579"/>
     <use x="858.642578" xlink:href="#MicrosoftYaHei-24773"/>
     <use x="958.642578" xlink:href="#MicrosoftYaHei-20917"/>
    </g>
   </g>
   <g id="legend_1">
    <g id="patch_7">
     <path d="M 64.6 157.829813 
L 156.6 157.829813 
Q 158.6 157.829813 158.6 155.829813 
L 158.6 48.472 
Q 158.6 46.472 156.6 46.472 
L 64.6 46.472 
Q 62.6 46.472 62.6 48.472 
L 62.6 155.829813 
Q 62.6 157.829813 64.6 157.829813 
z
" style="fill:#ffffff;opacity:0.8;stroke:#cccccc;stroke-linejoin:miter;"/>
    </g>
    <g id="line2d_27">
     <path d="M 66.6 54.96575 
L 86.6 54.96575 
" style="fill:none;stroke:#000000;stroke-linecap:square;stroke-width:4;"/>
    </g>
    <g id="line2d_28"/>
    <g id="text_16">
     <!-- 易感人数 -->
     <g transform="translate(94.6 58.46575)scale(0.1 -0.1)">
      <defs>
       <path d="M 14.359375 78.46875 
L 86.234375 78.46875 
L 86.234375 37.84375 
L 78.609375 37.84375 
L 78.609375 41.75 
L 14.359375 41.75 
z
M 1.765625 17.046875 
Q 17.390625 25.53125 28.21875 40.09375 
L 35.15625 37.453125 
Q 33.203125 34.8125 31.25 32.375 
L 91.890625 32.375 
Q 91.015625 13.921875 90.046875 3.859375 
Q 88.765625 -11.859375 74.21875 -11.96875 
Q 66.109375 -12.0625 57.328125 -11.96875 
Q 56.734375 -7.765625 55.859375 -3.65625 
Q 64.359375 -4.4375 72.265625 -4.4375 
Q 81.453125 -4.4375 82.421875 4.734375 
Q 83.5 13.53125 83.890625 25.53125 
L 68.84375 25.53125 
Q 62.890625 -0.140625 34.1875 -13.921875 
Q 31.640625 -10.6875 28.71875 -7.28125 
Q 56.0625 3.953125 61.234375 25.53125 
L 46.390625 25.53125 
Q 39.265625 4.734375 8.6875 -7.078125 
Q 6.15625 -3.859375 3.21875 -0.53125 
Q 32.03125 10.203125 38.28125 25.53125 
L 25.09375 25.53125 
Q 16.796875 17.140625 6.640625 10.796875 
Q 4.59375 13.71875 1.765625 17.046875 
z
M 21.96875 48.578125 
L 78.609375 48.578125 
L 78.609375 56.78125 
L 21.96875 56.78125 
z
M 78.609375 71.625 
L 21.96875 71.625 
L 21.96875 63.625 
L 78.609375 63.625 
z
" id="MicrosoftYaHei-26131"/>
       <path d="M 1.5625 -4.734375 
Q 44.140625 19.875 46.578125 81.59375 
L 55.171875 81.59375 
Q 54.640625 71.140625 53.125 61.671875 
Q 65.234375 12.84375 98.640625 -2.59375 
Q 94.53125 -7.078125 91.40625 -11.078125 
Q 62.40625 5.328125 50.046875 46.96875 
Q 39.359375 6.734375 7.71875 -12.15625 
Q 5.078125 -8.546875 1.5625 -4.734375 
z
" id="MicrosoftYaHei-20154"/>
       <path d="M 65.234375 82.859375 
L 73.046875 81.6875 
Q 71 72.21875 68.265625 64.015625 
L 98.140625 64.015625 
L 98.140625 57.375 
L 92 57.375 
Q 89.546875 28.65625 79.5 11.765625 
Q 87.40625 1.03125 99.609375 -5.8125 
Q 96.484375 -10.109375 94.34375 -13.53125 
Q 82.421875 -5.8125 74.515625 4.828125 
Q 65.53125 -6.296875 53.125 -14.5 
Q 50.984375 -11.671875 47.5625 -8.34375 
Q 61.234375 0.640625 69.734375 12.0625 
Q 61.8125 25.734375 59.28125 43.609375 
Q 57.234375 39.984375 54.984375 36.859375 
Q 53.03125 39.703125 50.09375 43.109375 
Q 61.421875 59.421875 65.234375 82.859375 
z
M 2.34375 26.515625 
L 17.1875 26.515625 
Q 19.34375 30.21875 21.390625 34.125 
L 28.421875 31.890625 
Q 26.859375 29.15625 25.296875 26.515625 
L 49.21875 26.515625 
L 49.21875 20.171875 
Q 45.515625 10.59375 37.984375 3.375 
Q 43.359375 0.828125 48.921875 -1.703125 
L 44.625 -8.453125 
Q 38.578125 -5.03125 32.03125 -1.609375 
Q 21 -9.515625 4.203125 -14.109375 
Q 2.640625 -10.984375 0.875 -7.28125 
Q 15.140625 -4.046875 25 2 
Q 16.609375 6.296875 7.421875 10.796875 
Q 10.546875 15.28125 13.484375 20.0625 
L 2.34375 20.0625 
z
M 3.421875 60.109375 
L 25.875 60.109375 
L 25.875 81.984375 
L 33.109375 81.984375 
L 33.109375 60.109375 
L 51.859375 60.109375 
L 51.859375 53.65625 
L 33.109375 53.65625 
L 33.109375 47.703125 
L 36.03125 51.03125 
Q 45.125 44.390625 51.265625 39.3125 
L 46.578125 33.84375 
Q 41.21875 38.921875 33.109375 45.265625 
L 33.109375 34.125 
L 25.875 34.125 
L 25.875 47.796875 
Q 17 38.53125 5.171875 31.5 
Q 3.328125 34.328125 0.984375 37.453125 
Q 13.28125 44.09375 23.53125 53.65625 
L 3.421875 53.65625 
z
M 84.1875 57.375 
L 65.921875 57.375 
Q 65.4375 56.109375 64.84375 54.9375 
Q 66.609375 34.234375 74.609375 19.484375 
Q 82.421875 33.734375 84.1875 57.375 
z
M 17 13.03125 
Q 23.921875 9.90625 31.25 6.5 
Q 37.984375 12.25 41.796875 20.0625 
L 21.484375 20.0625 
Q 19.234375 16.453125 17 13.03125 
z
M 47.46875 79.546875 
L 53.515625 75.53125 
Q 48.140625 68.5 42.78125 62.546875 
Q 40.53125 64.5 37.5 66.65625 
Q 42.578125 72.609375 47.46875 79.546875 
z
M 5.953125 75.25 
L 11.53125 79.046875 
Q 15.921875 73.6875 20.609375 67.53125 
L 14.546875 63.234375 
Q 10.25 69.578125 5.953125 75.25 
z
" id="MicrosoftYaHei-25968"/>
      </defs>
      <use xlink:href="#MicrosoftYaHei-26131"/>
      <use x="100" xlink:href="#MicrosoftYaHei-24863"/>
      <use x="200" xlink:href="#MicrosoftYaHei-20154"/>
      <use x="300" xlink:href="#MicrosoftYaHei-25968"/>
     </g>
    </g>
    <g id="line2d_29">
     <path d="M 66.6 70.445438 
L 86.6 70.445438 
" style="fill:none;stroke:#0000ff;stroke-linecap:square;stroke-width:4;"/>
    </g>
    <g id="line2d_30"/>
    <g id="text_17">
     <!-- 潜伏患者人数 -->
     <g transform="translate(94.6 73.945438)scale(0.1 -0.1)">
      <defs>
       <path d="M 33.5 30.609375 
L 86.71875 30.609375 
L 86.71875 -12.75 
L 79.890625 -12.75 
L 79.890625 -7.5625 
L 40.328125 -7.5625 
L 40.328125 -12.9375 
L 33.5 -12.9375 
z
M 61.140625 57.765625 
L 72.65625 57.765625 
Q 73.296875 61.53125 73.390625 66.359375 
L 61.921875 66.359375 
L 61.921875 72.40625 
L 73.4375 72.40625 
L 73.4375 82.859375 
L 79.890625 82.859375 
L 79.890625 72.40625 
L 94.34375 72.40625 
L 94.34375 66.359375 
L 79.828125 66.359375 
Q 79.6875 61.765625 79.15625 57.765625 
L 96.09375 57.765625 
L 96.09375 51.703125 
L 82.859375 51.703125 
Q 87.984375 41.0625 98.921875 36.28125 
Q 96.875 33.84375 94.34375 30.03125 
Q 81 37.984375 77.6875 50.6875 
Q 74.078125 39.3125 61.234375 31.78125 
Q 59.46875 34.421875 56.84375 37.453125 
Q 67.578125 43.015625 71.140625 51.703125 
L 61.140625 51.703125 
z
M 25.390625 57.765625 
L 39.109375 57.765625 
Q 39.65625 61.578125 39.75 66.359375 
L 27.046875 66.359375 
L 27.046875 72.40625 
L 39.75 72.40625 
L 39.75 82.859375 
L 46.1875 82.859375 
L 46.1875 72.40625 
L 57.71875 72.40625 
L 57.71875 66.359375 
L 46.1875 66.359375 
Q 46.09375 61.671875 45.609375 57.765625 
L 58.296875 57.765625 
L 58.296875 51.703125 
L 44.53125 51.703125 
Q 44.28125 50.59375 44 49.609375 
Q 49.703125 45.609375 56.640625 39.703125 
L 52.046875 34.515625 
Q 47.171875 39.5 41.546875 44.046875 
Q 37.15625 36.328125 25.484375 29.046875 
Q 24.03125 31.203125 20.703125 34.90625 
Q 34.578125 41.65625 37.75 51.703125 
L 25.390625 51.703125 
z
M 40.328125 -1.125 
L 79.890625 -1.125 
L 79.890625 8.453125 
L 40.328125 8.453125 
z
M 79.890625 24.171875 
L 40.328125 24.171875 
L 40.328125 14.703125 
L 79.890625 14.703125 
z
M 4.5 -9.515625 
Q 10.25 8.0625 14.546875 28.265625 
Q 18.84375 26.421875 22.46875 25.25 
Q 17.28125 4.640625 13.09375 -12.15625 
z
M 5.078125 76.21875 
L 10.15625 81.390625 
Q 18.0625 75.140625 25.6875 68.21875 
L 19.828125 62.453125 
Q 12.703125 69.578125 5.078125 76.21875 
z
M 1.46875 50.828125 
L 6.0625 56.296875 
Q 13.875 50.34375 21.578125 43.796875 
L 16.3125 37.84375 
Q 8.890625 44.96875 1.46875 50.828125 
z
" id="MicrosoftYaHei-28508"/>
       <path d="M 28.8125 53.375 
L 57.671875 53.375 
Q 58.109375 67.921875 58.109375 83.0625 
L 66.015625 83.0625 
Q 65.921875 71.53125 65.578125 53.375 
L 97.953125 53.375 
L 97.953125 46.234375 
L 65.765625 46.234375 
Q 71.828125 12.203125 98.640625 -4.9375 
Q 94.734375 -9.125 92 -12.359375 
Q 69.390625 5.171875 62.5 31.59375 
Q 56.640625 5.90625 30.5625 -13.234375 
Q 28.21875 -10.015625 25.203125 -6.296875 
Q 54.734375 13.96875 57.328125 46.234375 
L 28.8125 46.234375 
z
M 1.375 36.375 
Q 16.5 56.78125 24.3125 82.5625 
L 32.234375 79.9375 
Q 27.390625 66.359375 21.6875 54.9375 
L 21.6875 -12.640625 
L 14.265625 -12.640625 
L 14.265625 41.546875 
Q 9.625 34.03125 4.5 27.6875 
Q 3.03125 31.890625 1.375 36.375 
z
M 78.21875 78.5625 
Q 86.234375 70.65625 92.390625 64.3125 
Q 89.359375 61.671875 86.421875 58.84375 
Q 79.78125 66.75 73.046875 73.875 
z
" id="MicrosoftYaHei-20239"/>
       <path d="M 10.75 46.046875 
L 46.390625 46.046875 
L 46.390625 53.65625 
L 18.75 53.65625 
L 18.75 50.921875 
L 11.71875 50.921875 
L 11.71875 74.5625 
L 46.390625 74.5625 
L 46.390625 82.765625 
L 53.609375 82.765625 
L 53.609375 74.5625 
L 88.28125 74.5625 
L 88.28125 50.921875 
L 81.25 50.921875 
L 81.25 53.65625 
L 53.609375 53.65625 
L 53.609375 46.046875 
L 89.265625 46.046875 
L 89.265625 20.84375 
L 82.234375 20.84375 
L 82.234375 24.5625 
L 53.609375 24.5625 
L 53.609375 18.5 
L 46.390625 18.5 
L 46.390625 24.5625 
L 17.78125 24.5625 
L 17.78125 20.84375 
L 10.75 20.84375 
z
M 25.203125 16.359375 
L 32.421875 16.359375 
L 32.421875 2.59375 
Q 32.421875 -3.375 39.15625 -3.375 
L 59.671875 -3.375 
Q 67 -3.375 67.96875 2.390625 
Q 68.75 5.71875 69.734375 12.75 
Q 73.046875 11.375 77.4375 9.8125 
Q 76.078125 2.984375 74.90625 -1.125 
Q 72.46875 -10.203125 60.9375 -10.203125 
L 37.3125 -10.203125 
Q 25.203125 -10.203125 25.203125 2.203125 
z
M 82.234375 39.796875 
L 53.609375 39.796875 
L 53.609375 30.8125 
L 82.234375 30.8125 
z
M 17.78125 30.8125 
L 46.390625 30.8125 
L 46.390625 39.796875 
L 17.78125 39.796875 
z
M 81.25 68.3125 
L 53.609375 68.3125 
L 53.609375 59.90625 
L 81.25 59.90625 
z
M 18.75 59.90625 
L 46.390625 59.90625 
L 46.390625 68.3125 
L 18.75 68.3125 
z
M 11.140625 15.375 
L 18.359375 12.9375 
Q 14.265625 0.640625 8.890625 -8.84375 
Q 6.34375 -7.46875 1.953125 -5.421875 
Q 7.8125 4.046875 11.140625 15.375 
z
M 80.078125 12.546875 
L 85.75 16.546875 
Q 92.671875 8.0625 98.734375 -0.25 
L 92.09375 -4.9375 
Q 86.234375 4.25 80.078125 12.546875 
z
M 39.265625 14.40625 
L 43.453125 19.875 
Q 53.03125 14.203125 59.578125 10.109375 
L 54.78125 3.859375 
Q 47.65625 9.03125 39.265625 14.40625 
z
" id="MicrosoftYaHei-24739"/>
       <path d="M 3.03125 51.609375 
L 40.140625 51.609375 
L 40.140625 63.921875 
L 12.703125 63.921875 
L 12.703125 70.5625 
L 40.140625 70.5625 
L 40.140625 82.953125 
L 47.953125 82.953125 
L 47.953125 70.5625 
L 71.875 70.5625 
L 71.875 63.921875 
L 47.953125 63.921875 
L 47.953125 51.609375 
L 57.515625 51.609375 
Q 73.53125 62.9375 83.796875 76.421875 
L 90.71875 71.734375 
Q 81.890625 61.140625 69.78125 51.609375 
L 97.75 51.609375 
L 97.75 44.96875 
L 60.75 44.96875 
Q 52.6875 39.40625 43.40625 34.234375 
L 82.125 34.234375 
L 82.125 -12.84375 
L 74.515625 -12.84375 
L 74.515625 -7.078125 
L 29.296875 -7.078125 
L 29.296875 -12.84375 
L 21.6875 -12.84375 
L 21.6875 23.390625 
Q 13.671875 19.828125 4.984375 16.453125 
Q 3.328125 19.484375 0.59375 23.578125 
Q 27.59375 32.953125 47.359375 44.96875 
L 3.03125 44.96875 
z
M 29.296875 -0.640625 
L 74.515625 -0.640625 
L 74.515625 10.59375 
L 29.296875 10.59375 
z
M 29.296875 26.90625 
L 29.296875 16.65625 
L 74.515625 16.65625 
L 74.515625 27.78125 
L 31.0625 27.78125 
Q 30.171875 27.34375 29.296875 26.90625 
z
" id="MicrosoftYaHei-32773"/>
      </defs>
      <use xlink:href="#MicrosoftYaHei-28508"/>
      <use x="100" xlink:href="#MicrosoftYaHei-20239"/>
      <use x="200" xlink:href="#MicrosoftYaHei-24739"/>
      <use x="300" xlink:href="#MicrosoftYaHei-32773"/>
      <use x="400" xlink:href="#MicrosoftYaHei-20154"/>
      <use x="500" xlink:href="#MicrosoftYaHei-25968"/>
     </g>
    </g>
    <g id="line2d_31">
     <path d="M 66.6 85.925125 
L 86.6 85.925125 
" style="fill:none;stroke:#ff0000;stroke-linecap:square;stroke-width:4;"/>
    </g>
    <g id="line2d_32"/>
    <g id="text_18">
     <!-- 发病人数 -->
     <g transform="translate(94.6 89.425125)scale(0.1 -0.1)">
      <defs>
       <path d="M 14.75 61.078125 
L 35.40625 61.078125 
Q 37.796875 71.296875 39.453125 83.34375 
L 47.75 82.28125 
Q 46.09375 71.1875 43.703125 61.078125 
L 97.65625 61.078125 
L 97.65625 53.859375 
L 41.84375 53.859375 
Q 40.09375 47.40625 37.984375 41.453125 
L 86.421875 41.453125 
L 86.421875 34.71875 
Q 79.984375 18.75 66.359375 7.125 
Q 80.078125 -1.171875 98.34375 -4.546875 
Q 93.953125 -9.421875 91.5 -12.75 
Q 75.875 -7.5625 60.0625 2.390625 
Q 47.359375 -5.953125 23.734375 -13.421875 
Q 21 -9.515625 17.875 -6.203125 
Q 41.890625 0.046875 53.765625 7.03125 
Q 40.921875 18.015625 35.453125 34.71875 
Q 24.75 7.953125 6.34375 -9.234375 
Q 3.71875 -5.515625 1.171875 -2.59375 
Q 23.1875 17.28125 33.546875 53.859375 
L 6.453125 53.859375 
L 6.453125 61.1875 
Q 10.453125 70.453125 13.765625 79.828125 
L 21.6875 77.6875 
Q 18.265625 69.09375 14.75 61.078125 
z
M 77.828125 34.71875 
L 42.53125 34.71875 
Q 46.921875 21.1875 59.96875 11.421875 
Q 72.609375 21.875 77.828125 34.71875 
z
M 62.796875 76.609375 
L 67.09375 82.078125 
Q 76.65625 76.03125 85.453125 69.484375 
L 80.171875 63.140625 
Q 71.6875 70.359375 62.796875 76.609375 
z
" id="MicrosoftYaHei-21457"/>
       <path d="M 26.953125 55.328125 
L 96.296875 55.328125 
L 96.296875 48.484375 
L 66.015625 48.484375 
Q 65.921875 42.625 65.578125 37.75 
L 93.453125 37.75 
L 93.453125 0.734375 
Q 93.453125 -10.6875 81.640625 -10.796875 
Q 74.8125 -10.890625 65.046875 -10.6875 
Q 64.453125 -7.28125 63.484375 -2.984375 
Q 71.296875 -3.5625 79.390625 -3.5625 
Q 86.03125 -3.5625 86.03125 2.296875 
L 86.03125 31.109375 
L 64.796875 31.109375 
Q 64.546875 29.34375 64.203125 27.734375 
Q 74.703125 16.5 82.03125 7.859375 
L 76.375 2.203125 
Q 69.1875 11.671875 61.921875 20.125 
Q 57.421875 9.234375 44.046875 -0.25 
Q 41.796875 2.59375 38.96875 5.90625 
Q 55.859375 16.265625 57.625 31.109375 
L 37.3125 31.109375 
L 37.3125 -11.96875 
L 29.890625 -11.96875 
L 29.890625 37.75 
L 58.5 37.75 
Q 58.890625 42.53125 58.984375 48.484375 
L 26.953125 48.484375 
z
M 23.140625 38.8125 
Q 23.140625 2.78125 7.90625 -12.15625 
Q 5.671875 -8.9375 2.546875 -5.71875 
Q 12.984375 5.125 15.140625 25.296875 
Q 10.40625 22.265625 3.328125 18.015625 
L 1.46875 26.21875 
Q 10.453125 30.515625 15.828125 33.734375 
L 15.828125 71.625 
L 54.25 71.625 
Q 51.703125 75.59375 48.34375 80.125 
L 54.78125 83.84375 
Q 58.984375 78.46875 61.921875 73.96875 
L 58.015625 71.625 
L 98.4375 71.625 
L 98.4375 64.796875 
L 23.140625 64.796875 
z
M 2.734375 59.90625 
L 9.078125 61.859375 
Q 11.71875 52.875 14.359375 42.625 
L 7.328125 40.578125 
Q 5.375 50.734375 2.734375 59.90625 
z
" id="MicrosoftYaHei-30149"/>
      </defs>
      <use xlink:href="#MicrosoftYaHei-21457"/>
      <use x="100" xlink:href="#MicrosoftYaHei-30149"/>
      <use x="200" xlink:href="#MicrosoftYaHei-20154"/>
      <use x="300" xlink:href="#MicrosoftYaHei-25968"/>
     </g>
    </g>
    <g id="line2d_33">
     <path d="M 66.6 101.404813 
L 86.6 101.404813 
" style="fill:none;stroke:#800080;stroke-linecap:square;stroke-width:4;"/>
    </g>
    <g id="line2d_34"/>
    <g id="text_19">
     <!-- 隔离人数 -->
     <g transform="translate(94.6 104.904813)scale(0.1 -0.1)">
      <defs>
       <path d="M 32.90625 28.5625 
Q 35.25 10.296875 24.21875 7.953125 
Q 20.40625 7.28125 15.328125 7.859375 
Q 14.546875 11.671875 13.28125 15.28125 
L 13.28125 -13.03125 
L 6.25 -13.03125 
L 6.25 78.65625 
L 32.8125 78.65625 
L 32.8125 72.125 
Q 28.03125 55.71875 24.90625 46.234375 
Q 31.9375 36.578125 32.90625 28.5625 
z
M 44.53125 -13.234375 
L 37.703125 -13.234375 
L 37.703125 37.453125 
L 94.34375 37.453125 
L 94.34375 -3.65625 
Q 94.34375 -12.84375 85.25 -12.84375 
Q 80.953125 -12.84375 74.609375 -12.75 
Q 74.125 -10.5 73.140625 -5.421875 
Q 79 -5.8125 83.5 -5.8125 
Q 87.5 -5.8125 87.5 -1.703125 
L 87.5 31.390625 
L 44.53125 31.390625 
z
M 43.359375 65.765625 
L 88.484375 65.765625 
L 88.484375 41.75 
L 81.453125 41.75 
L 81.453125 44.28125 
L 50.390625 44.28125 
L 50.390625 41.75 
L 43.359375 41.75 
z
M 21.484375 14.890625 
Q 27.734375 15.578125 25.6875 28.265625 
Q 24.421875 36.46875 17.671875 44.96875 
Q 21.875 57.46875 25.78125 72.125 
L 13.28125 72.125 
L 13.28125 15.671875 
Q 17.671875 14.5 21.484375 14.890625 
z
M 47.859375 15.28125 
L 67.578125 15.28125 
Q 72.515625 24.21875 75.296875 30.515625 
L 81.734375 27 
Q 78.078125 20.90625 74.46875 15.28125 
L 84.1875 15.28125 
L 84.1875 9.421875 
L 69.234375 9.421875 
L 69.234375 -11.671875 
L 62.59375 -11.671875 
L 62.59375 9.421875 
L 47.859375 9.421875 
z
M 37.109375 78.765625 
L 96.296875 78.765625 
L 96.296875 72.40625 
L 37.109375 72.40625 
z
M 81.453125 59.90625 
L 50.390625 59.90625 
L 50.390625 50.140625 
L 81.453125 50.140625 
z
M 50.390625 27.296875 
L 55.765625 30.421875 
Q 59.96875 24.859375 62.890625 19.390625 
L 57.03125 15.96875 
Q 54.296875 21.234375 50.390625 27.296875 
z
" id="MicrosoftYaHei-38548"/>
       <path d="M 37.203125 7.171875 
Q 48.53125 7.5625 60.59375 8.109375 
Q 58.0625 10.9375 55.46875 13.71875 
L 60.359375 17.53125 
Q 67.96875 9.90625 74.703125 2.296875 
L 69.53125 -2.203125 
Q 67.671875 0 65.828125 2.203125 
Q 53.375 1.609375 38.28125 0.640625 
Q 33.984375 0.34375 29.109375 -0.4375 
L 26.375 6.5 
Q 30.46875 9.03125 33.296875 12.84375 
Q 35.59375 16.015625 37.890625 19.96875 
L 16.5 19.96875 
L 16.5 -12.84375 
L 9.1875 -12.84375 
L 9.1875 26.421875 
L 41.40625 26.421875 
Q 43.5 30.46875 45.5625 35.203125 
L 12.890625 35.203125 
L 12.890625 63.53125 
L 20.015625 63.53125 
L 20.015625 41.453125 
L 79.890625 41.453125 
L 79.890625 63.625 
L 87.015625 63.625 
L 87.015625 31.6875 
L 79.890625 31.6875 
L 79.890625 35.203125 
L 54.25 35.203125 
Q 51.90625 30.671875 49.515625 26.421875 
L 90.625 26.421875 
L 90.625 -1.90625 
Q 90.625 -12.359375 80.859375 -12.359375 
Q 76.171875 -12.359375 70.609375 -12.15625 
Q 70.21875 -8.734375 69.234375 -4.640625 
Q 75 -5.21875 79.109375 -5.21875 
Q 83.296875 -5.21875 83.296875 -0.828125 
L 83.296875 19.96875 
L 45.75 19.96875 
Q 41.546875 13.09375 37.203125 7.171875 
z
M 3.125 73.96875 
L 45.609375 73.96875 
Q 43.5625 77.640625 41.703125 80.515625 
L 49.21875 83.9375 
Q 51.703125 80.328125 55.328125 73.96875 
L 96.875 73.96875 
L 96.875 67.328125 
L 3.125 67.328125 
z
M 25.203125 60.6875 
L 27.828125 65.875 
Q 39.0625 62.25 51.46875 57.8125 
Q 61.46875 61.8125 70.3125 66.359375 
L 73.25 61.375 
Q 66.703125 57.953125 59.625 54.890625 
Q 66.890625 52.203125 74.609375 49.265625 
L 71.96875 43.703125 
Q 61.53125 48 51.953125 51.609375 
Q 40.140625 46.875 27.046875 42.921875 
Q 25.296875 46.046875 23.53125 48.484375 
Q 33.890625 51.375 43.3125 54.734375 
Q 33.734375 58.109375 25.203125 60.6875 
z
" id="MicrosoftYaHei-31163"/>
      </defs>
      <use xlink:href="#MicrosoftYaHei-38548"/>
      <use x="100" xlink:href="#MicrosoftYaHei-31163"/>
      <use x="200" xlink:href="#MicrosoftYaHei-20154"/>
      <use x="300" xlink:href="#MicrosoftYaHei-25968"/>
     </g>
    </g>
    <g id="line2d_35">
     <path d="M 66.6 116.8845 
L 86.6 116.8845 
" style="fill:none;stroke:#ff0000;stroke-dasharray:32,8,5,8;stroke-dashoffset:0;stroke-width:5;"/>
    </g>
    <g id="line2d_36"/>
    <g id="text_20">
     <!-- 累计感染人数 -->
     <g transform="translate(94.6 120.3845)scale(0.1 -0.1)">
      <defs>
       <path d="M 71.09375 31.109375 
Q 84.765625 19.96875 92.875 12.0625 
L 87.5 6.59375 
Q 83.6875 10.546875 79.640625 14.40625 
Q 67.71875 13.921875 55.5625 13.375 
L 55.5625 0.34375 
Q 55.5625 -11.765625 43.359375 -11.765625 
Q 37.109375 -11.765625 29.390625 -11.671875 
Q 28.8125 -7.765625 27.9375 -3.5625 
Q 35.453125 -4.25 41.40625 -4.25 
Q 47.953125 -4.25 47.953125 2.875 
L 47.953125 13.03125 
Q 34.859375 12.40625 21.484375 11.765625 
Q 17.1875 11.578125 13.1875 10.984375 
L 10.546875 18.40625 
Q 16.5 19.09375 23.921875 21.921875 
Q 33.9375 25.78125 45.5625 31 
Q 33.40625 30.609375 23.921875 30.03125 
Q 19.234375 29.734375 16.890625 29.4375 
L 14.359375 35.890625 
Q 19.234375 36.859375 24.21875 39.109375 
Q 30.765625 42.046875 37.15625 45.453125 
L 18.84375 45.453125 
L 18.84375 42.625 
L 11.421875 42.625 
L 11.421875 79.734375 
L 88.671875 79.734375 
L 88.671875 42.625 
L 81.25 42.625 
L 81.25 45.453125 
L 48.828125 45.453125 
Q 38.03125 39.984375 27.546875 35.5 
Q 40.328125 35.84375 57.328125 36.46875 
Q 64.0625 39.65625 71.296875 43.3125 
L 76.375 38.03125 
Q 53.03125 27 28.515625 17.921875 
Q 53.171875 19 73.1875 20.265625 
Q 69.625 23.4375 65.921875 26.515625 
z
M 53.609375 51.125 
L 81.25 51.125 
L 81.25 60.015625 
L 53.609375 60.015625 
z
M 18.84375 51.125 
L 46.390625 51.125 
L 46.390625 60.015625 
L 18.84375 60.015625 
z
M 81.25 74.078125 
L 53.609375 74.078125 
L 53.609375 65.28125 
L 81.25 65.28125 
z
M 18.84375 65.28125 
L 46.390625 65.28125 
L 46.390625 74.078125 
L 18.84375 74.078125 
z
M 29.59375 8.9375 
L 33.984375 2.875 
Q 19.734375 -4.25 5.953125 -9.625 
Q 4.5 -6.59375 2.546875 -3.078125 
Q 17.09375 2.59375 29.59375 8.9375 
z
M 69.234375 8.546875 
Q 83.796875 3.65625 97.171875 -2.296875 
L 94.140625 -8.9375 
Q 81.0625 -2.984375 65.921875 2.09375 
z
" id="MicrosoftYaHei-32047"/>
       <path d="M 32.8125 49.265625 
L 61.234375 49.265625 
L 61.234375 82.859375 
L 69.625 82.859375 
L 69.625 49.265625 
L 98.25 49.265625 
L 98.25 42.234375 
L 69.625 42.234375 
L 69.625 -12.84375 
L 61.234375 -12.84375 
L 61.234375 42.234375 
L 32.8125 42.234375 
z
M 41.796875 14.109375 
Q 42.09375 9.03125 42.484375 5.609375 
Q 26.859375 -4.15625 16.703125 -11.375 
L 12.015625 -4.734375 
Q 15.4375 -1.8125 15.4375 4.15625 
L 15.4375 42.828125 
L 1.5625 42.828125 
L 1.5625 49.859375 
L 23.25 49.859375 
L 23.25 2.390625 
Q 31.734375 7.5625 41.796875 14.109375 
z
M 11.53125 81.59375 
Q 22.171875 70.65625 26.953125 65.375 
L 20.125 59.625 
Q 13.96875 67.71875 5.5625 76.421875 
z
" id="MicrosoftYaHei-35745"/>
      </defs>
      <use xlink:href="#MicrosoftYaHei-32047"/>
      <use x="100" xlink:href="#MicrosoftYaHei-35745"/>
      <use x="200" xlink:href="#MicrosoftYaHei-24863"/>
      <use x="300" xlink:href="#MicrosoftYaHei-26579"/>
      <use x="400" xlink:href="#MicrosoftYaHei-20154"/>
      <use x="500" xlink:href="#MicrosoftYaHei-25968"/>
     </g>
    </g>
    <g id="line2d_37">
     <path d="M 66.6 132.364188 
L 86.6 132.364188 
" style="fill:none;stroke:#008000;stroke-linecap:square;stroke-width:4;"/>
    </g>
    <g id="line2d_38"/>
    <g id="text_21">
     <!-- 累计治愈人数 -->
     <g transform="translate(94.6 135.864188)scale(0.1 -0.1)">
      <defs>
       <path d="M 34.859375 30.21875 
L 89.359375 30.21875 
L 89.359375 -12.84375 
L 81.9375 -12.84375 
L 81.9375 -6.296875 
L 42.28125 -6.296875 
L 42.28125 -12.84375 
L 34.859375 -12.84375 
z
M 78.421875 70.0625 
Q 89.546875 55.03125 98.828125 39.59375 
L 91.796875 35.296875 
Q 89.15625 39.890625 86.53125 44.34375 
Q 57.71875 43.109375 40.53125 41.65625 
Q 36.625 41.265625 32.515625 40.09375 
L 28.609375 47.703125 
Q 32.625 49.171875 35.75 52.6875 
Q 45.796875 64.703125 54.984375 83.34375 
L 62.796875 80.125 
Q 52.9375 63.421875 42.390625 49.265625 
Q 60.203125 49.859375 82.515625 50.921875 
Q 77.4375 58.984375 72.265625 66.359375 
z
M 81.9375 23.390625 
L 42.28125 23.390625 
L 42.28125 0.53125 
L 81.9375 0.53125 
z
M 15.828125 29.734375 
Q 19.734375 27.875 23.828125 26.3125 
Q 16.703125 4.34375 11.921875 -11.96875 
L 3.609375 -8.84375 
Q 10.25 7.953125 15.828125 29.734375 
z
M 10.359375 81.390625 
Q 20.90625 74.171875 28.421875 68.109375 
Q 25.296875 64.5 22.953125 61.765625 
Q 15.53125 68.40625 5.5625 75.828125 
z
M 6.34375 56.984375 
Q 15.328125 51.03125 23.828125 44.484375 
Q 22.359375 43.015625 18.5625 38.03125 
Q 8.796875 46.140625 1.5625 51.421875 
z
" id="MicrosoftYaHei-27835"/>
       <path d="M 19.234375 16.546875 
L 12.5 16.546875 
L 12.5 55.328125 
L 50 55.328125 
L 50 26.21875 
Q 50 16.15625 40.234375 16.15625 
Q 37.015625 16.15625 31.34375 16.359375 
Q 30.765625 19.671875 29.984375 23.09375 
Q 35.359375 22.515625 39.15625 22.515625 
Q 43.265625 22.515625 43.265625 26.90625 
L 43.265625 28.171875 
L 19.234375 28.171875 
z
M 56.734375 83.0625 
L 55.078125 81.6875 
Q 71.296875 68.703125 98.640625 62.359375 
Q 96.578125 59.8125 93.84375 55.609375 
Q 79 60.203125 67.96875 65.765625 
L 67.96875 61.1875 
L 31.9375 61.1875 
L 31.9375 66.359375 
Q 20.609375 60.6875 5.859375 55.21875 
Q 3.8125 58.453125 1.375 61.1875 
Q 29.6875 69.96875 46.96875 83.0625 
z
M 27.25 12.546875 
L 34.46875 12.546875 
L 34.46875 0.921875 
Q 34.46875 -4.734375 40.046875 -4.734375 
L 60.9375 -4.734375 
Q 67.96875 -4.734375 69.140625 0.828125 
Q 69.921875 4.640625 70.609375 10.203125 
Q 74.125 8.84375 77.9375 7.671875 
Q 76.953125 1.90625 75.78125 -2.390625 
Q 73.53125 -10.984375 62.203125 -10.984375 
L 39.15625 -10.984375 
Q 27.25 -10.984375 27.25 0.046875 
z
M 78.421875 55.609375 
L 85.359375 55.609375 
L 85.359375 26.703125 
Q 85.359375 15.96875 75.296875 15.96875 
Q 71.78125 15.96875 65.140625 16.15625 
Q 64.453125 20.0625 63.375 23.6875 
Q 69.34375 23 73.921875 23 
Q 78.421875 23 78.421875 27.984375 
z
M 50.203125 77.484375 
Q 41.703125 71.234375 32.328125 66.65625 
L 66.40625 66.65625 
Q 56.9375 71.625 50.203125 77.484375 
z
M 60.546875 52.984375 
L 67.28125 52.984375 
L 67.28125 28.65625 
L 60.546875 28.65625 
z
M 12.703125 12.25 
L 19.34375 9.8125 
Q 14.9375 -0.34375 9.1875 -8.84375 
Q 6.25 -7.078125 2.734375 -5.421875 
Q 8.890625 2.78125 12.703125 12.25 
z
M 79.890625 9.03125 
L 85.25 12.84375 
Q 92.1875 5.21875 98.046875 -2.390625 
L 92 -6.6875 
Q 87.015625 0.53125 79.890625 9.03125 
z
M 19.234375 33.453125 
L 43.265625 33.453125 
L 43.265625 39.015625 
L 19.234375 39.015625 
z
M 43.265625 49.859375 
L 19.234375 49.859375 
L 19.234375 44.28125 
L 43.265625 44.28125 
z
M 43.75 11.46875 
L 48.25 15.671875 
Q 55.171875 10.59375 61.234375 5.328125 
L 56.25 0.34375 
Q 50.296875 6 43.75 11.46875 
z
" id="MicrosoftYaHei-24840"/>
      </defs>
      <use xlink:href="#MicrosoftYaHei-32047"/>
      <use x="100" xlink:href="#MicrosoftYaHei-35745"/>
      <use x="200" xlink:href="#MicrosoftYaHei-27835"/>
      <use x="300" xlink:href="#MicrosoftYaHei-24840"/>
      <use x="400" xlink:href="#MicrosoftYaHei-20154"/>
      <use x="500" xlink:href="#MicrosoftYaHei-25968"/>
     </g>
    </g>
    <g id="line2d_39">
     <path d="M 66.6 147.843875 
L 86.6 147.843875 
" style="fill:none;stroke:#808080;stroke-linecap:square;stroke-width:4;"/>
    </g>
    <g id="line2d_40"/>
    <g id="text_22">
     <!-- 累计死亡人数 -->
     <g transform="translate(94.6 151.343875)scale(0.1 -0.1)">
      <defs>
       <path d="M 3.90625 75.734375 
L 96.09375 75.734375 
L 96.09375 68.703125 
L 66.703125 68.703125 
L 66.703125 32.953125 
Q 78.8125 42.140625 91.3125 55.03125 
L 97.078125 49.078125 
Q 81.34375 34.625 66.703125 24.078125 
L 66.703125 4.15625 
Q 66.703125 -2.203125 71.96875 -2.203125 
L 81.640625 -2.203125 
Q 87.703125 -2.203125 89.265625 4.546875 
Q 90.53125 11.1875 91.3125 20.5625 
Q 95.609375 18.5 99.21875 17.4375 
Q 98.046875 8.34375 96.578125 1.609375 
Q 94.046875 -9.625 82.8125 -9.625 
L 70.40625 -9.625 
Q 59.078125 -9.625 59.078125 3.859375 
L 59.078125 68.703125 
L 30.671875 68.703125 
Q 28.515625 60.984375 25.78125 53.953125 
L 51.171875 53.953125 
L 51.171875 47.21875 
Q 44.234375 8.9375 8.5 -12.9375 
Q 5.671875 -9.625 2.828125 -6.984375 
Q 20.40625 3.65625 30.171875 16.84375 
Q 23.046875 22.796875 16.21875 27.78125 
L 20.3125 33.734375 
Q 27.546875 28.46875 34.46875 23.1875 
Q 41.109375 34.234375 43.5625 47.125 
L 22.953125 47.125 
Q 16.703125 32.953125 6.546875 20.75 
Q 3.8125 24.46875 1.65625 26.90625 
Q 16.609375 45.359375 22.75 68.703125 
L 3.90625 68.703125 
z
" id="MicrosoftYaHei-27515"/>
       <path d="M 1.953125 63.421875 
L 97.953125 63.421875 
L 97.953125 55.71875 
L 25.09375 55.71875 
L 25.09375 0.4375 
L 93.359375 0.4375 
L 93.359375 -6.984375 
L 16.40625 -6.984375 
L 16.40625 55.71875 
L 1.953125 55.71875 
z
M 41.796875 78.859375 
L 48.25 83.25 
Q 55.46875 74.5625 59.46875 69 
L 52.34375 63.8125 
Q 46.6875 72.609375 41.796875 78.859375 
z
" id="MicrosoftYaHei-20129"/>
      </defs>
      <use xlink:href="#MicrosoftYaHei-32047"/>
      <use x="100" xlink:href="#MicrosoftYaHei-35745"/>
      <use x="200" xlink:href="#MicrosoftYaHei-27515"/>
      <use x="300" xlink:href="#MicrosoftYaHei-20129"/>
      <use x="400" xlink:href="#MicrosoftYaHei-20154"/>
      <use x="500" xlink:href="#MicrosoftYaHei-25968"/>
     </g>
    </g>
   </g>
  </g>
 </g>
 <defs>
  <clipPath id="p39d0850379">
   <rect height="266.112" width="357.12" x="57.6" y="41.472"/>
  </clipPath>
 </defs>
</svg>
