<?xml version="1.0" encoding="utf-8" standalone="no"?>
<!DOCTYPE svg PUBLIC "-//W3C//DTD SVG 1.1//EN"
  "http://www.w3.org/Graphics/SVG/1.1/DTD/svg11.dtd">
<!-- Created with matplotlib (https://matplotlib.org/) -->
<svg height="345.6pt" version="1.1" viewBox="0 0 460.8 345.6" width="460.8pt" xmlns="http://www.w3.org/2000/svg" xmlns:xlink="http://www.w3.org/1999/xlink">
 <metadata>
  <rdf:RDF xmlns:cc="http://creativecommons.org/ns#" xmlns:dc="http://purl.org/dc/elements/1.1/" xmlns:rdf="http://www.w3.org/1999/02/22-rdf-syntax-ns#">
   <cc:Work>
    <dc:type rdf:resource="http://purl.org/dc/dcmitype/StillImage"/>
    <dc:date>2021-08-12T07:42:00.970149</dc:date>
    <dc:format>image/svg+xml</dc:format>
    <dc:creator>
     <cc:Agent>
      <dc:title>Matplotlib v3.3.0, https://matplotlib.org/</dc:title>
     </cc:Agent>
    </dc:creator>
   </cc:Work>
  </rdf:RDF>
 </metadata>
 <defs>
  <style type="text/css">*{stroke-linecap:butt;stroke-linejoin:round;}</style>
 </defs>
 <g id="figure_1">
  <g id="patch_1">
   <path d="M 0 345.6 
L 460.8 345.6 
L 460.8 0 
L 0 0 
z
" style="fill:#ffffff;"/>
  </g>
  <g id="axes_1">
   <g id="patch_2">
    <path d="M 57.6 307.584 
L 414.72 307.584 
L 414.72 41.472 
L 57.6 41.472 
z
" style="fill:#ffffff;"/>
   </g>
   <g id="matplotlib.axis_1">
    <g id="xtick_1">
     <g id="line2d_1">
      <defs>
       <path d="M 0 0 
L 0 3.5 
" id="m6ac4a15508" style="stroke:#000000;stroke-width:0.8;"/>
      </defs>
      <g>
       <use style="stroke:#000000;stroke-width:0.8;" x="57.6" xlink:href="#m6ac4a15508" y="307.584"/>
      </g>
     </g>
     <g id="text_1">
      <!-- 0 -->
      <g transform="translate(54.667969 322.57775)scale(0.1 -0.1)">
       <defs>
        <path d="M 4.4375 36.328125 
Q 4.4375 56.34375 11.078125 66.625 
Q 17.71875 76.90625 30.328125 76.90625 
Q 54.34375 76.90625 54.34375 38.140625 
Q 54.34375 19 47.578125 8.859375 
Q 40.828125 -1.265625 28.609375 -1.265625 
Q 17.09375 -1.265625 10.765625 8.34375 
Q 4.4375 17.96875 4.4375 36.328125 
z
M 14.203125 36.765625 
Q 14.203125 6.640625 29.5 6.640625 
Q 44.53125 6.640625 44.53125 37.25 
Q 44.53125 68.953125 29.78125 68.953125 
Q 14.203125 68.953125 14.203125 36.765625 
z
" id="MicrosoftYaHei-48"/>
       </defs>
       <use xlink:href="#MicrosoftYaHei-48"/>
      </g>
     </g>
    </g>
    <g id="xtick_2">
     <g id="line2d_2">
      <g>
       <use style="stroke:#000000;stroke-width:0.8;" x="129.024" xlink:href="#m6ac4a15508" y="307.584"/>
      </g>
     </g>
     <g id="text_2">
      <!-- 20 -->
      <g transform="translate(123.159937 322.57775)scale(0.1 -0.1)">
       <defs>
        <path d="M 41.65625 55.8125 
Q 41.65625 61.921875 37.796875 65.40625 
Q 33.9375 68.890625 27.296875 68.890625 
Q 22.609375 68.890625 17.8125 66.5 
Q 13.03125 64.109375 8.890625 59.671875 
L 8.890625 68.953125 
Q 12.59375 72.796875 17.296875 74.84375 
Q 22.015625 76.90625 28.375 76.90625 
Q 38.625 76.90625 44.875 71.40625 
Q 51.125 65.921875 51.125 56.546875 
Q 51.125 48.1875 47.28125 42.078125 
Q 43.453125 35.984375 34.1875 29.59375 
Q 24.703125 23.046875 21.5 20.21875 
Q 18.3125 17.390625 17.03125 14.796875 
Q 15.765625 12.203125 15.765625 8.5 
L 53.375 8.5 
L 53.375 0 
L 5.8125 0 
L 5.8125 3.765625 
Q 5.8125 10.296875 7.59375 14.859375 
Q 9.375 19.4375 13.46875 23.75 
Q 17.578125 28.078125 26.265625 34.125 
Q 35.15625 40.375 38.40625 45.09375 
Q 41.65625 49.8125 41.65625 55.8125 
z
" id="MicrosoftYaHei-50"/>
       </defs>
       <use xlink:href="#MicrosoftYaHei-50"/>
       <use x="58.642578" xlink:href="#MicrosoftYaHei-48"/>
      </g>
     </g>
    </g>
    <g id="xtick_3">
     <g id="line2d_3">
      <g>
       <use style="stroke:#000000;stroke-width:0.8;" x="200.448" xlink:href="#m6ac4a15508" y="307.584"/>
      </g>
     </g>
     <g id="text_3">
      <!-- 40 -->
      <g transform="translate(194.583938 322.57775)scale(0.1 -0.1)">
       <defs>
        <path d="M 45.40625 75.640625 
L 45.40625 25.6875 
L 56.734375 25.6875 
L 56.734375 17.78125 
L 45.40625 17.78125 
L 45.40625 0 
L 36.140625 0 
L 36.140625 17.78125 
L 0.828125 17.78125 
L 0.828125 25.25 
Q 10.25 35.84375 19.765625 49.65625 
Q 29.296875 63.484375 35.5 75.640625 
z
M 11.578125 25.6875 
L 36.140625 25.6875 
L 36.140625 61.71875 
Q 31.0625 52.59375 25.25 44.015625 
Q 19.4375 35.453125 11.578125 25.6875 
z
" id="MicrosoftYaHei-52"/>
       </defs>
       <use xlink:href="#MicrosoftYaHei-52"/>
       <use x="58.642578" xlink:href="#MicrosoftYaHei-48"/>
      </g>
     </g>
    </g>
    <g id="xtick_4">
     <g id="line2d_4">
      <g>
       <use style="stroke:#000000;stroke-width:0.8;" x="271.872" xlink:href="#m6ac4a15508" y="307.584"/>
      </g>
     </g>
     <g id="text_4">
      <!-- 60 -->
      <g transform="translate(266.007938 322.57775)scale(0.1 -0.1)">
       <defs>
        <path d="M 49.703125 65.921875 
Q 43.796875 68.953125 37.359375 68.953125 
Q 27.546875 68.953125 21.578125 60.40625 
Q 15.625 51.859375 15.53125 37.0625 
L 15.765625 37.0625 
Q 21.140625 47.46875 32.90625 47.46875 
Q 42.71875 47.46875 48.578125 41.0625 
Q 54.4375 34.671875 54.4375 24.078125 
Q 54.4375 12.984375 47.671875 5.859375 
Q 40.921875 -1.265625 30.421875 -1.265625 
Q 18.890625 -1.265625 12.328125 7.734375 
Q 5.765625 16.75 5.765625 33.296875 
Q 5.765625 53.328125 14.375 65.109375 
Q 23 76.90625 37.0625 76.90625 
Q 45.125 76.90625 49.703125 74.703125 
z
M 16.109375 24.75 
Q 16.109375 17.28125 20.09375 11.953125 
Q 24.078125 6.640625 30.671875 6.640625 
Q 36.921875 6.640625 40.828125 11.234375 
Q 44.734375 15.828125 44.734375 23.046875 
Q 44.734375 30.859375 41.046875 35.203125 
Q 37.359375 39.546875 30.5625 39.546875 
Q 24.125 39.546875 20.109375 35.15625 
Q 16.109375 30.765625 16.109375 24.75 
z
" id="MicrosoftYaHei-54"/>
       </defs>
       <use xlink:href="#MicrosoftYaHei-54"/>
       <use x="58.642578" xlink:href="#MicrosoftYaHei-48"/>
      </g>
     </g>
    </g>
    <g id="xtick_5">
     <g id="line2d_5">
      <g>
       <use style="stroke:#000000;stroke-width:0.8;" x="343.296" xlink:href="#m6ac4a15508" y="307.584"/>
      </g>
     </g>
     <g id="text_5">
      <!-- 80 -->
      <g transform="translate(337.431938 322.57775)scale(0.1 -0.1)">
       <defs>
        <path d="M 4.78125 21.09375 
Q 4.78125 27.640625 8.6875 33.15625 
Q 12.59375 38.671875 18.75 41.015625 
Q 13.8125 43.796875 10.9375 48.140625 
Q 8.0625 52.484375 8.0625 57.5625 
Q 8.0625 62.9375 10.8125 67.375 
Q 13.578125 71.828125 18.484375 74.359375 
Q 23.390625 76.90625 29.296875 76.90625 
Q 35.25 76.90625 40.1875 74.390625 
Q 45.125 71.875 47.859375 67.421875 
Q 50.59375 62.984375 50.59375 57.5625 
Q 50.59375 52.59375 47.78125 48.21875 
Q 44.96875 43.84375 39.984375 41.015625 
Q 46.140625 38.625 50 33.109375 
Q 53.859375 27.59375 53.859375 21.09375 
Q 53.859375 14.65625 50.78125 9.546875 
Q 47.703125 4.4375 42.03125 1.609375 
Q 36.375 -1.21875 29.296875 -1.21875 
Q 22.265625 -1.21875 16.640625 1.609375 
Q 11.03125 4.4375 7.90625 9.5625 
Q 4.78125 14.703125 4.78125 21.09375 
z
M 14.15625 21.53125 
Q 14.15625 14.796875 18.3125 10.734375 
Q 22.46875 6.6875 29.34375 6.6875 
Q 36.078125 6.6875 40.34375 10.8125 
Q 44.625 14.9375 44.625 21.53125 
Q 44.625 27.78125 40.296875 32.046875 
Q 35.984375 36.328125 29.34375 36.328125 
Q 22.75 36.328125 18.453125 32.15625 
Q 14.15625 27.984375 14.15625 21.53125 
z
M 16.890625 56.78125 
Q 16.890625 51.703125 20.5 48.0625 
Q 24.125 44.4375 29.34375 44.4375 
Q 34.46875 44.4375 38.203125 48.09375 
Q 41.9375 51.765625 41.9375 56.78125 
Q 41.9375 61.921875 38.34375 65.484375 
Q 34.765625 69.046875 29.34375 69.046875 
Q 23.96875 69.046875 20.421875 65.546875 
Q 16.890625 62.0625 16.890625 56.78125 
z
" id="MicrosoftYaHei-56"/>
       </defs>
       <use xlink:href="#MicrosoftYaHei-56"/>
       <use x="58.642578" xlink:href="#MicrosoftYaHei-48"/>
      </g>
     </g>
    </g>
    <g id="xtick_6">
     <g id="line2d_6">
      <g>
       <use style="stroke:#000000;stroke-width:0.8;" x="414.72" xlink:href="#m6ac4a15508" y="307.584"/>
      </g>
     </g>
     <g id="text_6">
      <!-- 100 -->
      <g transform="translate(405.923906 322.57775)scale(0.1 -0.1)">
       <defs>
        <path d="M 27.828125 0 
L 27.828125 64.703125 
Q 25.59375 62.453125 20.234375 59.671875 
Q 14.890625 56.890625 10.359375 55.765625 
L 10.359375 65.140625 
Q 16.359375 66.796875 23.1875 70.4375 
Q 30.03125 74.078125 33.6875 77.296875 
L 37.3125 77.296875 
L 37.3125 0 
z
" id="MicrosoftYaHei-49"/>
       </defs>
       <use xlink:href="#MicrosoftYaHei-49"/>
       <use x="58.642578" xlink:href="#MicrosoftYaHei-48"/>
       <use x="117.285156" xlink:href="#MicrosoftYaHei-48"/>
      </g>
     </g>
    </g>
    <g id="text_7">
     <!-- 时间 -->
     <g transform="translate(226.16 337.057437)scale(0.1 -0.1)">
      <defs>
       <path d="M 5.375 73.875 
L 39.0625 73.875 
L 39.0625 -5.71875 
L 31.34375 -5.71875 
L 31.34375 2.390625 
L 13.09375 2.390625 
L 13.09375 -6.890625 
L 5.375 -6.890625 
z
M 42.28125 61.578125 
L 76.953125 61.578125 
L 76.953125 83.15625 
L 84.765625 83.15625 
L 84.765625 61.578125 
L 98.640625 61.578125 
L 98.640625 54.34375 
L 84.765625 54.34375 
L 84.765625 1.8125 
Q 84.765625 -11.28125 72.265625 -11.28125 
Q 66.609375 -11.28125 55.671875 -10.984375 
Q 55.171875 -7.46875 54.109375 -2.78125 
Q 64.359375 -3.5625 70.125 -3.5625 
Q 76.953125 -3.5625 76.953125 3.375 
L 76.953125 54.34375 
L 42.28125 54.34375 
z
M 13.09375 9.625 
L 31.34375 9.625 
L 31.34375 34.90625 
L 13.09375 34.90625 
z
M 31.34375 66.65625 
L 13.09375 66.65625 
L 13.09375 41.9375 
L 31.34375 41.9375 
z
M 53.21875 44.96875 
Q 61.03125 30.71875 65.046875 22.21875 
Q 62.5 21.046875 57.234375 18.3125 
Q 53.421875 27.59375 46.296875 41.453125 
z
" id="MicrosoftYaHei-26102"/>
       <path d="M 29.109375 56.984375 
L 70.515625 56.984375 
L 70.515625 8.640625 
L 36.140625 8.640625 
L 36.140625 2.59375 
L 29.109375 2.59375 
z
M 37.3125 69.578125 
L 37.3125 76.90625 
L 93.953125 76.90625 
L 93.953125 -0.4375 
Q 93.953125 -12.75 79.984375 -12.75 
Q 74.3125 -12.75 65.140625 -12.546875 
Q 64.75 -9.625 63.578125 -4.640625 
Q 71.6875 -5.21875 79 -5.21875 
Q 86.328125 -5.21875 86.328125 1.90625 
L 86.328125 69.578125 
z
M 6.546875 63.8125 
L 14.15625 63.8125 
L 14.15625 -12.75 
L 6.546875 -12.75 
z
M 36.140625 15.578125 
L 63.484375 15.578125 
L 63.484375 29.4375 
L 36.140625 29.4375 
z
M 63.484375 50.046875 
L 36.140625 50.046875 
L 36.140625 36.375 
L 63.484375 36.375 
z
M 11.625 78.171875 
L 17.1875 83.15625 
Q 24.609375 76.125 30.953125 69.484375 
L 24.609375 63.921875 
Q 18.65625 70.953125 11.625 78.171875 
z
" id="MicrosoftYaHei-38388"/>
      </defs>
      <use xlink:href="#MicrosoftYaHei-26102"/>
      <use x="100" xlink:href="#MicrosoftYaHei-38388"/>
     </g>
    </g>
   </g>
   <g id="matplotlib.axis_2">
    <g id="ytick_1">
     <g id="line2d_7">
      <defs>
       <path d="M 0 0 
L -3.5 0 
" id="m1c79d0b989" style="stroke:#000000;stroke-width:0.8;"/>
      </defs>
      <g>
       <use style="stroke:#000000;stroke-width:0.8;" x="57.6" xlink:href="#m1c79d0b989" y="295.488"/>
      </g>
     </g>
     <g id="text_8">
      <!-- 0 -->
      <g transform="translate(44.735937 299.484875)scale(0.1 -0.1)">
       <use xlink:href="#MicrosoftYaHei-48"/>
      </g>
     </g>
    </g>
    <g id="ytick_2">
     <g id="line2d_8">
      <g>
       <use style="stroke:#000000;stroke-width:0.8;" x="57.6" xlink:href="#m1c79d0b989" y="252.309589"/>
      </g>
     </g>
     <g id="text_9">
      <!-- 20000 -->
      <g transform="translate(21.279688 256.306464)scale(0.1 -0.1)">
       <use xlink:href="#MicrosoftYaHei-50"/>
       <use x="58.642578" xlink:href="#MicrosoftYaHei-48"/>
       <use x="117.285156" xlink:href="#MicrosoftYaHei-48"/>
       <use x="175.927734" xlink:href="#MicrosoftYaHei-48"/>
       <use x="234.570312" xlink:href="#MicrosoftYaHei-48"/>
      </g>
     </g>
    </g>
    <g id="ytick_3">
     <g id="line2d_9">
      <g>
       <use style="stroke:#000000;stroke-width:0.8;" x="57.6" xlink:href="#m1c79d0b989" y="209.131178"/>
      </g>
     </g>
     <g id="text_10">
      <!-- 40000 -->
      <g transform="translate(21.279688 213.128053)scale(0.1 -0.1)">
       <use xlink:href="#MicrosoftYaHei-52"/>
       <use x="58.642578" xlink:href="#MicrosoftYaHei-48"/>
       <use x="117.285156" xlink:href="#MicrosoftYaHei-48"/>
       <use x="175.927734" xlink:href="#MicrosoftYaHei-48"/>
       <use x="234.570312" xlink:href="#MicrosoftYaHei-48"/>
      </g>
     </g>
    </g>
    <g id="ytick_4">
     <g id="line2d_10">
      <g>
       <use style="stroke:#000000;stroke-width:0.8;" x="57.6" xlink:href="#m1c79d0b989" y="165.952768"/>
      </g>
     </g>
     <g id="text_11">
      <!-- 60000 -->
      <g transform="translate(21.279688 169.949643)scale(0.1 -0.1)">
       <use xlink:href="#MicrosoftYaHei-54"/>
       <use x="58.642578" xlink:href="#MicrosoftYaHei-48"/>
       <use x="117.285156" xlink:href="#MicrosoftYaHei-48"/>
       <use x="175.927734" xlink:href="#MicrosoftYaHei-48"/>
       <use x="234.570312" xlink:href="#MicrosoftYaHei-48"/>
      </g>
     </g>
    </g>
    <g id="ytick_5">
     <g id="line2d_11">
      <g>
       <use style="stroke:#000000;stroke-width:0.8;" x="57.6" xlink:href="#m1c79d0b989" y="122.774357"/>
      </g>
     </g>
     <g id="text_12">
      <!-- 80000 -->
      <g transform="translate(21.279688 126.771232)scale(0.1 -0.1)">
       <use xlink:href="#MicrosoftYaHei-56"/>
       <use x="58.642578" xlink:href="#MicrosoftYaHei-48"/>
       <use x="117.285156" xlink:href="#MicrosoftYaHei-48"/>
       <use x="175.927734" xlink:href="#MicrosoftYaHei-48"/>
       <use x="234.570312" xlink:href="#MicrosoftYaHei-48"/>
      </g>
     </g>
    </g>
    <g id="ytick_6">
     <g id="line2d_12">
      <g>
       <use style="stroke:#000000;stroke-width:0.8;" x="57.6" xlink:href="#m1c79d0b989" y="79.595946"/>
      </g>
     </g>
     <g id="text_13">
      <!-- 100000 -->
      <g transform="translate(15.415625 83.592821)scale(0.1 -0.1)">
       <use xlink:href="#MicrosoftYaHei-49"/>
       <use x="58.642578" xlink:href="#MicrosoftYaHei-48"/>
       <use x="117.285156" xlink:href="#MicrosoftYaHei-48"/>
       <use x="175.927734" xlink:href="#MicrosoftYaHei-48"/>
       <use x="234.570312" xlink:href="#MicrosoftYaHei-48"/>
       <use x="293.212891" xlink:href="#MicrosoftYaHei-48"/>
      </g>
     </g>
    </g>
    <g id="text_14">
     <!-- 感染情况 -->
     <g transform="translate(8.929687 194.528)rotate(-90)scale(0.1 -0.1)">
      <defs>
       <path d="M 55.171875 22.21875 
Q 62.703125 27.203125 68.5625 33.296875 
Q 62.84375 45.453125 61.625 64.796875 
L 18.953125 64.796875 
L 18.953125 51.90625 
Q 18.953125 28.171875 7.234375 13.625 
Q 5.171875 17.71875 2.15625 21.046875 
Q 11.921875 31.78125 11.921875 52 
L 11.921875 71.046875 
L 61.28125 71.046875 
Q 60.984375 77 60.9375 82.5625 
L 68.171875 82.5625 
Q 68.171875 77 68.40625 71.046875 
L 96.875 71.046875 
L 96.875 64.796875 
L 68.75 64.796875 
Q 69.78125 49.75 73.875 39.546875 
Q 80.46875 48.25 84.28125 58.9375 
L 90.921875 55.609375 
Q 85.25 42.828125 77.296875 32.859375 
Q 79.046875 30.03125 81.15625 27.78125 
Q 83.5 25.34375 85.546875 25.34375 
Q 87.40625 25.34375 88.578125 28.46875 
Q 90.046875 32.5625 91.5 39.40625 
Q 94.046875 38.03125 98.734375 36.28125 
Q 96.484375 27.59375 94.828125 23.484375 
Q 92 16.65625 86.53125 16.65625 
Q 82.03125 16.65625 76.953125 21.34375 
Q 74.3125 23.78125 72.125 26.953125 
Q 66.84375 21.484375 60.75 17.046875 
Q 58.40625 19.671875 55.171875 22.21875 
z
M 25.59375 45.171875 
L 55.671875 45.171875 
L 55.671875 24.078125 
L 32.234375 24.078125 
L 32.234375 21.34375 
L 25.59375 21.34375 
z
M 26.765625 15.578125 
L 34.1875 15.578125 
L 34.1875 2.09375 
Q 34.1875 -3.953125 40.4375 -3.953125 
L 58.015625 -3.953125 
Q 65.53125 -3.953125 66.609375 1.703125 
Q 67.390625 4.9375 68.359375 12.15625 
Q 71.6875 10.796875 76.078125 9.234375 
Q 74.8125 2.59375 73.53125 -1.609375 
Q 71.1875 -10.796875 59.578125 -10.796875 
L 38.875 -10.796875 
Q 26.765625 -10.796875 26.765625 1.21875 
z
M 22.5625 57.765625 
L 58.109375 57.765625 
L 58.109375 51.90625 
L 22.5625 51.90625 
z
M 13.1875 16.0625 
L 20.125 13.328125 
Q 15.140625 0.734375 9.28125 -8.34375 
Q 6.84375 -6.890625 2.734375 -4.640625 
Q 9.078125 4.546875 13.1875 16.0625 
z
M 49.03125 29.9375 
L 49.03125 39.3125 
L 32.234375 39.3125 
L 32.234375 29.9375 
z
M 79.890625 9.90625 
L 85.359375 13.8125 
Q 91.609375 6.59375 98.046875 -2.59375 
L 91.609375 -7.171875 
Q 86.921875 0.53125 79.890625 9.90625 
z
M 42.28125 16.75 
L 47.5625 20.75 
Q 54 13.921875 59.078125 7.671875 
L 52.9375 2.984375 
Q 47.65625 10.59375 42.28125 16.75 
z
M 88.375 76.03125 
L 83.59375 71.234375 
Q 79.390625 75.140625 74.421875 79.15625 
L 78.71875 83.640625 
Q 83.796875 79.9375 88.375 76.03125 
z
" id="MicrosoftYaHei-24863"/>
       <path d="M 99.03125 -1.703125 
Q 95.3125 -5.71875 92.96875 -9.125 
Q 66.703125 -0.25 53.609375 18.3125 
L 53.609375 -14.015625 
L 46 -14.015625 
L 46 18.3125 
Q 32.328125 1.8125 7.234375 -10.40625 
Q 4.890625 -7.375 1.65625 -3.65625 
Q 23.828125 4.640625 37.59375 18.40625 
L 3.328125 18.40625 
L 3.328125 25.25 
L 46 25.25 
L 46 36.078125 
L 53.609375 36.078125 
L 53.609375 25.25 
L 97.5625 25.25 
L 97.5625 18.40625 
L 61.03125 18.40625 
Q 74.03125 3.765625 99.03125 -1.703125 
z
M 35.9375 70.265625 
L 48.046875 70.265625 
Q 48.25 75.140625 48.4375 82.953125 
L 55.953125 82.953125 
Q 55.765625 75.734375 55.5625 70.265625 
L 80.28125 70.265625 
L 80.28125 44.78125 
Q 80.28125 40.96875 83.890625 40.96875 
L 86.140625 40.96875 
Q 89.9375 40.96875 90.71875 45.953125 
Q 91.3125 50.046875 91.703125 56.390625 
Q 95.40625 54.9375 99.03125 53.953125 
Q 98.4375 47.90625 97.65625 43.609375 
Q 96.1875 34.328125 87.5 34.328125 
L 82.421875 34.328125 
Q 72.859375 34.328125 72.859375 43.796875 
L 72.859375 63.625 
L 55.171875 63.625 
Q 53.328125 41.15625 33.5 30.328125 
Q 31.0625 33.34375 28.125 36.46875 
Q 46.1875 44.96875 47.75 63.625 
L 35.9375 63.625 
z
M 29.6875 53.375 
Q 31.25 48.96875 32.625 46.046875 
Q 19.828125 38.625 7.421875 30.515625 
L 2.828125 37.453125 
Q 16.3125 44.96875 29.6875 53.375 
z
M 14.75 82.671875 
Q 24.21875 77.875 31.9375 73.390625 
Q 29.296875 70.0625 27.34375 67.046875 
Q 18.84375 72.515625 10.84375 76.90625 
z
M 5.953125 67.828125 
Q 13.578125 64.3125 22.65625 59.234375 
Q 20.21875 55.328125 18.453125 52.59375 
Q 8.015625 58.84375 2.25 61.578125 
z
" id="MicrosoftYaHei-26579"/>
       <path d="M 43.84375 -12.453125 
L 36.421875 -12.453125 
L 36.421875 37.0625 
L 91.3125 37.0625 
L 91.3125 -0.640625 
Q 91.3125 -11.46875 81.453125 -11.671875 
Q 75 -11.765625 64.84375 -11.671875 
Q 64.359375 -8.546875 63.375 -4.15625 
Q 72.65625 -4.734375 78.515625 -4.734375 
Q 83.890625 -4.734375 83.890625 -0.046875 
L 83.890625 5.21875 
L 43.84375 5.21875 
z
M 30.078125 49.171875 
L 59.96875 49.171875 
L 59.96875 55.90625 
L 35.359375 55.90625 
L 35.359375 62.0625 
L 59.96875 62.0625 
L 59.96875 68.609375 
L 32.625 68.609375 
L 32.625 74.75 
L 59.96875 74.75 
L 59.96875 83.546875 
L 67.390625 83.546875 
L 67.390625 74.75 
L 96.6875 74.75 
L 96.6875 68.609375 
L 67.390625 68.609375 
L 67.390625 62.0625 
L 93.953125 62.0625 
L 93.953125 55.90625 
L 67.390625 55.90625 
L 67.390625 49.171875 
L 98.734375 49.171875 
L 98.734375 43.015625 
L 30.078125 43.015625 
z
M 14.546875 82.671875 
L 21.484375 82.671875 
L 21.484375 62.796875 
L 25.203125 65.484375 
Q 30.171875 59.625 34.078125 54.640625 
L 28.609375 50.640625 
Q 25.59375 55.078125 21.484375 60.453125 
L 21.484375 -12.75 
L 14.546875 -12.75 
z
M 83.890625 30.8125 
L 43.84375 30.8125 
L 43.84375 24.078125 
L 83.890625 24.078125 
z
M 43.84375 11.28125 
L 83.890625 11.28125 
L 83.890625 18.015625 
L 43.84375 18.015625 
z
M 4.984375 60.40625 
L 11.234375 59.625 
Q 10.15625 47.796875 7.71875 34.515625 
Q 5.46875 35.109375 1.375 35.890625 
Q 3.515625 45.453125 4.984375 60.40625 
z
" id="MicrosoftYaHei-24773"/>
       <path d="M 39.84375 31 
L 32.234375 31 
L 32.234375 78.078125 
L 90.046875 78.078125 
L 90.046875 31 
L 82.421875 31 
L 82.421875 35.296875 
L 73.046875 35.296875 
L 73.046875 1.125 
Q 73.046875 -3.765625 77.640625 -3.765625 
L 84.375 -3.765625 
Q 89.0625 -3.765625 89.65625 1.421875 
Q 90.328125 6 90.53125 13.53125 
Q 93.84375 12.15625 98.4375 10.59375 
Q 97.75 2.875 96.78125 -2.296875 
Q 95.40625 -10.796875 86.03125 -10.796875 
L 76.375 -10.796875 
Q 65.4375 -10.796875 65.4375 -0.140625 
L 65.4375 35.296875 
L 55.328125 35.296875 
Q 54.984375 16.703125 49.421875 7.078125 
Q 43.359375 -3.953125 25.984375 -13.53125 
Q 23.828125 -10.203125 21.09375 -6.890625 
Q 37.109375 1.90625 42.578125 11.1875 
Q 47.46875 19 47.796875 35.296875 
L 39.84375 35.296875 
z
M 82.421875 71.046875 
L 39.84375 71.046875 
L 39.84375 42.328125 
L 82.421875 42.328125 
z
M 18.453125 37.75 
Q 22.65625 34.8125 25.984375 32.859375 
Q 17.78125 13.421875 9.1875 -7.765625 
L 1.375 -3.078125 
Q 10.640625 14.984375 18.453125 37.75 
z
M 8.296875 76.3125 
Q 17.28125 67.53125 26.078125 57.375 
L 19.34375 51.3125 
Q 11.328125 61.765625 2.546875 71.140625 
z
" id="MicrosoftYaHei-20917"/>
      </defs>
      <use xlink:href="#MicrosoftYaHei-24863"/>
      <use x="100" xlink:href="#MicrosoftYaHei-26579"/>
      <use x="200" xlink:href="#MicrosoftYaHei-24773"/>
      <use x="300" xlink:href="#MicrosoftYaHei-20917"/>
     </g>
    </g>
   </g>
   <g id="line2d_13">
    <path clip-path="url(#p793520690a)" d="M 57.6 53.568 
L 61.1712 53.710489 
L 64.7424 54.030009 
L 68.3136 54.450999 
L 71.8848 55.051178 
L 75.456 55.973037 
L 79.0272 57.225211 
L 82.5984 58.855196 
L 86.1696 61.046501 
L 89.7408 63.94809 
L 93.312 67.700294 
L 96.8832 71.806561 
L 100.4544 76.649019 
L 104.0256 82.706951 
L 107.5968 90.181133 
L 111.168 99.360864 
L 114.7392 110.446921 
L 118.3104 123.221253 
L 121.8816 137.398885 
L 125.4528 151.960804 
L 129.024 165.166921 
L 132.5952 176.550909 
L 136.1664 185.523382 
L 139.7376 192.138315 
L 143.3088 196.292078 
L 146.88 199.020954 
L 150.4512 200.905691 
L 154.0224 202.011058 
L 157.5936 202.805541 
L 161.1648 203.440264 
L 164.736 203.919544 
L 168.3072 204.280084 
L 171.8784 204.569379 
L 175.4496 204.82845 
L 179.0208 205.024912 
L 182.592 205.225691 
L 186.1632 205.374657 
L 189.7344 205.504192 
L 193.3056 205.62725 
L 196.8768 205.696336 
L 200.448 205.769739 
L 204.0192 205.849619 
L 207.5904 205.886321 
L 211.1616 205.938135 
L 214.7328 205.976996 
L 218.304 206.009379 
L 221.8752 206.020174 
L 225.4464 206.043922 
L 229.0176 206.050399 
L 232.5888 206.063352 
L 236.16 206.074147 
L 239.7312 206.082783 
L 243.3024 206.084942 
L 246.8736 206.089259 
L 250.4448 206.093577 
L 254.016 206.097895 
L 257.5872 206.097895 
L 261.1584 206.097895 
L 264.7296 206.097895 
L 268.3008 206.097895 
L 271.872 206.097895 
L 275.4432 206.097895 
L 279.0144 206.097895 
L 282.5856 206.097895 
L 286.1568 206.097895 
L 289.728 206.097895 
L 293.2992 206.097895 
L 296.8704 206.097895 
L 300.4416 206.097895 
L 304.0128 206.097895 
L 307.584 206.097895 
L 311.1552 206.097895 
L 314.7264 206.097895 
L 318.2976 206.097895 
L 321.8688 206.097895 
L 325.44 206.097895 
L 329.0112 206.097895 
L 332.5824 206.097895 
L 336.1536 206.097895 
L 339.7248 206.097895 
L 343.296 206.097895 
L 346.8672 206.097895 
L 350.4384 206.097895 
L 354.0096 206.097895 
L 357.5808 206.097895 
L 361.152 206.097895 
L 364.7232 206.097895 
L 368.2944 206.097895 
L 371.8656 206.097895 
L 375.4368 206.097895 
L 379.008 206.097895 
L 382.5792 206.097895 
L 386.1504 206.097895 
L 389.7216 206.097895 
L 393.2928 206.097895 
L 396.864 206.097895 
L 400.4352 206.097895 
L 404.0064 206.097895 
L 407.5776 206.097895 
L 411.1488 206.097895 
" style="fill:none;stroke:#1f77b4;stroke-linecap:square;stroke-width:1.5;"/>
   </g>
   <g id="line2d_14">
    <path clip-path="url(#p793520690a)" d="M 57.6 53.568 
L 61.1712 53.710489 
L 64.7424 54.030009 
L 68.3136 54.450999 
L 71.8848 55.051178 
L 75.456 55.973037 
L 79.0272 57.225211 
L 82.5984 58.855196 
L 86.1696 61.046501 
L 89.7408 63.94809 
L 93.312 67.700294 
L 96.8832 71.806561 
L 100.4544 76.649019 
L 104.0256 82.706951 
L 107.5968 90.181133 
L 111.168 99.360864 
L 114.7392 110.446921 
L 118.3104 123.221253 
L 121.8816 137.398885 
L 125.4528 151.960804 
L 129.024 165.166921 
L 132.5952 176.550909 
L 136.1664 185.523382 
L 139.7376 192.138315 
L 143.3088 196.292078 
L 146.88 199.020954 
L 150.4512 200.905691 
L 154.0224 202.011058 
L 157.5936 202.805541 
L 161.1648 203.440264 
L 164.736 203.919544 
L 168.3072 204.280084 
L 171.8784 204.569379 
L 175.4496 204.82845 
L 179.0208 205.024912 
L 182.592 205.225691 
L 186.1632 205.374657 
L 189.7344 205.504192 
L 193.3056 205.62725 
L 196.8768 205.696336 
L 200.448 205.769739 
L 204.0192 205.849619 
L 207.5904 205.886321 
L 211.1616 205.938135 
L 214.7328 205.976996 
L 218.304 206.009379 
L 221.8752 206.020174 
L 225.4464 206.043922 
L 229.0176 206.050399 
L 232.5888 206.063352 
L 236.16 206.074147 
L 239.7312 206.082783 
L 243.3024 206.084942 
L 246.8736 206.089259 
L 250.4448 206.093577 
L 254.016 206.097895 
L 257.5872 206.097895 
L 261.1584 206.097895 
L 264.7296 206.097895 
L 268.3008 206.097895 
L 271.872 206.097895 
L 275.4432 206.097895 
L 279.0144 206.097895 
L 282.5856 206.097895 
L 286.1568 206.097895 
L 289.728 206.097895 
L 293.2992 206.097895 
L 296.8704 206.097895 
L 300.4416 206.097895 
L 304.0128 206.097895 
L 307.584 206.097895 
L 311.1552 206.097895 
L 314.7264 206.097895 
L 318.2976 206.097895 
L 321.8688 206.097895 
L 325.44 206.097895 
L 329.0112 206.097895 
L 332.5824 206.097895 
L 336.1536 206.097895 
L 339.7248 206.097895 
L 343.296 206.097895 
L 346.8672 206.097895 
L 350.4384 206.097895 
L 354.0096 206.097895 
L 357.5808 206.097895 
L 361.152 206.097895 
L 364.7232 206.097895 
L 368.2944 206.097895 
L 371.8656 206.097895 
L 375.4368 206.097895 
L 379.008 206.097895 
L 382.5792 206.097895 
L 386.1504 206.097895 
L 389.7216 206.097895 
L 393.2928 206.097895 
L 396.864 206.097895 
L 400.4352 206.097895 
L 404.0064 206.097895 
L 407.5776 206.097895 
L 411.1488 206.097895 
" style="fill:none;stroke:#000000;stroke-linecap:square;stroke-width:4;"/>
   </g>
   <g id="line2d_15">
    <path clip-path="url(#p793520690a)" d="M 57.6 295.395166 
L 61.1712 295.256996 
L 64.7424 294.94827 
L 68.3136 294.5683 
L 71.8848 294.032888 
L 75.456 293.234087 
L 79.0272 292.212918 
L 82.5984 290.891658 
L 86.1696 289.160204 
L 89.7408 287.018555 
L 93.312 284.270249 
L 96.8832 281.545691 
L 100.4544 278.484342 
L 104.0256 274.660894 
L 107.5968 269.963082 
L 111.168 264.241943 
L 114.7392 257.424072 
L 118.3104 249.958525 
L 121.8816 242.149709 
L 125.4528 235.277865 
L 129.024 231.132738 
L 132.5952 229.833067 
L 136.1664 232.020054 
L 139.7376 237.272708 
L 143.3088 244.949829 
L 146.88 253.639484 
L 150.4512 262.08734 
L 154.0224 269.760144 
L 157.5936 276.232588 
L 161.1648 281.254237 
L 164.736 285.14893 
L 168.3072 288.00734 
L 171.8784 290.118765 
L 175.4496 291.591148 
L 179.0208 292.629589 
L 182.592 293.270789 
L 186.1632 293.784612 
L 189.7344 294.123562 
L 193.3056 294.363202 
L 196.8768 294.581253 
L 200.448 294.743172 
L 204.0192 294.859754 
L 207.5904 294.978495 
L 211.1616 295.036786 
L 214.7328 295.099394 
L 218.304 295.166321 
L 221.8752 295.22893 
L 225.4464 295.276426 
L 229.0176 295.326081 
L 232.5888 295.360624 
L 236.16 295.380054 
L 239.7312 295.410279 
L 243.3024 295.434027 
L 246.8736 295.446981 
L 250.4448 295.457775 
L 254.016 295.462093 
L 257.5872 295.466411 
L 261.1584 295.472888 
L 264.7296 295.477205 
L 268.3008 295.479364 
L 271.872 295.481523 
L 275.4432 295.483682 
L 279.0144 295.483682 
L 282.5856 295.485841 
L 286.1568 295.488 
L 289.728 295.488 
L 293.2992 295.488 
L 296.8704 295.488 
L 300.4416 295.488 
L 304.0128 295.488 
L 307.584 295.488 
L 311.1552 295.488 
L 314.7264 295.488 
L 318.2976 295.488 
L 321.8688 295.488 
L 325.44 295.488 
L 329.0112 295.488 
L 332.5824 295.488 
L 336.1536 295.488 
L 339.7248 295.488 
L 343.296 295.488 
L 346.8672 295.488 
L 350.4384 295.488 
L 354.0096 295.488 
L 357.5808 295.488 
L 361.152 295.488 
L 364.7232 295.488 
L 368.2944 295.488 
L 371.8656 295.488 
L 375.4368 295.488 
L 379.008 295.488 
L 382.5792 295.488 
L 386.1504 295.488 
L 389.7216 295.488 
L 393.2928 295.488 
L 396.864 295.488 
L 400.4352 295.488 
L 404.0064 295.488 
L 407.5776 295.488 
L 411.1488 295.488 
" style="fill:none;stroke:#ff7f0e;stroke-linecap:square;stroke-width:1.5;"/>
   </g>
   <g id="line2d_16">
    <path clip-path="url(#p793520690a)" d="M 57.6 295.395166 
L 61.1712 295.256996 
L 64.7424 294.94827 
L 68.3136 294.5683 
L 71.8848 294.032888 
L 75.456 293.234087 
L 79.0272 292.212918 
L 82.5984 290.891658 
L 86.1696 289.160204 
L 89.7408 287.018555 
L 93.312 284.270249 
L 96.8832 281.545691 
L 100.4544 278.484342 
L 104.0256 274.660894 
L 107.5968 269.963082 
L 111.168 264.241943 
L 114.7392 257.424072 
L 118.3104 249.958525 
L 121.8816 242.149709 
L 125.4528 235.277865 
L 129.024 231.132738 
L 132.5952 229.833067 
L 136.1664 232.020054 
L 139.7376 237.272708 
L 143.3088 244.949829 
L 146.88 253.639484 
L 150.4512 262.08734 
L 154.0224 269.760144 
L 157.5936 276.232588 
L 161.1648 281.254237 
L 164.736 285.14893 
L 168.3072 288.00734 
L 171.8784 290.118765 
L 175.4496 291.591148 
L 179.0208 292.629589 
L 182.592 293.270789 
L 186.1632 293.784612 
L 189.7344 294.123562 
L 193.3056 294.363202 
L 196.8768 294.581253 
L 200.448 294.743172 
L 204.0192 294.859754 
L 207.5904 294.978495 
L 211.1616 295.036786 
L 214.7328 295.099394 
L 218.304 295.166321 
L 221.8752 295.22893 
L 225.4464 295.276426 
L 229.0176 295.326081 
L 232.5888 295.360624 
L 236.16 295.380054 
L 239.7312 295.410279 
L 243.3024 295.434027 
L 246.8736 295.446981 
L 250.4448 295.457775 
L 254.016 295.462093 
L 257.5872 295.466411 
L 261.1584 295.472888 
L 264.7296 295.477205 
L 268.3008 295.479364 
L 271.872 295.481523 
L 275.4432 295.483682 
L 279.0144 295.483682 
L 282.5856 295.485841 
L 286.1568 295.488 
L 289.728 295.488 
L 293.2992 295.488 
L 296.8704 295.488 
L 300.4416 295.488 
L 304.0128 295.488 
L 307.584 295.488 
L 311.1552 295.488 
L 314.7264 295.488 
L 318.2976 295.488 
L 321.8688 295.488 
L 325.44 295.488 
L 329.0112 295.488 
L 332.5824 295.488 
L 336.1536 295.488 
L 339.7248 295.488 
L 343.296 295.488 
L 346.8672 295.488 
L 350.4384 295.488 
L 354.0096 295.488 
L 357.5808 295.488 
L 361.152 295.488 
L 364.7232 295.488 
L 368.2944 295.488 
L 371.8656 295.488 
L 375.4368 295.488 
L 379.008 295.488 
L 382.5792 295.488 
L 386.1504 295.488 
L 389.7216 295.488 
L 393.2928 295.488 
L 396.864 295.488 
L 400.4352 295.488 
L 404.0064 295.488 
L 407.5776 295.488 
L 411.1488 295.488 
" style="fill:none;stroke:#0000ff;stroke-linecap:square;stroke-width:4;"/>
   </g>
   <g id="line2d_17">
    <path clip-path="url(#p793520690a)" d="M 57.6 295.485841 
L 61.1712 295.481523 
L 64.7424 295.470729 
L 68.3136 295.429709 
L 71.8848 295.364942 
L 75.456 295.241883 
L 79.0272 295.010879 
L 82.5984 294.702153 
L 86.1696 294.266051 
L 89.7408 293.544972 
L 93.312 292.62743 
L 96.8832 291.442183 
L 100.4544 289.963322 
L 104.0256 288.169259 
L 107.5968 286.066471 
L 111.168 283.540534 
L 114.7392 280.52884 
L 118.3104 276.910489 
L 121.8816 272.793427 
L 125.4528 268.050279 
L 129.024 262.484582 
L 132.5952 256.506531 
L 136.1664 250.364402 
L 139.7376 244.669169 
L 143.3088 240.416096 
L 146.88 238.203202 
L 150.4512 238.755886 
L 154.0224 242.402303 
L 157.5936 248.546591 
L 161.1648 256.191328 
L 164.736 264.233307 
L 168.3072 271.841343 
L 171.8784 278.285721 
L 175.4496 283.214537 
L 179.0208 286.811298 
L 182.592 289.42791 
L 186.1632 291.131298 
L 189.7344 292.294957 
L 193.3056 293.093757 
L 196.8768 293.655076 
L 200.448 294.048 
L 204.0192 294.322183 
L 207.5904 294.538075 
L 211.1616 294.715106 
L 214.7328 294.853277 
L 218.304 294.954747 
L 221.8752 295.051898 
L 225.4464 295.129619 
L 229.0176 295.183592 
L 232.5888 295.226771 
L 236.16 295.282903 
L 239.7312 295.30881 
L 243.3024 295.341193 
L 246.8736 295.375736 
L 250.4448 295.399484 
L 254.016 295.418915 
L 257.5872 295.438345 
L 261.1584 295.449139 
L 264.7296 295.455616 
L 268.3008 295.464252 
L 271.872 295.472888 
L 275.4432 295.475046 
L 279.0144 295.479364 
L 282.5856 295.481523 
L 286.1568 295.483682 
L 289.728 295.485841 
L 293.2992 295.488 
L 296.8704 295.488 
L 300.4416 295.488 
L 304.0128 295.488 
L 307.584 295.488 
L 311.1552 295.488 
L 314.7264 295.488 
L 318.2976 295.488 
L 321.8688 295.488 
L 325.44 295.488 
L 329.0112 295.488 
L 332.5824 295.488 
L 336.1536 295.488 
L 339.7248 295.488 
L 343.296 295.488 
L 346.8672 295.488 
L 350.4384 295.488 
L 354.0096 295.488 
L 357.5808 295.488 
L 361.152 295.488 
L 364.7232 295.488 
L 368.2944 295.488 
L 371.8656 295.488 
L 375.4368 295.488 
L 379.008 295.488 
L 382.5792 295.488 
L 386.1504 295.488 
L 389.7216 295.488 
L 393.2928 295.488 
L 396.864 295.488 
L 400.4352 295.488 
L 404.0064 295.488 
L 407.5776 295.488 
L 411.1488 295.488 
" style="fill:none;stroke:#2ca02c;stroke-linecap:square;stroke-width:1.5;"/>
   </g>
   <g id="line2d_18">
    <path clip-path="url(#p793520690a)" d="M 57.6 295.485841 
L 61.1712 295.481523 
L 64.7424 295.470729 
L 68.3136 295.429709 
L 71.8848 295.364942 
L 75.456 295.241883 
L 79.0272 295.010879 
L 82.5984 294.702153 
L 86.1696 294.266051 
L 89.7408 293.544972 
L 93.312 292.62743 
L 96.8832 291.442183 
L 100.4544 289.963322 
L 104.0256 288.169259 
L 107.5968 286.066471 
L 111.168 283.540534 
L 114.7392 280.52884 
L 118.3104 276.910489 
L 121.8816 272.793427 
L 125.4528 268.050279 
L 129.024 262.484582 
L 132.5952 256.506531 
L 136.1664 250.364402 
L 139.7376 244.669169 
L 143.3088 240.416096 
L 146.88 238.203202 
L 150.4512 238.755886 
L 154.0224 242.402303 
L 157.5936 248.546591 
L 161.1648 256.191328 
L 164.736 264.233307 
L 168.3072 271.841343 
L 171.8784 278.285721 
L 175.4496 283.214537 
L 179.0208 286.811298 
L 182.592 289.42791 
L 186.1632 291.131298 
L 189.7344 292.294957 
L 193.3056 293.093757 
L 196.8768 293.655076 
L 200.448 294.048 
L 204.0192 294.322183 
L 207.5904 294.538075 
L 211.1616 294.715106 
L 214.7328 294.853277 
L 218.304 294.954747 
L 221.8752 295.051898 
L 225.4464 295.129619 
L 229.0176 295.183592 
L 232.5888 295.226771 
L 236.16 295.282903 
L 239.7312 295.30881 
L 243.3024 295.341193 
L 246.8736 295.375736 
L 250.4448 295.399484 
L 254.016 295.418915 
L 257.5872 295.438345 
L 261.1584 295.449139 
L 264.7296 295.455616 
L 268.3008 295.464252 
L 271.872 295.472888 
L 275.4432 295.475046 
L 279.0144 295.479364 
L 282.5856 295.481523 
L 286.1568 295.483682 
L 289.728 295.485841 
L 293.2992 295.488 
L 296.8704 295.488 
L 300.4416 295.488 
L 304.0128 295.488 
L 307.584 295.488 
L 311.1552 295.488 
L 314.7264 295.488 
L 318.2976 295.488 
L 321.8688 295.488 
L 325.44 295.488 
L 329.0112 295.488 
L 332.5824 295.488 
L 336.1536 295.488 
L 339.7248 295.488 
L 343.296 295.488 
L 346.8672 295.488 
L 350.4384 295.488 
L 354.0096 295.488 
L 357.5808 295.488 
L 361.152 295.488 
L 364.7232 295.488 
L 368.2944 295.488 
L 371.8656 295.488 
L 375.4368 295.488 
L 379.008 295.488 
L 382.5792 295.488 
L 386.1504 295.488 
L 389.7216 295.488 
L 393.2928 295.488 
L 396.864 295.488 
L 400.4352 295.488 
L 404.0064 295.488 
L 407.5776 295.488 
L 411.1488 295.488 
" style="fill:none;stroke:#ff0000;stroke-linecap:square;stroke-width:4;"/>
   </g>
   <g id="line2d_19">
    <path clip-path="url(#p793520690a)" d="M 57.6 295.488 
L 61.1712 295.488 
L 64.7424 295.488 
L 68.3136 295.488 
L 71.8848 295.488 
L 75.456 295.488 
L 79.0272 295.488 
L 82.5984 295.488 
L 86.1696 295.464252 
L 89.7408 295.425391 
L 93.312 295.339034 
L 96.8832 295.142573 
L 100.4544 294.840324 
L 104.0256 294.399904 
L 107.5968 293.726321 
L 111.168 292.793667 
L 114.7392 291.537175 
L 118.3104 289.846741 
L 121.8816 287.601463 
L 125.4528 284.665331 
L 129.024 281.206741 
L 132.5952 277.156606 
L 136.1664 272.251538 
L 139.7376 266.286441 
L 143.3088 259.010879 
L 146.88 250.306111 
L 150.4512 240.049079 
L 154.0224 228.606801 
L 157.5936 216.380834 
L 161.1648 204.800384 
L 164.736 194.506651 
L 168.3072 186.376156 
L 171.8784 180.840684 
L 175.4496 178.38815 
L 179.0208 178.396786 
L 182.592 180.886021 
L 186.1632 185.935736 
L 189.7344 192.926321 
L 193.3056 201.659154 
L 196.8768 212.119124 
L 200.448 223.371418 
L 204.0192 234.753247 
L 207.5904 245.709769 
L 211.1616 255.990549 
L 214.7328 264.785991 
L 218.304 272.011898 
L 221.8752 277.869049 
L 225.4464 282.173937 
L 229.0176 285.511628 
L 232.5888 287.994387 
L 236.16 289.786291 
L 239.7312 291.131298 
L 243.3024 292.098495 
L 246.8736 292.836846 
L 250.4448 293.372258 
L 254.016 293.786771 
L 257.5872 294.119244 
L 261.1584 294.384792 
L 264.7296 294.576936 
L 268.3008 294.74749 
L 271.872 294.877025 
L 275.4432 294.993607 
L 279.0144 295.0886 
L 282.5856 295.157685 
L 286.1568 295.218135 
L 289.728 295.282903 
L 293.2992 295.321763 
L 296.8704 295.358465 
L 300.4416 295.377895 
L 304.0128 295.410279 
L 307.584 295.431868 
L 311.1552 295.449139 
L 314.7264 295.459934 
L 318.2976 295.462093 
L 321.8688 295.46857 
L 325.44 295.475046 
L 329.0112 295.479364 
L 332.5824 295.481523 
L 336.1536 295.485841 
L 339.7248 295.488 
L 343.296 295.488 
L 346.8672 295.488 
L 350.4384 295.488 
L 354.0096 295.488 
L 357.5808 295.488 
L 361.152 295.488 
L 364.7232 295.488 
L 368.2944 295.488 
L 371.8656 295.488 
L 375.4368 295.488 
L 379.008 295.488 
L 382.5792 295.488 
L 386.1504 295.488 
L 389.7216 295.488 
L 393.2928 295.488 
L 396.864 295.488 
L 400.4352 295.488 
L 404.0064 295.488 
L 407.5776 295.488 
L 411.1488 295.488 
" style="fill:none;stroke:#d62728;stroke-linecap:square;stroke-width:1.5;"/>
   </g>
   <g id="line2d_20">
    <path clip-path="url(#p793520690a)" d="M 57.6 295.488 
L 61.1712 295.488 
L 64.7424 295.488 
L 68.3136 295.488 
L 71.8848 295.488 
L 75.456 295.488 
L 79.0272 295.488 
L 82.5984 295.488 
L 86.1696 295.464252 
L 89.7408 295.425391 
L 93.312 295.339034 
L 96.8832 295.142573 
L 100.4544 294.840324 
L 104.0256 294.399904 
L 107.5968 293.726321 
L 111.168 292.793667 
L 114.7392 291.537175 
L 118.3104 289.846741 
L 121.8816 287.601463 
L 125.4528 284.665331 
L 129.024 281.206741 
L 132.5952 277.156606 
L 136.1664 272.251538 
L 139.7376 266.286441 
L 143.3088 259.010879 
L 146.88 250.306111 
L 150.4512 240.049079 
L 154.0224 228.606801 
L 157.5936 216.380834 
L 161.1648 204.800384 
L 164.736 194.506651 
L 168.3072 186.376156 
L 171.8784 180.840684 
L 175.4496 178.38815 
L 179.0208 178.396786 
L 182.592 180.886021 
L 186.1632 185.935736 
L 189.7344 192.926321 
L 193.3056 201.659154 
L 196.8768 212.119124 
L 200.448 223.371418 
L 204.0192 234.753247 
L 207.5904 245.709769 
L 211.1616 255.990549 
L 214.7328 264.785991 
L 218.304 272.011898 
L 221.8752 277.869049 
L 225.4464 282.173937 
L 229.0176 285.511628 
L 232.5888 287.994387 
L 236.16 289.786291 
L 239.7312 291.131298 
L 243.3024 292.098495 
L 246.8736 292.836846 
L 250.4448 293.372258 
L 254.016 293.786771 
L 257.5872 294.119244 
L 261.1584 294.384792 
L 264.7296 294.576936 
L 268.3008 294.74749 
L 271.872 294.877025 
L 275.4432 294.993607 
L 279.0144 295.0886 
L 282.5856 295.157685 
L 286.1568 295.218135 
L 289.728 295.282903 
L 293.2992 295.321763 
L 296.8704 295.358465 
L 300.4416 295.377895 
L 304.0128 295.410279 
L 307.584 295.431868 
L 311.1552 295.449139 
L 314.7264 295.459934 
L 318.2976 295.462093 
L 321.8688 295.46857 
L 325.44 295.475046 
L 329.0112 295.479364 
L 332.5824 295.481523 
L 336.1536 295.485841 
L 339.7248 295.488 
L 343.296 295.488 
L 346.8672 295.488 
L 350.4384 295.488 
L 354.0096 295.488 
L 357.5808 295.488 
L 361.152 295.488 
L 364.7232 295.488 
L 368.2944 295.488 
L 371.8656 295.488 
L 375.4368 295.488 
L 379.008 295.488 
L 382.5792 295.488 
L 386.1504 295.488 
L 389.7216 295.488 
L 393.2928 295.488 
L 396.864 295.488 
L 400.4352 295.488 
L 404.0064 295.488 
L 407.5776 295.488 
L 411.1488 295.488 
" style="fill:none;stroke:#800080;stroke-linecap:square;stroke-width:4;"/>
   </g>
   <g id="line2d_21">
    <path clip-path="url(#p793520690a)" d="M 57.6 295.393007 
L 61.1712 295.250519 
L 64.7424 294.930999 
L 68.3136 294.510009 
L 71.8848 293.909829 
L 75.456 292.98797 
L 79.0272 291.735796 
L 82.5984 290.105811 
L 86.1696 287.914507 
L 89.7408 285.012918 
L 93.312 281.260714 
L 96.8832 277.154447 
L 100.4544 272.311988 
L 104.0256 266.254057 
L 107.5968 258.779874 
L 111.168 249.600144 
L 114.7392 238.514087 
L 118.3104 225.739754 
L 121.8816 211.562123 
L 125.4528 197.000204 
L 129.024 183.794087 
L 132.5952 172.410099 
L 136.1664 163.437625 
L 139.7376 156.822693 
L 143.3088 152.66893 
L 146.88 149.940054 
L 150.4512 148.055316 
L 154.0224 146.949949 
L 157.5936 146.155466 
L 161.1648 145.520744 
L 164.736 145.041463 
L 168.3072 144.680924 
L 171.8784 144.391628 
L 175.4496 144.132558 
L 179.0208 143.936096 
L 182.592 143.735316 
L 186.1632 143.586351 
L 189.7344 143.456816 
L 193.3056 143.333757 
L 196.8768 143.264672 
L 200.448 143.191268 
L 204.0192 143.111388 
L 207.5904 143.074687 
L 211.1616 143.022873 
L 214.7328 142.984012 
L 218.304 142.951628 
L 221.8752 142.940834 
L 225.4464 142.917085 
L 229.0176 142.910609 
L 232.5888 142.897655 
L 236.16 142.886861 
L 239.7312 142.878225 
L 243.3024 142.876066 
L 246.8736 142.871748 
L 250.4448 142.86743 
L 254.016 142.863112 
L 257.5872 142.863112 
L 261.1584 142.863112 
L 264.7296 142.863112 
L 268.3008 142.863112 
L 271.872 142.863112 
L 275.4432 142.863112 
L 279.0144 142.863112 
L 282.5856 142.863112 
L 286.1568 142.863112 
L 289.728 142.863112 
L 293.2992 142.863112 
L 296.8704 142.863112 
L 300.4416 142.863112 
L 304.0128 142.863112 
L 307.584 142.863112 
L 311.1552 142.863112 
L 314.7264 142.863112 
L 318.2976 142.863112 
L 321.8688 142.863112 
L 325.44 142.863112 
L 329.0112 142.863112 
L 332.5824 142.863112 
L 336.1536 142.863112 
L 339.7248 142.863112 
L 343.296 142.863112 
L 346.8672 142.863112 
L 350.4384 142.863112 
L 354.0096 142.863112 
L 357.5808 142.863112 
L 361.152 142.863112 
L 364.7232 142.863112 
L 368.2944 142.863112 
L 371.8656 142.863112 
L 375.4368 142.863112 
L 379.008 142.863112 
L 382.5792 142.863112 
L 386.1504 142.863112 
L 389.7216 142.863112 
L 393.2928 142.863112 
L 396.864 142.863112 
L 400.4352 142.863112 
L 404.0064 142.863112 
L 407.5776 142.863112 
L 411.1488 142.863112 
" style="fill:none;stroke:#9467bd;stroke-linecap:square;stroke-width:1.5;"/>
   </g>
   <g id="line2d_22">
    <path clip-path="url(#p793520690a)" d="M 57.6 295.393007 
L 61.1712 295.250519 
L 64.7424 294.930999 
L 68.3136 294.510009 
L 71.8848 293.909829 
L 75.456 292.98797 
L 79.0272 291.735796 
L 82.5984 290.105811 
L 86.1696 287.914507 
L 89.7408 285.012918 
L 93.312 281.260714 
L 96.8832 277.154447 
L 100.4544 272.311988 
L 104.0256 266.254057 
L 107.5968 258.779874 
L 111.168 249.600144 
L 114.7392 238.514087 
L 118.3104 225.739754 
L 121.8816 211.562123 
L 125.4528 197.000204 
L 129.024 183.794087 
L 132.5952 172.410099 
L 136.1664 163.437625 
L 139.7376 156.822693 
L 143.3088 152.66893 
L 146.88 149.940054 
L 150.4512 148.055316 
L 154.0224 146.949949 
L 157.5936 146.155466 
L 161.1648 145.520744 
L 164.736 145.041463 
L 168.3072 144.680924 
L 171.8784 144.391628 
L 175.4496 144.132558 
L 179.0208 143.936096 
L 182.592 143.735316 
L 186.1632 143.586351 
L 189.7344 143.456816 
L 193.3056 143.333757 
L 196.8768 143.264672 
L 200.448 143.191268 
L 204.0192 143.111388 
L 207.5904 143.074687 
L 211.1616 143.022873 
L 214.7328 142.984012 
L 218.304 142.951628 
L 221.8752 142.940834 
L 225.4464 142.917085 
L 229.0176 142.910609 
L 232.5888 142.897655 
L 236.16 142.886861 
L 239.7312 142.878225 
L 243.3024 142.876066 
L 246.8736 142.871748 
L 250.4448 142.86743 
L 254.016 142.863112 
L 257.5872 142.863112 
L 261.1584 142.863112 
L 264.7296 142.863112 
L 268.3008 142.863112 
L 271.872 142.863112 
L 275.4432 142.863112 
L 279.0144 142.863112 
L 282.5856 142.863112 
L 286.1568 142.863112 
L 289.728 142.863112 
L 293.2992 142.863112 
L 296.8704 142.863112 
L 300.4416 142.863112 
L 304.0128 142.863112 
L 307.584 142.863112 
L 311.1552 142.863112 
L 314.7264 142.863112 
L 318.2976 142.863112 
L 321.8688 142.863112 
L 325.44 142.863112 
L 329.0112 142.863112 
L 332.5824 142.863112 
L 336.1536 142.863112 
L 339.7248 142.863112 
L 343.296 142.863112 
L 346.8672 142.863112 
L 350.4384 142.863112 
L 354.0096 142.863112 
L 357.5808 142.863112 
L 361.152 142.863112 
L 364.7232 142.863112 
L 368.2944 142.863112 
L 371.8656 142.863112 
L 375.4368 142.863112 
L 379.008 142.863112 
L 382.5792 142.863112 
L 386.1504 142.863112 
L 389.7216 142.863112 
L 393.2928 142.863112 
L 396.864 142.863112 
L 400.4352 142.863112 
L 404.0064 142.863112 
L 407.5776 142.863112 
L 411.1488 142.863112 
" style="fill:none;stroke:#ff0000;stroke-dasharray:32,8,5,8;stroke-dashoffset:0;stroke-width:5;"/>
   </g>
   <g id="line2d_23">
    <path clip-path="url(#p793520690a)" d="M 57.6 295.488 
L 61.1712 295.488 
L 64.7424 295.488 
L 68.3136 295.488 
L 71.8848 295.488 
L 75.456 295.488 
L 79.0272 295.488 
L 82.5984 295.488 
L 86.1696 295.488 
L 89.7408 295.488 
L 93.312 295.488 
L 96.8832 295.488 
L 100.4544 295.488 
L 104.0256 295.488 
L 107.5968 295.488 
L 111.168 295.488 
L 114.7392 295.488 
L 118.3104 295.488 
L 121.8816 295.483682 
L 125.4528 295.475046 
L 129.024 295.442663 
L 132.5952 295.386531 
L 136.1664 295.285061 
L 139.7376 295.090759 
L 143.3088 294.797145 
L 146.88 294.320024 
L 150.4512 293.717685 
L 154.0224 292.774237 
L 157.5936 291.645121 
L 161.1648 290.019454 
L 164.736 287.985751 
L 168.3072 285.408 
L 171.8784 282.273247 
L 175.4496 278.300834 
L 179.0208 273.695856 
L 182.592 268.071868 
L 186.1632 260.992768 
L 189.7344 252.778075 
L 193.3056 243.369499 
L 196.8768 232.693637 
L 200.448 221.406801 
L 204.0192 210.165301 
L 207.5904 199.424672 
L 211.1616 189.420234 
L 214.7328 180.840684 
L 218.304 173.826351 
L 221.8752 168.113847 
L 225.4464 163.890999 
L 229.0176 160.615916 
L 232.5888 158.18713 
L 236.16 156.393067 
L 239.7312 155.043742 
L 243.3024 154.072228 
L 246.8736 153.333877 
L 250.4448 152.791988 
L 254.016 152.366681 
L 257.5872 152.042843 
L 261.1584 151.775136 
L 264.7296 151.578675 
L 268.3008 151.405961 
L 271.872 151.265631 
L 275.4432 151.153367 
L 279.0144 151.060534 
L 282.5856 150.991448 
L 286.1568 150.92884 
L 289.728 150.864072 
L 293.2992 150.823052 
L 296.8704 150.78851 
L 300.4416 150.771238 
L 304.0128 150.738855 
L 307.584 150.719424 
L 311.1552 150.704312 
L 314.7264 150.693517 
L 318.2976 150.691358 
L 321.8688 150.684882 
L 325.44 150.678405 
L 329.0112 150.674087 
L 332.5824 150.671928 
L 336.1536 150.66761 
L 339.7248 150.665451 
L 343.296 150.665451 
L 346.8672 150.665451 
L 350.4384 150.665451 
L 354.0096 150.665451 
L 357.5808 150.665451 
L 361.152 150.665451 
L 364.7232 150.665451 
L 368.2944 150.665451 
L 371.8656 150.665451 
L 375.4368 150.665451 
L 379.008 150.665451 
L 382.5792 150.665451 
L 386.1504 150.665451 
L 389.7216 150.665451 
L 393.2928 150.665451 
L 396.864 150.665451 
L 400.4352 150.665451 
L 404.0064 150.665451 
L 407.5776 150.665451 
L 411.1488 150.665451 
" style="fill:none;stroke:#8c564b;stroke-linecap:square;stroke-width:1.5;"/>
   </g>
   <g id="line2d_24">
    <path clip-path="url(#p793520690a)" d="M 57.6 295.488 
L 61.1712 295.488 
L 64.7424 295.488 
L 68.3136 295.488 
L 71.8848 295.488 
L 75.456 295.488 
L 79.0272 295.488 
L 82.5984 295.488 
L 86.1696 295.488 
L 89.7408 295.488 
L 93.312 295.488 
L 96.8832 295.488 
L 100.4544 295.488 
L 104.0256 295.488 
L 107.5968 295.488 
L 111.168 295.488 
L 114.7392 295.488 
L 118.3104 295.488 
L 121.8816 295.483682 
L 125.4528 295.475046 
L 129.024 295.442663 
L 132.5952 295.386531 
L 136.1664 295.285061 
L 139.7376 295.090759 
L 143.3088 294.797145 
L 146.88 294.320024 
L 150.4512 293.717685 
L 154.0224 292.774237 
L 157.5936 291.645121 
L 161.1648 290.019454 
L 164.736 287.985751 
L 168.3072 285.408 
L 171.8784 282.273247 
L 175.4496 278.300834 
L 179.0208 273.695856 
L 182.592 268.071868 
L 186.1632 260.992768 
L 189.7344 252.778075 
L 193.3056 243.369499 
L 196.8768 232.693637 
L 200.448 221.406801 
L 204.0192 210.165301 
L 207.5904 199.424672 
L 211.1616 189.420234 
L 214.7328 180.840684 
L 218.304 173.826351 
L 221.8752 168.113847 
L 225.4464 163.890999 
L 229.0176 160.615916 
L 232.5888 158.18713 
L 236.16 156.393067 
L 239.7312 155.043742 
L 243.3024 154.072228 
L 246.8736 153.333877 
L 250.4448 152.791988 
L 254.016 152.366681 
L 257.5872 152.042843 
L 261.1584 151.775136 
L 264.7296 151.578675 
L 268.3008 151.405961 
L 271.872 151.265631 
L 275.4432 151.153367 
L 279.0144 151.060534 
L 282.5856 150.991448 
L 286.1568 150.92884 
L 289.728 150.864072 
L 293.2992 150.823052 
L 296.8704 150.78851 
L 300.4416 150.771238 
L 304.0128 150.738855 
L 307.584 150.719424 
L 311.1552 150.704312 
L 314.7264 150.693517 
L 318.2976 150.691358 
L 321.8688 150.684882 
L 325.44 150.678405 
L 329.0112 150.674087 
L 332.5824 150.671928 
L 336.1536 150.66761 
L 339.7248 150.665451 
L 343.296 150.665451 
L 346.8672 150.665451 
L 350.4384 150.665451 
L 354.0096 150.665451 
L 357.5808 150.665451 
L 361.152 150.665451 
L 364.7232 150.665451 
L 368.2944 150.665451 
L 371.8656 150.665451 
L 375.4368 150.665451 
L 379.008 150.665451 
L 382.5792 150.665451 
L 386.1504 150.665451 
L 389.7216 150.665451 
L 393.2928 150.665451 
L 396.864 150.665451 
L 400.4352 150.665451 
L 404.0064 150.665451 
L 407.5776 150.665451 
L 411.1488 150.665451 
" style="fill:none;stroke:#008000;stroke-linecap:square;stroke-width:4;"/>
   </g>
   <g id="line2d_25">
    <path clip-path="url(#p793520690a)" d="M 57.6 295.488 
L 61.1712 295.488 
L 64.7424 295.488 
L 68.3136 295.488 
L 71.8848 295.488 
L 75.456 295.488 
L 79.0272 295.488 
L 82.5984 295.488 
L 86.1696 295.488 
L 89.7408 295.488 
L 93.312 295.488 
L 96.8832 295.488 
L 100.4544 295.488 
L 104.0256 295.488 
L 107.5968 295.488 
L 111.168 295.488 
L 114.7392 295.488 
L 118.3104 295.488 
L 121.8816 295.485841 
L 125.4528 295.483682 
L 129.024 295.479364 
L 132.5952 295.479364 
L 136.1664 295.46857 
L 139.7376 295.455616 
L 143.3088 295.446981 
L 146.88 295.423232 
L 150.4512 295.397325 
L 154.0224 295.358465 
L 157.5936 295.302333 
L 161.1648 295.20734 
L 164.736 295.118825 
L 168.3072 295.000084 
L 171.8784 294.825211 
L 175.4496 294.589889 
L 179.0208 294.354567 
L 182.592 294.030729 
L 186.1632 293.693937 
L 189.7344 293.285901 
L 193.3056 292.800144 
L 196.8768 292.16758 
L 200.448 291.573877 
L 204.0192 290.962903 
L 207.5904 290.375676 
L 211.1616 289.812198 
L 214.7328 289.356666 
L 218.304 288.944312 
L 221.8752 288.629109 
L 225.4464 288.398105 
L 229.0176 288.225391 
L 232.5888 288.080744 
L 236.16 287.996546 
L 239.7312 287.936096 
L 243.3024 287.882123 
L 246.8736 287.830309 
L 250.4448 287.797925 
L 254.016 287.780654 
L 257.5872 287.74827 
L 261.1584 287.733157 
L 264.7296 287.726681 
L 268.3008 287.718045 
L 271.872 287.718045 
L 275.4432 287.709409 
L 279.0144 287.702933 
L 282.5856 287.698615 
L 286.1568 287.696456 
L 289.728 287.694297 
L 293.2992 287.694297 
L 296.8704 287.692138 
L 300.4416 287.689979 
L 304.0128 287.689979 
L 307.584 287.68782 
L 311.1552 287.685661 
L 314.7264 287.685661 
L 318.2976 287.685661 
L 321.8688 287.685661 
L 325.44 287.685661 
L 329.0112 287.685661 
L 332.5824 287.685661 
L 336.1536 287.685661 
L 339.7248 287.685661 
L 343.296 287.685661 
L 346.8672 287.685661 
L 350.4384 287.685661 
L 354.0096 287.685661 
L 357.5808 287.685661 
L 361.152 287.685661 
L 364.7232 287.685661 
L 368.2944 287.685661 
L 371.8656 287.685661 
L 375.4368 287.685661 
L 379.008 287.685661 
L 382.5792 287.685661 
L 386.1504 287.685661 
L 389.7216 287.685661 
L 393.2928 287.685661 
L 396.864 287.685661 
L 400.4352 287.685661 
L 404.0064 287.685661 
L 407.5776 287.685661 
L 411.1488 287.685661 
" style="fill:none;stroke:#e377c2;stroke-linecap:square;stroke-width:1.5;"/>
   </g>
   <g id="line2d_26">
    <path clip-path="url(#p793520690a)" d="M 57.6 295.488 
L 61.1712 295.488 
L 64.7424 295.488 
L 68.3136 295.488 
L 71.8848 295.488 
L 75.456 295.488 
L 79.0272 295.488 
L 82.5984 295.488 
L 86.1696 295.488 
L 89.7408 295.488 
L 93.312 295.488 
L 96.8832 295.488 
L 100.4544 295.488 
L 104.0256 295.488 
L 107.5968 295.488 
L 111.168 295.488 
L 114.7392 295.488 
L 118.3104 295.488 
L 121.8816 295.485841 
L 125.4528 295.483682 
L 129.024 295.479364 
L 132.5952 295.479364 
L 136.1664 295.46857 
L 139.7376 295.455616 
L 143.3088 295.446981 
L 146.88 295.423232 
L 150.4512 295.397325 
L 154.0224 295.358465 
L 157.5936 295.302333 
L 161.1648 295.20734 
L 164.736 295.118825 
L 168.3072 295.000084 
L 171.8784 294.825211 
L 175.4496 294.589889 
L 179.0208 294.354567 
L 182.592 294.030729 
L 186.1632 293.693937 
L 189.7344 293.285901 
L 193.3056 292.800144 
L 196.8768 292.16758 
L 200.448 291.573877 
L 204.0192 290.962903 
L 207.5904 290.375676 
L 211.1616 289.812198 
L 214.7328 289.356666 
L 218.304 288.944312 
L 221.8752 288.629109 
L 225.4464 288.398105 
L 229.0176 288.225391 
L 232.5888 288.080744 
L 236.16 287.996546 
L 239.7312 287.936096 
L 243.3024 287.882123 
L 246.8736 287.830309 
L 250.4448 287.797925 
L 254.016 287.780654 
L 257.5872 287.74827 
L 261.1584 287.733157 
L 264.7296 287.726681 
L 268.3008 287.718045 
L 271.872 287.718045 
L 275.4432 287.709409 
L 279.0144 287.702933 
L 282.5856 287.698615 
L 286.1568 287.696456 
L 289.728 287.694297 
L 293.2992 287.694297 
L 296.8704 287.692138 
L 300.4416 287.689979 
L 304.0128 287.689979 
L 307.584 287.68782 
L 311.1552 287.685661 
L 314.7264 287.685661 
L 318.2976 287.685661 
L 321.8688 287.685661 
L 325.44 287.685661 
L 329.0112 287.685661 
L 332.5824 287.685661 
L 336.1536 287.685661 
L 339.7248 287.685661 
L 343.296 287.685661 
L 346.8672 287.685661 
L 350.4384 287.685661 
L 354.0096 287.685661 
L 357.5808 287.685661 
L 361.152 287.685661 
L 364.7232 287.685661 
L 368.2944 287.685661 
L 371.8656 287.685661 
L 375.4368 287.685661 
L 379.008 287.685661 
L 382.5792 287.685661 
L 386.1504 287.685661 
L 389.7216 287.685661 
L 393.2928 287.685661 
L 396.864 287.685661 
L 400.4352 287.685661 
L 404.0064 287.685661 
L 407.5776 287.685661 
L 411.1488 287.685661 
" style="fill:none;stroke:#808080;stroke-linecap:square;stroke-width:4;"/>
   </g>
   <g id="patch_3">
    <path d="M 57.6 307.584 
L 57.6 41.472 
" style="fill:none;stroke:#000000;stroke-linecap:square;stroke-linejoin:miter;stroke-width:0.8;"/>
   </g>
   <g id="patch_4">
    <path d="M 414.72 307.584 
L 414.72 41.472 
" style="fill:none;stroke:#000000;stroke-linecap:square;stroke-linejoin:miter;stroke-width:0.8;"/>
   </g>
   <g id="patch_5">
    <path d="M 57.6 307.584 
L 414.72 307.584 
" style="fill:none;stroke:#000000;stroke-linecap:square;stroke-linejoin:miter;stroke-width:0.8;"/>
   </g>
   <g id="patch_6">
    <path d="M 57.6 41.472 
L 414.72 41.472 
" style="fill:none;stroke:#000000;stroke-linecap:square;stroke-linejoin:miter;stroke-width:0.8;"/>
   </g>
   <g id="text_15">
    <!-- 模型运行1次的感染情况 -->
    <g transform="translate(172.641562 35.472)scale(0.12 -0.12)">
     <defs>
      <path d="M 32.03125 15.375 
L 60.296875 15.375 
Q 60.9375 18.953125 61.140625 24.171875 
L 46.09375 24.171875 
L 46.09375 21.4375 
L 39.0625 21.4375 
L 39.0625 56.78125 
L 91.3125 56.78125 
L 91.3125 21.4375 
L 84.28125 21.4375 
L 84.28125 24.171875 
L 67.875 24.171875 
Q 67.578125 18.796875 67 15.375 
L 97.65625 15.375 
L 97.65625 9.125 
L 70.703125 9.125 
Q 81.296875 -2.734375 98.734375 -5.328125 
Q 96 -8.9375 93.953125 -12.640625 
Q 75.046875 -7.125 64.5 7.28125 
Q 57.515625 -6.734375 32.421875 -13.234375 
Q 30.765625 -9.8125 28.609375 -6.5 
Q 51.609375 -1.65625 58.015625 9.125 
L 32.03125 9.125 
z
M 0.984375 22.015625 
Q 9.421875 36.1875 14.40625 54.828125 
L 2.15625 54.828125 
L 2.15625 61.28125 
L 15.71875 61.28125 
L 15.71875 82.953125 
L 22.5625 82.953125 
L 22.5625 61.28125 
L 35.25 61.28125 
L 35.25 54.828125 
L 22.5625 54.828125 
L 22.5625 41.9375 
L 26.375 45.0625 
Q 31.9375 39.109375 36.71875 33.0625 
L 31.34375 28.5625 
Q 26.859375 35.0625 22.5625 40.046875 
L 22.5625 -12.84375 
L 15.71875 -12.84375 
L 15.71875 40.328125 
Q 10.5 22.46875 4.296875 13.421875 
Q 2.9375 17.625 0.984375 22.015625 
z
M 73.640625 82.859375 
L 80.46875 82.859375 
L 80.46875 73.484375 
L 97.265625 73.484375 
L 97.265625 67.234375 
L 80.46875 67.234375 
L 80.46875 59.328125 
L 73.640625 59.328125 
L 73.640625 67.234375 
L 56.25 67.234375 
L 56.25 59.328125 
L 49.421875 59.328125 
L 49.421875 67.234375 
L 33.984375 67.234375 
L 33.984375 73.484375 
L 49.421875 73.484375 
L 49.421875 82.953125 
L 56.25 82.953125 
L 56.25 73.484375 
L 73.640625 73.484375 
z
M 84.28125 50.734375 
L 46.09375 50.734375 
L 46.09375 43.40625 
L 84.28125 43.40625 
z
M 46.09375 30.21875 
L 84.28125 30.21875 
L 84.28125 37.546875 
L 46.09375 37.546875 
z
" id="MicrosoftYaHei-27169"/>
      <path d="M 2.34375 54.734375 
L 17.1875 54.734375 
Q 17.28125 56.84375 17.28125 71.046875 
L 6.453125 71.046875 
L 6.453125 77.484375 
L 57.421875 77.484375 
L 57.421875 71.046875 
L 46.78125 71.046875 
L 46.78125 54.734375 
L 60.640625 54.734375 
L 60.640625 48.296875 
L 46.78125 48.296875 
L 46.78125 27.296875 
L 39.65625 27.296875 
L 39.65625 48.296875 
L 23.875 48.296875 
Q 22.65625 34.234375 9.96875 23.96875 
Q 7.421875 26.8125 4.59375 29.640625 
Q 15.828125 38.328125 16.65625 48.296875 
L 2.34375 48.296875 
z
M 2.15625 -1.609375 
L 45.90625 -1.609375 
L 45.90625 11.578125 
L 11.03125 11.578125 
L 11.03125 18.3125 
L 45.90625 18.3125 
L 45.90625 25.921875 
L 53.515625 25.921875 
L 53.515625 18.3125 
L 89.265625 18.3125 
L 89.265625 11.578125 
L 53.515625 11.578125 
L 53.515625 -1.609375 
L 97.75 -1.609375 
L 97.75 -8.34375 
L 2.15625 -8.34375 
z
M 91.5 81.390625 
L 91.5 36.46875 
Q 91.5 26.125 81.25 25.921875 
Q 75.390625 25.734375 67.671875 25.921875 
Q 67.28125 29.640625 66.5 33.640625 
Q 74.703125 33.15625 78.8125 33.15625 
Q 84.375 33.15625 84.375 39.3125 
L 84.375 81.390625 
z
M 24.3125 54.734375 
L 39.65625 54.734375 
L 39.65625 71.046875 
L 24.421875 71.046875 
Q 24.421875 59.234375 24.3125 54.734375 
z
M 64.65625 75.921875 
L 71.6875 75.921875 
L 71.6875 42.140625 
L 64.65625 42.140625 
z
" id="MicrosoftYaHei-22411"/>
      <path d="M 67.484375 34.328125 
L 73.640625 38.234375 
Q 84.671875 23.78125 93.171875 10.40625 
L 86.140625 5.609375 
Q 83.9375 9.328125 81.640625 13.03125 
Q 53.90625 11.28125 41.890625 9.71875 
Q 38.578125 9.234375 34.96875 8.0625 
L 31.34375 15.09375 
Q 35.15625 17.71875 37.703125 21.34375 
Q 44.34375 31.390625 50.78125 44.671875 
L 29.984375 44.671875 
L 29.984375 52.09375 
L 96.875 52.09375 
L 96.875 44.671875 
L 60.0625 44.671875 
Q 51.609375 29.15625 43.75 17.4375 
Q 58.59375 18.3125 77.484375 19.578125 
Q 72.65625 27.046875 67.484375 34.328125 
z
M 43.0625 -2.203125 
L 71.6875 -2.78125 
L 98.640625 -1.703125 
Q 96.96875 -5.71875 95.515625 -9.515625 
L 66.40625 -9.71875 
L 41.40625 -9.421875 
Q 25.875 -9.03125 18.0625 1.90625 
Q 12.015625 -3.265625 5.765625 -10.890625 
L 1.5625 -2.59375 
Q 1.8125 -2.296875 14.546875 8.546875 
L 14.546875 41.84375 
L 2.046875 41.84375 
L 2.046875 49.078125 
L 22.359375 49.078125 
L 22.359375 7.171875 
Q 29.734375 -1.953125 43.0625 -2.203125 
z
M 36.53125 77.296875 
L 91.21875 77.296875 
L 91.21875 69.875 
L 36.53125 69.875 
z
M 12.40625 82.46875 
Q 19.921875 73.390625 27.25 63.71875 
L 20.3125 59.03125 
Q 13.765625 68.796875 6.453125 78.171875 
z
" id="MicrosoftYaHei-36816"/>
      <path d="M 36.921875 46.53125 
L 98.734375 46.53125 
L 98.734375 39.203125 
L 79.78125 39.203125 
L 79.78125 1.03125 
Q 79.78125 -11.078125 67.578125 -11.078125 
Q 59.375 -11.078125 50.875 -10.984375 
Q 50.296875 -7.078125 49.421875 -2.203125 
Q 57.03125 -2.984375 64.75 -2.984375 
Q 71.484375 -2.984375 71.484375 3.65625 
L 71.484375 39.203125 
L 36.921875 39.203125 
z
M 1.5625 24.65625 
Q 16.703125 37.0625 29.109375 59.515625 
L 35.9375 55.328125 
Q 30.90625 46.625 25.296875 39.0625 
L 25.296875 -12.640625 
L 17.1875 -12.640625 
L 17.1875 29 
Q 11.328125 22.359375 4.984375 16.75 
Q 3.421875 20.84375 1.5625 24.65625 
z
M 42.578125 76.03125 
L 93.265625 76.03125 
L 93.265625 68.703125 
L 42.578125 68.703125 
z
M 2.046875 55.609375 
Q 17.578125 67.625 27.046875 83.546875 
L 34.078125 79.25 
Q 22.75 61.859375 5.953125 48.09375 
Q 4.203125 51.8125 2.046875 55.609375 
z
" id="MicrosoftYaHei-34892"/>
      <path d="M 64.359375 54.25 
Q 64.265625 49.359375 63.921875 44.625 
Q 70.453125 11.375 98.734375 -4.4375 
Q 94.734375 -8.734375 92.390625 -12.0625 
Q 67.875 5.171875 60.9375 30.375 
Q 54.546875 3.125 25.78125 -13.53125 
Q 23.828125 -10.5 20.40625 -6.59375 
Q 50.390625 9.234375 55.078125 37.9375 
Q 56.453125 44.96875 56.546875 54.25 
z
M 77.25 41.359375 
Q 81.640625 49.46875 85.15625 58.84375 
L 46.734375 58.84375 
Q 42.484375 49.125 37.3125 40.1875 
Q 33.796875 42.71875 30.28125 44.390625 
Q 41.703125 63.03125 46.875 82.953125 
L 54.78125 80.71875 
Q 52.4375 73.046875 49.609375 65.765625 
L 93.5625 65.765625 
L 93.5625 58.84375 
Q 89.546875 48 84.765625 38.53125 
Q 81.453125 40.1875 77.25 41.359375 
z
M 21.6875 40.96875 
Q 26.171875 37.546875 29.296875 35.6875 
Q 16.796875 13.421875 8.984375 -2.78125 
L 1.078125 2.390625 
Q 11.140625 17.625 21.6875 40.96875 
z
M 10.0625 76.8125 
Q 17.96875 68.890625 27.828125 57.375 
L 21.484375 51.515625 
Q 12.015625 64.015625 4.390625 71.734375 
z
" id="MicrosoftYaHei-27425"/>
      <path d="M 5.5625 66.9375 
L 15.4375 66.9375 
Q 19.046875 75.828125 21.390625 83.15625 
L 29.59375 80.8125 
Q 26.515625 73.34375 23.640625 66.9375 
L 43.171875 66.9375 
L 43.171875 -10.796875 
L 35.359375 -10.796875 
L 35.359375 -3.171875 
L 13.375 -3.171875 
L 13.375 -11.46875 
L 5.5625 -11.46875 
z
M 44.625 46.921875 
Q 53.8125 61.46875 60.15625 83.15625 
L 68.359375 81.109375 
Q 65.875 73.734375 63.28125 67.234375 
L 94.734375 67.234375 
Q 93.5625 17.046875 92.78125 4.046875 
Q 92.09375 -11.28125 76.65625 -11.28125 
Q 67.78125 -11.28125 58.59375 -10.6875 
Q 58.015625 -5.8125 57.03125 -2 
L 57.328125 -2 
Q 67.09375 -3.375 75.203125 -3.375 
Q 84.078125 -3.375 84.765625 6 
Q 85.84375 20.5625 86.328125 59.90625 
L 60.15625 59.90625 
Q 55.90625 50.484375 51.375 43.3125 
Q 48.734375 45.171875 44.625 46.921875 
z
M 13.375 4.15625 
L 35.359375 4.15625 
L 35.359375 28.859375 
L 13.375 28.859375 
z
M 35.359375 59.625 
L 13.375 59.625 
L 13.375 35.890625 
L 35.359375 35.890625 
z
M 53.21875 40.28125 
L 59.1875 44.671875 
Q 70.015625 31.890625 76.46875 22.515625 
L 69.234375 17.4375 
Q 62.3125 28.765625 53.21875 40.28125 
z
" id="MicrosoftYaHei-30340"/>
     </defs>
     <use xlink:href="#MicrosoftYaHei-27169"/>
     <use x="100" xlink:href="#MicrosoftYaHei-22411"/>
     <use x="200" xlink:href="#MicrosoftYaHei-36816"/>
     <use x="300" xlink:href="#MicrosoftYaHei-34892"/>
     <use x="400" xlink:href="#MicrosoftYaHei-49"/>
     <use x="458.642578" xlink:href="#MicrosoftYaHei-27425"/>
     <use x="558.642578" xlink:href="#MicrosoftYaHei-30340"/>
     <use x="658.642578" xlink:href="#MicrosoftYaHei-24863"/>
     <use x="758.642578" xlink:href="#MicrosoftYaHei-26579"/>
     <use x="858.642578" xlink:href="#MicrosoftYaHei-24773"/>
     <use x="958.642578" xlink:href="#MicrosoftYaHei-20917"/>
    </g>
   </g>
   <g id="legend_1">
    <g id="patch_7">
     <path d="M 64.6 157.829813 
L 156.6 157.829813 
Q 158.6 157.829813 158.6 155.829813 
L 158.6 48.472 
Q 158.6 46.472 156.6 46.472 
L 64.6 46.472 
Q 62.6 46.472 62.6 48.472 
L 62.6 155.829813 
Q 62.6 157.829813 64.6 157.829813 
z
" style="fill:#ffffff;opacity:0.8;stroke:#cccccc;stroke-linejoin:miter;"/>
    </g>
    <g id="line2d_27">
     <path d="M 66.6 54.96575 
L 86.6 54.96575 
" style="fill:none;stroke:#000000;stroke-linecap:square;stroke-width:4;"/>
    </g>
    <g id="line2d_28"/>
    <g id="text_16">
     <!-- 易感人数 -->
     <g transform="translate(94.6 58.46575)scale(0.1 -0.1)">
      <defs>
       <path d="M 14.359375 78.46875 
L 86.234375 78.46875 
L 86.234375 37.84375 
L 78.609375 37.84375 
L 78.609375 41.75 
L 14.359375 41.75 
z
M 1.765625 17.046875 
Q 17.390625 25.53125 28.21875 40.09375 
L 35.15625 37.453125 
Q 33.203125 34.8125 31.25 32.375 
L 91.890625 32.375 
Q 91.015625 13.921875 90.046875 3.859375 
Q 88.765625 -11.859375 74.21875 -11.96875 
Q 66.109375 -12.0625 57.328125 -11.96875 
Q 56.734375 -7.765625 55.859375 -3.65625 
Q 64.359375 -4.4375 72.265625 -4.4375 
Q 81.453125 -4.4375 82.421875 4.734375 
Q 83.5 13.53125 83.890625 25.53125 
L 68.84375 25.53125 
Q 62.890625 -0.140625 34.1875 -13.921875 
Q 31.640625 -10.6875 28.71875 -7.28125 
Q 56.0625 3.953125 61.234375 25.53125 
L 46.390625 25.53125 
Q 39.265625 4.734375 8.6875 -7.078125 
Q 6.15625 -3.859375 3.21875 -0.53125 
Q 32.03125 10.203125 38.28125 25.53125 
L 25.09375 25.53125 
Q 16.796875 17.140625 6.640625 10.796875 
Q 4.59375 13.71875 1.765625 17.046875 
z
M 21.96875 48.578125 
L 78.609375 48.578125 
L 78.609375 56.78125 
L 21.96875 56.78125 
z
M 78.609375 71.625 
L 21.96875 71.625 
L 21.96875 63.625 
L 78.609375 63.625 
z
" id="MicrosoftYaHei-26131"/>
       <path d="M 1.5625 -4.734375 
Q 44.140625 19.875 46.578125 81.59375 
L 55.171875 81.59375 
Q 54.640625 71.140625 53.125 61.671875 
Q 65.234375 12.84375 98.640625 -2.59375 
Q 94.53125 -7.078125 91.40625 -11.078125 
Q 62.40625 5.328125 50.046875 46.96875 
Q 39.359375 6.734375 7.71875 -12.15625 
Q 5.078125 -8.546875 1.5625 -4.734375 
z
" id="MicrosoftYaHei-20154"/>
       <path d="M 65.234375 82.859375 
L 73.046875 81.6875 
Q 71 72.21875 68.265625 64.015625 
L 98.140625 64.015625 
L 98.140625 57.375 
L 92 57.375 
Q 89.546875 28.65625 79.5 11.765625 
Q 87.40625 1.03125 99.609375 -5.8125 
Q 96.484375 -10.109375 94.34375 -13.53125 
Q 82.421875 -5.8125 74.515625 4.828125 
Q 65.53125 -6.296875 53.125 -14.5 
Q 50.984375 -11.671875 47.5625 -8.34375 
Q 61.234375 0.640625 69.734375 12.0625 
Q 61.8125 25.734375 59.28125 43.609375 
Q 57.234375 39.984375 54.984375 36.859375 
Q 53.03125 39.703125 50.09375 43.109375 
Q 61.421875 59.421875 65.234375 82.859375 
z
M 2.34375 26.515625 
L 17.1875 26.515625 
Q 19.34375 30.21875 21.390625 34.125 
L 28.421875 31.890625 
Q 26.859375 29.15625 25.296875 26.515625 
L 49.21875 26.515625 
L 49.21875 20.171875 
Q 45.515625 10.59375 37.984375 3.375 
Q 43.359375 0.828125 48.921875 -1.703125 
L 44.625 -8.453125 
Q 38.578125 -5.03125 32.03125 -1.609375 
Q 21 -9.515625 4.203125 -14.109375 
Q 2.640625 -10.984375 0.875 -7.28125 
Q 15.140625 -4.046875 25 2 
Q 16.609375 6.296875 7.421875 10.796875 
Q 10.546875 15.28125 13.484375 20.0625 
L 2.34375 20.0625 
z
M 3.421875 60.109375 
L 25.875 60.109375 
L 25.875 81.984375 
L 33.109375 81.984375 
L 33.109375 60.109375 
L 51.859375 60.109375 
L 51.859375 53.65625 
L 33.109375 53.65625 
L 33.109375 47.703125 
L 36.03125 51.03125 
Q 45.125 44.390625 51.265625 39.3125 
L 46.578125 33.84375 
Q 41.21875 38.921875 33.109375 45.265625 
L 33.109375 34.125 
L 25.875 34.125 
L 25.875 47.796875 
Q 17 38.53125 5.171875 31.5 
Q 3.328125 34.328125 0.984375 37.453125 
Q 13.28125 44.09375 23.53125 53.65625 
L 3.421875 53.65625 
z
M 84.1875 57.375 
L 65.921875 57.375 
Q 65.4375 56.109375 64.84375 54.9375 
Q 66.609375 34.234375 74.609375 19.484375 
Q 82.421875 33.734375 84.1875 57.375 
z
M 17 13.03125 
Q 23.921875 9.90625 31.25 6.5 
Q 37.984375 12.25 41.796875 20.0625 
L 21.484375 20.0625 
Q 19.234375 16.453125 17 13.03125 
z
M 47.46875 79.546875 
L 53.515625 75.53125 
Q 48.140625 68.5 42.78125 62.546875 
Q 40.53125 64.5 37.5 66.65625 
Q 42.578125 72.609375 47.46875 79.546875 
z
M 5.953125 75.25 
L 11.53125 79.046875 
Q 15.921875 73.6875 20.609375 67.53125 
L 14.546875 63.234375 
Q 10.25 69.578125 5.953125 75.25 
z
" id="MicrosoftYaHei-25968"/>
      </defs>
      <use xlink:href="#MicrosoftYaHei-26131"/>
      <use x="100" xlink:href="#MicrosoftYaHei-24863"/>
      <use x="200" xlink:href="#MicrosoftYaHei-20154"/>
      <use x="300" xlink:href="#MicrosoftYaHei-25968"/>
     </g>
    </g>
    <g id="line2d_29">
     <path d="M 66.6 70.445438 
L 86.6 70.445438 
" style="fill:none;stroke:#0000ff;stroke-linecap:square;stroke-width:4;"/>
    </g>
    <g id="line2d_30"/>
    <g id="text_17">
     <!-- 潜伏患者人数 -->
     <g transform="translate(94.6 73.945438)scale(0.1 -0.1)">
      <defs>
       <path d="M 33.5 30.609375 
L 86.71875 30.609375 
L 86.71875 -12.75 
L 79.890625 -12.75 
L 79.890625 -7.5625 
L 40.328125 -7.5625 
L 40.328125 -12.9375 
L 33.5 -12.9375 
z
M 61.140625 57.765625 
L 72.65625 57.765625 
Q 73.296875 61.53125 73.390625 66.359375 
L 61.921875 66.359375 
L 61.921875 72.40625 
L 73.4375 72.40625 
L 73.4375 82.859375 
L 79.890625 82.859375 
L 79.890625 72.40625 
L 94.34375 72.40625 
L 94.34375 66.359375 
L 79.828125 66.359375 
Q 79.6875 61.765625 79.15625 57.765625 
L 96.09375 57.765625 
L 96.09375 51.703125 
L 82.859375 51.703125 
Q 87.984375 41.0625 98.921875 36.28125 
Q 96.875 33.84375 94.34375 30.03125 
Q 81 37.984375 77.6875 50.6875 
Q 74.078125 39.3125 61.234375 31.78125 
Q 59.46875 34.421875 56.84375 37.453125 
Q 67.578125 43.015625 71.140625 51.703125 
L 61.140625 51.703125 
z
M 25.390625 57.765625 
L 39.109375 57.765625 
Q 39.65625 61.578125 39.75 66.359375 
L 27.046875 66.359375 
L 27.046875 72.40625 
L 39.75 72.40625 
L 39.75 82.859375 
L 46.1875 82.859375 
L 46.1875 72.40625 
L 57.71875 72.40625 
L 57.71875 66.359375 
L 46.1875 66.359375 
Q 46.09375 61.671875 45.609375 57.765625 
L 58.296875 57.765625 
L 58.296875 51.703125 
L 44.53125 51.703125 
Q 44.28125 50.59375 44 49.609375 
Q 49.703125 45.609375 56.640625 39.703125 
L 52.046875 34.515625 
Q 47.171875 39.5 41.546875 44.046875 
Q 37.15625 36.328125 25.484375 29.046875 
Q 24.03125 31.203125 20.703125 34.90625 
Q 34.578125 41.65625 37.75 51.703125 
L 25.390625 51.703125 
z
M 40.328125 -1.125 
L 79.890625 -1.125 
L 79.890625 8.453125 
L 40.328125 8.453125 
z
M 79.890625 24.171875 
L 40.328125 24.171875 
L 40.328125 14.703125 
L 79.890625 14.703125 
z
M 4.5 -9.515625 
Q 10.25 8.0625 14.546875 28.265625 
Q 18.84375 26.421875 22.46875 25.25 
Q 17.28125 4.640625 13.09375 -12.15625 
z
M 5.078125 76.21875 
L 10.15625 81.390625 
Q 18.0625 75.140625 25.6875 68.21875 
L 19.828125 62.453125 
Q 12.703125 69.578125 5.078125 76.21875 
z
M 1.46875 50.828125 
L 6.0625 56.296875 
Q 13.875 50.34375 21.578125 43.796875 
L 16.3125 37.84375 
Q 8.890625 44.96875 1.46875 50.828125 
z
" id="MicrosoftYaHei-28508"/>
       <path d="M 28.8125 53.375 
L 57.671875 53.375 
Q 58.109375 67.921875 58.109375 83.0625 
L 66.015625 83.0625 
Q 65.921875 71.53125 65.578125 53.375 
L 97.953125 53.375 
L 97.953125 46.234375 
L 65.765625 46.234375 
Q 71.828125 12.203125 98.640625 -4.9375 
Q 94.734375 -9.125 92 -12.359375 
Q 69.390625 5.171875 62.5 31.59375 
Q 56.640625 5.90625 30.5625 -13.234375 
Q 28.21875 -10.015625 25.203125 -6.296875 
Q 54.734375 13.96875 57.328125 46.234375 
L 28.8125 46.234375 
z
M 1.375 36.375 
Q 16.5 56.78125 24.3125 82.5625 
L 32.234375 79.9375 
Q 27.390625 66.359375 21.6875 54.9375 
L 21.6875 -12.640625 
L 14.265625 -12.640625 
L 14.265625 41.546875 
Q 9.625 34.03125 4.5 27.6875 
Q 3.03125 31.890625 1.375 36.375 
z
M 78.21875 78.5625 
Q 86.234375 70.65625 92.390625 64.3125 
Q 89.359375 61.671875 86.421875 58.84375 
Q 79.78125 66.75 73.046875 73.875 
z
" id="MicrosoftYaHei-20239"/>
       <path d="M 10.75 46.046875 
L 46.390625 46.046875 
L 46.390625 53.65625 
L 18.75 53.65625 
L 18.75 50.921875 
L 11.71875 50.921875 
L 11.71875 74.5625 
L 46.390625 74.5625 
L 46.390625 82.765625 
L 53.609375 82.765625 
L 53.609375 74.5625 
L 88.28125 74.5625 
L 88.28125 50.921875 
L 81.25 50.921875 
L 81.25 53.65625 
L 53.609375 53.65625 
L 53.609375 46.046875 
L 89.265625 46.046875 
L 89.265625 20.84375 
L 82.234375 20.84375 
L 82.234375 24.5625 
L 53.609375 24.5625 
L 53.609375 18.5 
L 46.390625 18.5 
L 46.390625 24.5625 
L 17.78125 24.5625 
L 17.78125 20.84375 
L 10.75 20.84375 
z
M 25.203125 16.359375 
L 32.421875 16.359375 
L 32.421875 2.59375 
Q 32.421875 -3.375 39.15625 -3.375 
L 59.671875 -3.375 
Q 67 -3.375 67.96875 2.390625 
Q 68.75 5.71875 69.734375 12.75 
Q 73.046875 11.375 77.4375 9.8125 
Q 76.078125 2.984375 74.90625 -1.125 
Q 72.46875 -10.203125 60.9375 -10.203125 
L 37.3125 -10.203125 
Q 25.203125 -10.203125 25.203125 2.203125 
z
M 82.234375 39.796875 
L 53.609375 39.796875 
L 53.609375 30.8125 
L 82.234375 30.8125 
z
M 17.78125 30.8125 
L 46.390625 30.8125 
L 46.390625 39.796875 
L 17.78125 39.796875 
z
M 81.25 68.3125 
L 53.609375 68.3125 
L 53.609375 59.90625 
L 81.25 59.90625 
z
M 18.75 59.90625 
L 46.390625 59.90625 
L 46.390625 68.3125 
L 18.75 68.3125 
z
M 11.140625 15.375 
L 18.359375 12.9375 
Q 14.265625 0.640625 8.890625 -8.84375 
Q 6.34375 -7.46875 1.953125 -5.421875 
Q 7.8125 4.046875 11.140625 15.375 
z
M 80.078125 12.546875 
L 85.75 16.546875 
Q 92.671875 8.0625 98.734375 -0.25 
L 92.09375 -4.9375 
Q 86.234375 4.25 80.078125 12.546875 
z
M 39.265625 14.40625 
L 43.453125 19.875 
Q 53.03125 14.203125 59.578125 10.109375 
L 54.78125 3.859375 
Q 47.65625 9.03125 39.265625 14.40625 
z
" id="MicrosoftYaHei-24739"/>
       <path d="M 3.03125 51.609375 
L 40.140625 51.609375 
L 40.140625 63.921875 
L 12.703125 63.921875 
L 12.703125 70.5625 
L 40.140625 70.5625 
L 40.140625 82.953125 
L 47.953125 82.953125 
L 47.953125 70.5625 
L 71.875 70.5625 
L 71.875 63.921875 
L 47.953125 63.921875 
L 47.953125 51.609375 
L 57.515625 51.609375 
Q 73.53125 62.9375 83.796875 76.421875 
L 90.71875 71.734375 
Q 81.890625 61.140625 69.78125 51.609375 
L 97.75 51.609375 
L 97.75 44.96875 
L 60.75 44.96875 
Q 52.6875 39.40625 43.40625 34.234375 
L 82.125 34.234375 
L 82.125 -12.84375 
L 74.515625 -12.84375 
L 74.515625 -7.078125 
L 29.296875 -7.078125 
L 29.296875 -12.84375 
L 21.6875 -12.84375 
L 21.6875 23.390625 
Q 13.671875 19.828125 4.984375 16.453125 
Q 3.328125 19.484375 0.59375 23.578125 
Q 27.59375 32.953125 47.359375 44.96875 
L 3.03125 44.96875 
z
M 29.296875 -0.640625 
L 74.515625 -0.640625 
L 74.515625 10.59375 
L 29.296875 10.59375 
z
M 29.296875 26.90625 
L 29.296875 16.65625 
L 74.515625 16.65625 
L 74.515625 27.78125 
L 31.0625 27.78125 
Q 30.171875 27.34375 29.296875 26.90625 
z
" id="MicrosoftYaHei-32773"/>
      </defs>
      <use xlink:href="#MicrosoftYaHei-28508"/>
      <use x="100" xlink:href="#MicrosoftYaHei-20239"/>
      <use x="200" xlink:href="#MicrosoftYaHei-24739"/>
      <use x="300" xlink:href="#MicrosoftYaHei-32773"/>
      <use x="400" xlink:href="#MicrosoftYaHei-20154"/>
      <use x="500" xlink:href="#MicrosoftYaHei-25968"/>
     </g>
    </g>
    <g id="line2d_31">
     <path d="M 66.6 85.925125 
L 86.6 85.925125 
" style="fill:none;stroke:#ff0000;stroke-linecap:square;stroke-width:4;"/>
    </g>
    <g id="line2d_32"/>
    <g id="text_18">
     <!-- 发病人数 -->
     <g transform="translate(94.6 89.425125)scale(0.1 -0.1)">
      <defs>
       <path d="M 14.75 61.078125 
L 35.40625 61.078125 
Q 37.796875 71.296875 39.453125 83.34375 
L 47.75 82.28125 
Q 46.09375 71.1875 43.703125 61.078125 
L 97.65625 61.078125 
L 97.65625 53.859375 
L 41.84375 53.859375 
Q 40.09375 47.40625 37.984375 41.453125 
L 86.421875 41.453125 
L 86.421875 34.71875 
Q 79.984375 18.75 66.359375 7.125 
Q 80.078125 -1.171875 98.34375 -4.546875 
Q 93.953125 -9.421875 91.5 -12.75 
Q 75.875 -7.5625 60.0625 2.390625 
Q 47.359375 -5.953125 23.734375 -13.421875 
Q 21 -9.515625 17.875 -6.203125 
Q 41.890625 0.046875 53.765625 7.03125 
Q 40.921875 18.015625 35.453125 34.71875 
Q 24.75 7.953125 6.34375 -9.234375 
Q 3.71875 -5.515625 1.171875 -2.59375 
Q 23.1875 17.28125 33.546875 53.859375 
L 6.453125 53.859375 
L 6.453125 61.1875 
Q 10.453125 70.453125 13.765625 79.828125 
L 21.6875 77.6875 
Q 18.265625 69.09375 14.75 61.078125 
z
M 77.828125 34.71875 
L 42.53125 34.71875 
Q 46.921875 21.1875 59.96875 11.421875 
Q 72.609375 21.875 77.828125 34.71875 
z
M 62.796875 76.609375 
L 67.09375 82.078125 
Q 76.65625 76.03125 85.453125 69.484375 
L 80.171875 63.140625 
Q 71.6875 70.359375 62.796875 76.609375 
z
" id="MicrosoftYaHei-21457"/>
       <path d="M 26.953125 55.328125 
L 96.296875 55.328125 
L 96.296875 48.484375 
L 66.015625 48.484375 
Q 65.921875 42.625 65.578125 37.75 
L 93.453125 37.75 
L 93.453125 0.734375 
Q 93.453125 -10.6875 81.640625 -10.796875 
Q 74.8125 -10.890625 65.046875 -10.6875 
Q 64.453125 -7.28125 63.484375 -2.984375 
Q 71.296875 -3.5625 79.390625 -3.5625 
Q 86.03125 -3.5625 86.03125 2.296875 
L 86.03125 31.109375 
L 64.796875 31.109375 
Q 64.546875 29.34375 64.203125 27.734375 
Q 74.703125 16.5 82.03125 7.859375 
L 76.375 2.203125 
Q 69.1875 11.671875 61.921875 20.125 
Q 57.421875 9.234375 44.046875 -0.25 
Q 41.796875 2.59375 38.96875 5.90625 
Q 55.859375 16.265625 57.625 31.109375 
L 37.3125 31.109375 
L 37.3125 -11.96875 
L 29.890625 -11.96875 
L 29.890625 37.75 
L 58.5 37.75 
Q 58.890625 42.53125 58.984375 48.484375 
L 26.953125 48.484375 
z
M 23.140625 38.8125 
Q 23.140625 2.78125 7.90625 -12.15625 
Q 5.671875 -8.9375 2.546875 -5.71875 
Q 12.984375 5.125 15.140625 25.296875 
Q 10.40625 22.265625 3.328125 18.015625 
L 1.46875 26.21875 
Q 10.453125 30.515625 15.828125 33.734375 
L 15.828125 71.625 
L 54.25 71.625 
Q 51.703125 75.59375 48.34375 80.125 
L 54.78125 83.84375 
Q 58.984375 78.46875 61.921875 73.96875 
L 58.015625 71.625 
L 98.4375 71.625 
L 98.4375 64.796875 
L 23.140625 64.796875 
z
M 2.734375 59.90625 
L 9.078125 61.859375 
Q 11.71875 52.875 14.359375 42.625 
L 7.328125 40.578125 
Q 5.375 50.734375 2.734375 59.90625 
z
" id="MicrosoftYaHei-30149"/>
      </defs>
      <use xlink:href="#MicrosoftYaHei-21457"/>
      <use x="100" xlink:href="#MicrosoftYaHei-30149"/>
      <use x="200" xlink:href="#MicrosoftYaHei-20154"/>
      <use x="300" xlink:href="#MicrosoftYaHei-25968"/>
     </g>
    </g>
    <g id="line2d_33">
     <path d="M 66.6 101.404813 
L 86.6 101.404813 
" style="fill:none;stroke:#800080;stroke-linecap:square;stroke-width:4;"/>
    </g>
    <g id="line2d_34"/>
    <g id="text_19">
     <!-- 隔离人数 -->
     <g transform="translate(94.6 104.904813)scale(0.1 -0.1)">
      <defs>
       <path d="M 32.90625 28.5625 
Q 35.25 10.296875 24.21875 7.953125 
Q 20.40625 7.28125 15.328125 7.859375 
Q 14.546875 11.671875 13.28125 15.28125 
L 13.28125 -13.03125 
L 6.25 -13.03125 
L 6.25 78.65625 
L 32.8125 78.65625 
L 32.8125 72.125 
Q 28.03125 55.71875 24.90625 46.234375 
Q 31.9375 36.578125 32.90625 28.5625 
z
M 44.53125 -13.234375 
L 37.703125 -13.234375 
L 37.703125 37.453125 
L 94.34375 37.453125 
L 94.34375 -3.65625 
Q 94.34375 -12.84375 85.25 -12.84375 
Q 80.953125 -12.84375 74.609375 -12.75 
Q 74.125 -10.5 73.140625 -5.421875 
Q 79 -5.8125 83.5 -5.8125 
Q 87.5 -5.8125 87.5 -1.703125 
L 87.5 31.390625 
L 44.53125 31.390625 
z
M 43.359375 65.765625 
L 88.484375 65.765625 
L 88.484375 41.75 
L 81.453125 41.75 
L 81.453125 44.28125 
L 50.390625 44.28125 
L 50.390625 41.75 
L 43.359375 41.75 
z
M 21.484375 14.890625 
Q 27.734375 15.578125 25.6875 28.265625 
Q 24.421875 36.46875 17.671875 44.96875 
Q 21.875 57.46875 25.78125 72.125 
L 13.28125 72.125 
L 13.28125 15.671875 
Q 17.671875 14.5 21.484375 14.890625 
z
M 47.859375 15.28125 
L 67.578125 15.28125 
Q 72.515625 24.21875 75.296875 30.515625 
L 81.734375 27 
Q 78.078125 20.90625 74.46875 15.28125 
L 84.1875 15.28125 
L 84.1875 9.421875 
L 69.234375 9.421875 
L 69.234375 -11.671875 
L 62.59375 -11.671875 
L 62.59375 9.421875 
L 47.859375 9.421875 
z
M 37.109375 78.765625 
L 96.296875 78.765625 
L 96.296875 72.40625 
L 37.109375 72.40625 
z
M 81.453125 59.90625 
L 50.390625 59.90625 
L 50.390625 50.140625 
L 81.453125 50.140625 
z
M 50.390625 27.296875 
L 55.765625 30.421875 
Q 59.96875 24.859375 62.890625 19.390625 
L 57.03125 15.96875 
Q 54.296875 21.234375 50.390625 27.296875 
z
" id="MicrosoftYaHei-38548"/>
       <path d="M 37.203125 7.171875 
Q 48.53125 7.5625 60.59375 8.109375 
Q 58.0625 10.9375 55.46875 13.71875 
L 60.359375 17.53125 
Q 67.96875 9.90625 74.703125 2.296875 
L 69.53125 -2.203125 
Q 67.671875 0 65.828125 2.203125 
Q 53.375 1.609375 38.28125 0.640625 
Q 33.984375 0.34375 29.109375 -0.4375 
L 26.375 6.5 
Q 30.46875 9.03125 33.296875 12.84375 
Q 35.59375 16.015625 37.890625 19.96875 
L 16.5 19.96875 
L 16.5 -12.84375 
L 9.1875 -12.84375 
L 9.1875 26.421875 
L 41.40625 26.421875 
Q 43.5 30.46875 45.5625 35.203125 
L 12.890625 35.203125 
L 12.890625 63.53125 
L 20.015625 63.53125 
L 20.015625 41.453125 
L 79.890625 41.453125 
L 79.890625 63.625 
L 87.015625 63.625 
L 87.015625 31.6875 
L 79.890625 31.6875 
L 79.890625 35.203125 
L 54.25 35.203125 
Q 51.90625 30.671875 49.515625 26.421875 
L 90.625 26.421875 
L 90.625 -1.90625 
Q 90.625 -12.359375 80.859375 -12.359375 
Q 76.171875 -12.359375 70.609375 -12.15625 
Q 70.21875 -8.734375 69.234375 -4.640625 
Q 75 -5.21875 79.109375 -5.21875 
Q 83.296875 -5.21875 83.296875 -0.828125 
L 83.296875 19.96875 
L 45.75 19.96875 
Q 41.546875 13.09375 37.203125 7.171875 
z
M 3.125 73.96875 
L 45.609375 73.96875 
Q 43.5625 77.640625 41.703125 80.515625 
L 49.21875 83.9375 
Q 51.703125 80.328125 55.328125 73.96875 
L 96.875 73.96875 
L 96.875 67.328125 
L 3.125 67.328125 
z
M 25.203125 60.6875 
L 27.828125 65.875 
Q 39.0625 62.25 51.46875 57.8125 
Q 61.46875 61.8125 70.3125 66.359375 
L 73.25 61.375 
Q 66.703125 57.953125 59.625 54.890625 
Q 66.890625 52.203125 74.609375 49.265625 
L 71.96875 43.703125 
Q 61.53125 48 51.953125 51.609375 
Q 40.140625 46.875 27.046875 42.921875 
Q 25.296875 46.046875 23.53125 48.484375 
Q 33.890625 51.375 43.3125 54.734375 
Q 33.734375 58.109375 25.203125 60.6875 
z
" id="MicrosoftYaHei-31163"/>
      </defs>
      <use xlink:href="#MicrosoftYaHei-38548"/>
      <use x="100" xlink:href="#MicrosoftYaHei-31163"/>
      <use x="200" xlink:href="#MicrosoftYaHei-20154"/>
      <use x="300" xlink:href="#MicrosoftYaHei-25968"/>
     </g>
    </g>
    <g id="line2d_35">
     <path d="M 66.6 116.8845 
L 86.6 116.8845 
" style="fill:none;stroke:#ff0000;stroke-dasharray:32,8,5,8;stroke-dashoffset:0;stroke-width:5;"/>
    </g>
    <g id="line2d_36"/>
    <g id="text_20">
     <!-- 累计感染人数 -->
     <g transform="translate(94.6 120.3845)scale(0.1 -0.1)">
      <defs>
       <path d="M 71.09375 31.109375 
Q 84.765625 19.96875 92.875 12.0625 
L 87.5 6.59375 
Q 83.6875 10.546875 79.640625 14.40625 
Q 67.71875 13.921875 55.5625 13.375 
L 55.5625 0.34375 
Q 55.5625 -11.765625 43.359375 -11.765625 
Q 37.109375 -11.765625 29.390625 -11.671875 
Q 28.8125 -7.765625 27.9375 -3.5625 
Q 35.453125 -4.25 41.40625 -4.25 
Q 47.953125 -4.25 47.953125 2.875 
L 47.953125 13.03125 
Q 34.859375 12.40625 21.484375 11.765625 
Q 17.1875 11.578125 13.1875 10.984375 
L 10.546875 18.40625 
Q 16.5 19.09375 23.921875 21.921875 
Q 33.9375 25.78125 45.5625 31 
Q 33.40625 30.609375 23.921875 30.03125 
Q 19.234375 29.734375 16.890625 29.4375 
L 14.359375 35.890625 
Q 19.234375 36.859375 24.21875 39.109375 
Q 30.765625 42.046875 37.15625 45.453125 
L 18.84375 45.453125 
L 18.84375 42.625 
L 11.421875 42.625 
L 11.421875 79.734375 
L 88.671875 79.734375 
L 88.671875 42.625 
L 81.25 42.625 
L 81.25 45.453125 
L 48.828125 45.453125 
Q 38.03125 39.984375 27.546875 35.5 
Q 40.328125 35.84375 57.328125 36.46875 
Q 64.0625 39.65625 71.296875 43.3125 
L 76.375 38.03125 
Q 53.03125 27 28.515625 17.921875 
Q 53.171875 19 73.1875 20.265625 
Q 69.625 23.4375 65.921875 26.515625 
z
M 53.609375 51.125 
L 81.25 51.125 
L 81.25 60.015625 
L 53.609375 60.015625 
z
M 18.84375 51.125 
L 46.390625 51.125 
L 46.390625 60.015625 
L 18.84375 60.015625 
z
M 81.25 74.078125 
L 53.609375 74.078125 
L 53.609375 65.28125 
L 81.25 65.28125 
z
M 18.84375 65.28125 
L 46.390625 65.28125 
L 46.390625 74.078125 
L 18.84375 74.078125 
z
M 29.59375 8.9375 
L 33.984375 2.875 
Q 19.734375 -4.25 5.953125 -9.625 
Q 4.5 -6.59375 2.546875 -3.078125 
Q 17.09375 2.59375 29.59375 8.9375 
z
M 69.234375 8.546875 
Q 83.796875 3.65625 97.171875 -2.296875 
L 94.140625 -8.9375 
Q 81.0625 -2.984375 65.921875 2.09375 
z
" id="MicrosoftYaHei-32047"/>
       <path d="M 32.8125 49.265625 
L 61.234375 49.265625 
L 61.234375 82.859375 
L 69.625 82.859375 
L 69.625 49.265625 
L 98.25 49.265625 
L 98.25 42.234375 
L 69.625 42.234375 
L 69.625 -12.84375 
L 61.234375 -12.84375 
L 61.234375 42.234375 
L 32.8125 42.234375 
z
M 41.796875 14.109375 
Q 42.09375 9.03125 42.484375 5.609375 
Q 26.859375 -4.15625 16.703125 -11.375 
L 12.015625 -4.734375 
Q 15.4375 -1.8125 15.4375 4.15625 
L 15.4375 42.828125 
L 1.5625 42.828125 
L 1.5625 49.859375 
L 23.25 49.859375 
L 23.25 2.390625 
Q 31.734375 7.5625 41.796875 14.109375 
z
M 11.53125 81.59375 
Q 22.171875 70.65625 26.953125 65.375 
L 20.125 59.625 
Q 13.96875 67.71875 5.5625 76.421875 
z
" id="MicrosoftYaHei-35745"/>
      </defs>
      <use xlink:href="#MicrosoftYaHei-32047"/>
      <use x="100" xlink:href="#MicrosoftYaHei-35745"/>
      <use x="200" xlink:href="#MicrosoftYaHei-24863"/>
      <use x="300" xlink:href="#MicrosoftYaHei-26579"/>
      <use x="400" xlink:href="#MicrosoftYaHei-20154"/>
      <use x="500" xlink:href="#MicrosoftYaHei-25968"/>
     </g>
    </g>
    <g id="line2d_37">
     <path d="M 66.6 132.364188 
L 86.6 132.364188 
" style="fill:none;stroke:#008000;stroke-linecap:square;stroke-width:4;"/>
    </g>
    <g id="line2d_38"/>
    <g id="text_21">
     <!-- 累计治愈人数 -->
     <g transform="translate(94.6 135.864188)scale(0.1 -0.1)">
      <defs>
       <path d="M 34.859375 30.21875 
L 89.359375 30.21875 
L 89.359375 -12.84375 
L 81.9375 -12.84375 
L 81.9375 -6.296875 
L 42.28125 -6.296875 
L 42.28125 -12.84375 
L 34.859375 -12.84375 
z
M 78.421875 70.0625 
Q 89.546875 55.03125 98.828125 39.59375 
L 91.796875 35.296875 
Q 89.15625 39.890625 86.53125 44.34375 
Q 57.71875 43.109375 40.53125 41.65625 
Q 36.625 41.265625 32.515625 40.09375 
L 28.609375 47.703125 
Q 32.625 49.171875 35.75 52.6875 
Q 45.796875 64.703125 54.984375 83.34375 
L 62.796875 80.125 
Q 52.9375 63.421875 42.390625 49.265625 
Q 60.203125 49.859375 82.515625 50.921875 
Q 77.4375 58.984375 72.265625 66.359375 
z
M 81.9375 23.390625 
L 42.28125 23.390625 
L 42.28125 0.53125 
L 81.9375 0.53125 
z
M 15.828125 29.734375 
Q 19.734375 27.875 23.828125 26.3125 
Q 16.703125 4.34375 11.921875 -11.96875 
L 3.609375 -8.84375 
Q 10.25 7.953125 15.828125 29.734375 
z
M 10.359375 81.390625 
Q 20.90625 74.171875 28.421875 68.109375 
Q 25.296875 64.5 22.953125 61.765625 
Q 15.53125 68.40625 5.5625 75.828125 
z
M 6.34375 56.984375 
Q 15.328125 51.03125 23.828125 44.484375 
Q 22.359375 43.015625 18.5625 38.03125 
Q 8.796875 46.140625 1.5625 51.421875 
z
" id="MicrosoftYaHei-27835"/>
       <path d="M 19.234375 16.546875 
L 12.5 16.546875 
L 12.5 55.328125 
L 50 55.328125 
L 50 26.21875 
Q 50 16.15625 40.234375 16.15625 
Q 37.015625 16.15625 31.34375 16.359375 
Q 30.765625 19.671875 29.984375 23.09375 
Q 35.359375 22.515625 39.15625 22.515625 
Q 43.265625 22.515625 43.265625 26.90625 
L 43.265625 28.171875 
L 19.234375 28.171875 
z
M 56.734375 83.0625 
L 55.078125 81.6875 
Q 71.296875 68.703125 98.640625 62.359375 
Q 96.578125 59.8125 93.84375 55.609375 
Q 79 60.203125 67.96875 65.765625 
L 67.96875 61.1875 
L 31.9375 61.1875 
L 31.9375 66.359375 
Q 20.609375 60.6875 5.859375 55.21875 
Q 3.8125 58.453125 1.375 61.1875 
Q 29.6875 69.96875 46.96875 83.0625 
z
M 27.25 12.546875 
L 34.46875 12.546875 
L 34.46875 0.921875 
Q 34.46875 -4.734375 40.046875 -4.734375 
L 60.9375 -4.734375 
Q 67.96875 -4.734375 69.140625 0.828125 
Q 69.921875 4.640625 70.609375 10.203125 
Q 74.125 8.84375 77.9375 7.671875 
Q 76.953125 1.90625 75.78125 -2.390625 
Q 73.53125 -10.984375 62.203125 -10.984375 
L 39.15625 -10.984375 
Q 27.25 -10.984375 27.25 0.046875 
z
M 78.421875 55.609375 
L 85.359375 55.609375 
L 85.359375 26.703125 
Q 85.359375 15.96875 75.296875 15.96875 
Q 71.78125 15.96875 65.140625 16.15625 
Q 64.453125 20.0625 63.375 23.6875 
Q 69.34375 23 73.921875 23 
Q 78.421875 23 78.421875 27.984375 
z
M 50.203125 77.484375 
Q 41.703125 71.234375 32.328125 66.65625 
L 66.40625 66.65625 
Q 56.9375 71.625 50.203125 77.484375 
z
M 60.546875 52.984375 
L 67.28125 52.984375 
L 67.28125 28.65625 
L 60.546875 28.65625 
z
M 12.703125 12.25 
L 19.34375 9.8125 
Q 14.9375 -0.34375 9.1875 -8.84375 
Q 6.25 -7.078125 2.734375 -5.421875 
Q 8.890625 2.78125 12.703125 12.25 
z
M 79.890625 9.03125 
L 85.25 12.84375 
Q 92.1875 5.21875 98.046875 -2.390625 
L 92 -6.6875 
Q 87.015625 0.53125 79.890625 9.03125 
z
M 19.234375 33.453125 
L 43.265625 33.453125 
L 43.265625 39.015625 
L 19.234375 39.015625 
z
M 43.265625 49.859375 
L 19.234375 49.859375 
L 19.234375 44.28125 
L 43.265625 44.28125 
z
M 43.75 11.46875 
L 48.25 15.671875 
Q 55.171875 10.59375 61.234375 5.328125 
L 56.25 0.34375 
Q 50.296875 6 43.75 11.46875 
z
" id="MicrosoftYaHei-24840"/>
      </defs>
      <use xlink:href="#MicrosoftYaHei-32047"/>
      <use x="100" xlink:href="#MicrosoftYaHei-35745"/>
      <use x="200" xlink:href="#MicrosoftYaHei-27835"/>
      <use x="300" xlink:href="#MicrosoftYaHei-24840"/>
      <use x="400" xlink:href="#MicrosoftYaHei-20154"/>
      <use x="500" xlink:href="#MicrosoftYaHei-25968"/>
     </g>
    </g>
    <g id="line2d_39">
     <path d="M 66.6 147.843875 
L 86.6 147.843875 
" style="fill:none;stroke:#808080;stroke-linecap:square;stroke-width:4;"/>
    </g>
    <g id="line2d_40"/>
    <g id="text_22">
     <!-- 累计死亡人数 -->
     <g transform="translate(94.6 151.343875)scale(0.1 -0.1)">
      <defs>
       <path d="M 3.90625 75.734375 
L 96.09375 75.734375 
L 96.09375 68.703125 
L 66.703125 68.703125 
L 66.703125 32.953125 
Q 78.8125 42.140625 91.3125 55.03125 
L 97.078125 49.078125 
Q 81.34375 34.625 66.703125 24.078125 
L 66.703125 4.15625 
Q 66.703125 -2.203125 71.96875 -2.203125 
L 81.640625 -2.203125 
Q 87.703125 -2.203125 89.265625 4.546875 
Q 90.53125 11.1875 91.3125 20.5625 
Q 95.609375 18.5 99.21875 17.4375 
Q 98.046875 8.34375 96.578125 1.609375 
Q 94.046875 -9.625 82.8125 -9.625 
L 70.40625 -9.625 
Q 59.078125 -9.625 59.078125 3.859375 
L 59.078125 68.703125 
L 30.671875 68.703125 
Q 28.515625 60.984375 25.78125 53.953125 
L 51.171875 53.953125 
L 51.171875 47.21875 
Q 44.234375 8.9375 8.5 -12.9375 
Q 5.671875 -9.625 2.828125 -6.984375 
Q 20.40625 3.65625 30.171875 16.84375 
Q 23.046875 22.796875 16.21875 27.78125 
L 20.3125 33.734375 
Q 27.546875 28.46875 34.46875 23.1875 
Q 41.109375 34.234375 43.5625 47.125 
L 22.953125 47.125 
Q 16.703125 32.953125 6.546875 20.75 
Q 3.8125 24.46875 1.65625 26.90625 
Q 16.609375 45.359375 22.75 68.703125 
L 3.90625 68.703125 
z
" id="MicrosoftYaHei-27515"/>
       <path d="M 1.953125 63.421875 
L 97.953125 63.421875 
L 97.953125 55.71875 
L 25.09375 55.71875 
L 25.09375 0.4375 
L 93.359375 0.4375 
L 93.359375 -6.984375 
L 16.40625 -6.984375 
L 16.40625 55.71875 
L 1.953125 55.71875 
z
M 41.796875 78.859375 
L 48.25 83.25 
Q 55.46875 74.5625 59.46875 69 
L 52.34375 63.8125 
Q 46.6875 72.609375 41.796875 78.859375 
z
" id="MicrosoftYaHei-20129"/>
      </defs>
      <use xlink:href="#MicrosoftYaHei-32047"/>
      <use x="100" xlink:href="#MicrosoftYaHei-35745"/>
      <use x="200" xlink:href="#MicrosoftYaHei-27515"/>
      <use x="300" xlink:href="#MicrosoftYaHei-20129"/>
      <use x="400" xlink:href="#MicrosoftYaHei-20154"/>
      <use x="500" xlink:href="#MicrosoftYaHei-25968"/>
     </g>
    </g>
   </g>
  </g>
 </g>
 <defs>
  <clipPath id="p793520690a">
   <rect height="266.112" width="357.12" x="57.6" y="41.472"/>
  </clipPath>
 </defs>
</svg>
