<?xml version="1.0" encoding="utf-8" standalone="no"?>
<!DOCTYPE svg PUBLIC "-//W3C//DTD SVG 1.1//EN"
  "http://www.w3.org/Graphics/SVG/1.1/DTD/svg11.dtd">
<!-- Created with matplotlib (https://matplotlib.org/) -->
<svg height="345.6pt" version="1.1" viewBox="0 0 460.8 345.6" width="460.8pt" xmlns="http://www.w3.org/2000/svg" xmlns:xlink="http://www.w3.org/1999/xlink">
 <metadata>
  <rdf:RDF xmlns:cc="http://creativecommons.org/ns#" xmlns:dc="http://purl.org/dc/elements/1.1/" xmlns:rdf="http://www.w3.org/1999/02/22-rdf-syntax-ns#">
   <cc:Work>
    <dc:type rdf:resource="http://purl.org/dc/dcmitype/StillImage"/>
    <dc:date>2021-08-12T07:50:59.470449</dc:date>
    <dc:format>image/svg+xml</dc:format>
    <dc:creator>
     <cc:Agent>
      <dc:title>Matplotlib v3.3.0, https://matplotlib.org/</dc:title>
     </cc:Agent>
    </dc:creator>
   </cc:Work>
  </rdf:RDF>
 </metadata>
 <defs>
  <style type="text/css">*{stroke-linecap:butt;stroke-linejoin:round;}</style>
 </defs>
 <g id="figure_1">
  <g id="patch_1">
   <path d="M 0 345.6 
L 460.8 345.6 
L 460.8 0 
L 0 0 
z
" style="fill:#ffffff;"/>
  </g>
  <g id="axes_1">
   <g id="patch_2">
    <path d="M 57.6 307.584 
L 414.72 307.584 
L 414.72 41.472 
L 57.6 41.472 
z
" style="fill:#ffffff;"/>
   </g>
   <g id="matplotlib.axis_1">
    <g id="xtick_1">
     <g id="line2d_1">
      <defs>
       <path d="M 0 0 
L 0 3.5 
" id="ma38689eafe" style="stroke:#000000;stroke-width:0.8;"/>
      </defs>
      <g>
       <use style="stroke:#000000;stroke-width:0.8;" x="57.6" xlink:href="#ma38689eafe" y="307.584"/>
      </g>
     </g>
     <g id="text_1">
      <!-- 0 -->
      <g transform="translate(54.667969 322.57775)scale(0.1 -0.1)">
       <defs>
        <path d="M 4.4375 36.328125 
Q 4.4375 56.34375 11.078125 66.625 
Q 17.71875 76.90625 30.328125 76.90625 
Q 54.34375 76.90625 54.34375 38.140625 
Q 54.34375 19 47.578125 8.859375 
Q 40.828125 -1.265625 28.609375 -1.265625 
Q 17.09375 -1.265625 10.765625 8.34375 
Q 4.4375 17.96875 4.4375 36.328125 
z
M 14.203125 36.765625 
Q 14.203125 6.640625 29.5 6.640625 
Q 44.53125 6.640625 44.53125 37.25 
Q 44.53125 68.953125 29.78125 68.953125 
Q 14.203125 68.953125 14.203125 36.765625 
z
" id="MicrosoftYaHei-48"/>
       </defs>
       <use xlink:href="#MicrosoftYaHei-48"/>
      </g>
     </g>
    </g>
    <g id="xtick_2">
     <g id="line2d_2">
      <g>
       <use style="stroke:#000000;stroke-width:0.8;" x="129.024" xlink:href="#ma38689eafe" y="307.584"/>
      </g>
     </g>
     <g id="text_2">
      <!-- 20 -->
      <g transform="translate(123.159937 322.57775)scale(0.1 -0.1)">
       <defs>
        <path d="M 41.65625 55.8125 
Q 41.65625 61.921875 37.796875 65.40625 
Q 33.9375 68.890625 27.296875 68.890625 
Q 22.609375 68.890625 17.8125 66.5 
Q 13.03125 64.109375 8.890625 59.671875 
L 8.890625 68.953125 
Q 12.59375 72.796875 17.296875 74.84375 
Q 22.015625 76.90625 28.375 76.90625 
Q 38.625 76.90625 44.875 71.40625 
Q 51.125 65.921875 51.125 56.546875 
Q 51.125 48.1875 47.28125 42.078125 
Q 43.453125 35.984375 34.1875 29.59375 
Q 24.703125 23.046875 21.5 20.21875 
Q 18.3125 17.390625 17.03125 14.796875 
Q 15.765625 12.203125 15.765625 8.5 
L 53.375 8.5 
L 53.375 0 
L 5.8125 0 
L 5.8125 3.765625 
Q 5.8125 10.296875 7.59375 14.859375 
Q 9.375 19.4375 13.46875 23.75 
Q 17.578125 28.078125 26.265625 34.125 
Q 35.15625 40.375 38.40625 45.09375 
Q 41.65625 49.8125 41.65625 55.8125 
z
" id="MicrosoftYaHei-50"/>
       </defs>
       <use xlink:href="#MicrosoftYaHei-50"/>
       <use x="58.642578" xlink:href="#MicrosoftYaHei-48"/>
      </g>
     </g>
    </g>
    <g id="xtick_3">
     <g id="line2d_3">
      <g>
       <use style="stroke:#000000;stroke-width:0.8;" x="200.448" xlink:href="#ma38689eafe" y="307.584"/>
      </g>
     </g>
     <g id="text_3">
      <!-- 40 -->
      <g transform="translate(194.583938 322.57775)scale(0.1 -0.1)">
       <defs>
        <path d="M 45.40625 75.640625 
L 45.40625 25.6875 
L 56.734375 25.6875 
L 56.734375 17.78125 
L 45.40625 17.78125 
L 45.40625 0 
L 36.140625 0 
L 36.140625 17.78125 
L 0.828125 17.78125 
L 0.828125 25.25 
Q 10.25 35.84375 19.765625 49.65625 
Q 29.296875 63.484375 35.5 75.640625 
z
M 11.578125 25.6875 
L 36.140625 25.6875 
L 36.140625 61.71875 
Q 31.0625 52.59375 25.25 44.015625 
Q 19.4375 35.453125 11.578125 25.6875 
z
" id="MicrosoftYaHei-52"/>
       </defs>
       <use xlink:href="#MicrosoftYaHei-52"/>
       <use x="58.642578" xlink:href="#MicrosoftYaHei-48"/>
      </g>
     </g>
    </g>
    <g id="xtick_4">
     <g id="line2d_4">
      <g>
       <use style="stroke:#000000;stroke-width:0.8;" x="271.872" xlink:href="#ma38689eafe" y="307.584"/>
      </g>
     </g>
     <g id="text_4">
      <!-- 60 -->
      <g transform="translate(266.007938 322.57775)scale(0.1 -0.1)">
       <defs>
        <path d="M 49.703125 65.921875 
Q 43.796875 68.953125 37.359375 68.953125 
Q 27.546875 68.953125 21.578125 60.40625 
Q 15.625 51.859375 15.53125 37.0625 
L 15.765625 37.0625 
Q 21.140625 47.46875 32.90625 47.46875 
Q 42.71875 47.46875 48.578125 41.0625 
Q 54.4375 34.671875 54.4375 24.078125 
Q 54.4375 12.984375 47.671875 5.859375 
Q 40.921875 -1.265625 30.421875 -1.265625 
Q 18.890625 -1.265625 12.328125 7.734375 
Q 5.765625 16.75 5.765625 33.296875 
Q 5.765625 53.328125 14.375 65.109375 
Q 23 76.90625 37.0625 76.90625 
Q 45.125 76.90625 49.703125 74.703125 
z
M 16.109375 24.75 
Q 16.109375 17.28125 20.09375 11.953125 
Q 24.078125 6.640625 30.671875 6.640625 
Q 36.921875 6.640625 40.828125 11.234375 
Q 44.734375 15.828125 44.734375 23.046875 
Q 44.734375 30.859375 41.046875 35.203125 
Q 37.359375 39.546875 30.5625 39.546875 
Q 24.125 39.546875 20.109375 35.15625 
Q 16.109375 30.765625 16.109375 24.75 
z
" id="MicrosoftYaHei-54"/>
       </defs>
       <use xlink:href="#MicrosoftYaHei-54"/>
       <use x="58.642578" xlink:href="#MicrosoftYaHei-48"/>
      </g>
     </g>
    </g>
    <g id="xtick_5">
     <g id="line2d_5">
      <g>
       <use style="stroke:#000000;stroke-width:0.8;" x="343.296" xlink:href="#ma38689eafe" y="307.584"/>
      </g>
     </g>
     <g id="text_5">
      <!-- 80 -->
      <g transform="translate(337.431938 322.57775)scale(0.1 -0.1)">
       <defs>
        <path d="M 4.78125 21.09375 
Q 4.78125 27.640625 8.6875 33.15625 
Q 12.59375 38.671875 18.75 41.015625 
Q 13.8125 43.796875 10.9375 48.140625 
Q 8.0625 52.484375 8.0625 57.5625 
Q 8.0625 62.9375 10.8125 67.375 
Q 13.578125 71.828125 18.484375 74.359375 
Q 23.390625 76.90625 29.296875 76.90625 
Q 35.25 76.90625 40.1875 74.390625 
Q 45.125 71.875 47.859375 67.421875 
Q 50.59375 62.984375 50.59375 57.5625 
Q 50.59375 52.59375 47.78125 48.21875 
Q 44.96875 43.84375 39.984375 41.015625 
Q 46.140625 38.625 50 33.109375 
Q 53.859375 27.59375 53.859375 21.09375 
Q 53.859375 14.65625 50.78125 9.546875 
Q 47.703125 4.4375 42.03125 1.609375 
Q 36.375 -1.21875 29.296875 -1.21875 
Q 22.265625 -1.21875 16.640625 1.609375 
Q 11.03125 4.4375 7.90625 9.5625 
Q 4.78125 14.703125 4.78125 21.09375 
z
M 14.15625 21.53125 
Q 14.15625 14.796875 18.3125 10.734375 
Q 22.46875 6.6875 29.34375 6.6875 
Q 36.078125 6.6875 40.34375 10.8125 
Q 44.625 14.9375 44.625 21.53125 
Q 44.625 27.78125 40.296875 32.046875 
Q 35.984375 36.328125 29.34375 36.328125 
Q 22.75 36.328125 18.453125 32.15625 
Q 14.15625 27.984375 14.15625 21.53125 
z
M 16.890625 56.78125 
Q 16.890625 51.703125 20.5 48.0625 
Q 24.125 44.4375 29.34375 44.4375 
Q 34.46875 44.4375 38.203125 48.09375 
Q 41.9375 51.765625 41.9375 56.78125 
Q 41.9375 61.921875 38.34375 65.484375 
Q 34.765625 69.046875 29.34375 69.046875 
Q 23.96875 69.046875 20.421875 65.546875 
Q 16.890625 62.0625 16.890625 56.78125 
z
" id="MicrosoftYaHei-56"/>
       </defs>
       <use xlink:href="#MicrosoftYaHei-56"/>
       <use x="58.642578" xlink:href="#MicrosoftYaHei-48"/>
      </g>
     </g>
    </g>
    <g id="xtick_6">
     <g id="line2d_6">
      <g>
       <use style="stroke:#000000;stroke-width:0.8;" x="414.72" xlink:href="#ma38689eafe" y="307.584"/>
      </g>
     </g>
     <g id="text_6">
      <!-- 100 -->
      <g transform="translate(405.923906 322.57775)scale(0.1 -0.1)">
       <defs>
        <path d="M 27.828125 0 
L 27.828125 64.703125 
Q 25.59375 62.453125 20.234375 59.671875 
Q 14.890625 56.890625 10.359375 55.765625 
L 10.359375 65.140625 
Q 16.359375 66.796875 23.1875 70.4375 
Q 30.03125 74.078125 33.6875 77.296875 
L 37.3125 77.296875 
L 37.3125 0 
z
" id="MicrosoftYaHei-49"/>
       </defs>
       <use xlink:href="#MicrosoftYaHei-49"/>
       <use x="58.642578" xlink:href="#MicrosoftYaHei-48"/>
       <use x="117.285156" xlink:href="#MicrosoftYaHei-48"/>
      </g>
     </g>
    </g>
    <g id="text_7">
     <!-- 时间 -->
     <g transform="translate(226.16 337.057437)scale(0.1 -0.1)">
      <defs>
       <path d="M 5.375 73.875 
L 39.0625 73.875 
L 39.0625 -5.71875 
L 31.34375 -5.71875 
L 31.34375 2.390625 
L 13.09375 2.390625 
L 13.09375 -6.890625 
L 5.375 -6.890625 
z
M 42.28125 61.578125 
L 76.953125 61.578125 
L 76.953125 83.15625 
L 84.765625 83.15625 
L 84.765625 61.578125 
L 98.640625 61.578125 
L 98.640625 54.34375 
L 84.765625 54.34375 
L 84.765625 1.8125 
Q 84.765625 -11.28125 72.265625 -11.28125 
Q 66.609375 -11.28125 55.671875 -10.984375 
Q 55.171875 -7.46875 54.109375 -2.78125 
Q 64.359375 -3.5625 70.125 -3.5625 
Q 76.953125 -3.5625 76.953125 3.375 
L 76.953125 54.34375 
L 42.28125 54.34375 
z
M 13.09375 9.625 
L 31.34375 9.625 
L 31.34375 34.90625 
L 13.09375 34.90625 
z
M 31.34375 66.65625 
L 13.09375 66.65625 
L 13.09375 41.9375 
L 31.34375 41.9375 
z
M 53.21875 44.96875 
Q 61.03125 30.71875 65.046875 22.21875 
Q 62.5 21.046875 57.234375 18.3125 
Q 53.421875 27.59375 46.296875 41.453125 
z
" id="MicrosoftYaHei-26102"/>
       <path d="M 29.109375 56.984375 
L 70.515625 56.984375 
L 70.515625 8.640625 
L 36.140625 8.640625 
L 36.140625 2.59375 
L 29.109375 2.59375 
z
M 37.3125 69.578125 
L 37.3125 76.90625 
L 93.953125 76.90625 
L 93.953125 -0.4375 
Q 93.953125 -12.75 79.984375 -12.75 
Q 74.3125 -12.75 65.140625 -12.546875 
Q 64.75 -9.625 63.578125 -4.640625 
Q 71.6875 -5.21875 79 -5.21875 
Q 86.328125 -5.21875 86.328125 1.90625 
L 86.328125 69.578125 
z
M 6.546875 63.8125 
L 14.15625 63.8125 
L 14.15625 -12.75 
L 6.546875 -12.75 
z
M 36.140625 15.578125 
L 63.484375 15.578125 
L 63.484375 29.4375 
L 36.140625 29.4375 
z
M 63.484375 50.046875 
L 36.140625 50.046875 
L 36.140625 36.375 
L 63.484375 36.375 
z
M 11.625 78.171875 
L 17.1875 83.15625 
Q 24.609375 76.125 30.953125 69.484375 
L 24.609375 63.921875 
Q 18.65625 70.953125 11.625 78.171875 
z
" id="MicrosoftYaHei-38388"/>
      </defs>
      <use xlink:href="#MicrosoftYaHei-26102"/>
      <use x="100" xlink:href="#MicrosoftYaHei-38388"/>
     </g>
    </g>
   </g>
   <g id="matplotlib.axis_2">
    <g id="ytick_1">
     <g id="line2d_7">
      <defs>
       <path d="M 0 0 
L -3.5 0 
" id="m1ae3b0e776" style="stroke:#000000;stroke-width:0.8;"/>
      </defs>
      <g>
       <use style="stroke:#000000;stroke-width:0.8;" x="57.6" xlink:href="#m1ae3b0e776" y="295.488"/>
      </g>
     </g>
     <g id="text_8">
      <!-- 0 -->
      <g transform="translate(44.735937 299.484875)scale(0.1 -0.1)">
       <use xlink:href="#MicrosoftYaHei-48"/>
      </g>
     </g>
    </g>
    <g id="ytick_2">
     <g id="line2d_8">
      <g>
       <use style="stroke:#000000;stroke-width:0.8;" x="57.6" xlink:href="#m1ae3b0e776" y="252.311516"/>
      </g>
     </g>
     <g id="text_9">
      <!-- 20000 -->
      <g transform="translate(21.279688 256.308391)scale(0.1 -0.1)">
       <use xlink:href="#MicrosoftYaHei-50"/>
       <use x="58.642578" xlink:href="#MicrosoftYaHei-48"/>
       <use x="117.285156" xlink:href="#MicrosoftYaHei-48"/>
       <use x="175.927734" xlink:href="#MicrosoftYaHei-48"/>
       <use x="234.570312" xlink:href="#MicrosoftYaHei-48"/>
      </g>
     </g>
    </g>
    <g id="ytick_3">
     <g id="line2d_9">
      <g>
       <use style="stroke:#000000;stroke-width:0.8;" x="57.6" xlink:href="#m1ae3b0e776" y="209.135032"/>
      </g>
     </g>
     <g id="text_10">
      <!-- 40000 -->
      <g transform="translate(21.279688 213.131907)scale(0.1 -0.1)">
       <use xlink:href="#MicrosoftYaHei-52"/>
       <use x="58.642578" xlink:href="#MicrosoftYaHei-48"/>
       <use x="117.285156" xlink:href="#MicrosoftYaHei-48"/>
       <use x="175.927734" xlink:href="#MicrosoftYaHei-48"/>
       <use x="234.570312" xlink:href="#MicrosoftYaHei-48"/>
      </g>
     </g>
    </g>
    <g id="ytick_4">
     <g id="line2d_10">
      <g>
       <use style="stroke:#000000;stroke-width:0.8;" x="57.6" xlink:href="#m1ae3b0e776" y="165.958547"/>
      </g>
     </g>
     <g id="text_11">
      <!-- 60000 -->
      <g transform="translate(21.279688 169.955422)scale(0.1 -0.1)">
       <use xlink:href="#MicrosoftYaHei-54"/>
       <use x="58.642578" xlink:href="#MicrosoftYaHei-48"/>
       <use x="117.285156" xlink:href="#MicrosoftYaHei-48"/>
       <use x="175.927734" xlink:href="#MicrosoftYaHei-48"/>
       <use x="234.570312" xlink:href="#MicrosoftYaHei-48"/>
      </g>
     </g>
    </g>
    <g id="ytick_5">
     <g id="line2d_11">
      <g>
       <use style="stroke:#000000;stroke-width:0.8;" x="57.6" xlink:href="#m1ae3b0e776" y="122.782063"/>
      </g>
     </g>
     <g id="text_12">
      <!-- 80000 -->
      <g transform="translate(21.279688 126.778938)scale(0.1 -0.1)">
       <use xlink:href="#MicrosoftYaHei-56"/>
       <use x="58.642578" xlink:href="#MicrosoftYaHei-48"/>
       <use x="117.285156" xlink:href="#MicrosoftYaHei-48"/>
       <use x="175.927734" xlink:href="#MicrosoftYaHei-48"/>
       <use x="234.570312" xlink:href="#MicrosoftYaHei-48"/>
      </g>
     </g>
    </g>
    <g id="ytick_6">
     <g id="line2d_12">
      <g>
       <use style="stroke:#000000;stroke-width:0.8;" x="57.6" xlink:href="#m1ae3b0e776" y="79.605579"/>
      </g>
     </g>
     <g id="text_13">
      <!-- 100000 -->
      <g transform="translate(15.415625 83.602454)scale(0.1 -0.1)">
       <use xlink:href="#MicrosoftYaHei-49"/>
       <use x="58.642578" xlink:href="#MicrosoftYaHei-48"/>
       <use x="117.285156" xlink:href="#MicrosoftYaHei-48"/>
       <use x="175.927734" xlink:href="#MicrosoftYaHei-48"/>
       <use x="234.570312" xlink:href="#MicrosoftYaHei-48"/>
       <use x="293.212891" xlink:href="#MicrosoftYaHei-48"/>
      </g>
     </g>
    </g>
    <g id="text_14">
     <!-- 感染情况 -->
     <g transform="translate(8.929687 194.528)rotate(-90)scale(0.1 -0.1)">
      <defs>
       <path d="M 55.171875 22.21875 
Q 62.703125 27.203125 68.5625 33.296875 
Q 62.84375 45.453125 61.625 64.796875 
L 18.953125 64.796875 
L 18.953125 51.90625 
Q 18.953125 28.171875 7.234375 13.625 
Q 5.171875 17.71875 2.15625 21.046875 
Q 11.921875 31.78125 11.921875 52 
L 11.921875 71.046875 
L 61.28125 71.046875 
Q 60.984375 77 60.9375 82.5625 
L 68.171875 82.5625 
Q 68.171875 77 68.40625 71.046875 
L 96.875 71.046875 
L 96.875 64.796875 
L 68.75 64.796875 
Q 69.78125 49.75 73.875 39.546875 
Q 80.46875 48.25 84.28125 58.9375 
L 90.921875 55.609375 
Q 85.25 42.828125 77.296875 32.859375 
Q 79.046875 30.03125 81.15625 27.78125 
Q 83.5 25.34375 85.546875 25.34375 
Q 87.40625 25.34375 88.578125 28.46875 
Q 90.046875 32.5625 91.5 39.40625 
Q 94.046875 38.03125 98.734375 36.28125 
Q 96.484375 27.59375 94.828125 23.484375 
Q 92 16.65625 86.53125 16.65625 
Q 82.03125 16.65625 76.953125 21.34375 
Q 74.3125 23.78125 72.125 26.953125 
Q 66.84375 21.484375 60.75 17.046875 
Q 58.40625 19.671875 55.171875 22.21875 
z
M 25.59375 45.171875 
L 55.671875 45.171875 
L 55.671875 24.078125 
L 32.234375 24.078125 
L 32.234375 21.34375 
L 25.59375 21.34375 
z
M 26.765625 15.578125 
L 34.1875 15.578125 
L 34.1875 2.09375 
Q 34.1875 -3.953125 40.4375 -3.953125 
L 58.015625 -3.953125 
Q 65.53125 -3.953125 66.609375 1.703125 
Q 67.390625 4.9375 68.359375 12.15625 
Q 71.6875 10.796875 76.078125 9.234375 
Q 74.8125 2.59375 73.53125 -1.609375 
Q 71.1875 -10.796875 59.578125 -10.796875 
L 38.875 -10.796875 
Q 26.765625 -10.796875 26.765625 1.21875 
z
M 22.5625 57.765625 
L 58.109375 57.765625 
L 58.109375 51.90625 
L 22.5625 51.90625 
z
M 13.1875 16.0625 
L 20.125 13.328125 
Q 15.140625 0.734375 9.28125 -8.34375 
Q 6.84375 -6.890625 2.734375 -4.640625 
Q 9.078125 4.546875 13.1875 16.0625 
z
M 49.03125 29.9375 
L 49.03125 39.3125 
L 32.234375 39.3125 
L 32.234375 29.9375 
z
M 79.890625 9.90625 
L 85.359375 13.8125 
Q 91.609375 6.59375 98.046875 -2.59375 
L 91.609375 -7.171875 
Q 86.921875 0.53125 79.890625 9.90625 
z
M 42.28125 16.75 
L 47.5625 20.75 
Q 54 13.921875 59.078125 7.671875 
L 52.9375 2.984375 
Q 47.65625 10.59375 42.28125 16.75 
z
M 88.375 76.03125 
L 83.59375 71.234375 
Q 79.390625 75.140625 74.421875 79.15625 
L 78.71875 83.640625 
Q 83.796875 79.9375 88.375 76.03125 
z
" id="MicrosoftYaHei-24863"/>
       <path d="M 99.03125 -1.703125 
Q 95.3125 -5.71875 92.96875 -9.125 
Q 66.703125 -0.25 53.609375 18.3125 
L 53.609375 -14.015625 
L 46 -14.015625 
L 46 18.3125 
Q 32.328125 1.8125 7.234375 -10.40625 
Q 4.890625 -7.375 1.65625 -3.65625 
Q 23.828125 4.640625 37.59375 18.40625 
L 3.328125 18.40625 
L 3.328125 25.25 
L 46 25.25 
L 46 36.078125 
L 53.609375 36.078125 
L 53.609375 25.25 
L 97.5625 25.25 
L 97.5625 18.40625 
L 61.03125 18.40625 
Q 74.03125 3.765625 99.03125 -1.703125 
z
M 35.9375 70.265625 
L 48.046875 70.265625 
Q 48.25 75.140625 48.4375 82.953125 
L 55.953125 82.953125 
Q 55.765625 75.734375 55.5625 70.265625 
L 80.28125 70.265625 
L 80.28125 44.78125 
Q 80.28125 40.96875 83.890625 40.96875 
L 86.140625 40.96875 
Q 89.9375 40.96875 90.71875 45.953125 
Q 91.3125 50.046875 91.703125 56.390625 
Q 95.40625 54.9375 99.03125 53.953125 
Q 98.4375 47.90625 97.65625 43.609375 
Q 96.1875 34.328125 87.5 34.328125 
L 82.421875 34.328125 
Q 72.859375 34.328125 72.859375 43.796875 
L 72.859375 63.625 
L 55.171875 63.625 
Q 53.328125 41.15625 33.5 30.328125 
Q 31.0625 33.34375 28.125 36.46875 
Q 46.1875 44.96875 47.75 63.625 
L 35.9375 63.625 
z
M 29.6875 53.375 
Q 31.25 48.96875 32.625 46.046875 
Q 19.828125 38.625 7.421875 30.515625 
L 2.828125 37.453125 
Q 16.3125 44.96875 29.6875 53.375 
z
M 14.75 82.671875 
Q 24.21875 77.875 31.9375 73.390625 
Q 29.296875 70.0625 27.34375 67.046875 
Q 18.84375 72.515625 10.84375 76.90625 
z
M 5.953125 67.828125 
Q 13.578125 64.3125 22.65625 59.234375 
Q 20.21875 55.328125 18.453125 52.59375 
Q 8.015625 58.84375 2.25 61.578125 
z
" id="MicrosoftYaHei-26579"/>
       <path d="M 43.84375 -12.453125 
L 36.421875 -12.453125 
L 36.421875 37.0625 
L 91.3125 37.0625 
L 91.3125 -0.640625 
Q 91.3125 -11.46875 81.453125 -11.671875 
Q 75 -11.765625 64.84375 -11.671875 
Q 64.359375 -8.546875 63.375 -4.15625 
Q 72.65625 -4.734375 78.515625 -4.734375 
Q 83.890625 -4.734375 83.890625 -0.046875 
L 83.890625 5.21875 
L 43.84375 5.21875 
z
M 30.078125 49.171875 
L 59.96875 49.171875 
L 59.96875 55.90625 
L 35.359375 55.90625 
L 35.359375 62.0625 
L 59.96875 62.0625 
L 59.96875 68.609375 
L 32.625 68.609375 
L 32.625 74.75 
L 59.96875 74.75 
L 59.96875 83.546875 
L 67.390625 83.546875 
L 67.390625 74.75 
L 96.6875 74.75 
L 96.6875 68.609375 
L 67.390625 68.609375 
L 67.390625 62.0625 
L 93.953125 62.0625 
L 93.953125 55.90625 
L 67.390625 55.90625 
L 67.390625 49.171875 
L 98.734375 49.171875 
L 98.734375 43.015625 
L 30.078125 43.015625 
z
M 14.546875 82.671875 
L 21.484375 82.671875 
L 21.484375 62.796875 
L 25.203125 65.484375 
Q 30.171875 59.625 34.078125 54.640625 
L 28.609375 50.640625 
Q 25.59375 55.078125 21.484375 60.453125 
L 21.484375 -12.75 
L 14.546875 -12.75 
z
M 83.890625 30.8125 
L 43.84375 30.8125 
L 43.84375 24.078125 
L 83.890625 24.078125 
z
M 43.84375 11.28125 
L 83.890625 11.28125 
L 83.890625 18.015625 
L 43.84375 18.015625 
z
M 4.984375 60.40625 
L 11.234375 59.625 
Q 10.15625 47.796875 7.71875 34.515625 
Q 5.46875 35.109375 1.375 35.890625 
Q 3.515625 45.453125 4.984375 60.40625 
z
" id="MicrosoftYaHei-24773"/>
       <path d="M 39.84375 31 
L 32.234375 31 
L 32.234375 78.078125 
L 90.046875 78.078125 
L 90.046875 31 
L 82.421875 31 
L 82.421875 35.296875 
L 73.046875 35.296875 
L 73.046875 1.125 
Q 73.046875 -3.765625 77.640625 -3.765625 
L 84.375 -3.765625 
Q 89.0625 -3.765625 89.65625 1.421875 
Q 90.328125 6 90.53125 13.53125 
Q 93.84375 12.15625 98.4375 10.59375 
Q 97.75 2.875 96.78125 -2.296875 
Q 95.40625 -10.796875 86.03125 -10.796875 
L 76.375 -10.796875 
Q 65.4375 -10.796875 65.4375 -0.140625 
L 65.4375 35.296875 
L 55.328125 35.296875 
Q 54.984375 16.703125 49.421875 7.078125 
Q 43.359375 -3.953125 25.984375 -13.53125 
Q 23.828125 -10.203125 21.09375 -6.890625 
Q 37.109375 1.90625 42.578125 11.1875 
Q 47.46875 19 47.796875 35.296875 
L 39.84375 35.296875 
z
M 82.421875 71.046875 
L 39.84375 71.046875 
L 39.84375 42.328125 
L 82.421875 42.328125 
z
M 18.453125 37.75 
Q 22.65625 34.8125 25.984375 32.859375 
Q 17.78125 13.421875 9.1875 -7.765625 
L 1.375 -3.078125 
Q 10.640625 14.984375 18.453125 37.75 
z
M 8.296875 76.3125 
Q 17.28125 67.53125 26.078125 57.375 
L 19.34375 51.3125 
Q 11.328125 61.765625 2.546875 71.140625 
z
" id="MicrosoftYaHei-20917"/>
      </defs>
      <use xlink:href="#MicrosoftYaHei-24863"/>
      <use x="100" xlink:href="#MicrosoftYaHei-26579"/>
      <use x="200" xlink:href="#MicrosoftYaHei-24773"/>
      <use x="300" xlink:href="#MicrosoftYaHei-20917"/>
     </g>
    </g>
   </g>
   <g id="line2d_13">
    <path clip-path="url(#p4a82599e57)" d="M 57.6 53.568 
L 61.1712 53.732071 
L 64.7424 54.079641 
L 68.3136 54.54163 
L 71.8848 55.105083 
L 75.456 55.951342 
L 79.0272 57.048025 
L 82.5984 58.401607 
L 86.1696 59.992661 
L 89.7408 61.428279 
L 93.312 62.932979 
L 96.8832 64.852174 
L 100.4544 67.181545 
L 104.0256 69.48717 
L 107.5968 71.760412 
L 111.168 74.437354 
L 114.7392 77.328019 
L 118.3104 80.762709 
L 121.8816 84.581669 
L 125.4528 88.897158 
L 129.024 93.687589 
L 132.5952 98.741397 
L 136.1664 104.203222 
L 139.7376 110.001824 
L 143.3088 115.947226 
L 146.88 122.380522 
L 150.4512 129.36 
L 154.0224 136.235856 
L 157.5936 142.98434 
L 161.1648 149.534213 
L 164.736 155.701973 
L 168.3072 161.355934 
L 171.8784 166.7422 
L 175.4496 171.729084 
L 179.0208 175.889139 
L 182.592 179.718893 
L 186.1632 182.896682 
L 189.7344 185.739854 
L 193.3056 188.250566 
L 196.8768 190.387802 
L 200.448 192.224961 
L 204.0192 193.759885 
L 207.5904 194.90838 
L 211.1616 195.86258 
L 214.7328 196.54261 
L 218.304 197.110381 
L 221.8752 197.598275 
L 225.4464 197.971752 
L 229.0176 198.239446 
L 232.5888 198.485552 
L 236.16 198.679846 
L 239.7312 198.818011 
L 243.3024 198.923793 
L 246.8736 199.016622 
L 250.4448 199.059799 
L 254.016 199.115928 
L 257.5872 199.156946 
L 261.1584 199.185011 
L 264.7296 199.20444 
L 268.3008 199.213075 
L 271.872 199.230346 
L 275.4432 199.24114 
L 279.0144 199.247617 
L 282.5856 199.267046 
L 286.1568 199.269205 
L 289.728 199.279999 
L 293.2992 199.288634 
L 296.8704 199.288634 
L 300.4416 199.288634 
L 304.0128 199.290793 
L 307.584 199.29727 
L 311.1552 199.299428 
L 314.7264 199.301587 
L 318.2976 199.301587 
L 321.8688 199.301587 
L 325.44 199.301587 
L 329.0112 199.301587 
L 332.5824 199.303746 
L 336.1536 199.303746 
L 339.7248 199.303746 
L 343.296 199.303746 
L 346.8672 199.303746 
L 350.4384 199.303746 
L 354.0096 199.303746 
L 357.5808 199.305905 
L 361.152 199.305905 
L 364.7232 199.305905 
L 368.2944 199.305905 
L 371.8656 199.305905 
L 375.4368 199.305905 
L 379.008 199.305905 
L 382.5792 199.305905 
L 386.1504 199.305905 
L 389.7216 199.305905 
L 393.2928 199.305905 
L 396.864 199.305905 
L 400.4352 199.305905 
L 404.0064 199.305905 
L 407.5776 199.305905 
L 411.1488 199.305905 
" style="fill:none;stroke:#1f77b4;stroke-linecap:square;stroke-width:1.5;"/>
   </g>
   <g id="line2d_14">
    <path clip-path="url(#p4a82599e57)" d="M 57.6 53.568 
L 61.1712 53.732071 
L 64.7424 54.079641 
L 68.3136 54.54163 
L 71.8848 55.105083 
L 75.456 55.951342 
L 79.0272 57.048025 
L 82.5984 58.401607 
L 86.1696 59.992661 
L 89.7408 61.428279 
L 93.312 62.932979 
L 96.8832 64.852174 
L 100.4544 67.181545 
L 104.0256 69.48717 
L 107.5968 71.760412 
L 111.168 74.437354 
L 114.7392 77.328019 
L 118.3104 80.762709 
L 121.8816 84.581669 
L 125.4528 88.897158 
L 129.024 93.687589 
L 132.5952 98.741397 
L 136.1664 104.203222 
L 139.7376 110.001824 
L 143.3088 115.947226 
L 146.88 122.380522 
L 150.4512 129.36 
L 154.0224 136.235856 
L 157.5936 142.98434 
L 161.1648 149.534213 
L 164.736 155.701973 
L 168.3072 161.355934 
L 171.8784 166.7422 
L 175.4496 171.729084 
L 179.0208 175.889139 
L 182.592 179.718893 
L 186.1632 182.896682 
L 189.7344 185.739854 
L 193.3056 188.250566 
L 196.8768 190.387802 
L 200.448 192.224961 
L 204.0192 193.759885 
L 207.5904 194.90838 
L 211.1616 195.86258 
L 214.7328 196.54261 
L 218.304 197.110381 
L 221.8752 197.598275 
L 225.4464 197.971752 
L 229.0176 198.239446 
L 232.5888 198.485552 
L 236.16 198.679846 
L 239.7312 198.818011 
L 243.3024 198.923793 
L 246.8736 199.016622 
L 250.4448 199.059799 
L 254.016 199.115928 
L 257.5872 199.156946 
L 261.1584 199.185011 
L 264.7296 199.20444 
L 268.3008 199.213075 
L 271.872 199.230346 
L 275.4432 199.24114 
L 279.0144 199.247617 
L 282.5856 199.267046 
L 286.1568 199.269205 
L 289.728 199.279999 
L 293.2992 199.288634 
L 296.8704 199.288634 
L 300.4416 199.288634 
L 304.0128 199.290793 
L 307.584 199.29727 
L 311.1552 199.299428 
L 314.7264 199.301587 
L 318.2976 199.301587 
L 321.8688 199.301587 
L 325.44 199.301587 
L 329.0112 199.301587 
L 332.5824 199.303746 
L 336.1536 199.303746 
L 339.7248 199.303746 
L 343.296 199.303746 
L 346.8672 199.303746 
L 350.4384 199.303746 
L 354.0096 199.303746 
L 357.5808 199.305905 
L 361.152 199.305905 
L 364.7232 199.305905 
L 368.2944 199.305905 
L 371.8656 199.305905 
L 375.4368 199.305905 
L 379.008 199.305905 
L 382.5792 199.305905 
L 386.1504 199.305905 
L 389.7216 199.305905 
L 393.2928 199.305905 
L 396.864 199.305905 
L 400.4352 199.305905 
L 404.0064 199.305905 
L 407.5776 199.305905 
L 411.1488 199.305905 
" style="fill:none;stroke:#000000;stroke-linecap:square;stroke-width:4;"/>
   </g>
   <g id="line2d_15">
    <path clip-path="url(#p4a82599e57)" d="M 57.6 295.405965 
L 61.1712 295.244053 
L 64.7424 294.911594 
L 68.3136 294.481988 
L 71.8848 294.004888 
L 75.456 293.268729 
L 79.0272 292.405199 
L 82.5984 291.39271 
L 86.1696 290.267963 
L 89.7408 289.508057 
L 93.312 288.862568 
L 96.8832 287.882462 
L 100.4544 286.705903 
L 104.0256 285.704209 
L 107.5968 284.950779 
L 111.168 283.964196 
L 114.7392 282.906372 
L 118.3104 281.51609 
L 121.8816 279.944466 
L 125.4528 278.040383 
L 129.024 276.093123 
L 132.5952 273.986111 
L 136.1664 271.855351 
L 139.7376 269.800151 
L 143.3088 268.023438 
L 146.88 265.989826 
L 150.4512 263.967008 
L 154.0224 262.302554 
L 157.5936 260.98783 
L 161.1648 260.428695 
L 164.736 260.504254 
L 168.3072 261.296542 
L 171.8784 262.343572 
L 175.4496 263.833161 
L 179.0208 265.935855 
L 182.592 268.14865 
L 186.1632 270.704698 
L 189.7344 273.144169 
L 193.3056 275.516717 
L 196.8768 277.753259 
L 200.448 279.879701 
L 204.0192 281.902519 
L 207.5904 283.931814 
L 211.1616 285.697732 
L 214.7328 287.364344 
L 218.304 288.836663 
L 221.8752 290.011063 
L 225.4464 291.055934 
L 229.0176 291.912987 
L 232.5888 292.634034 
L 236.16 293.199646 
L 239.7312 293.663794 
L 243.3024 294.048064 
L 246.8736 294.352458 
L 250.4448 294.6072 
L 254.016 294.799335 
L 257.5872 294.948294 
L 261.1584 295.075665 
L 264.7296 295.172812 
L 268.3008 295.254847 
L 271.872 295.308818 
L 275.4432 295.349835 
L 279.0144 295.382218 
L 282.5856 295.390853 
L 286.1568 295.416759 
L 289.728 295.421076 
L 293.2992 295.431871 
L 296.8704 295.442665 
L 300.4416 295.449141 
L 304.0128 295.457776 
L 307.584 295.457776 
L 311.1552 295.462094 
L 314.7264 295.464253 
L 318.2976 295.468571 
L 321.8688 295.472888 
L 325.44 295.477206 
L 329.0112 295.481524 
L 332.5824 295.483682 
L 336.1536 295.485841 
L 339.7248 295.485841 
L 343.296 295.485841 
L 346.8672 295.488 
L 350.4384 295.488 
L 354.0096 295.488 
L 357.5808 295.485841 
L 361.152 295.485841 
L 364.7232 295.485841 
L 368.2944 295.485841 
L 371.8656 295.485841 
L 375.4368 295.488 
L 379.008 295.488 
L 382.5792 295.488 
L 386.1504 295.488 
L 389.7216 295.488 
L 393.2928 295.488 
L 396.864 295.488 
L 400.4352 295.488 
L 404.0064 295.488 
L 407.5776 295.488 
L 411.1488 295.488 
" style="fill:none;stroke:#ff7f0e;stroke-linecap:square;stroke-width:1.5;"/>
   </g>
   <g id="line2d_16">
    <path clip-path="url(#p4a82599e57)" d="M 57.6 295.405965 
L 61.1712 295.244053 
L 64.7424 294.911594 
L 68.3136 294.481988 
L 71.8848 294.004888 
L 75.456 293.268729 
L 79.0272 292.405199 
L 82.5984 291.39271 
L 86.1696 290.267963 
L 89.7408 289.508057 
L 93.312 288.862568 
L 96.8832 287.882462 
L 100.4544 286.705903 
L 104.0256 285.704209 
L 107.5968 284.950779 
L 111.168 283.964196 
L 114.7392 282.906372 
L 118.3104 281.51609 
L 121.8816 279.944466 
L 125.4528 278.040383 
L 129.024 276.093123 
L 132.5952 273.986111 
L 136.1664 271.855351 
L 139.7376 269.800151 
L 143.3088 268.023438 
L 146.88 265.989826 
L 150.4512 263.967008 
L 154.0224 262.302554 
L 157.5936 260.98783 
L 161.1648 260.428695 
L 164.736 260.504254 
L 168.3072 261.296542 
L 171.8784 262.343572 
L 175.4496 263.833161 
L 179.0208 265.935855 
L 182.592 268.14865 
L 186.1632 270.704698 
L 189.7344 273.144169 
L 193.3056 275.516717 
L 196.8768 277.753259 
L 200.448 279.879701 
L 204.0192 281.902519 
L 207.5904 283.931814 
L 211.1616 285.697732 
L 214.7328 287.364344 
L 218.304 288.836663 
L 221.8752 290.011063 
L 225.4464 291.055934 
L 229.0176 291.912987 
L 232.5888 292.634034 
L 236.16 293.199646 
L 239.7312 293.663794 
L 243.3024 294.048064 
L 246.8736 294.352458 
L 250.4448 294.6072 
L 254.016 294.799335 
L 257.5872 294.948294 
L 261.1584 295.075665 
L 264.7296 295.172812 
L 268.3008 295.254847 
L 271.872 295.308818 
L 275.4432 295.349835 
L 279.0144 295.382218 
L 282.5856 295.390853 
L 286.1568 295.416759 
L 289.728 295.421076 
L 293.2992 295.431871 
L 296.8704 295.442665 
L 300.4416 295.449141 
L 304.0128 295.457776 
L 307.584 295.457776 
L 311.1552 295.462094 
L 314.7264 295.464253 
L 318.2976 295.468571 
L 321.8688 295.472888 
L 325.44 295.477206 
L 329.0112 295.481524 
L 332.5824 295.483682 
L 336.1536 295.485841 
L 339.7248 295.485841 
L 343.296 295.485841 
L 346.8672 295.488 
L 350.4384 295.488 
L 354.0096 295.488 
L 357.5808 295.485841 
L 361.152 295.485841 
L 364.7232 295.485841 
L 368.2944 295.485841 
L 371.8656 295.485841 
L 375.4368 295.488 
L 379.008 295.488 
L 382.5792 295.488 
L 386.1504 295.488 
L 389.7216 295.488 
L 393.2928 295.488 
L 396.864 295.488 
L 400.4352 295.488 
L 404.0064 295.488 
L 407.5776 295.488 
L 411.1488 295.488 
" style="fill:none;stroke:#0000ff;stroke-linecap:square;stroke-width:4;"/>
   </g>
   <g id="line2d_17">
    <path clip-path="url(#p4a82599e57)" d="M 57.6 295.485841 
L 61.1712 295.483682 
L 64.7424 295.468571 
L 68.3136 295.436188 
L 71.8848 295.349835 
L 75.456 295.239735 
L 79.0272 295.006582 
L 82.5984 294.665488 
L 86.1696 294.222929 
L 89.7408 293.583917 
L 93.312 292.815376 
L 96.8832 292.087852 
L 100.4544 291.267499 
L 104.0256 290.399651 
L 107.5968 289.508057 
L 111.168 288.65748 
L 114.7392 287.906209 
L 118.3104 287.176527 
L 121.8816 286.300044 
L 125.4528 285.31562 
L 129.024 284.139061 
L 132.5952 283.165431 
L 136.1664 281.969443 
L 139.7376 280.43236 
L 143.3088 278.685871 
L 146.88 276.930747 
L 150.4512 274.987805 
L 154.0224 273.150646 
L 157.5936 271.533687 
L 161.1648 269.813104 
L 164.736 268.18535 
L 168.3072 266.75405 
L 171.8784 265.711338 
L 175.4496 264.875873 
L 179.0208 264.621131 
L 182.592 265.04642 
L 186.1632 265.972555 
L 189.7344 267.393062 
L 193.3056 269.143868 
L 196.8768 271.183957 
L 200.448 273.282334 
L 204.0192 275.4757 
L 207.5904 277.690653 
L 211.1616 279.786872 
L 214.7328 281.794578 
L 218.304 283.55402 
L 221.8752 285.248697 
L 225.4464 286.800891 
L 229.0176 288.251621 
L 232.5888 289.52101 
L 236.16 290.673822 
L 239.7312 291.634499 
L 243.3024 292.420311 
L 246.8736 293.020464 
L 250.4448 293.521311 
L 254.016 293.922852 
L 257.5872 294.255311 
L 261.1584 294.505735 
L 264.7296 294.715141 
L 268.3008 294.890006 
L 271.872 295.026012 
L 275.4432 295.133953 
L 279.0144 295.222465 
L 282.5856 295.285071 
L 286.1568 295.332565 
L 289.728 295.375741 
L 293.2992 295.399488 
L 296.8704 295.418918 
L 300.4416 295.436188 
L 304.0128 295.444824 
L 307.584 295.4513 
L 311.1552 295.459935 
L 314.7264 295.468571 
L 318.2976 295.470729 
L 321.8688 295.475047 
L 325.44 295.475047 
L 329.0112 295.475047 
L 332.5824 295.475047 
L 336.1536 295.477206 
L 339.7248 295.481524 
L 343.296 295.483682 
L 346.8672 295.483682 
L 350.4384 295.485841 
L 354.0096 295.485841 
L 357.5808 295.485841 
L 361.152 295.485841 
L 364.7232 295.488 
L 368.2944 295.488 
L 371.8656 295.488 
L 375.4368 295.485841 
L 379.008 295.485841 
L 382.5792 295.485841 
L 386.1504 295.485841 
L 389.7216 295.488 
L 393.2928 295.488 
L 396.864 295.488 
L 400.4352 295.488 
L 404.0064 295.488 
L 407.5776 295.488 
L 411.1488 295.488 
" style="fill:none;stroke:#2ca02c;stroke-linecap:square;stroke-width:1.5;"/>
   </g>
   <g id="line2d_18">
    <path clip-path="url(#p4a82599e57)" d="M 57.6 295.485841 
L 61.1712 295.483682 
L 64.7424 295.468571 
L 68.3136 295.436188 
L 71.8848 295.349835 
L 75.456 295.239735 
L 79.0272 295.006582 
L 82.5984 294.665488 
L 86.1696 294.222929 
L 89.7408 293.583917 
L 93.312 292.815376 
L 96.8832 292.087852 
L 100.4544 291.267499 
L 104.0256 290.399651 
L 107.5968 289.508057 
L 111.168 288.65748 
L 114.7392 287.906209 
L 118.3104 287.176527 
L 121.8816 286.300044 
L 125.4528 285.31562 
L 129.024 284.139061 
L 132.5952 283.165431 
L 136.1664 281.969443 
L 139.7376 280.43236 
L 143.3088 278.685871 
L 146.88 276.930747 
L 150.4512 274.987805 
L 154.0224 273.150646 
L 157.5936 271.533687 
L 161.1648 269.813104 
L 164.736 268.18535 
L 168.3072 266.75405 
L 171.8784 265.711338 
L 175.4496 264.875873 
L 179.0208 264.621131 
L 182.592 265.04642 
L 186.1632 265.972555 
L 189.7344 267.393062 
L 193.3056 269.143868 
L 196.8768 271.183957 
L 200.448 273.282334 
L 204.0192 275.4757 
L 207.5904 277.690653 
L 211.1616 279.786872 
L 214.7328 281.794578 
L 218.304 283.55402 
L 221.8752 285.248697 
L 225.4464 286.800891 
L 229.0176 288.251621 
L 232.5888 289.52101 
L 236.16 290.673822 
L 239.7312 291.634499 
L 243.3024 292.420311 
L 246.8736 293.020464 
L 250.4448 293.521311 
L 254.016 293.922852 
L 257.5872 294.255311 
L 261.1584 294.505735 
L 264.7296 294.715141 
L 268.3008 294.890006 
L 271.872 295.026012 
L 275.4432 295.133953 
L 279.0144 295.222465 
L 282.5856 295.285071 
L 286.1568 295.332565 
L 289.728 295.375741 
L 293.2992 295.399488 
L 296.8704 295.418918 
L 300.4416 295.436188 
L 304.0128 295.444824 
L 307.584 295.4513 
L 311.1552 295.459935 
L 314.7264 295.468571 
L 318.2976 295.470729 
L 321.8688 295.475047 
L 325.44 295.475047 
L 329.0112 295.475047 
L 332.5824 295.475047 
L 336.1536 295.477206 
L 339.7248 295.481524 
L 343.296 295.483682 
L 346.8672 295.483682 
L 350.4384 295.485841 
L 354.0096 295.485841 
L 357.5808 295.485841 
L 361.152 295.485841 
L 364.7232 295.488 
L 368.2944 295.488 
L 371.8656 295.488 
L 375.4368 295.485841 
L 379.008 295.485841 
L 382.5792 295.485841 
L 386.1504 295.485841 
L 389.7216 295.488 
L 393.2928 295.488 
L 396.864 295.488 
L 400.4352 295.488 
L 404.0064 295.488 
L 407.5776 295.488 
L 411.1488 295.488 
" style="fill:none;stroke:#ff0000;stroke-linecap:square;stroke-width:4;"/>
   </g>
   <g id="line2d_19">
    <path clip-path="url(#p4a82599e57)" d="M 57.6 295.488 
L 61.1712 295.488 
L 64.7424 295.488 
L 68.3136 295.488 
L 71.8848 295.488 
L 75.456 295.488 
L 79.0272 295.488 
L 82.5984 295.488 
L 86.1696 295.464253 
L 89.7408 295.427553 
L 93.312 295.336882 
L 96.8832 295.125318 
L 100.4544 294.792859 
L 104.0256 294.356776 
L 107.5968 293.728558 
L 111.168 292.888776 
L 114.7392 291.807205 
L 118.3104 290.492481 
L 121.8816 289.125945 
L 125.4528 287.709756 
L 129.024 286.06905 
L 132.5952 284.167126 
L 136.1664 282.148625 
L 139.7376 280.160348 
L 143.3088 278.0447 
L 146.88 275.829747 
L 150.4512 273.439928 
L 154.0224 270.868769 
L 157.5936 267.986738 
L 161.1648 264.869396 
L 164.736 261.50163 
L 168.3072 257.982747 
L 171.8784 254.211281 
L 175.4496 250.396639 
L 179.0208 246.370432 
L 182.592 242.05926 
L 186.1632 237.773994 
L 189.7344 233.691657 
L 193.3056 230.008703 
L 196.8768 226.895678 
L 200.448 224.587895 
L 204.0192 222.862995 
L 207.5904 221.885047 
L 211.1616 221.792218 
L 214.7328 222.623365 
L 218.304 224.367695 
L 221.8752 226.807167 
L 225.4464 230.028132 
L 229.0176 233.75858 
L 232.5888 237.914317 
L 236.16 242.396036 
L 239.7312 247.160561 
L 243.3024 251.981216 
L 246.8736 256.69177 
L 250.4448 261.201554 
L 254.016 265.508408 
L 257.5872 269.575633 
L 261.1584 273.295287 
L 264.7296 276.589653 
L 268.3008 279.553718 
L 271.872 282.228502 
L 275.4432 284.540602 
L 279.0144 286.505132 
L 282.5856 288.201968 
L 286.1568 289.590092 
L 289.728 290.75154 
L 293.2992 291.673358 
L 296.8704 292.454852 
L 300.4416 293.078752 
L 304.0128 293.564488 
L 307.584 293.961711 
L 311.1552 294.298488 
L 314.7264 294.576976 
L 318.2976 294.773429 
L 321.8688 294.924547 
L 325.44 295.054076 
L 329.0112 295.151223 
L 332.5824 295.224623 
L 336.1536 295.280753 
L 339.7248 295.319612 
L 343.296 295.351994 
L 346.8672 295.382218 
L 350.4384 295.395171 
L 354.0096 295.412441 
L 357.5808 295.423235 
L 361.152 295.438347 
L 364.7232 295.442665 
L 368.2944 295.455618 
L 371.8656 295.457776 
L 375.4368 295.466412 
L 379.008 295.472888 
L 382.5792 295.477206 
L 386.1504 295.481524 
L 389.7216 295.479365 
L 393.2928 295.481524 
L 396.864 295.481524 
L 400.4352 295.483682 
L 404.0064 295.483682 
L 407.5776 295.483682 
L 411.1488 295.483682 
" style="fill:none;stroke:#d62728;stroke-linecap:square;stroke-width:1.5;"/>
   </g>
   <g id="line2d_20">
    <path clip-path="url(#p4a82599e57)" d="M 57.6 295.488 
L 61.1712 295.488 
L 64.7424 295.488 
L 68.3136 295.488 
L 71.8848 295.488 
L 75.456 295.488 
L 79.0272 295.488 
L 82.5984 295.488 
L 86.1696 295.464253 
L 89.7408 295.427553 
L 93.312 295.336882 
L 96.8832 295.125318 
L 100.4544 294.792859 
L 104.0256 294.356776 
L 107.5968 293.728558 
L 111.168 292.888776 
L 114.7392 291.807205 
L 118.3104 290.492481 
L 121.8816 289.125945 
L 125.4528 287.709756 
L 129.024 286.06905 
L 132.5952 284.167126 
L 136.1664 282.148625 
L 139.7376 280.160348 
L 143.3088 278.0447 
L 146.88 275.829747 
L 150.4512 273.439928 
L 154.0224 270.868769 
L 157.5936 267.986738 
L 161.1648 264.869396 
L 164.736 261.50163 
L 168.3072 257.982747 
L 171.8784 254.211281 
L 175.4496 250.396639 
L 179.0208 246.370432 
L 182.592 242.05926 
L 186.1632 237.773994 
L 189.7344 233.691657 
L 193.3056 230.008703 
L 196.8768 226.895678 
L 200.448 224.587895 
L 204.0192 222.862995 
L 207.5904 221.885047 
L 211.1616 221.792218 
L 214.7328 222.623365 
L 218.304 224.367695 
L 221.8752 226.807167 
L 225.4464 230.028132 
L 229.0176 233.75858 
L 232.5888 237.914317 
L 236.16 242.396036 
L 239.7312 247.160561 
L 243.3024 251.981216 
L 246.8736 256.69177 
L 250.4448 261.201554 
L 254.016 265.508408 
L 257.5872 269.575633 
L 261.1584 273.295287 
L 264.7296 276.589653 
L 268.3008 279.553718 
L 271.872 282.228502 
L 275.4432 284.540602 
L 279.0144 286.505132 
L 282.5856 288.201968 
L 286.1568 289.590092 
L 289.728 290.75154 
L 293.2992 291.673358 
L 296.8704 292.454852 
L 300.4416 293.078752 
L 304.0128 293.564488 
L 307.584 293.961711 
L 311.1552 294.298488 
L 314.7264 294.576976 
L 318.2976 294.773429 
L 321.8688 294.924547 
L 325.44 295.054076 
L 329.0112 295.151223 
L 332.5824 295.224623 
L 336.1536 295.280753 
L 339.7248 295.319612 
L 343.296 295.351994 
L 346.8672 295.382218 
L 350.4384 295.395171 
L 354.0096 295.412441 
L 357.5808 295.423235 
L 361.152 295.438347 
L 364.7232 295.442665 
L 368.2944 295.455618 
L 371.8656 295.457776 
L 375.4368 295.466412 
L 379.008 295.472888 
L 382.5792 295.477206 
L 386.1504 295.481524 
L 389.7216 295.479365 
L 393.2928 295.481524 
L 396.864 295.481524 
L 400.4352 295.483682 
L 404.0064 295.483682 
L 407.5776 295.483682 
L 411.1488 295.483682 
" style="fill:none;stroke:#800080;stroke-linecap:square;stroke-width:4;"/>
   </g>
   <g id="line2d_21">
    <path clip-path="url(#p4a82599e57)" d="M 57.6 295.403806 
L 61.1712 295.239735 
L 64.7424 294.892165 
L 68.3136 294.430176 
L 71.8848 293.866723 
L 75.456 293.020464 
L 79.0272 291.923781 
L 82.5984 290.570198 
L 86.1696 288.979145 
L 89.7408 287.543527 
L 93.312 286.038826 
L 96.8832 284.119632 
L 100.4544 281.79026 
L 104.0256 279.484636 
L 107.5968 277.211394 
L 111.168 274.534452 
L 114.7392 271.643787 
L 118.3104 268.209097 
L 121.8816 264.390137 
L 125.4528 260.074648 
L 129.024 255.284217 
L 132.5952 250.230409 
L 136.1664 244.768584 
L 139.7376 238.969982 
L 143.3088 233.02458 
L 146.88 226.591284 
L 150.4512 219.611805 
L 154.0224 212.73595 
L 157.5936 205.987466 
L 161.1648 199.437593 
L 164.736 193.269832 
L 168.3072 187.615872 
L 171.8784 182.229605 
L 175.4496 177.242721 
L 179.0208 173.082667 
L 182.592 169.252913 
L 186.1632 166.075124 
L 189.7344 163.231952 
L 193.3056 160.72124 
L 196.8768 158.584004 
L 200.448 156.746844 
L 204.0192 155.21192 
L 207.5904 154.063426 
L 211.1616 153.109226 
L 214.7328 152.429196 
L 218.304 151.861425 
L 221.8752 151.373531 
L 225.4464 151.000054 
L 229.0176 150.73236 
L 232.5888 150.486254 
L 236.16 150.29196 
L 239.7312 150.153795 
L 243.3024 150.048013 
L 246.8736 149.955183 
L 250.4448 149.912007 
L 254.016 149.855877 
L 257.5872 149.81486 
L 261.1584 149.786795 
L 264.7296 149.767366 
L 268.3008 149.75873 
L 271.872 149.74146 
L 275.4432 149.730666 
L 279.0144 149.724189 
L 282.5856 149.70476 
L 286.1568 149.702601 
L 289.728 149.691807 
L 293.2992 149.683172 
L 296.8704 149.683172 
L 300.4416 149.683172 
L 304.0128 149.681013 
L 307.584 149.674536 
L 311.1552 149.672377 
L 314.7264 149.670219 
L 318.2976 149.670219 
L 321.8688 149.670219 
L 325.44 149.670219 
L 329.0112 149.670219 
L 332.5824 149.66806 
L 336.1536 149.66806 
L 339.7248 149.66806 
L 343.296 149.66806 
L 346.8672 149.66806 
L 350.4384 149.66806 
L 354.0096 149.66806 
L 357.5808 149.665901 
L 361.152 149.665901 
L 364.7232 149.665901 
L 368.2944 149.665901 
L 371.8656 149.665901 
L 375.4368 149.665901 
L 379.008 149.665901 
L 382.5792 149.665901 
L 386.1504 149.665901 
L 389.7216 149.665901 
L 393.2928 149.665901 
L 396.864 149.665901 
L 400.4352 149.665901 
L 404.0064 149.665901 
L 407.5776 149.665901 
L 411.1488 149.665901 
" style="fill:none;stroke:#9467bd;stroke-linecap:square;stroke-width:1.5;"/>
   </g>
   <g id="line2d_22">
    <path clip-path="url(#p4a82599e57)" d="M 57.6 295.403806 
L 61.1712 295.239735 
L 64.7424 294.892165 
L 68.3136 294.430176 
L 71.8848 293.866723 
L 75.456 293.020464 
L 79.0272 291.923781 
L 82.5984 290.570198 
L 86.1696 288.979145 
L 89.7408 287.543527 
L 93.312 286.038826 
L 96.8832 284.119632 
L 100.4544 281.79026 
L 104.0256 279.484636 
L 107.5968 277.211394 
L 111.168 274.534452 
L 114.7392 271.643787 
L 118.3104 268.209097 
L 121.8816 264.390137 
L 125.4528 260.074648 
L 129.024 255.284217 
L 132.5952 250.230409 
L 136.1664 244.768584 
L 139.7376 238.969982 
L 143.3088 233.02458 
L 146.88 226.591284 
L 150.4512 219.611805 
L 154.0224 212.73595 
L 157.5936 205.987466 
L 161.1648 199.437593 
L 164.736 193.269832 
L 168.3072 187.615872 
L 171.8784 182.229605 
L 175.4496 177.242721 
L 179.0208 173.082667 
L 182.592 169.252913 
L 186.1632 166.075124 
L 189.7344 163.231952 
L 193.3056 160.72124 
L 196.8768 158.584004 
L 200.448 156.746844 
L 204.0192 155.21192 
L 207.5904 154.063426 
L 211.1616 153.109226 
L 214.7328 152.429196 
L 218.304 151.861425 
L 221.8752 151.373531 
L 225.4464 151.000054 
L 229.0176 150.73236 
L 232.5888 150.486254 
L 236.16 150.29196 
L 239.7312 150.153795 
L 243.3024 150.048013 
L 246.8736 149.955183 
L 250.4448 149.912007 
L 254.016 149.855877 
L 257.5872 149.81486 
L 261.1584 149.786795 
L 264.7296 149.767366 
L 268.3008 149.75873 
L 271.872 149.74146 
L 275.4432 149.730666 
L 279.0144 149.724189 
L 282.5856 149.70476 
L 286.1568 149.702601 
L 289.728 149.691807 
L 293.2992 149.683172 
L 296.8704 149.683172 
L 300.4416 149.683172 
L 304.0128 149.681013 
L 307.584 149.674536 
L 311.1552 149.672377 
L 314.7264 149.670219 
L 318.2976 149.670219 
L 321.8688 149.670219 
L 325.44 149.670219 
L 329.0112 149.670219 
L 332.5824 149.66806 
L 336.1536 149.66806 
L 339.7248 149.66806 
L 343.296 149.66806 
L 346.8672 149.66806 
L 350.4384 149.66806 
L 354.0096 149.66806 
L 357.5808 149.665901 
L 361.152 149.665901 
L 364.7232 149.665901 
L 368.2944 149.665901 
L 371.8656 149.665901 
L 375.4368 149.665901 
L 379.008 149.665901 
L 382.5792 149.665901 
L 386.1504 149.665901 
L 389.7216 149.665901 
L 393.2928 149.665901 
L 396.864 149.665901 
L 400.4352 149.665901 
L 404.0064 149.665901 
L 407.5776 149.665901 
L 411.1488 149.665901 
" style="fill:none;stroke:#ff0000;stroke-dasharray:32,8,5,8;stroke-dashoffset:0;stroke-width:5;"/>
   </g>
   <g id="line2d_23">
    <path clip-path="url(#p4a82599e57)" d="M 57.6 295.488 
L 61.1712 295.488 
L 64.7424 295.488 
L 68.3136 295.488 
L 71.8848 295.488 
L 75.456 295.488 
L 79.0272 295.488 
L 82.5984 295.488 
L 86.1696 295.488 
L 89.7408 295.488 
L 93.312 295.488 
L 96.8832 295.488 
L 100.4544 295.488 
L 104.0256 295.488 
L 107.5968 295.488 
L 111.168 295.488 
L 114.7392 295.488 
L 118.3104 295.488 
L 121.8816 295.483682 
L 125.4528 295.475047 
L 129.024 295.449141 
L 132.5952 295.380059 
L 136.1664 295.2678 
L 139.7376 295.071347 
L 143.3088 294.775588 
L 146.88 294.358935 
L 150.4512 293.750147 
L 154.0224 292.981605 
L 157.5936 292.083534 
L 161.1648 290.993328 
L 164.736 289.793022 
L 168.3072 288.366039 
L 171.8784 286.83975 
L 175.4496 285.117008 
L 179.0208 283.232355 
L 182.592 281.183631 
L 186.1632 278.921183 
L 189.7344 276.427741 
L 193.3056 273.582411 
L 196.8768 270.454274 
L 200.448 266.874944 
L 204.0192 263.051666 
L 207.5904 258.861388 
L 211.1616 254.375352 
L 214.7328 249.487774 
L 218.304 244.209448 
L 221.8752 238.689335 
L 225.4464 232.78711 
L 229.0176 226.828755 
L 232.5888 220.788365 
L 236.16 214.726386 
L 239.7312 208.724855 
L 243.3024 202.939206 
L 246.8736 197.470904 
L 250.4448 192.417097 
L 254.016 187.751878 
L 257.5872 183.382418 
L 261.1584 179.455516 
L 264.7296 176.022986 
L 268.3008 172.961773 
L 271.872 170.21359 
L 275.4432 167.873424 
L 279.0144 165.895941 
L 282.5856 164.199106 
L 286.1568 162.789393 
L 289.728 161.640899 
L 293.2992 160.747146 
L 296.8704 159.982922 
L 300.4416 159.369816 
L 304.0128 158.897033 
L 307.584 158.495492 
L 311.1552 158.173827 
L 314.7264 157.895339 
L 318.2976 157.707521 
L 321.8688 157.569356 
L 325.44 157.439827 
L 329.0112 157.346998 
L 332.5824 157.26928 
L 336.1536 157.210992 
L 339.7248 157.169974 
L 343.296 157.137592 
L 346.8672 157.107368 
L 350.4384 157.092256 
L 354.0096 157.074986 
L 357.5808 157.064192 
L 361.152 157.04908 
L 364.7232 157.042603 
L 368.2944 157.02965 
L 371.8656 157.027492 
L 375.4368 157.018856 
L 379.008 157.01238 
L 382.5792 157.008062 
L 386.1504 157.005903 
L 389.7216 157.005903 
L 393.2928 157.003744 
L 396.864 157.003744 
L 400.4352 157.001586 
L 404.0064 157.001586 
L 407.5776 157.001586 
L 411.1488 157.001586 
" style="fill:none;stroke:#8c564b;stroke-linecap:square;stroke-width:1.5;"/>
   </g>
   <g id="line2d_24">
    <path clip-path="url(#p4a82599e57)" d="M 57.6 295.488 
L 61.1712 295.488 
L 64.7424 295.488 
L 68.3136 295.488 
L 71.8848 295.488 
L 75.456 295.488 
L 79.0272 295.488 
L 82.5984 295.488 
L 86.1696 295.488 
L 89.7408 295.488 
L 93.312 295.488 
L 96.8832 295.488 
L 100.4544 295.488 
L 104.0256 295.488 
L 107.5968 295.488 
L 111.168 295.488 
L 114.7392 295.488 
L 118.3104 295.488 
L 121.8816 295.483682 
L 125.4528 295.475047 
L 129.024 295.449141 
L 132.5952 295.380059 
L 136.1664 295.2678 
L 139.7376 295.071347 
L 143.3088 294.775588 
L 146.88 294.358935 
L 150.4512 293.750147 
L 154.0224 292.981605 
L 157.5936 292.083534 
L 161.1648 290.993328 
L 164.736 289.793022 
L 168.3072 288.366039 
L 171.8784 286.83975 
L 175.4496 285.117008 
L 179.0208 283.232355 
L 182.592 281.183631 
L 186.1632 278.921183 
L 189.7344 276.427741 
L 193.3056 273.582411 
L 196.8768 270.454274 
L 200.448 266.874944 
L 204.0192 263.051666 
L 207.5904 258.861388 
L 211.1616 254.375352 
L 214.7328 249.487774 
L 218.304 244.209448 
L 221.8752 238.689335 
L 225.4464 232.78711 
L 229.0176 226.828755 
L 232.5888 220.788365 
L 236.16 214.726386 
L 239.7312 208.724855 
L 243.3024 202.939206 
L 246.8736 197.470904 
L 250.4448 192.417097 
L 254.016 187.751878 
L 257.5872 183.382418 
L 261.1584 179.455516 
L 264.7296 176.022986 
L 268.3008 172.961773 
L 271.872 170.21359 
L 275.4432 167.873424 
L 279.0144 165.895941 
L 282.5856 164.199106 
L 286.1568 162.789393 
L 289.728 161.640899 
L 293.2992 160.747146 
L 296.8704 159.982922 
L 300.4416 159.369816 
L 304.0128 158.897033 
L 307.584 158.495492 
L 311.1552 158.173827 
L 314.7264 157.895339 
L 318.2976 157.707521 
L 321.8688 157.569356 
L 325.44 157.439827 
L 329.0112 157.346998 
L 332.5824 157.26928 
L 336.1536 157.210992 
L 339.7248 157.169974 
L 343.296 157.137592 
L 346.8672 157.107368 
L 350.4384 157.092256 
L 354.0096 157.074986 
L 357.5808 157.064192 
L 361.152 157.04908 
L 364.7232 157.042603 
L 368.2944 157.02965 
L 371.8656 157.027492 
L 375.4368 157.018856 
L 379.008 157.01238 
L 382.5792 157.008062 
L 386.1504 157.005903 
L 389.7216 157.005903 
L 393.2928 157.003744 
L 396.864 157.003744 
L 400.4352 157.001586 
L 404.0064 157.001586 
L 407.5776 157.001586 
L 411.1488 157.001586 
" style="fill:none;stroke:#008000;stroke-linecap:square;stroke-width:4;"/>
   </g>
   <g id="line2d_25">
    <path clip-path="url(#p4a82599e57)" d="M 57.6 295.488 
L 61.1712 295.488 
L 64.7424 295.488 
L 68.3136 295.488 
L 71.8848 295.488 
L 75.456 295.488 
L 79.0272 295.488 
L 82.5984 295.488 
L 86.1696 295.488 
L 89.7408 295.488 
L 93.312 295.488 
L 96.8832 295.488 
L 100.4544 295.488 
L 104.0256 295.488 
L 107.5968 295.488 
L 111.168 295.488 
L 114.7392 295.488 
L 118.3104 295.488 
L 121.8816 295.488 
L 125.4528 295.485841 
L 129.024 295.485841 
L 132.5952 295.483682 
L 136.1664 295.479365 
L 139.7376 295.457776 
L 143.3088 295.446982 
L 146.88 295.434029 
L 150.4512 295.418918 
L 154.0224 295.384376 
L 157.5936 295.347676 
L 161.1648 295.285071 
L 164.736 295.237576 
L 168.3072 295.168494 
L 171.8784 295.075665 
L 175.4496 294.972041 
L 179.0208 294.874894 
L 182.592 294.766953 
L 186.1632 294.654694 
L 189.7344 294.527323 
L 193.3056 294.421541 
L 196.8768 294.248835 
L 200.448 294.07397 
L 204.0192 293.871041 
L 207.5904 293.646523 
L 211.1616 293.409052 
L 214.7328 293.111135 
L 218.304 292.845599 
L 221.8752 292.56927 
L 225.4464 292.279987 
L 229.0176 291.932417 
L 232.5888 291.580528 
L 236.16 291.248069 
L 239.7312 290.922087 
L 243.3024 290.611216 
L 246.8736 290.371587 
L 250.4448 290.116845 
L 254.016 289.825404 
L 257.5872 289.605204 
L 261.1584 289.406592 
L 264.7296 289.218774 
L 268.3008 289.050386 
L 271.872 288.916539 
L 275.4432 288.784851 
L 279.0144 288.670433 
L 282.5856 288.579763 
L 286.1568 288.525792 
L 289.728 288.454551 
L 293.2992 288.38331 
L 296.8704 288.335815 
L 300.4416 288.301274 
L 304.0128 288.268892 
L 307.584 288.260257 
L 311.1552 288.230033 
L 314.7264 288.21708 
L 318.2976 288.201968 
L 321.8688 288.18038 
L 325.44 288.176062 
L 329.0112 288.167427 
L 332.5824 288.167427 
L 336.1536 288.165268 
L 339.7248 288.163109 
L 343.296 288.160951 
L 346.8672 288.158792 
L 350.4384 288.158792 
L 354.0096 288.158792 
L 357.5808 288.158792 
L 361.152 288.158792 
L 364.7232 288.158792 
L 368.2944 288.158792 
L 371.8656 288.158792 
L 375.4368 288.158792 
L 379.008 288.158792 
L 382.5792 288.158792 
L 386.1504 288.156633 
L 389.7216 288.156633 
L 393.2928 288.156633 
L 396.864 288.156633 
L 400.4352 288.156633 
L 404.0064 288.156633 
L 407.5776 288.156633 
L 411.1488 288.156633 
" style="fill:none;stroke:#e377c2;stroke-linecap:square;stroke-width:1.5;"/>
   </g>
   <g id="line2d_26">
    <path clip-path="url(#p4a82599e57)" d="M 57.6 295.488 
L 61.1712 295.488 
L 64.7424 295.488 
L 68.3136 295.488 
L 71.8848 295.488 
L 75.456 295.488 
L 79.0272 295.488 
L 82.5984 295.488 
L 86.1696 295.488 
L 89.7408 295.488 
L 93.312 295.488 
L 96.8832 295.488 
L 100.4544 295.488 
L 104.0256 295.488 
L 107.5968 295.488 
L 111.168 295.488 
L 114.7392 295.488 
L 118.3104 295.488 
L 121.8816 295.488 
L 125.4528 295.485841 
L 129.024 295.485841 
L 132.5952 295.483682 
L 136.1664 295.479365 
L 139.7376 295.457776 
L 143.3088 295.446982 
L 146.88 295.434029 
L 150.4512 295.418918 
L 154.0224 295.384376 
L 157.5936 295.347676 
L 161.1648 295.285071 
L 164.736 295.237576 
L 168.3072 295.168494 
L 171.8784 295.075665 
L 175.4496 294.972041 
L 179.0208 294.874894 
L 182.592 294.766953 
L 186.1632 294.654694 
L 189.7344 294.527323 
L 193.3056 294.421541 
L 196.8768 294.248835 
L 200.448 294.07397 
L 204.0192 293.871041 
L 207.5904 293.646523 
L 211.1616 293.409052 
L 214.7328 293.111135 
L 218.304 292.845599 
L 221.8752 292.56927 
L 225.4464 292.279987 
L 229.0176 291.932417 
L 232.5888 291.580528 
L 236.16 291.248069 
L 239.7312 290.922087 
L 243.3024 290.611216 
L 246.8736 290.371587 
L 250.4448 290.116845 
L 254.016 289.825404 
L 257.5872 289.605204 
L 261.1584 289.406592 
L 264.7296 289.218774 
L 268.3008 289.050386 
L 271.872 288.916539 
L 275.4432 288.784851 
L 279.0144 288.670433 
L 282.5856 288.579763 
L 286.1568 288.525792 
L 289.728 288.454551 
L 293.2992 288.38331 
L 296.8704 288.335815 
L 300.4416 288.301274 
L 304.0128 288.268892 
L 307.584 288.260257 
L 311.1552 288.230033 
L 314.7264 288.21708 
L 318.2976 288.201968 
L 321.8688 288.18038 
L 325.44 288.176062 
L 329.0112 288.167427 
L 332.5824 288.167427 
L 336.1536 288.165268 
L 339.7248 288.163109 
L 343.296 288.160951 
L 346.8672 288.158792 
L 350.4384 288.158792 
L 354.0096 288.158792 
L 357.5808 288.158792 
L 361.152 288.158792 
L 364.7232 288.158792 
L 368.2944 288.158792 
L 371.8656 288.158792 
L 375.4368 288.158792 
L 379.008 288.158792 
L 382.5792 288.158792 
L 386.1504 288.156633 
L 389.7216 288.156633 
L 393.2928 288.156633 
L 396.864 288.156633 
L 400.4352 288.156633 
L 404.0064 288.156633 
L 407.5776 288.156633 
L 411.1488 288.156633 
" style="fill:none;stroke:#808080;stroke-linecap:square;stroke-width:4;"/>
   </g>
   <g id="patch_3">
    <path d="M 57.6 307.584 
L 57.6 41.472 
" style="fill:none;stroke:#000000;stroke-linecap:square;stroke-linejoin:miter;stroke-width:0.8;"/>
   </g>
   <g id="patch_4">
    <path d="M 414.72 307.584 
L 414.72 41.472 
" style="fill:none;stroke:#000000;stroke-linecap:square;stroke-linejoin:miter;stroke-width:0.8;"/>
   </g>
   <g id="patch_5">
    <path d="M 57.6 307.584 
L 414.72 307.584 
" style="fill:none;stroke:#000000;stroke-linecap:square;stroke-linejoin:miter;stroke-width:0.8;"/>
   </g>
   <g id="patch_6">
    <path d="M 57.6 41.472 
L 414.72 41.472 
" style="fill:none;stroke:#000000;stroke-linecap:square;stroke-linejoin:miter;stroke-width:0.8;"/>
   </g>
   <g id="text_15">
    <!-- 模型运行1次的感染情况 -->
    <g transform="translate(172.641562 35.472)scale(0.12 -0.12)">
     <defs>
      <path d="M 32.03125 15.375 
L 60.296875 15.375 
Q 60.9375 18.953125 61.140625 24.171875 
L 46.09375 24.171875 
L 46.09375 21.4375 
L 39.0625 21.4375 
L 39.0625 56.78125 
L 91.3125 56.78125 
L 91.3125 21.4375 
L 84.28125 21.4375 
L 84.28125 24.171875 
L 67.875 24.171875 
Q 67.578125 18.796875 67 15.375 
L 97.65625 15.375 
L 97.65625 9.125 
L 70.703125 9.125 
Q 81.296875 -2.734375 98.734375 -5.328125 
Q 96 -8.9375 93.953125 -12.640625 
Q 75.046875 -7.125 64.5 7.28125 
Q 57.515625 -6.734375 32.421875 -13.234375 
Q 30.765625 -9.8125 28.609375 -6.5 
Q 51.609375 -1.65625 58.015625 9.125 
L 32.03125 9.125 
z
M 0.984375 22.015625 
Q 9.421875 36.1875 14.40625 54.828125 
L 2.15625 54.828125 
L 2.15625 61.28125 
L 15.71875 61.28125 
L 15.71875 82.953125 
L 22.5625 82.953125 
L 22.5625 61.28125 
L 35.25 61.28125 
L 35.25 54.828125 
L 22.5625 54.828125 
L 22.5625 41.9375 
L 26.375 45.0625 
Q 31.9375 39.109375 36.71875 33.0625 
L 31.34375 28.5625 
Q 26.859375 35.0625 22.5625 40.046875 
L 22.5625 -12.84375 
L 15.71875 -12.84375 
L 15.71875 40.328125 
Q 10.5 22.46875 4.296875 13.421875 
Q 2.9375 17.625 0.984375 22.015625 
z
M 73.640625 82.859375 
L 80.46875 82.859375 
L 80.46875 73.484375 
L 97.265625 73.484375 
L 97.265625 67.234375 
L 80.46875 67.234375 
L 80.46875 59.328125 
L 73.640625 59.328125 
L 73.640625 67.234375 
L 56.25 67.234375 
L 56.25 59.328125 
L 49.421875 59.328125 
L 49.421875 67.234375 
L 33.984375 67.234375 
L 33.984375 73.484375 
L 49.421875 73.484375 
L 49.421875 82.953125 
L 56.25 82.953125 
L 56.25 73.484375 
L 73.640625 73.484375 
z
M 84.28125 50.734375 
L 46.09375 50.734375 
L 46.09375 43.40625 
L 84.28125 43.40625 
z
M 46.09375 30.21875 
L 84.28125 30.21875 
L 84.28125 37.546875 
L 46.09375 37.546875 
z
" id="MicrosoftYaHei-27169"/>
      <path d="M 2.34375 54.734375 
L 17.1875 54.734375 
Q 17.28125 56.84375 17.28125 71.046875 
L 6.453125 71.046875 
L 6.453125 77.484375 
L 57.421875 77.484375 
L 57.421875 71.046875 
L 46.78125 71.046875 
L 46.78125 54.734375 
L 60.640625 54.734375 
L 60.640625 48.296875 
L 46.78125 48.296875 
L 46.78125 27.296875 
L 39.65625 27.296875 
L 39.65625 48.296875 
L 23.875 48.296875 
Q 22.65625 34.234375 9.96875 23.96875 
Q 7.421875 26.8125 4.59375 29.640625 
Q 15.828125 38.328125 16.65625 48.296875 
L 2.34375 48.296875 
z
M 2.15625 -1.609375 
L 45.90625 -1.609375 
L 45.90625 11.578125 
L 11.03125 11.578125 
L 11.03125 18.3125 
L 45.90625 18.3125 
L 45.90625 25.921875 
L 53.515625 25.921875 
L 53.515625 18.3125 
L 89.265625 18.3125 
L 89.265625 11.578125 
L 53.515625 11.578125 
L 53.515625 -1.609375 
L 97.75 -1.609375 
L 97.75 -8.34375 
L 2.15625 -8.34375 
z
M 91.5 81.390625 
L 91.5 36.46875 
Q 91.5 26.125 81.25 25.921875 
Q 75.390625 25.734375 67.671875 25.921875 
Q 67.28125 29.640625 66.5 33.640625 
Q 74.703125 33.15625 78.8125 33.15625 
Q 84.375 33.15625 84.375 39.3125 
L 84.375 81.390625 
z
M 24.3125 54.734375 
L 39.65625 54.734375 
L 39.65625 71.046875 
L 24.421875 71.046875 
Q 24.421875 59.234375 24.3125 54.734375 
z
M 64.65625 75.921875 
L 71.6875 75.921875 
L 71.6875 42.140625 
L 64.65625 42.140625 
z
" id="MicrosoftYaHei-22411"/>
      <path d="M 67.484375 34.328125 
L 73.640625 38.234375 
Q 84.671875 23.78125 93.171875 10.40625 
L 86.140625 5.609375 
Q 83.9375 9.328125 81.640625 13.03125 
Q 53.90625 11.28125 41.890625 9.71875 
Q 38.578125 9.234375 34.96875 8.0625 
L 31.34375 15.09375 
Q 35.15625 17.71875 37.703125 21.34375 
Q 44.34375 31.390625 50.78125 44.671875 
L 29.984375 44.671875 
L 29.984375 52.09375 
L 96.875 52.09375 
L 96.875 44.671875 
L 60.0625 44.671875 
Q 51.609375 29.15625 43.75 17.4375 
Q 58.59375 18.3125 77.484375 19.578125 
Q 72.65625 27.046875 67.484375 34.328125 
z
M 43.0625 -2.203125 
L 71.6875 -2.78125 
L 98.640625 -1.703125 
Q 96.96875 -5.71875 95.515625 -9.515625 
L 66.40625 -9.71875 
L 41.40625 -9.421875 
Q 25.875 -9.03125 18.0625 1.90625 
Q 12.015625 -3.265625 5.765625 -10.890625 
L 1.5625 -2.59375 
Q 1.8125 -2.296875 14.546875 8.546875 
L 14.546875 41.84375 
L 2.046875 41.84375 
L 2.046875 49.078125 
L 22.359375 49.078125 
L 22.359375 7.171875 
Q 29.734375 -1.953125 43.0625 -2.203125 
z
M 36.53125 77.296875 
L 91.21875 77.296875 
L 91.21875 69.875 
L 36.53125 69.875 
z
M 12.40625 82.46875 
Q 19.921875 73.390625 27.25 63.71875 
L 20.3125 59.03125 
Q 13.765625 68.796875 6.453125 78.171875 
z
" id="MicrosoftYaHei-36816"/>
      <path d="M 36.921875 46.53125 
L 98.734375 46.53125 
L 98.734375 39.203125 
L 79.78125 39.203125 
L 79.78125 1.03125 
Q 79.78125 -11.078125 67.578125 -11.078125 
Q 59.375 -11.078125 50.875 -10.984375 
Q 50.296875 -7.078125 49.421875 -2.203125 
Q 57.03125 -2.984375 64.75 -2.984375 
Q 71.484375 -2.984375 71.484375 3.65625 
L 71.484375 39.203125 
L 36.921875 39.203125 
z
M 1.5625 24.65625 
Q 16.703125 37.0625 29.109375 59.515625 
L 35.9375 55.328125 
Q 30.90625 46.625 25.296875 39.0625 
L 25.296875 -12.640625 
L 17.1875 -12.640625 
L 17.1875 29 
Q 11.328125 22.359375 4.984375 16.75 
Q 3.421875 20.84375 1.5625 24.65625 
z
M 42.578125 76.03125 
L 93.265625 76.03125 
L 93.265625 68.703125 
L 42.578125 68.703125 
z
M 2.046875 55.609375 
Q 17.578125 67.625 27.046875 83.546875 
L 34.078125 79.25 
Q 22.75 61.859375 5.953125 48.09375 
Q 4.203125 51.8125 2.046875 55.609375 
z
" id="MicrosoftYaHei-34892"/>
      <path d="M 64.359375 54.25 
Q 64.265625 49.359375 63.921875 44.625 
Q 70.453125 11.375 98.734375 -4.4375 
Q 94.734375 -8.734375 92.390625 -12.0625 
Q 67.875 5.171875 60.9375 30.375 
Q 54.546875 3.125 25.78125 -13.53125 
Q 23.828125 -10.5 20.40625 -6.59375 
Q 50.390625 9.234375 55.078125 37.9375 
Q 56.453125 44.96875 56.546875 54.25 
z
M 77.25 41.359375 
Q 81.640625 49.46875 85.15625 58.84375 
L 46.734375 58.84375 
Q 42.484375 49.125 37.3125 40.1875 
Q 33.796875 42.71875 30.28125 44.390625 
Q 41.703125 63.03125 46.875 82.953125 
L 54.78125 80.71875 
Q 52.4375 73.046875 49.609375 65.765625 
L 93.5625 65.765625 
L 93.5625 58.84375 
Q 89.546875 48 84.765625 38.53125 
Q 81.453125 40.1875 77.25 41.359375 
z
M 21.6875 40.96875 
Q 26.171875 37.546875 29.296875 35.6875 
Q 16.796875 13.421875 8.984375 -2.78125 
L 1.078125 2.390625 
Q 11.140625 17.625 21.6875 40.96875 
z
M 10.0625 76.8125 
Q 17.96875 68.890625 27.828125 57.375 
L 21.484375 51.515625 
Q 12.015625 64.015625 4.390625 71.734375 
z
" id="MicrosoftYaHei-27425"/>
      <path d="M 5.5625 66.9375 
L 15.4375 66.9375 
Q 19.046875 75.828125 21.390625 83.15625 
L 29.59375 80.8125 
Q 26.515625 73.34375 23.640625 66.9375 
L 43.171875 66.9375 
L 43.171875 -10.796875 
L 35.359375 -10.796875 
L 35.359375 -3.171875 
L 13.375 -3.171875 
L 13.375 -11.46875 
L 5.5625 -11.46875 
z
M 44.625 46.921875 
Q 53.8125 61.46875 60.15625 83.15625 
L 68.359375 81.109375 
Q 65.875 73.734375 63.28125 67.234375 
L 94.734375 67.234375 
Q 93.5625 17.046875 92.78125 4.046875 
Q 92.09375 -11.28125 76.65625 -11.28125 
Q 67.78125 -11.28125 58.59375 -10.6875 
Q 58.015625 -5.8125 57.03125 -2 
L 57.328125 -2 
Q 67.09375 -3.375 75.203125 -3.375 
Q 84.078125 -3.375 84.765625 6 
Q 85.84375 20.5625 86.328125 59.90625 
L 60.15625 59.90625 
Q 55.90625 50.484375 51.375 43.3125 
Q 48.734375 45.171875 44.625 46.921875 
z
M 13.375 4.15625 
L 35.359375 4.15625 
L 35.359375 28.859375 
L 13.375 28.859375 
z
M 35.359375 59.625 
L 13.375 59.625 
L 13.375 35.890625 
L 35.359375 35.890625 
z
M 53.21875 40.28125 
L 59.1875 44.671875 
Q 70.015625 31.890625 76.46875 22.515625 
L 69.234375 17.4375 
Q 62.3125 28.765625 53.21875 40.28125 
z
" id="MicrosoftYaHei-30340"/>
     </defs>
     <use xlink:href="#MicrosoftYaHei-27169"/>
     <use x="100" xlink:href="#MicrosoftYaHei-22411"/>
     <use x="200" xlink:href="#MicrosoftYaHei-36816"/>
     <use x="300" xlink:href="#MicrosoftYaHei-34892"/>
     <use x="400" xlink:href="#MicrosoftYaHei-49"/>
     <use x="458.642578" xlink:href="#MicrosoftYaHei-27425"/>
     <use x="558.642578" xlink:href="#MicrosoftYaHei-30340"/>
     <use x="658.642578" xlink:href="#MicrosoftYaHei-24863"/>
     <use x="758.642578" xlink:href="#MicrosoftYaHei-26579"/>
     <use x="858.642578" xlink:href="#MicrosoftYaHei-24773"/>
     <use x="958.642578" xlink:href="#MicrosoftYaHei-20917"/>
    </g>
   </g>
   <g id="legend_1">
    <g id="patch_7">
     <path d="M 64.6 230.206906 
L 156.6 230.206906 
Q 158.6 230.206906 158.6 228.206906 
L 158.6 120.849094 
Q 158.6 118.849094 156.6 118.849094 
L 64.6 118.849094 
Q 62.6 118.849094 62.6 120.849094 
L 62.6 228.206906 
Q 62.6 230.206906 64.6 230.206906 
z
" style="fill:#ffffff;opacity:0.8;stroke:#cccccc;stroke-linejoin:miter;"/>
    </g>
    <g id="line2d_27">
     <path d="M 66.6 127.342844 
L 86.6 127.342844 
" style="fill:none;stroke:#000000;stroke-linecap:square;stroke-width:4;"/>
    </g>
    <g id="line2d_28"/>
    <g id="text_16">
     <!-- 易感人数 -->
     <g transform="translate(94.6 130.842844)scale(0.1 -0.1)">
      <defs>
       <path d="M 14.359375 78.46875 
L 86.234375 78.46875 
L 86.234375 37.84375 
L 78.609375 37.84375 
L 78.609375 41.75 
L 14.359375 41.75 
z
M 1.765625 17.046875 
Q 17.390625 25.53125 28.21875 40.09375 
L 35.15625 37.453125 
Q 33.203125 34.8125 31.25 32.375 
L 91.890625 32.375 
Q 91.015625 13.921875 90.046875 3.859375 
Q 88.765625 -11.859375 74.21875 -11.96875 
Q 66.109375 -12.0625 57.328125 -11.96875 
Q 56.734375 -7.765625 55.859375 -3.65625 
Q 64.359375 -4.4375 72.265625 -4.4375 
Q 81.453125 -4.4375 82.421875 4.734375 
Q 83.5 13.53125 83.890625 25.53125 
L 68.84375 25.53125 
Q 62.890625 -0.140625 34.1875 -13.921875 
Q 31.640625 -10.6875 28.71875 -7.28125 
Q 56.0625 3.953125 61.234375 25.53125 
L 46.390625 25.53125 
Q 39.265625 4.734375 8.6875 -7.078125 
Q 6.15625 -3.859375 3.21875 -0.53125 
Q 32.03125 10.203125 38.28125 25.53125 
L 25.09375 25.53125 
Q 16.796875 17.140625 6.640625 10.796875 
Q 4.59375 13.71875 1.765625 17.046875 
z
M 21.96875 48.578125 
L 78.609375 48.578125 
L 78.609375 56.78125 
L 21.96875 56.78125 
z
M 78.609375 71.625 
L 21.96875 71.625 
L 21.96875 63.625 
L 78.609375 63.625 
z
" id="MicrosoftYaHei-26131"/>
       <path d="M 1.5625 -4.734375 
Q 44.140625 19.875 46.578125 81.59375 
L 55.171875 81.59375 
Q 54.640625 71.140625 53.125 61.671875 
Q 65.234375 12.84375 98.640625 -2.59375 
Q 94.53125 -7.078125 91.40625 -11.078125 
Q 62.40625 5.328125 50.046875 46.96875 
Q 39.359375 6.734375 7.71875 -12.15625 
Q 5.078125 -8.546875 1.5625 -4.734375 
z
" id="MicrosoftYaHei-20154"/>
       <path d="M 65.234375 82.859375 
L 73.046875 81.6875 
Q 71 72.21875 68.265625 64.015625 
L 98.140625 64.015625 
L 98.140625 57.375 
L 92 57.375 
Q 89.546875 28.65625 79.5 11.765625 
Q 87.40625 1.03125 99.609375 -5.8125 
Q 96.484375 -10.109375 94.34375 -13.53125 
Q 82.421875 -5.8125 74.515625 4.828125 
Q 65.53125 -6.296875 53.125 -14.5 
Q 50.984375 -11.671875 47.5625 -8.34375 
Q 61.234375 0.640625 69.734375 12.0625 
Q 61.8125 25.734375 59.28125 43.609375 
Q 57.234375 39.984375 54.984375 36.859375 
Q 53.03125 39.703125 50.09375 43.109375 
Q 61.421875 59.421875 65.234375 82.859375 
z
M 2.34375 26.515625 
L 17.1875 26.515625 
Q 19.34375 30.21875 21.390625 34.125 
L 28.421875 31.890625 
Q 26.859375 29.15625 25.296875 26.515625 
L 49.21875 26.515625 
L 49.21875 20.171875 
Q 45.515625 10.59375 37.984375 3.375 
Q 43.359375 0.828125 48.921875 -1.703125 
L 44.625 -8.453125 
Q 38.578125 -5.03125 32.03125 -1.609375 
Q 21 -9.515625 4.203125 -14.109375 
Q 2.640625 -10.984375 0.875 -7.28125 
Q 15.140625 -4.046875 25 2 
Q 16.609375 6.296875 7.421875 10.796875 
Q 10.546875 15.28125 13.484375 20.0625 
L 2.34375 20.0625 
z
M 3.421875 60.109375 
L 25.875 60.109375 
L 25.875 81.984375 
L 33.109375 81.984375 
L 33.109375 60.109375 
L 51.859375 60.109375 
L 51.859375 53.65625 
L 33.109375 53.65625 
L 33.109375 47.703125 
L 36.03125 51.03125 
Q 45.125 44.390625 51.265625 39.3125 
L 46.578125 33.84375 
Q 41.21875 38.921875 33.109375 45.265625 
L 33.109375 34.125 
L 25.875 34.125 
L 25.875 47.796875 
Q 17 38.53125 5.171875 31.5 
Q 3.328125 34.328125 0.984375 37.453125 
Q 13.28125 44.09375 23.53125 53.65625 
L 3.421875 53.65625 
z
M 84.1875 57.375 
L 65.921875 57.375 
Q 65.4375 56.109375 64.84375 54.9375 
Q 66.609375 34.234375 74.609375 19.484375 
Q 82.421875 33.734375 84.1875 57.375 
z
M 17 13.03125 
Q 23.921875 9.90625 31.25 6.5 
Q 37.984375 12.25 41.796875 20.0625 
L 21.484375 20.0625 
Q 19.234375 16.453125 17 13.03125 
z
M 47.46875 79.546875 
L 53.515625 75.53125 
Q 48.140625 68.5 42.78125 62.546875 
Q 40.53125 64.5 37.5 66.65625 
Q 42.578125 72.609375 47.46875 79.546875 
z
M 5.953125 75.25 
L 11.53125 79.046875 
Q 15.921875 73.6875 20.609375 67.53125 
L 14.546875 63.234375 
Q 10.25 69.578125 5.953125 75.25 
z
" id="MicrosoftYaHei-25968"/>
      </defs>
      <use xlink:href="#MicrosoftYaHei-26131"/>
      <use x="100" xlink:href="#MicrosoftYaHei-24863"/>
      <use x="200" xlink:href="#MicrosoftYaHei-20154"/>
      <use x="300" xlink:href="#MicrosoftYaHei-25968"/>
     </g>
    </g>
    <g id="line2d_29">
     <path d="M 66.6 142.822531 
L 86.6 142.822531 
" style="fill:none;stroke:#0000ff;stroke-linecap:square;stroke-width:4;"/>
    </g>
    <g id="line2d_30"/>
    <g id="text_17">
     <!-- 潜伏患者人数 -->
     <g transform="translate(94.6 146.322531)scale(0.1 -0.1)">
      <defs>
       <path d="M 33.5 30.609375 
L 86.71875 30.609375 
L 86.71875 -12.75 
L 79.890625 -12.75 
L 79.890625 -7.5625 
L 40.328125 -7.5625 
L 40.328125 -12.9375 
L 33.5 -12.9375 
z
M 61.140625 57.765625 
L 72.65625 57.765625 
Q 73.296875 61.53125 73.390625 66.359375 
L 61.921875 66.359375 
L 61.921875 72.40625 
L 73.4375 72.40625 
L 73.4375 82.859375 
L 79.890625 82.859375 
L 79.890625 72.40625 
L 94.34375 72.40625 
L 94.34375 66.359375 
L 79.828125 66.359375 
Q 79.6875 61.765625 79.15625 57.765625 
L 96.09375 57.765625 
L 96.09375 51.703125 
L 82.859375 51.703125 
Q 87.984375 41.0625 98.921875 36.28125 
Q 96.875 33.84375 94.34375 30.03125 
Q 81 37.984375 77.6875 50.6875 
Q 74.078125 39.3125 61.234375 31.78125 
Q 59.46875 34.421875 56.84375 37.453125 
Q 67.578125 43.015625 71.140625 51.703125 
L 61.140625 51.703125 
z
M 25.390625 57.765625 
L 39.109375 57.765625 
Q 39.65625 61.578125 39.75 66.359375 
L 27.046875 66.359375 
L 27.046875 72.40625 
L 39.75 72.40625 
L 39.75 82.859375 
L 46.1875 82.859375 
L 46.1875 72.40625 
L 57.71875 72.40625 
L 57.71875 66.359375 
L 46.1875 66.359375 
Q 46.09375 61.671875 45.609375 57.765625 
L 58.296875 57.765625 
L 58.296875 51.703125 
L 44.53125 51.703125 
Q 44.28125 50.59375 44 49.609375 
Q 49.703125 45.609375 56.640625 39.703125 
L 52.046875 34.515625 
Q 47.171875 39.5 41.546875 44.046875 
Q 37.15625 36.328125 25.484375 29.046875 
Q 24.03125 31.203125 20.703125 34.90625 
Q 34.578125 41.65625 37.75 51.703125 
L 25.390625 51.703125 
z
M 40.328125 -1.125 
L 79.890625 -1.125 
L 79.890625 8.453125 
L 40.328125 8.453125 
z
M 79.890625 24.171875 
L 40.328125 24.171875 
L 40.328125 14.703125 
L 79.890625 14.703125 
z
M 4.5 -9.515625 
Q 10.25 8.0625 14.546875 28.265625 
Q 18.84375 26.421875 22.46875 25.25 
Q 17.28125 4.640625 13.09375 -12.15625 
z
M 5.078125 76.21875 
L 10.15625 81.390625 
Q 18.0625 75.140625 25.6875 68.21875 
L 19.828125 62.453125 
Q 12.703125 69.578125 5.078125 76.21875 
z
M 1.46875 50.828125 
L 6.0625 56.296875 
Q 13.875 50.34375 21.578125 43.796875 
L 16.3125 37.84375 
Q 8.890625 44.96875 1.46875 50.828125 
z
" id="MicrosoftYaHei-28508"/>
       <path d="M 28.8125 53.375 
L 57.671875 53.375 
Q 58.109375 67.921875 58.109375 83.0625 
L 66.015625 83.0625 
Q 65.921875 71.53125 65.578125 53.375 
L 97.953125 53.375 
L 97.953125 46.234375 
L 65.765625 46.234375 
Q 71.828125 12.203125 98.640625 -4.9375 
Q 94.734375 -9.125 92 -12.359375 
Q 69.390625 5.171875 62.5 31.59375 
Q 56.640625 5.90625 30.5625 -13.234375 
Q 28.21875 -10.015625 25.203125 -6.296875 
Q 54.734375 13.96875 57.328125 46.234375 
L 28.8125 46.234375 
z
M 1.375 36.375 
Q 16.5 56.78125 24.3125 82.5625 
L 32.234375 79.9375 
Q 27.390625 66.359375 21.6875 54.9375 
L 21.6875 -12.640625 
L 14.265625 -12.640625 
L 14.265625 41.546875 
Q 9.625 34.03125 4.5 27.6875 
Q 3.03125 31.890625 1.375 36.375 
z
M 78.21875 78.5625 
Q 86.234375 70.65625 92.390625 64.3125 
Q 89.359375 61.671875 86.421875 58.84375 
Q 79.78125 66.75 73.046875 73.875 
z
" id="MicrosoftYaHei-20239"/>
       <path d="M 10.75 46.046875 
L 46.390625 46.046875 
L 46.390625 53.65625 
L 18.75 53.65625 
L 18.75 50.921875 
L 11.71875 50.921875 
L 11.71875 74.5625 
L 46.390625 74.5625 
L 46.390625 82.765625 
L 53.609375 82.765625 
L 53.609375 74.5625 
L 88.28125 74.5625 
L 88.28125 50.921875 
L 81.25 50.921875 
L 81.25 53.65625 
L 53.609375 53.65625 
L 53.609375 46.046875 
L 89.265625 46.046875 
L 89.265625 20.84375 
L 82.234375 20.84375 
L 82.234375 24.5625 
L 53.609375 24.5625 
L 53.609375 18.5 
L 46.390625 18.5 
L 46.390625 24.5625 
L 17.78125 24.5625 
L 17.78125 20.84375 
L 10.75 20.84375 
z
M 25.203125 16.359375 
L 32.421875 16.359375 
L 32.421875 2.59375 
Q 32.421875 -3.375 39.15625 -3.375 
L 59.671875 -3.375 
Q 67 -3.375 67.96875 2.390625 
Q 68.75 5.71875 69.734375 12.75 
Q 73.046875 11.375 77.4375 9.8125 
Q 76.078125 2.984375 74.90625 -1.125 
Q 72.46875 -10.203125 60.9375 -10.203125 
L 37.3125 -10.203125 
Q 25.203125 -10.203125 25.203125 2.203125 
z
M 82.234375 39.796875 
L 53.609375 39.796875 
L 53.609375 30.8125 
L 82.234375 30.8125 
z
M 17.78125 30.8125 
L 46.390625 30.8125 
L 46.390625 39.796875 
L 17.78125 39.796875 
z
M 81.25 68.3125 
L 53.609375 68.3125 
L 53.609375 59.90625 
L 81.25 59.90625 
z
M 18.75 59.90625 
L 46.390625 59.90625 
L 46.390625 68.3125 
L 18.75 68.3125 
z
M 11.140625 15.375 
L 18.359375 12.9375 
Q 14.265625 0.640625 8.890625 -8.84375 
Q 6.34375 -7.46875 1.953125 -5.421875 
Q 7.8125 4.046875 11.140625 15.375 
z
M 80.078125 12.546875 
L 85.75 16.546875 
Q 92.671875 8.0625 98.734375 -0.25 
L 92.09375 -4.9375 
Q 86.234375 4.25 80.078125 12.546875 
z
M 39.265625 14.40625 
L 43.453125 19.875 
Q 53.03125 14.203125 59.578125 10.109375 
L 54.78125 3.859375 
Q 47.65625 9.03125 39.265625 14.40625 
z
" id="MicrosoftYaHei-24739"/>
       <path d="M 3.03125 51.609375 
L 40.140625 51.609375 
L 40.140625 63.921875 
L 12.703125 63.921875 
L 12.703125 70.5625 
L 40.140625 70.5625 
L 40.140625 82.953125 
L 47.953125 82.953125 
L 47.953125 70.5625 
L 71.875 70.5625 
L 71.875 63.921875 
L 47.953125 63.921875 
L 47.953125 51.609375 
L 57.515625 51.609375 
Q 73.53125 62.9375 83.796875 76.421875 
L 90.71875 71.734375 
Q 81.890625 61.140625 69.78125 51.609375 
L 97.75 51.609375 
L 97.75 44.96875 
L 60.75 44.96875 
Q 52.6875 39.40625 43.40625 34.234375 
L 82.125 34.234375 
L 82.125 -12.84375 
L 74.515625 -12.84375 
L 74.515625 -7.078125 
L 29.296875 -7.078125 
L 29.296875 -12.84375 
L 21.6875 -12.84375 
L 21.6875 23.390625 
Q 13.671875 19.828125 4.984375 16.453125 
Q 3.328125 19.484375 0.59375 23.578125 
Q 27.59375 32.953125 47.359375 44.96875 
L 3.03125 44.96875 
z
M 29.296875 -0.640625 
L 74.515625 -0.640625 
L 74.515625 10.59375 
L 29.296875 10.59375 
z
M 29.296875 26.90625 
L 29.296875 16.65625 
L 74.515625 16.65625 
L 74.515625 27.78125 
L 31.0625 27.78125 
Q 30.171875 27.34375 29.296875 26.90625 
z
" id="MicrosoftYaHei-32773"/>
      </defs>
      <use xlink:href="#MicrosoftYaHei-28508"/>
      <use x="100" xlink:href="#MicrosoftYaHei-20239"/>
      <use x="200" xlink:href="#MicrosoftYaHei-24739"/>
      <use x="300" xlink:href="#MicrosoftYaHei-32773"/>
      <use x="400" xlink:href="#MicrosoftYaHei-20154"/>
      <use x="500" xlink:href="#MicrosoftYaHei-25968"/>
     </g>
    </g>
    <g id="line2d_31">
     <path d="M 66.6 158.302219 
L 86.6 158.302219 
" style="fill:none;stroke:#ff0000;stroke-linecap:square;stroke-width:4;"/>
    </g>
    <g id="line2d_32"/>
    <g id="text_18">
     <!-- 发病人数 -->
     <g transform="translate(94.6 161.802219)scale(0.1 -0.1)">
      <defs>
       <path d="M 14.75 61.078125 
L 35.40625 61.078125 
Q 37.796875 71.296875 39.453125 83.34375 
L 47.75 82.28125 
Q 46.09375 71.1875 43.703125 61.078125 
L 97.65625 61.078125 
L 97.65625 53.859375 
L 41.84375 53.859375 
Q 40.09375 47.40625 37.984375 41.453125 
L 86.421875 41.453125 
L 86.421875 34.71875 
Q 79.984375 18.75 66.359375 7.125 
Q 80.078125 -1.171875 98.34375 -4.546875 
Q 93.953125 -9.421875 91.5 -12.75 
Q 75.875 -7.5625 60.0625 2.390625 
Q 47.359375 -5.953125 23.734375 -13.421875 
Q 21 -9.515625 17.875 -6.203125 
Q 41.890625 0.046875 53.765625 7.03125 
Q 40.921875 18.015625 35.453125 34.71875 
Q 24.75 7.953125 6.34375 -9.234375 
Q 3.71875 -5.515625 1.171875 -2.59375 
Q 23.1875 17.28125 33.546875 53.859375 
L 6.453125 53.859375 
L 6.453125 61.1875 
Q 10.453125 70.453125 13.765625 79.828125 
L 21.6875 77.6875 
Q 18.265625 69.09375 14.75 61.078125 
z
M 77.828125 34.71875 
L 42.53125 34.71875 
Q 46.921875 21.1875 59.96875 11.421875 
Q 72.609375 21.875 77.828125 34.71875 
z
M 62.796875 76.609375 
L 67.09375 82.078125 
Q 76.65625 76.03125 85.453125 69.484375 
L 80.171875 63.140625 
Q 71.6875 70.359375 62.796875 76.609375 
z
" id="MicrosoftYaHei-21457"/>
       <path d="M 26.953125 55.328125 
L 96.296875 55.328125 
L 96.296875 48.484375 
L 66.015625 48.484375 
Q 65.921875 42.625 65.578125 37.75 
L 93.453125 37.75 
L 93.453125 0.734375 
Q 93.453125 -10.6875 81.640625 -10.796875 
Q 74.8125 -10.890625 65.046875 -10.6875 
Q 64.453125 -7.28125 63.484375 -2.984375 
Q 71.296875 -3.5625 79.390625 -3.5625 
Q 86.03125 -3.5625 86.03125 2.296875 
L 86.03125 31.109375 
L 64.796875 31.109375 
Q 64.546875 29.34375 64.203125 27.734375 
Q 74.703125 16.5 82.03125 7.859375 
L 76.375 2.203125 
Q 69.1875 11.671875 61.921875 20.125 
Q 57.421875 9.234375 44.046875 -0.25 
Q 41.796875 2.59375 38.96875 5.90625 
Q 55.859375 16.265625 57.625 31.109375 
L 37.3125 31.109375 
L 37.3125 -11.96875 
L 29.890625 -11.96875 
L 29.890625 37.75 
L 58.5 37.75 
Q 58.890625 42.53125 58.984375 48.484375 
L 26.953125 48.484375 
z
M 23.140625 38.8125 
Q 23.140625 2.78125 7.90625 -12.15625 
Q 5.671875 -8.9375 2.546875 -5.71875 
Q 12.984375 5.125 15.140625 25.296875 
Q 10.40625 22.265625 3.328125 18.015625 
L 1.46875 26.21875 
Q 10.453125 30.515625 15.828125 33.734375 
L 15.828125 71.625 
L 54.25 71.625 
Q 51.703125 75.59375 48.34375 80.125 
L 54.78125 83.84375 
Q 58.984375 78.46875 61.921875 73.96875 
L 58.015625 71.625 
L 98.4375 71.625 
L 98.4375 64.796875 
L 23.140625 64.796875 
z
M 2.734375 59.90625 
L 9.078125 61.859375 
Q 11.71875 52.875 14.359375 42.625 
L 7.328125 40.578125 
Q 5.375 50.734375 2.734375 59.90625 
z
" id="MicrosoftYaHei-30149"/>
      </defs>
      <use xlink:href="#MicrosoftYaHei-21457"/>
      <use x="100" xlink:href="#MicrosoftYaHei-30149"/>
      <use x="200" xlink:href="#MicrosoftYaHei-20154"/>
      <use x="300" xlink:href="#MicrosoftYaHei-25968"/>
     </g>
    </g>
    <g id="line2d_33">
     <path d="M 66.6 173.781906 
L 86.6 173.781906 
" style="fill:none;stroke:#800080;stroke-linecap:square;stroke-width:4;"/>
    </g>
    <g id="line2d_34"/>
    <g id="text_19">
     <!-- 隔离人数 -->
     <g transform="translate(94.6 177.281906)scale(0.1 -0.1)">
      <defs>
       <path d="M 32.90625 28.5625 
Q 35.25 10.296875 24.21875 7.953125 
Q 20.40625 7.28125 15.328125 7.859375 
Q 14.546875 11.671875 13.28125 15.28125 
L 13.28125 -13.03125 
L 6.25 -13.03125 
L 6.25 78.65625 
L 32.8125 78.65625 
L 32.8125 72.125 
Q 28.03125 55.71875 24.90625 46.234375 
Q 31.9375 36.578125 32.90625 28.5625 
z
M 44.53125 -13.234375 
L 37.703125 -13.234375 
L 37.703125 37.453125 
L 94.34375 37.453125 
L 94.34375 -3.65625 
Q 94.34375 -12.84375 85.25 -12.84375 
Q 80.953125 -12.84375 74.609375 -12.75 
Q 74.125 -10.5 73.140625 -5.421875 
Q 79 -5.8125 83.5 -5.8125 
Q 87.5 -5.8125 87.5 -1.703125 
L 87.5 31.390625 
L 44.53125 31.390625 
z
M 43.359375 65.765625 
L 88.484375 65.765625 
L 88.484375 41.75 
L 81.453125 41.75 
L 81.453125 44.28125 
L 50.390625 44.28125 
L 50.390625 41.75 
L 43.359375 41.75 
z
M 21.484375 14.890625 
Q 27.734375 15.578125 25.6875 28.265625 
Q 24.421875 36.46875 17.671875 44.96875 
Q 21.875 57.46875 25.78125 72.125 
L 13.28125 72.125 
L 13.28125 15.671875 
Q 17.671875 14.5 21.484375 14.890625 
z
M 47.859375 15.28125 
L 67.578125 15.28125 
Q 72.515625 24.21875 75.296875 30.515625 
L 81.734375 27 
Q 78.078125 20.90625 74.46875 15.28125 
L 84.1875 15.28125 
L 84.1875 9.421875 
L 69.234375 9.421875 
L 69.234375 -11.671875 
L 62.59375 -11.671875 
L 62.59375 9.421875 
L 47.859375 9.421875 
z
M 37.109375 78.765625 
L 96.296875 78.765625 
L 96.296875 72.40625 
L 37.109375 72.40625 
z
M 81.453125 59.90625 
L 50.390625 59.90625 
L 50.390625 50.140625 
L 81.453125 50.140625 
z
M 50.390625 27.296875 
L 55.765625 30.421875 
Q 59.96875 24.859375 62.890625 19.390625 
L 57.03125 15.96875 
Q 54.296875 21.234375 50.390625 27.296875 
z
" id="MicrosoftYaHei-38548"/>
       <path d="M 37.203125 7.171875 
Q 48.53125 7.5625 60.59375 8.109375 
Q 58.0625 10.9375 55.46875 13.71875 
L 60.359375 17.53125 
Q 67.96875 9.90625 74.703125 2.296875 
L 69.53125 -2.203125 
Q 67.671875 0 65.828125 2.203125 
Q 53.375 1.609375 38.28125 0.640625 
Q 33.984375 0.34375 29.109375 -0.4375 
L 26.375 6.5 
Q 30.46875 9.03125 33.296875 12.84375 
Q 35.59375 16.015625 37.890625 19.96875 
L 16.5 19.96875 
L 16.5 -12.84375 
L 9.1875 -12.84375 
L 9.1875 26.421875 
L 41.40625 26.421875 
Q 43.5 30.46875 45.5625 35.203125 
L 12.890625 35.203125 
L 12.890625 63.53125 
L 20.015625 63.53125 
L 20.015625 41.453125 
L 79.890625 41.453125 
L 79.890625 63.625 
L 87.015625 63.625 
L 87.015625 31.6875 
L 79.890625 31.6875 
L 79.890625 35.203125 
L 54.25 35.203125 
Q 51.90625 30.671875 49.515625 26.421875 
L 90.625 26.421875 
L 90.625 -1.90625 
Q 90.625 -12.359375 80.859375 -12.359375 
Q 76.171875 -12.359375 70.609375 -12.15625 
Q 70.21875 -8.734375 69.234375 -4.640625 
Q 75 -5.21875 79.109375 -5.21875 
Q 83.296875 -5.21875 83.296875 -0.828125 
L 83.296875 19.96875 
L 45.75 19.96875 
Q 41.546875 13.09375 37.203125 7.171875 
z
M 3.125 73.96875 
L 45.609375 73.96875 
Q 43.5625 77.640625 41.703125 80.515625 
L 49.21875 83.9375 
Q 51.703125 80.328125 55.328125 73.96875 
L 96.875 73.96875 
L 96.875 67.328125 
L 3.125 67.328125 
z
M 25.203125 60.6875 
L 27.828125 65.875 
Q 39.0625 62.25 51.46875 57.8125 
Q 61.46875 61.8125 70.3125 66.359375 
L 73.25 61.375 
Q 66.703125 57.953125 59.625 54.890625 
Q 66.890625 52.203125 74.609375 49.265625 
L 71.96875 43.703125 
Q 61.53125 48 51.953125 51.609375 
Q 40.140625 46.875 27.046875 42.921875 
Q 25.296875 46.046875 23.53125 48.484375 
Q 33.890625 51.375 43.3125 54.734375 
Q 33.734375 58.109375 25.203125 60.6875 
z
" id="MicrosoftYaHei-31163"/>
      </defs>
      <use xlink:href="#MicrosoftYaHei-38548"/>
      <use x="100" xlink:href="#MicrosoftYaHei-31163"/>
      <use x="200" xlink:href="#MicrosoftYaHei-20154"/>
      <use x="300" xlink:href="#MicrosoftYaHei-25968"/>
     </g>
    </g>
    <g id="line2d_35">
     <path d="M 66.6 189.261594 
L 86.6 189.261594 
" style="fill:none;stroke:#ff0000;stroke-dasharray:32,8,5,8;stroke-dashoffset:0;stroke-width:5;"/>
    </g>
    <g id="line2d_36"/>
    <g id="text_20">
     <!-- 累计感染人数 -->
     <g transform="translate(94.6 192.761594)scale(0.1 -0.1)">
      <defs>
       <path d="M 71.09375 31.109375 
Q 84.765625 19.96875 92.875 12.0625 
L 87.5 6.59375 
Q 83.6875 10.546875 79.640625 14.40625 
Q 67.71875 13.921875 55.5625 13.375 
L 55.5625 0.34375 
Q 55.5625 -11.765625 43.359375 -11.765625 
Q 37.109375 -11.765625 29.390625 -11.671875 
Q 28.8125 -7.765625 27.9375 -3.5625 
Q 35.453125 -4.25 41.40625 -4.25 
Q 47.953125 -4.25 47.953125 2.875 
L 47.953125 13.03125 
Q 34.859375 12.40625 21.484375 11.765625 
Q 17.1875 11.578125 13.1875 10.984375 
L 10.546875 18.40625 
Q 16.5 19.09375 23.921875 21.921875 
Q 33.9375 25.78125 45.5625 31 
Q 33.40625 30.609375 23.921875 30.03125 
Q 19.234375 29.734375 16.890625 29.4375 
L 14.359375 35.890625 
Q 19.234375 36.859375 24.21875 39.109375 
Q 30.765625 42.046875 37.15625 45.453125 
L 18.84375 45.453125 
L 18.84375 42.625 
L 11.421875 42.625 
L 11.421875 79.734375 
L 88.671875 79.734375 
L 88.671875 42.625 
L 81.25 42.625 
L 81.25 45.453125 
L 48.828125 45.453125 
Q 38.03125 39.984375 27.546875 35.5 
Q 40.328125 35.84375 57.328125 36.46875 
Q 64.0625 39.65625 71.296875 43.3125 
L 76.375 38.03125 
Q 53.03125 27 28.515625 17.921875 
Q 53.171875 19 73.1875 20.265625 
Q 69.625 23.4375 65.921875 26.515625 
z
M 53.609375 51.125 
L 81.25 51.125 
L 81.25 60.015625 
L 53.609375 60.015625 
z
M 18.84375 51.125 
L 46.390625 51.125 
L 46.390625 60.015625 
L 18.84375 60.015625 
z
M 81.25 74.078125 
L 53.609375 74.078125 
L 53.609375 65.28125 
L 81.25 65.28125 
z
M 18.84375 65.28125 
L 46.390625 65.28125 
L 46.390625 74.078125 
L 18.84375 74.078125 
z
M 29.59375 8.9375 
L 33.984375 2.875 
Q 19.734375 -4.25 5.953125 -9.625 
Q 4.5 -6.59375 2.546875 -3.078125 
Q 17.09375 2.59375 29.59375 8.9375 
z
M 69.234375 8.546875 
Q 83.796875 3.65625 97.171875 -2.296875 
L 94.140625 -8.9375 
Q 81.0625 -2.984375 65.921875 2.09375 
z
" id="MicrosoftYaHei-32047"/>
       <path d="M 32.8125 49.265625 
L 61.234375 49.265625 
L 61.234375 82.859375 
L 69.625 82.859375 
L 69.625 49.265625 
L 98.25 49.265625 
L 98.25 42.234375 
L 69.625 42.234375 
L 69.625 -12.84375 
L 61.234375 -12.84375 
L 61.234375 42.234375 
L 32.8125 42.234375 
z
M 41.796875 14.109375 
Q 42.09375 9.03125 42.484375 5.609375 
Q 26.859375 -4.15625 16.703125 -11.375 
L 12.015625 -4.734375 
Q 15.4375 -1.8125 15.4375 4.15625 
L 15.4375 42.828125 
L 1.5625 42.828125 
L 1.5625 49.859375 
L 23.25 49.859375 
L 23.25 2.390625 
Q 31.734375 7.5625 41.796875 14.109375 
z
M 11.53125 81.59375 
Q 22.171875 70.65625 26.953125 65.375 
L 20.125 59.625 
Q 13.96875 67.71875 5.5625 76.421875 
z
" id="MicrosoftYaHei-35745"/>
      </defs>
      <use xlink:href="#MicrosoftYaHei-32047"/>
      <use x="100" xlink:href="#MicrosoftYaHei-35745"/>
      <use x="200" xlink:href="#MicrosoftYaHei-24863"/>
      <use x="300" xlink:href="#MicrosoftYaHei-26579"/>
      <use x="400" xlink:href="#MicrosoftYaHei-20154"/>
      <use x="500" xlink:href="#MicrosoftYaHei-25968"/>
     </g>
    </g>
    <g id="line2d_37">
     <path d="M 66.6 204.741281 
L 86.6 204.741281 
" style="fill:none;stroke:#008000;stroke-linecap:square;stroke-width:4;"/>
    </g>
    <g id="line2d_38"/>
    <g id="text_21">
     <!-- 累计治愈人数 -->
     <g transform="translate(94.6 208.241281)scale(0.1 -0.1)">
      <defs>
       <path d="M 34.859375 30.21875 
L 89.359375 30.21875 
L 89.359375 -12.84375 
L 81.9375 -12.84375 
L 81.9375 -6.296875 
L 42.28125 -6.296875 
L 42.28125 -12.84375 
L 34.859375 -12.84375 
z
M 78.421875 70.0625 
Q 89.546875 55.03125 98.828125 39.59375 
L 91.796875 35.296875 
Q 89.15625 39.890625 86.53125 44.34375 
Q 57.71875 43.109375 40.53125 41.65625 
Q 36.625 41.265625 32.515625 40.09375 
L 28.609375 47.703125 
Q 32.625 49.171875 35.75 52.6875 
Q 45.796875 64.703125 54.984375 83.34375 
L 62.796875 80.125 
Q 52.9375 63.421875 42.390625 49.265625 
Q 60.203125 49.859375 82.515625 50.921875 
Q 77.4375 58.984375 72.265625 66.359375 
z
M 81.9375 23.390625 
L 42.28125 23.390625 
L 42.28125 0.53125 
L 81.9375 0.53125 
z
M 15.828125 29.734375 
Q 19.734375 27.875 23.828125 26.3125 
Q 16.703125 4.34375 11.921875 -11.96875 
L 3.609375 -8.84375 
Q 10.25 7.953125 15.828125 29.734375 
z
M 10.359375 81.390625 
Q 20.90625 74.171875 28.421875 68.109375 
Q 25.296875 64.5 22.953125 61.765625 
Q 15.53125 68.40625 5.5625 75.828125 
z
M 6.34375 56.984375 
Q 15.328125 51.03125 23.828125 44.484375 
Q 22.359375 43.015625 18.5625 38.03125 
Q 8.796875 46.140625 1.5625 51.421875 
z
" id="MicrosoftYaHei-27835"/>
       <path d="M 19.234375 16.546875 
L 12.5 16.546875 
L 12.5 55.328125 
L 50 55.328125 
L 50 26.21875 
Q 50 16.15625 40.234375 16.15625 
Q 37.015625 16.15625 31.34375 16.359375 
Q 30.765625 19.671875 29.984375 23.09375 
Q 35.359375 22.515625 39.15625 22.515625 
Q 43.265625 22.515625 43.265625 26.90625 
L 43.265625 28.171875 
L 19.234375 28.171875 
z
M 56.734375 83.0625 
L 55.078125 81.6875 
Q 71.296875 68.703125 98.640625 62.359375 
Q 96.578125 59.8125 93.84375 55.609375 
Q 79 60.203125 67.96875 65.765625 
L 67.96875 61.1875 
L 31.9375 61.1875 
L 31.9375 66.359375 
Q 20.609375 60.6875 5.859375 55.21875 
Q 3.8125 58.453125 1.375 61.1875 
Q 29.6875 69.96875 46.96875 83.0625 
z
M 27.25 12.546875 
L 34.46875 12.546875 
L 34.46875 0.921875 
Q 34.46875 -4.734375 40.046875 -4.734375 
L 60.9375 -4.734375 
Q 67.96875 -4.734375 69.140625 0.828125 
Q 69.921875 4.640625 70.609375 10.203125 
Q 74.125 8.84375 77.9375 7.671875 
Q 76.953125 1.90625 75.78125 -2.390625 
Q 73.53125 -10.984375 62.203125 -10.984375 
L 39.15625 -10.984375 
Q 27.25 -10.984375 27.25 0.046875 
z
M 78.421875 55.609375 
L 85.359375 55.609375 
L 85.359375 26.703125 
Q 85.359375 15.96875 75.296875 15.96875 
Q 71.78125 15.96875 65.140625 16.15625 
Q 64.453125 20.0625 63.375 23.6875 
Q 69.34375 23 73.921875 23 
Q 78.421875 23 78.421875 27.984375 
z
M 50.203125 77.484375 
Q 41.703125 71.234375 32.328125 66.65625 
L 66.40625 66.65625 
Q 56.9375 71.625 50.203125 77.484375 
z
M 60.546875 52.984375 
L 67.28125 52.984375 
L 67.28125 28.65625 
L 60.546875 28.65625 
z
M 12.703125 12.25 
L 19.34375 9.8125 
Q 14.9375 -0.34375 9.1875 -8.84375 
Q 6.25 -7.078125 2.734375 -5.421875 
Q 8.890625 2.78125 12.703125 12.25 
z
M 79.890625 9.03125 
L 85.25 12.84375 
Q 92.1875 5.21875 98.046875 -2.390625 
L 92 -6.6875 
Q 87.015625 0.53125 79.890625 9.03125 
z
M 19.234375 33.453125 
L 43.265625 33.453125 
L 43.265625 39.015625 
L 19.234375 39.015625 
z
M 43.265625 49.859375 
L 19.234375 49.859375 
L 19.234375 44.28125 
L 43.265625 44.28125 
z
M 43.75 11.46875 
L 48.25 15.671875 
Q 55.171875 10.59375 61.234375 5.328125 
L 56.25 0.34375 
Q 50.296875 6 43.75 11.46875 
z
" id="MicrosoftYaHei-24840"/>
      </defs>
      <use xlink:href="#MicrosoftYaHei-32047"/>
      <use x="100" xlink:href="#MicrosoftYaHei-35745"/>
      <use x="200" xlink:href="#MicrosoftYaHei-27835"/>
      <use x="300" xlink:href="#MicrosoftYaHei-24840"/>
      <use x="400" xlink:href="#MicrosoftYaHei-20154"/>
      <use x="500" xlink:href="#MicrosoftYaHei-25968"/>
     </g>
    </g>
    <g id="line2d_39">
     <path d="M 66.6 220.220969 
L 86.6 220.220969 
" style="fill:none;stroke:#808080;stroke-linecap:square;stroke-width:4;"/>
    </g>
    <g id="line2d_40"/>
    <g id="text_22">
     <!-- 累计死亡人数 -->
     <g transform="translate(94.6 223.720969)scale(0.1 -0.1)">
      <defs>
       <path d="M 3.90625 75.734375 
L 96.09375 75.734375 
L 96.09375 68.703125 
L 66.703125 68.703125 
L 66.703125 32.953125 
Q 78.8125 42.140625 91.3125 55.03125 
L 97.078125 49.078125 
Q 81.34375 34.625 66.703125 24.078125 
L 66.703125 4.15625 
Q 66.703125 -2.203125 71.96875 -2.203125 
L 81.640625 -2.203125 
Q 87.703125 -2.203125 89.265625 4.546875 
Q 90.53125 11.1875 91.3125 20.5625 
Q 95.609375 18.5 99.21875 17.4375 
Q 98.046875 8.34375 96.578125 1.609375 
Q 94.046875 -9.625 82.8125 -9.625 
L 70.40625 -9.625 
Q 59.078125 -9.625 59.078125 3.859375 
L 59.078125 68.703125 
L 30.671875 68.703125 
Q 28.515625 60.984375 25.78125 53.953125 
L 51.171875 53.953125 
L 51.171875 47.21875 
Q 44.234375 8.9375 8.5 -12.9375 
Q 5.671875 -9.625 2.828125 -6.984375 
Q 20.40625 3.65625 30.171875 16.84375 
Q 23.046875 22.796875 16.21875 27.78125 
L 20.3125 33.734375 
Q 27.546875 28.46875 34.46875 23.1875 
Q 41.109375 34.234375 43.5625 47.125 
L 22.953125 47.125 
Q 16.703125 32.953125 6.546875 20.75 
Q 3.8125 24.46875 1.65625 26.90625 
Q 16.609375 45.359375 22.75 68.703125 
L 3.90625 68.703125 
z
" id="MicrosoftYaHei-27515"/>
       <path d="M 1.953125 63.421875 
L 97.953125 63.421875 
L 97.953125 55.71875 
L 25.09375 55.71875 
L 25.09375 0.4375 
L 93.359375 0.4375 
L 93.359375 -6.984375 
L 16.40625 -6.984375 
L 16.40625 55.71875 
L 1.953125 55.71875 
z
M 41.796875 78.859375 
L 48.25 83.25 
Q 55.46875 74.5625 59.46875 69 
L 52.34375 63.8125 
Q 46.6875 72.609375 41.796875 78.859375 
z
" id="MicrosoftYaHei-20129"/>
      </defs>
      <use xlink:href="#MicrosoftYaHei-32047"/>
      <use x="100" xlink:href="#MicrosoftYaHei-35745"/>
      <use x="200" xlink:href="#MicrosoftYaHei-27515"/>
      <use x="300" xlink:href="#MicrosoftYaHei-20129"/>
      <use x="400" xlink:href="#MicrosoftYaHei-20154"/>
      <use x="500" xlink:href="#MicrosoftYaHei-25968"/>
     </g>
    </g>
   </g>
  </g>
 </g>
 <defs>
  <clipPath id="p4a82599e57">
   <rect height="266.112" width="357.12" x="57.6" y="41.472"/>
  </clipPath>
 </defs>
</svg>
