<?xml version="1.0" encoding="utf-8" standalone="no"?>
<!DOCTYPE svg PUBLIC "-//W3C//DTD SVG 1.1//EN"
  "http://www.w3.org/Graphics/SVG/1.1/DTD/svg11.dtd">
<!-- Created with matplotlib (https://matplotlib.org/) -->
<svg height="345.6pt" version="1.1" viewBox="0 0 460.8 345.6" width="460.8pt" xmlns="http://www.w3.org/2000/svg" xmlns:xlink="http://www.w3.org/1999/xlink">
 <metadata>
  <rdf:RDF xmlns:cc="http://creativecommons.org/ns#" xmlns:dc="http://purl.org/dc/elements/1.1/" xmlns:rdf="http://www.w3.org/1999/02/22-rdf-syntax-ns#">
   <cc:Work>
    <dc:type rdf:resource="http://purl.org/dc/dcmitype/StillImage"/>
    <dc:date>2021-08-12T07:47:23.706082</dc:date>
    <dc:format>image/svg+xml</dc:format>
    <dc:creator>
     <cc:Agent>
      <dc:title>Matplotlib v3.3.0, https://matplotlib.org/</dc:title>
     </cc:Agent>
    </dc:creator>
   </cc:Work>
  </rdf:RDF>
 </metadata>
 <defs>
  <style type="text/css">*{stroke-linecap:butt;stroke-linejoin:round;}</style>
 </defs>
 <g id="figure_1">
  <g id="patch_1">
   <path d="M 0 345.6 
L 460.8 345.6 
L 460.8 0 
L 0 0 
z
" style="fill:#ffffff;"/>
  </g>
  <g id="axes_1">
   <g id="patch_2">
    <path d="M 57.6 307.584 
L 414.72 307.584 
L 414.72 41.472 
L 57.6 41.472 
z
" style="fill:#ffffff;"/>
   </g>
   <g id="matplotlib.axis_1">
    <g id="xtick_1">
     <g id="line2d_1">
      <defs>
       <path d="M 0 0 
L 0 3.5 
" id="mb4d72e586e" style="stroke:#000000;stroke-width:0.8;"/>
      </defs>
      <g>
       <use style="stroke:#000000;stroke-width:0.8;" x="57.6" xlink:href="#mb4d72e586e" y="307.584"/>
      </g>
     </g>
     <g id="text_1">
      <!-- 0 -->
      <g transform="translate(54.667969 322.57775)scale(0.1 -0.1)">
       <defs>
        <path d="M 4.4375 36.328125 
Q 4.4375 56.34375 11.078125 66.625 
Q 17.71875 76.90625 30.328125 76.90625 
Q 54.34375 76.90625 54.34375 38.140625 
Q 54.34375 19 47.578125 8.859375 
Q 40.828125 -1.265625 28.609375 -1.265625 
Q 17.09375 -1.265625 10.765625 8.34375 
Q 4.4375 17.96875 4.4375 36.328125 
z
M 14.203125 36.765625 
Q 14.203125 6.640625 29.5 6.640625 
Q 44.53125 6.640625 44.53125 37.25 
Q 44.53125 68.953125 29.78125 68.953125 
Q 14.203125 68.953125 14.203125 36.765625 
z
" id="MicrosoftYaHei-48"/>
       </defs>
       <use xlink:href="#MicrosoftYaHei-48"/>
      </g>
     </g>
    </g>
    <g id="xtick_2">
     <g id="line2d_2">
      <g>
       <use style="stroke:#000000;stroke-width:0.8;" x="129.024" xlink:href="#mb4d72e586e" y="307.584"/>
      </g>
     </g>
     <g id="text_2">
      <!-- 20 -->
      <g transform="translate(123.159937 322.57775)scale(0.1 -0.1)">
       <defs>
        <path d="M 41.65625 55.8125 
Q 41.65625 61.921875 37.796875 65.40625 
Q 33.9375 68.890625 27.296875 68.890625 
Q 22.609375 68.890625 17.8125 66.5 
Q 13.03125 64.109375 8.890625 59.671875 
L 8.890625 68.953125 
Q 12.59375 72.796875 17.296875 74.84375 
Q 22.015625 76.90625 28.375 76.90625 
Q 38.625 76.90625 44.875 71.40625 
Q 51.125 65.921875 51.125 56.546875 
Q 51.125 48.1875 47.28125 42.078125 
Q 43.453125 35.984375 34.1875 29.59375 
Q 24.703125 23.046875 21.5 20.21875 
Q 18.3125 17.390625 17.03125 14.796875 
Q 15.765625 12.203125 15.765625 8.5 
L 53.375 8.5 
L 53.375 0 
L 5.8125 0 
L 5.8125 3.765625 
Q 5.8125 10.296875 7.59375 14.859375 
Q 9.375 19.4375 13.46875 23.75 
Q 17.578125 28.078125 26.265625 34.125 
Q 35.15625 40.375 38.40625 45.09375 
Q 41.65625 49.8125 41.65625 55.8125 
z
" id="MicrosoftYaHei-50"/>
       </defs>
       <use xlink:href="#MicrosoftYaHei-50"/>
       <use x="58.642578" xlink:href="#MicrosoftYaHei-48"/>
      </g>
     </g>
    </g>
    <g id="xtick_3">
     <g id="line2d_3">
      <g>
       <use style="stroke:#000000;stroke-width:0.8;" x="200.448" xlink:href="#mb4d72e586e" y="307.584"/>
      </g>
     </g>
     <g id="text_3">
      <!-- 40 -->
      <g transform="translate(194.583938 322.57775)scale(0.1 -0.1)">
       <defs>
        <path d="M 45.40625 75.640625 
L 45.40625 25.6875 
L 56.734375 25.6875 
L 56.734375 17.78125 
L 45.40625 17.78125 
L 45.40625 0 
L 36.140625 0 
L 36.140625 17.78125 
L 0.828125 17.78125 
L 0.828125 25.25 
Q 10.25 35.84375 19.765625 49.65625 
Q 29.296875 63.484375 35.5 75.640625 
z
M 11.578125 25.6875 
L 36.140625 25.6875 
L 36.140625 61.71875 
Q 31.0625 52.59375 25.25 44.015625 
Q 19.4375 35.453125 11.578125 25.6875 
z
" id="MicrosoftYaHei-52"/>
       </defs>
       <use xlink:href="#MicrosoftYaHei-52"/>
       <use x="58.642578" xlink:href="#MicrosoftYaHei-48"/>
      </g>
     </g>
    </g>
    <g id="xtick_4">
     <g id="line2d_4">
      <g>
       <use style="stroke:#000000;stroke-width:0.8;" x="271.872" xlink:href="#mb4d72e586e" y="307.584"/>
      </g>
     </g>
     <g id="text_4">
      <!-- 60 -->
      <g transform="translate(266.007938 322.57775)scale(0.1 -0.1)">
       <defs>
        <path d="M 49.703125 65.921875 
Q 43.796875 68.953125 37.359375 68.953125 
Q 27.546875 68.953125 21.578125 60.40625 
Q 15.625 51.859375 15.53125 37.0625 
L 15.765625 37.0625 
Q 21.140625 47.46875 32.90625 47.46875 
Q 42.71875 47.46875 48.578125 41.0625 
Q 54.4375 34.671875 54.4375 24.078125 
Q 54.4375 12.984375 47.671875 5.859375 
Q 40.921875 -1.265625 30.421875 -1.265625 
Q 18.890625 -1.265625 12.328125 7.734375 
Q 5.765625 16.75 5.765625 33.296875 
Q 5.765625 53.328125 14.375 65.109375 
Q 23 76.90625 37.0625 76.90625 
Q 45.125 76.90625 49.703125 74.703125 
z
M 16.109375 24.75 
Q 16.109375 17.28125 20.09375 11.953125 
Q 24.078125 6.640625 30.671875 6.640625 
Q 36.921875 6.640625 40.828125 11.234375 
Q 44.734375 15.828125 44.734375 23.046875 
Q 44.734375 30.859375 41.046875 35.203125 
Q 37.359375 39.546875 30.5625 39.546875 
Q 24.125 39.546875 20.109375 35.15625 
Q 16.109375 30.765625 16.109375 24.75 
z
" id="MicrosoftYaHei-54"/>
       </defs>
       <use xlink:href="#MicrosoftYaHei-54"/>
       <use x="58.642578" xlink:href="#MicrosoftYaHei-48"/>
      </g>
     </g>
    </g>
    <g id="xtick_5">
     <g id="line2d_5">
      <g>
       <use style="stroke:#000000;stroke-width:0.8;" x="343.296" xlink:href="#mb4d72e586e" y="307.584"/>
      </g>
     </g>
     <g id="text_5">
      <!-- 80 -->
      <g transform="translate(337.431938 322.57775)scale(0.1 -0.1)">
       <defs>
        <path d="M 4.78125 21.09375 
Q 4.78125 27.640625 8.6875 33.15625 
Q 12.59375 38.671875 18.75 41.015625 
Q 13.8125 43.796875 10.9375 48.140625 
Q 8.0625 52.484375 8.0625 57.5625 
Q 8.0625 62.9375 10.8125 67.375 
Q 13.578125 71.828125 18.484375 74.359375 
Q 23.390625 76.90625 29.296875 76.90625 
Q 35.25 76.90625 40.1875 74.390625 
Q 45.125 71.875 47.859375 67.421875 
Q 50.59375 62.984375 50.59375 57.5625 
Q 50.59375 52.59375 47.78125 48.21875 
Q 44.96875 43.84375 39.984375 41.015625 
Q 46.140625 38.625 50 33.109375 
Q 53.859375 27.59375 53.859375 21.09375 
Q 53.859375 14.65625 50.78125 9.546875 
Q 47.703125 4.4375 42.03125 1.609375 
Q 36.375 -1.21875 29.296875 -1.21875 
Q 22.265625 -1.21875 16.640625 1.609375 
Q 11.03125 4.4375 7.90625 9.5625 
Q 4.78125 14.703125 4.78125 21.09375 
z
M 14.15625 21.53125 
Q 14.15625 14.796875 18.3125 10.734375 
Q 22.46875 6.6875 29.34375 6.6875 
Q 36.078125 6.6875 40.34375 10.8125 
Q 44.625 14.9375 44.625 21.53125 
Q 44.625 27.78125 40.296875 32.046875 
Q 35.984375 36.328125 29.34375 36.328125 
Q 22.75 36.328125 18.453125 32.15625 
Q 14.15625 27.984375 14.15625 21.53125 
z
M 16.890625 56.78125 
Q 16.890625 51.703125 20.5 48.0625 
Q 24.125 44.4375 29.34375 44.4375 
Q 34.46875 44.4375 38.203125 48.09375 
Q 41.9375 51.765625 41.9375 56.78125 
Q 41.9375 61.921875 38.34375 65.484375 
Q 34.765625 69.046875 29.34375 69.046875 
Q 23.96875 69.046875 20.421875 65.546875 
Q 16.890625 62.0625 16.890625 56.78125 
z
" id="MicrosoftYaHei-56"/>
       </defs>
       <use xlink:href="#MicrosoftYaHei-56"/>
       <use x="58.642578" xlink:href="#MicrosoftYaHei-48"/>
      </g>
     </g>
    </g>
    <g id="xtick_6">
     <g id="line2d_6">
      <g>
       <use style="stroke:#000000;stroke-width:0.8;" x="414.72" xlink:href="#mb4d72e586e" y="307.584"/>
      </g>
     </g>
     <g id="text_6">
      <!-- 100 -->
      <g transform="translate(405.923906 322.57775)scale(0.1 -0.1)">
       <defs>
        <path d="M 27.828125 0 
L 27.828125 64.703125 
Q 25.59375 62.453125 20.234375 59.671875 
Q 14.890625 56.890625 10.359375 55.765625 
L 10.359375 65.140625 
Q 16.359375 66.796875 23.1875 70.4375 
Q 30.03125 74.078125 33.6875 77.296875 
L 37.3125 77.296875 
L 37.3125 0 
z
" id="MicrosoftYaHei-49"/>
       </defs>
       <use xlink:href="#MicrosoftYaHei-49"/>
       <use x="58.642578" xlink:href="#MicrosoftYaHei-48"/>
       <use x="117.285156" xlink:href="#MicrosoftYaHei-48"/>
      </g>
     </g>
    </g>
    <g id="text_7">
     <!-- 时间 -->
     <g transform="translate(226.16 337.057437)scale(0.1 -0.1)">
      <defs>
       <path d="M 5.375 73.875 
L 39.0625 73.875 
L 39.0625 -5.71875 
L 31.34375 -5.71875 
L 31.34375 2.390625 
L 13.09375 2.390625 
L 13.09375 -6.890625 
L 5.375 -6.890625 
z
M 42.28125 61.578125 
L 76.953125 61.578125 
L 76.953125 83.15625 
L 84.765625 83.15625 
L 84.765625 61.578125 
L 98.640625 61.578125 
L 98.640625 54.34375 
L 84.765625 54.34375 
L 84.765625 1.8125 
Q 84.765625 -11.28125 72.265625 -11.28125 
Q 66.609375 -11.28125 55.671875 -10.984375 
Q 55.171875 -7.46875 54.109375 -2.78125 
Q 64.359375 -3.5625 70.125 -3.5625 
Q 76.953125 -3.5625 76.953125 3.375 
L 76.953125 54.34375 
L 42.28125 54.34375 
z
M 13.09375 9.625 
L 31.34375 9.625 
L 31.34375 34.90625 
L 13.09375 34.90625 
z
M 31.34375 66.65625 
L 13.09375 66.65625 
L 13.09375 41.9375 
L 31.34375 41.9375 
z
M 53.21875 44.96875 
Q 61.03125 30.71875 65.046875 22.21875 
Q 62.5 21.046875 57.234375 18.3125 
Q 53.421875 27.59375 46.296875 41.453125 
z
" id="MicrosoftYaHei-26102"/>
       <path d="M 29.109375 56.984375 
L 70.515625 56.984375 
L 70.515625 8.640625 
L 36.140625 8.640625 
L 36.140625 2.59375 
L 29.109375 2.59375 
z
M 37.3125 69.578125 
L 37.3125 76.90625 
L 93.953125 76.90625 
L 93.953125 -0.4375 
Q 93.953125 -12.75 79.984375 -12.75 
Q 74.3125 -12.75 65.140625 -12.546875 
Q 64.75 -9.625 63.578125 -4.640625 
Q 71.6875 -5.21875 79 -5.21875 
Q 86.328125 -5.21875 86.328125 1.90625 
L 86.328125 69.578125 
z
M 6.546875 63.8125 
L 14.15625 63.8125 
L 14.15625 -12.75 
L 6.546875 -12.75 
z
M 36.140625 15.578125 
L 63.484375 15.578125 
L 63.484375 29.4375 
L 36.140625 29.4375 
z
M 63.484375 50.046875 
L 36.140625 50.046875 
L 36.140625 36.375 
L 63.484375 36.375 
z
M 11.625 78.171875 
L 17.1875 83.15625 
Q 24.609375 76.125 30.953125 69.484375 
L 24.609375 63.921875 
Q 18.65625 70.953125 11.625 78.171875 
z
" id="MicrosoftYaHei-38388"/>
      </defs>
      <use xlink:href="#MicrosoftYaHei-26102"/>
      <use x="100" xlink:href="#MicrosoftYaHei-38388"/>
     </g>
    </g>
   </g>
   <g id="matplotlib.axis_2">
    <g id="ytick_1">
     <g id="line2d_7">
      <defs>
       <path d="M 0 0 
L -3.5 0 
" id="m4b7b5d448e" style="stroke:#000000;stroke-width:0.8;"/>
      </defs>
      <g>
       <use style="stroke:#000000;stroke-width:0.8;" x="57.6" xlink:href="#m4b7b5d448e" y="295.488"/>
      </g>
     </g>
     <g id="text_8">
      <!-- 0 -->
      <g transform="translate(44.735937 299.484875)scale(0.1 -0.1)">
       <use xlink:href="#MicrosoftYaHei-48"/>
      </g>
     </g>
    </g>
    <g id="ytick_2">
     <g id="line2d_8">
      <g>
       <use style="stroke:#000000;stroke-width:0.8;" x="57.6" xlink:href="#m4b7b5d448e" y="252.307277"/>
      </g>
     </g>
     <g id="text_9">
      <!-- 20000 -->
      <g transform="translate(21.279688 256.304152)scale(0.1 -0.1)">
       <use xlink:href="#MicrosoftYaHei-50"/>
       <use x="58.642578" xlink:href="#MicrosoftYaHei-48"/>
       <use x="117.285156" xlink:href="#MicrosoftYaHei-48"/>
       <use x="175.927734" xlink:href="#MicrosoftYaHei-48"/>
       <use x="234.570312" xlink:href="#MicrosoftYaHei-48"/>
      </g>
     </g>
    </g>
    <g id="ytick_3">
     <g id="line2d_9">
      <g>
       <use style="stroke:#000000;stroke-width:0.8;" x="57.6" xlink:href="#m4b7b5d448e" y="209.126554"/>
      </g>
     </g>
     <g id="text_10">
      <!-- 40000 -->
      <g transform="translate(21.279688 213.123429)scale(0.1 -0.1)">
       <use xlink:href="#MicrosoftYaHei-52"/>
       <use x="58.642578" xlink:href="#MicrosoftYaHei-48"/>
       <use x="117.285156" xlink:href="#MicrosoftYaHei-48"/>
       <use x="175.927734" xlink:href="#MicrosoftYaHei-48"/>
       <use x="234.570312" xlink:href="#MicrosoftYaHei-48"/>
      </g>
     </g>
    </g>
    <g id="ytick_4">
     <g id="line2d_10">
      <g>
       <use style="stroke:#000000;stroke-width:0.8;" x="57.6" xlink:href="#m4b7b5d448e" y="165.945831"/>
      </g>
     </g>
     <g id="text_11">
      <!-- 60000 -->
      <g transform="translate(21.279688 169.942706)scale(0.1 -0.1)">
       <use xlink:href="#MicrosoftYaHei-54"/>
       <use x="58.642578" xlink:href="#MicrosoftYaHei-48"/>
       <use x="117.285156" xlink:href="#MicrosoftYaHei-48"/>
       <use x="175.927734" xlink:href="#MicrosoftYaHei-48"/>
       <use x="234.570312" xlink:href="#MicrosoftYaHei-48"/>
      </g>
     </g>
    </g>
    <g id="ytick_5">
     <g id="line2d_11">
      <g>
       <use style="stroke:#000000;stroke-width:0.8;" x="57.6" xlink:href="#m4b7b5d448e" y="122.765108"/>
      </g>
     </g>
     <g id="text_12">
      <!-- 80000 -->
      <g transform="translate(21.279688 126.761983)scale(0.1 -0.1)">
       <use xlink:href="#MicrosoftYaHei-56"/>
       <use x="58.642578" xlink:href="#MicrosoftYaHei-48"/>
       <use x="117.285156" xlink:href="#MicrosoftYaHei-48"/>
       <use x="175.927734" xlink:href="#MicrosoftYaHei-48"/>
       <use x="234.570312" xlink:href="#MicrosoftYaHei-48"/>
      </g>
     </g>
    </g>
    <g id="ytick_6">
     <g id="line2d_12">
      <g>
       <use style="stroke:#000000;stroke-width:0.8;" x="57.6" xlink:href="#m4b7b5d448e" y="79.584386"/>
      </g>
     </g>
     <g id="text_13">
      <!-- 100000 -->
      <g transform="translate(15.415625 83.581261)scale(0.1 -0.1)">
       <use xlink:href="#MicrosoftYaHei-49"/>
       <use x="58.642578" xlink:href="#MicrosoftYaHei-48"/>
       <use x="117.285156" xlink:href="#MicrosoftYaHei-48"/>
       <use x="175.927734" xlink:href="#MicrosoftYaHei-48"/>
       <use x="234.570312" xlink:href="#MicrosoftYaHei-48"/>
       <use x="293.212891" xlink:href="#MicrosoftYaHei-48"/>
      </g>
     </g>
    </g>
    <g id="text_14">
     <!-- 感染情况 -->
     <g transform="translate(8.929687 194.528)rotate(-90)scale(0.1 -0.1)">
      <defs>
       <path d="M 55.171875 22.21875 
Q 62.703125 27.203125 68.5625 33.296875 
Q 62.84375 45.453125 61.625 64.796875 
L 18.953125 64.796875 
L 18.953125 51.90625 
Q 18.953125 28.171875 7.234375 13.625 
Q 5.171875 17.71875 2.15625 21.046875 
Q 11.921875 31.78125 11.921875 52 
L 11.921875 71.046875 
L 61.28125 71.046875 
Q 60.984375 77 60.9375 82.5625 
L 68.171875 82.5625 
Q 68.171875 77 68.40625 71.046875 
L 96.875 71.046875 
L 96.875 64.796875 
L 68.75 64.796875 
Q 69.78125 49.75 73.875 39.546875 
Q 80.46875 48.25 84.28125 58.9375 
L 90.921875 55.609375 
Q 85.25 42.828125 77.296875 32.859375 
Q 79.046875 30.03125 81.15625 27.78125 
Q 83.5 25.34375 85.546875 25.34375 
Q 87.40625 25.34375 88.578125 28.46875 
Q 90.046875 32.5625 91.5 39.40625 
Q 94.046875 38.03125 98.734375 36.28125 
Q 96.484375 27.59375 94.828125 23.484375 
Q 92 16.65625 86.53125 16.65625 
Q 82.03125 16.65625 76.953125 21.34375 
Q 74.3125 23.78125 72.125 26.953125 
Q 66.84375 21.484375 60.75 17.046875 
Q 58.40625 19.671875 55.171875 22.21875 
z
M 25.59375 45.171875 
L 55.671875 45.171875 
L 55.671875 24.078125 
L 32.234375 24.078125 
L 32.234375 21.34375 
L 25.59375 21.34375 
z
M 26.765625 15.578125 
L 34.1875 15.578125 
L 34.1875 2.09375 
Q 34.1875 -3.953125 40.4375 -3.953125 
L 58.015625 -3.953125 
Q 65.53125 -3.953125 66.609375 1.703125 
Q 67.390625 4.9375 68.359375 12.15625 
Q 71.6875 10.796875 76.078125 9.234375 
Q 74.8125 2.59375 73.53125 -1.609375 
Q 71.1875 -10.796875 59.578125 -10.796875 
L 38.875 -10.796875 
Q 26.765625 -10.796875 26.765625 1.21875 
z
M 22.5625 57.765625 
L 58.109375 57.765625 
L 58.109375 51.90625 
L 22.5625 51.90625 
z
M 13.1875 16.0625 
L 20.125 13.328125 
Q 15.140625 0.734375 9.28125 -8.34375 
Q 6.84375 -6.890625 2.734375 -4.640625 
Q 9.078125 4.546875 13.1875 16.0625 
z
M 49.03125 29.9375 
L 49.03125 39.3125 
L 32.234375 39.3125 
L 32.234375 29.9375 
z
M 79.890625 9.90625 
L 85.359375 13.8125 
Q 91.609375 6.59375 98.046875 -2.59375 
L 91.609375 -7.171875 
Q 86.921875 0.53125 79.890625 9.90625 
z
M 42.28125 16.75 
L 47.5625 20.75 
Q 54 13.921875 59.078125 7.671875 
L 52.9375 2.984375 
Q 47.65625 10.59375 42.28125 16.75 
z
M 88.375 76.03125 
L 83.59375 71.234375 
Q 79.390625 75.140625 74.421875 79.15625 
L 78.71875 83.640625 
Q 83.796875 79.9375 88.375 76.03125 
z
" id="MicrosoftYaHei-24863"/>
       <path d="M 99.03125 -1.703125 
Q 95.3125 -5.71875 92.96875 -9.125 
Q 66.703125 -0.25 53.609375 18.3125 
L 53.609375 -14.015625 
L 46 -14.015625 
L 46 18.3125 
Q 32.328125 1.8125 7.234375 -10.40625 
Q 4.890625 -7.375 1.65625 -3.65625 
Q 23.828125 4.640625 37.59375 18.40625 
L 3.328125 18.40625 
L 3.328125 25.25 
L 46 25.25 
L 46 36.078125 
L 53.609375 36.078125 
L 53.609375 25.25 
L 97.5625 25.25 
L 97.5625 18.40625 
L 61.03125 18.40625 
Q 74.03125 3.765625 99.03125 -1.703125 
z
M 35.9375 70.265625 
L 48.046875 70.265625 
Q 48.25 75.140625 48.4375 82.953125 
L 55.953125 82.953125 
Q 55.765625 75.734375 55.5625 70.265625 
L 80.28125 70.265625 
L 80.28125 44.78125 
Q 80.28125 40.96875 83.890625 40.96875 
L 86.140625 40.96875 
Q 89.9375 40.96875 90.71875 45.953125 
Q 91.3125 50.046875 91.703125 56.390625 
Q 95.40625 54.9375 99.03125 53.953125 
Q 98.4375 47.90625 97.65625 43.609375 
Q 96.1875 34.328125 87.5 34.328125 
L 82.421875 34.328125 
Q 72.859375 34.328125 72.859375 43.796875 
L 72.859375 63.625 
L 55.171875 63.625 
Q 53.328125 41.15625 33.5 30.328125 
Q 31.0625 33.34375 28.125 36.46875 
Q 46.1875 44.96875 47.75 63.625 
L 35.9375 63.625 
z
M 29.6875 53.375 
Q 31.25 48.96875 32.625 46.046875 
Q 19.828125 38.625 7.421875 30.515625 
L 2.828125 37.453125 
Q 16.3125 44.96875 29.6875 53.375 
z
M 14.75 82.671875 
Q 24.21875 77.875 31.9375 73.390625 
Q 29.296875 70.0625 27.34375 67.046875 
Q 18.84375 72.515625 10.84375 76.90625 
z
M 5.953125 67.828125 
Q 13.578125 64.3125 22.65625 59.234375 
Q 20.21875 55.328125 18.453125 52.59375 
Q 8.015625 58.84375 2.25 61.578125 
z
" id="MicrosoftYaHei-26579"/>
       <path d="M 43.84375 -12.453125 
L 36.421875 -12.453125 
L 36.421875 37.0625 
L 91.3125 37.0625 
L 91.3125 -0.640625 
Q 91.3125 -11.46875 81.453125 -11.671875 
Q 75 -11.765625 64.84375 -11.671875 
Q 64.359375 -8.546875 63.375 -4.15625 
Q 72.65625 -4.734375 78.515625 -4.734375 
Q 83.890625 -4.734375 83.890625 -0.046875 
L 83.890625 5.21875 
L 43.84375 5.21875 
z
M 30.078125 49.171875 
L 59.96875 49.171875 
L 59.96875 55.90625 
L 35.359375 55.90625 
L 35.359375 62.0625 
L 59.96875 62.0625 
L 59.96875 68.609375 
L 32.625 68.609375 
L 32.625 74.75 
L 59.96875 74.75 
L 59.96875 83.546875 
L 67.390625 83.546875 
L 67.390625 74.75 
L 96.6875 74.75 
L 96.6875 68.609375 
L 67.390625 68.609375 
L 67.390625 62.0625 
L 93.953125 62.0625 
L 93.953125 55.90625 
L 67.390625 55.90625 
L 67.390625 49.171875 
L 98.734375 49.171875 
L 98.734375 43.015625 
L 30.078125 43.015625 
z
M 14.546875 82.671875 
L 21.484375 82.671875 
L 21.484375 62.796875 
L 25.203125 65.484375 
Q 30.171875 59.625 34.078125 54.640625 
L 28.609375 50.640625 
Q 25.59375 55.078125 21.484375 60.453125 
L 21.484375 -12.75 
L 14.546875 -12.75 
z
M 83.890625 30.8125 
L 43.84375 30.8125 
L 43.84375 24.078125 
L 83.890625 24.078125 
z
M 43.84375 11.28125 
L 83.890625 11.28125 
L 83.890625 18.015625 
L 43.84375 18.015625 
z
M 4.984375 60.40625 
L 11.234375 59.625 
Q 10.15625 47.796875 7.71875 34.515625 
Q 5.46875 35.109375 1.375 35.890625 
Q 3.515625 45.453125 4.984375 60.40625 
z
" id="MicrosoftYaHei-24773"/>
       <path d="M 39.84375 31 
L 32.234375 31 
L 32.234375 78.078125 
L 90.046875 78.078125 
L 90.046875 31 
L 82.421875 31 
L 82.421875 35.296875 
L 73.046875 35.296875 
L 73.046875 1.125 
Q 73.046875 -3.765625 77.640625 -3.765625 
L 84.375 -3.765625 
Q 89.0625 -3.765625 89.65625 1.421875 
Q 90.328125 6 90.53125 13.53125 
Q 93.84375 12.15625 98.4375 10.59375 
Q 97.75 2.875 96.78125 -2.296875 
Q 95.40625 -10.796875 86.03125 -10.796875 
L 76.375 -10.796875 
Q 65.4375 -10.796875 65.4375 -0.140625 
L 65.4375 35.296875 
L 55.328125 35.296875 
Q 54.984375 16.703125 49.421875 7.078125 
Q 43.359375 -3.953125 25.984375 -13.53125 
Q 23.828125 -10.203125 21.09375 -6.890625 
Q 37.109375 1.90625 42.578125 11.1875 
Q 47.46875 19 47.796875 35.296875 
L 39.84375 35.296875 
z
M 82.421875 71.046875 
L 39.84375 71.046875 
L 39.84375 42.328125 
L 82.421875 42.328125 
z
M 18.453125 37.75 
Q 22.65625 34.8125 25.984375 32.859375 
Q 17.78125 13.421875 9.1875 -7.765625 
L 1.375 -3.078125 
Q 10.640625 14.984375 18.453125 37.75 
z
M 8.296875 76.3125 
Q 17.28125 67.53125 26.078125 57.375 
L 19.34375 51.3125 
Q 11.328125 61.765625 2.546875 71.140625 
z
" id="MicrosoftYaHei-20917"/>
      </defs>
      <use xlink:href="#MicrosoftYaHei-24863"/>
      <use x="100" xlink:href="#MicrosoftYaHei-26579"/>
      <use x="200" xlink:href="#MicrosoftYaHei-24773"/>
      <use x="300" xlink:href="#MicrosoftYaHei-20917"/>
     </g>
    </g>
   </g>
   <g id="line2d_13">
    <path clip-path="url(#pa2dd14fb72)" d="M 57.6 53.568 
L 61.1712 53.796858 
L 64.7424 54.1056 
L 68.3136 54.334458 
L 71.8848 54.675586 
L 75.456 55.100916 
L 79.0272 55.578063 
L 82.5984 56.00987 
L 86.1696 56.471904 
L 89.7408 56.970641 
L 93.312 57.713349 
L 96.8832 58.557533 
L 100.4544 59.382284 
L 104.0256 60.28692 
L 107.5968 61.359961 
L 111.168 62.653224 
L 114.7392 64.233639 
L 118.3104 65.788145 
L 121.8816 67.560713 
L 125.4528 69.540549 
L 129.024 71.62186 
L 132.5952 73.953619 
L 136.1664 76.477533 
L 139.7376 79.23894 
L 143.3088 82.44079 
L 146.88 85.849908 
L 150.4512 89.490043 
L 154.0224 93.300742 
L 157.5936 97.284164 
L 161.1648 101.45974 
L 164.736 105.991557 
L 168.3072 111.095518 
L 171.8784 116.044029 
L 175.4496 120.765841 
L 179.0208 125.416405 
L 182.592 130.13174 
L 186.1632 135.062978 
L 189.7344 139.85388 
L 193.3056 145.089542 
L 196.8768 150.061802 
L 200.448 155.029745 
L 204.0192 159.358612 
L 207.5904 163.467258 
L 211.1616 167.444202 
L 214.7328 171.170699 
L 218.304 174.467547 
L 221.8752 177.447017 
L 225.4464 180.188993 
L 229.0176 182.598477 
L 232.5888 184.761831 
L 236.16 186.577581 
L 239.7312 188.16879 
L 243.3024 189.518188 
L 246.8736 190.694863 
L 250.4448 191.681542 
L 254.016 192.486863 
L 257.5872 193.106506 
L 261.1584 193.691605 
L 264.7296 194.255113 
L 268.3008 194.656694 
L 271.872 194.997822 
L 275.4432 195.302246 
L 279.0144 195.595875 
L 282.5856 195.876549 
L 286.1568 196.085976 
L 289.728 196.284607 
L 293.2992 196.45733 
L 296.8704 196.61494 
L 300.4416 196.757436 
L 304.0128 196.863229 
L 307.584 196.962545 
L 311.1552 197.096405 
L 314.7264 197.228106 
L 318.2976 197.312308 
L 321.8688 197.359807 
L 325.44 197.435373 
L 329.0112 197.500145 
L 332.5824 197.571393 
L 336.1536 197.614573 
L 339.7248 197.651277 
L 343.296 197.681504 
L 346.8672 197.707412 
L 350.4384 197.73332 
L 354.0096 197.754911 
L 357.5808 197.765706 
L 361.152 197.770024 
L 364.7232 197.776501 
L 368.2944 197.780819 
L 371.8656 197.782978 
L 375.4368 197.782978 
L 379.008 197.787296 
L 382.5792 197.787296 
L 386.1504 197.787296 
L 389.7216 197.787296 
L 393.2928 197.787296 
L 396.864 197.787296 
L 400.4352 197.787296 
L 404.0064 197.787296 
L 407.5776 197.787296 
L 411.1488 197.787296 
" style="fill:none;stroke:#1f77b4;stroke-linecap:square;stroke-width:1.5;"/>
   </g>
   <g id="line2d_14">
    <path clip-path="url(#pa2dd14fb72)" d="M 57.6 53.568 
L 61.1712 53.796858 
L 64.7424 54.1056 
L 68.3136 54.334458 
L 71.8848 54.675586 
L 75.456 55.100916 
L 79.0272 55.578063 
L 82.5984 56.00987 
L 86.1696 56.471904 
L 89.7408 56.970641 
L 93.312 57.713349 
L 96.8832 58.557533 
L 100.4544 59.382284 
L 104.0256 60.28692 
L 107.5968 61.359961 
L 111.168 62.653224 
L 114.7392 64.233639 
L 118.3104 65.788145 
L 121.8816 67.560713 
L 125.4528 69.540549 
L 129.024 71.62186 
L 132.5952 73.953619 
L 136.1664 76.477533 
L 139.7376 79.23894 
L 143.3088 82.44079 
L 146.88 85.849908 
L 150.4512 89.490043 
L 154.0224 93.300742 
L 157.5936 97.284164 
L 161.1648 101.45974 
L 164.736 105.991557 
L 168.3072 111.095518 
L 171.8784 116.044029 
L 175.4496 120.765841 
L 179.0208 125.416405 
L 182.592 130.13174 
L 186.1632 135.062978 
L 189.7344 139.85388 
L 193.3056 145.089542 
L 196.8768 150.061802 
L 200.448 155.029745 
L 204.0192 159.358612 
L 207.5904 163.467258 
L 211.1616 167.444202 
L 214.7328 171.170699 
L 218.304 174.467547 
L 221.8752 177.447017 
L 225.4464 180.188993 
L 229.0176 182.598477 
L 232.5888 184.761831 
L 236.16 186.577581 
L 239.7312 188.16879 
L 243.3024 189.518188 
L 246.8736 190.694863 
L 250.4448 191.681542 
L 254.016 192.486863 
L 257.5872 193.106506 
L 261.1584 193.691605 
L 264.7296 194.255113 
L 268.3008 194.656694 
L 271.872 194.997822 
L 275.4432 195.302246 
L 279.0144 195.595875 
L 282.5856 195.876549 
L 286.1568 196.085976 
L 289.728 196.284607 
L 293.2992 196.45733 
L 296.8704 196.61494 
L 300.4416 196.757436 
L 304.0128 196.863229 
L 307.584 196.962545 
L 311.1552 197.096405 
L 314.7264 197.228106 
L 318.2976 197.312308 
L 321.8688 197.359807 
L 325.44 197.435373 
L 329.0112 197.500145 
L 332.5824 197.571393 
L 336.1536 197.614573 
L 339.7248 197.651277 
L 343.296 197.681504 
L 346.8672 197.707412 
L 350.4384 197.73332 
L 354.0096 197.754911 
L 357.5808 197.765706 
L 361.152 197.770024 
L 364.7232 197.776501 
L 368.2944 197.780819 
L 371.8656 197.782978 
L 375.4368 197.782978 
L 379.008 197.787296 
L 382.5792 197.787296 
L 386.1504 197.787296 
L 389.7216 197.787296 
L 393.2928 197.787296 
L 396.864 197.787296 
L 400.4352 197.787296 
L 404.0064 197.787296 
L 407.5776 197.787296 
L 411.1488 197.787296 
" style="fill:none;stroke:#000000;stroke-linecap:square;stroke-width:4;"/>
   </g>
   <g id="line2d_15">
    <path clip-path="url(#pa2dd14fb72)" d="M 57.6 295.380048 
L 61.1712 295.155508 
L 64.7424 294.866198 
L 68.3136 294.693475 
L 71.8848 294.419277 
L 75.456 294.110535 
L 79.0272 293.795316 
L 82.5984 293.598843 
L 86.1696 293.430439 
L 89.7408 293.285783 
L 93.312 292.856135 
L 96.8832 292.402737 
L 100.4544 292.057292 
L 104.0256 291.644916 
L 107.5968 291.178564 
L 111.168 290.520058 
L 114.7392 289.652125 
L 118.3104 288.950439 
L 121.8816 288.205571 
L 125.4528 287.287981 
L 129.024 286.435161 
L 132.5952 285.597455 
L 136.1664 284.716569 
L 139.7376 283.708299 
L 143.3088 282.393446 
L 146.88 281.100183 
L 150.4512 279.69681 
L 154.0224 278.394911 
L 157.5936 277.205282 
L 161.1648 276.032925 
L 164.736 274.869205 
L 168.3072 273.2672 
L 171.8784 272.071094 
L 175.4496 271.306795 
L 179.0208 270.756241 
L 182.592 270.255345 
L 186.1632 269.814901 
L 189.7344 269.581725 
L 193.3056 269.063557 
L 196.8768 268.845494 
L 200.448 268.722429 
L 204.0192 269.25787 
L 207.5904 270.097735 
L 211.1616 271.00453 
L 214.7328 272.060299 
L 218.304 273.524125 
L 221.8752 274.955566 
L 225.4464 276.40212 
L 229.0176 277.909128 
L 232.5888 279.452839 
L 236.16 281.031094 
L 239.7312 282.581282 
L 243.3024 284.137947 
L 246.8736 285.500299 
L 250.4448 286.79572 
L 254.016 287.976713 
L 257.5872 289.114525 
L 261.1584 290.092569 
L 264.7296 290.837436 
L 268.3008 291.495942 
L 271.872 292.111267 
L 275.4432 292.627277 
L 279.0144 293.052607 
L 282.5856 293.3376 
L 286.1568 293.667933 
L 289.728 293.870882 
L 293.2992 294.095422 
L 296.8704 294.263827 
L 300.4416 294.421436 
L 304.0128 294.585523 
L 307.584 294.678361 
L 311.1552 294.723701 
L 314.7264 294.74961 
L 318.2976 294.812222 
L 321.8688 294.930969 
L 325.44 294.997899 
L 329.0112 295.049716 
L 332.5824 295.06267 
L 336.1536 295.101533 
L 339.7248 295.153349 
L 343.296 295.198689 
L 346.8672 295.248347 
L 350.4384 295.278573 
L 354.0096 295.3088 
L 357.5808 295.345504 
L 361.152 295.382207 
L 364.7232 295.39732 
L 368.2944 295.423229 
L 371.8656 295.436183 
L 375.4368 295.451296 
L 379.008 295.457773 
L 382.5792 295.462092 
L 386.1504 295.470728 
L 389.7216 295.477205 
L 393.2928 295.479364 
L 396.864 295.483682 
L 400.4352 295.483682 
L 404.0064 295.485841 
L 407.5776 295.488 
L 411.1488 295.488 
" style="fill:none;stroke:#ff7f0e;stroke-linecap:square;stroke-width:1.5;"/>
   </g>
   <g id="line2d_16">
    <path clip-path="url(#pa2dd14fb72)" d="M 57.6 295.380048 
L 61.1712 295.155508 
L 64.7424 294.866198 
L 68.3136 294.693475 
L 71.8848 294.419277 
L 75.456 294.110535 
L 79.0272 293.795316 
L 82.5984 293.598843 
L 86.1696 293.430439 
L 89.7408 293.285783 
L 93.312 292.856135 
L 96.8832 292.402737 
L 100.4544 292.057292 
L 104.0256 291.644916 
L 107.5968 291.178564 
L 111.168 290.520058 
L 114.7392 289.652125 
L 118.3104 288.950439 
L 121.8816 288.205571 
L 125.4528 287.287981 
L 129.024 286.435161 
L 132.5952 285.597455 
L 136.1664 284.716569 
L 139.7376 283.708299 
L 143.3088 282.393446 
L 146.88 281.100183 
L 150.4512 279.69681 
L 154.0224 278.394911 
L 157.5936 277.205282 
L 161.1648 276.032925 
L 164.736 274.869205 
L 168.3072 273.2672 
L 171.8784 272.071094 
L 175.4496 271.306795 
L 179.0208 270.756241 
L 182.592 270.255345 
L 186.1632 269.814901 
L 189.7344 269.581725 
L 193.3056 269.063557 
L 196.8768 268.845494 
L 200.448 268.722429 
L 204.0192 269.25787 
L 207.5904 270.097735 
L 211.1616 271.00453 
L 214.7328 272.060299 
L 218.304 273.524125 
L 221.8752 274.955566 
L 225.4464 276.40212 
L 229.0176 277.909128 
L 232.5888 279.452839 
L 236.16 281.031094 
L 239.7312 282.581282 
L 243.3024 284.137947 
L 246.8736 285.500299 
L 250.4448 286.79572 
L 254.016 287.976713 
L 257.5872 289.114525 
L 261.1584 290.092569 
L 264.7296 290.837436 
L 268.3008 291.495942 
L 271.872 292.111267 
L 275.4432 292.627277 
L 279.0144 293.052607 
L 282.5856 293.3376 
L 286.1568 293.667933 
L 289.728 293.870882 
L 293.2992 294.095422 
L 296.8704 294.263827 
L 300.4416 294.421436 
L 304.0128 294.585523 
L 307.584 294.678361 
L 311.1552 294.723701 
L 314.7264 294.74961 
L 318.2976 294.812222 
L 321.8688 294.930969 
L 325.44 294.997899 
L 329.0112 295.049716 
L 332.5824 295.06267 
L 336.1536 295.101533 
L 339.7248 295.153349 
L 343.296 295.198689 
L 346.8672 295.248347 
L 350.4384 295.278573 
L 354.0096 295.3088 
L 357.5808 295.345504 
L 361.152 295.382207 
L 364.7232 295.39732 
L 368.2944 295.423229 
L 371.8656 295.436183 
L 375.4368 295.451296 
L 379.008 295.457773 
L 382.5792 295.462092 
L 386.1504 295.470728 
L 389.7216 295.477205 
L 393.2928 295.479364 
L 396.864 295.483682 
L 400.4352 295.483682 
L 404.0064 295.485841 
L 407.5776 295.488 
L 411.1488 295.488 
" style="fill:none;stroke:#0000ff;stroke-linecap:square;stroke-width:4;"/>
   </g>
   <g id="line2d_17">
    <path clip-path="url(#pa2dd14fb72)" d="M 57.6 295.488 
L 61.1712 295.483682 
L 64.7424 295.464251 
L 68.3136 295.408116 
L 71.8848 295.341186 
L 75.456 295.224598 
L 79.0272 295.06267 
L 82.5984 294.827335 
L 86.1696 294.555296 
L 89.7408 294.244395 
L 93.312 294.063036 
L 96.8832 293.885995 
L 100.4544 293.631229 
L 104.0256 293.417484 
L 107.5968 293.154082 
L 111.168 292.931701 
L 114.7392 292.635913 
L 118.3104 292.21706 
L 121.8816 291.651393 
L 125.4528 291.178564 
L 129.024 290.656077 
L 132.5952 289.919846 
L 136.1664 289.110207 
L 139.7376 288.291933 
L 143.3088 287.51252 
L 146.88 286.722313 
L 150.4512 285.914834 
L 154.0224 284.999402 
L 157.5936 283.99761 
L 161.1648 282.920251 
L 164.736 281.663692 
L 168.3072 280.463267 
L 171.8784 279.217504 
L 175.4496 278.101282 
L 179.0208 277.105966 
L 182.592 276.244511 
L 186.1632 275.316125 
L 189.7344 274.525918 
L 193.3056 273.772414 
L 196.8768 273.230496 
L 200.448 273.016752 
L 204.0192 272.936867 
L 207.5904 272.723123 
L 211.1616 272.533128 
L 214.7328 272.448925 
L 218.304 272.509378 
L 221.8752 272.9088 
L 225.4464 273.735711 
L 229.0176 274.817388 
L 232.5888 276.102014 
L 236.16 277.378005 
L 239.7312 278.634564 
L 243.3024 279.934304 
L 246.8736 281.378699 
L 250.4448 282.756164 
L 254.016 284.118516 
L 257.5872 285.424733 
L 261.1584 286.627316 
L 264.7296 287.801831 
L 268.3008 288.911576 
L 271.872 289.855075 
L 275.4432 290.679827 
L 279.0144 291.390149 
L 282.5856 292.052973 
L 286.1568 292.543075 
L 289.728 292.981359 
L 293.2992 293.296578 
L 296.8704 293.622593 
L 300.4416 293.85361 
L 304.0128 294.028492 
L 307.584 294.214169 
L 311.1552 294.378255 
L 314.7264 294.531547 
L 318.2976 294.650294 
L 321.8688 294.717224 
L 325.44 294.779836 
L 329.0112 294.844607 
L 332.5824 294.920173 
L 336.1536 294.974149 
L 339.7248 295.008694 
L 343.296 295.058352 
L 346.8672 295.112328 
L 350.4384 295.161986 
L 354.0096 295.190053 
L 357.5808 295.222439 
L 361.152 295.250506 
L 364.7232 295.302323 
L 368.2944 295.33039 
L 371.8656 295.360617 
L 375.4368 295.386525 
L 379.008 295.405957 
L 382.5792 295.431865 
L 386.1504 295.449137 
L 389.7216 295.462092 
L 393.2928 295.472887 
L 396.864 295.477205 
L 400.4352 295.481523 
L 404.0064 295.481523 
L 407.5776 295.483682 
L 411.1488 295.485841 
" style="fill:none;stroke:#2ca02c;stroke-linecap:square;stroke-width:1.5;"/>
   </g>
   <g id="line2d_18">
    <path clip-path="url(#pa2dd14fb72)" d="M 57.6 295.488 
L 61.1712 295.483682 
L 64.7424 295.464251 
L 68.3136 295.408116 
L 71.8848 295.341186 
L 75.456 295.224598 
L 79.0272 295.06267 
L 82.5984 294.827335 
L 86.1696 294.555296 
L 89.7408 294.244395 
L 93.312 294.063036 
L 96.8832 293.885995 
L 100.4544 293.631229 
L 104.0256 293.417484 
L 107.5968 293.154082 
L 111.168 292.931701 
L 114.7392 292.635913 
L 118.3104 292.21706 
L 121.8816 291.651393 
L 125.4528 291.178564 
L 129.024 290.656077 
L 132.5952 289.919846 
L 136.1664 289.110207 
L 139.7376 288.291933 
L 143.3088 287.51252 
L 146.88 286.722313 
L 150.4512 285.914834 
L 154.0224 284.999402 
L 157.5936 283.99761 
L 161.1648 282.920251 
L 164.736 281.663692 
L 168.3072 280.463267 
L 171.8784 279.217504 
L 175.4496 278.101282 
L 179.0208 277.105966 
L 182.592 276.244511 
L 186.1632 275.316125 
L 189.7344 274.525918 
L 193.3056 273.772414 
L 196.8768 273.230496 
L 200.448 273.016752 
L 204.0192 272.936867 
L 207.5904 272.723123 
L 211.1616 272.533128 
L 214.7328 272.448925 
L 218.304 272.509378 
L 221.8752 272.9088 
L 225.4464 273.735711 
L 229.0176 274.817388 
L 232.5888 276.102014 
L 236.16 277.378005 
L 239.7312 278.634564 
L 243.3024 279.934304 
L 246.8736 281.378699 
L 250.4448 282.756164 
L 254.016 284.118516 
L 257.5872 285.424733 
L 261.1584 286.627316 
L 264.7296 287.801831 
L 268.3008 288.911576 
L 271.872 289.855075 
L 275.4432 290.679827 
L 279.0144 291.390149 
L 282.5856 292.052973 
L 286.1568 292.543075 
L 289.728 292.981359 
L 293.2992 293.296578 
L 296.8704 293.622593 
L 300.4416 293.85361 
L 304.0128 294.028492 
L 307.584 294.214169 
L 311.1552 294.378255 
L 314.7264 294.531547 
L 318.2976 294.650294 
L 321.8688 294.717224 
L 325.44 294.779836 
L 329.0112 294.844607 
L 332.5824 294.920173 
L 336.1536 294.974149 
L 339.7248 295.008694 
L 343.296 295.058352 
L 346.8672 295.112328 
L 350.4384 295.161986 
L 354.0096 295.190053 
L 357.5808 295.222439 
L 361.152 295.250506 
L 364.7232 295.302323 
L 368.2944 295.33039 
L 371.8656 295.360617 
L 375.4368 295.386525 
L 379.008 295.405957 
L 382.5792 295.431865 
L 386.1504 295.449137 
L 389.7216 295.462092 
L 393.2928 295.472887 
L 396.864 295.477205 
L 400.4352 295.481523 
L 404.0064 295.481523 
L 407.5776 295.483682 
L 411.1488 295.485841 
" style="fill:none;stroke:#ff0000;stroke-linecap:square;stroke-width:4;"/>
   </g>
   <g id="line2d_19">
    <path clip-path="url(#pa2dd14fb72)" d="M 57.6 295.488 
L 61.1712 295.488 
L 64.7424 295.488 
L 68.3136 295.488 
L 71.8848 295.488 
L 75.456 295.488 
L 79.0272 295.488 
L 82.5984 295.488 
L 86.1696 295.46641 
L 89.7408 295.423229 
L 93.312 295.291528 
L 96.8832 295.077783 
L 100.4544 294.853243 
L 104.0256 294.574728 
L 107.5968 294.231441 
L 111.168 293.819065 
L 114.7392 293.402371 
L 118.3104 292.968405 
L 121.8816 292.510689 
L 125.4528 291.934227 
L 129.024 291.260607 
L 132.5952 290.569716 
L 136.1664 289.885301 
L 139.7376 289.110207 
L 143.3088 288.194776 
L 146.88 287.141166 
L 150.4512 286.040058 
L 154.0224 284.835316 
L 157.5936 283.412511 
L 161.1648 281.907663 
L 164.736 280.281908 
L 168.3072 278.550361 
L 171.8784 276.667682 
L 175.4496 274.573417 
L 179.0208 272.297793 
L 182.592 269.864559 
L 186.1632 267.379508 
L 189.7344 264.814573 
L 193.3056 262.225889 
L 196.8768 259.611296 
L 200.448 256.638304 
L 204.0192 253.710651 
L 207.5904 251.072308 
L 211.1616 248.643393 
L 214.7328 246.434699 
L 218.304 244.364183 
L 221.8752 242.570024 
L 225.4464 240.724048 
L 229.0176 239.17386 
L 232.5888 237.789918 
L 236.16 236.97812 
L 239.7312 236.714718 
L 243.3024 236.930622 
L 246.8736 237.373224 
L 250.4448 238.264906 
L 254.016 239.564646 
L 257.5872 241.265966 
L 261.1584 243.263075 
L 264.7296 245.668241 
L 268.3008 248.47067 
L 271.872 251.348665 
L 275.4432 254.511653 
L 279.0144 257.76532 
L 282.5856 260.872173 
L 286.1568 264.214361 
L 289.728 267.42053 
L 293.2992 270.423749 
L 296.8704 273.170043 
L 300.4416 275.870998 
L 304.0128 278.317186 
L 307.584 280.560424 
L 311.1552 282.626622 
L 314.7264 284.420781 
L 318.2976 285.986082 
L 321.8688 287.277186 
L 325.44 288.451701 
L 329.0112 289.380087 
L 332.5824 290.265292 
L 336.1536 290.997205 
L 339.7248 291.603894 
L 343.296 292.070246 
L 346.8672 292.48694 
L 350.4384 292.825908 
L 354.0096 293.141128 
L 357.5808 293.385099 
L 361.152 293.603161 
L 364.7232 293.797475 
L 368.2944 293.991788 
L 371.8656 294.147239 
L 375.4368 294.281099 
L 379.008 294.423595 
L 382.5792 294.542342 
L 386.1504 294.635181 
L 389.7216 294.728019 
L 393.2928 294.833812 
L 396.864 294.918014 
L 400.4352 295.006535 
L 404.0064 295.086419 
L 407.5776 295.15119 
L 411.1488 295.211643 
" style="fill:none;stroke:#d62728;stroke-linecap:square;stroke-width:1.5;"/>
   </g>
   <g id="line2d_20">
    <path clip-path="url(#pa2dd14fb72)" d="M 57.6 295.488 
L 61.1712 295.488 
L 64.7424 295.488 
L 68.3136 295.488 
L 71.8848 295.488 
L 75.456 295.488 
L 79.0272 295.488 
L 82.5984 295.488 
L 86.1696 295.46641 
L 89.7408 295.423229 
L 93.312 295.291528 
L 96.8832 295.077783 
L 100.4544 294.853243 
L 104.0256 294.574728 
L 107.5968 294.231441 
L 111.168 293.819065 
L 114.7392 293.402371 
L 118.3104 292.968405 
L 121.8816 292.510689 
L 125.4528 291.934227 
L 129.024 291.260607 
L 132.5952 290.569716 
L 136.1664 289.885301 
L 139.7376 289.110207 
L 143.3088 288.194776 
L 146.88 287.141166 
L 150.4512 286.040058 
L 154.0224 284.835316 
L 157.5936 283.412511 
L 161.1648 281.907663 
L 164.736 280.281908 
L 168.3072 278.550361 
L 171.8784 276.667682 
L 175.4496 274.573417 
L 179.0208 272.297793 
L 182.592 269.864559 
L 186.1632 267.379508 
L 189.7344 264.814573 
L 193.3056 262.225889 
L 196.8768 259.611296 
L 200.448 256.638304 
L 204.0192 253.710651 
L 207.5904 251.072308 
L 211.1616 248.643393 
L 214.7328 246.434699 
L 218.304 244.364183 
L 221.8752 242.570024 
L 225.4464 240.724048 
L 229.0176 239.17386 
L 232.5888 237.789918 
L 236.16 236.97812 
L 239.7312 236.714718 
L 243.3024 236.930622 
L 246.8736 237.373224 
L 250.4448 238.264906 
L 254.016 239.564646 
L 257.5872 241.265966 
L 261.1584 243.263075 
L 264.7296 245.668241 
L 268.3008 248.47067 
L 271.872 251.348665 
L 275.4432 254.511653 
L 279.0144 257.76532 
L 282.5856 260.872173 
L 286.1568 264.214361 
L 289.728 267.42053 
L 293.2992 270.423749 
L 296.8704 273.170043 
L 300.4416 275.870998 
L 304.0128 278.317186 
L 307.584 280.560424 
L 311.1552 282.626622 
L 314.7264 284.420781 
L 318.2976 285.986082 
L 321.8688 287.277186 
L 325.44 288.451701 
L 329.0112 289.380087 
L 332.5824 290.265292 
L 336.1536 290.997205 
L 339.7248 291.603894 
L 343.296 292.070246 
L 346.8672 292.48694 
L 350.4384 292.825908 
L 354.0096 293.141128 
L 357.5808 293.385099 
L 361.152 293.603161 
L 364.7232 293.797475 
L 368.2944 293.991788 
L 371.8656 294.147239 
L 375.4368 294.281099 
L 379.008 294.423595 
L 382.5792 294.542342 
L 386.1504 294.635181 
L 389.7216 294.728019 
L 393.2928 294.833812 
L 396.864 294.918014 
L 400.4352 295.006535 
L 404.0064 295.086419 
L 407.5776 295.15119 
L 411.1488 295.211643 
" style="fill:none;stroke:#800080;stroke-linecap:square;stroke-width:4;"/>
   </g>
   <g id="line2d_21">
    <path clip-path="url(#pa2dd14fb72)" d="M 57.6 295.380048 
L 61.1712 295.15119 
L 64.7424 294.842448 
L 68.3136 294.61359 
L 71.8848 294.272463 
L 75.456 293.847133 
L 79.0272 293.369986 
L 82.5984 292.938178 
L 86.1696 292.476145 
L 89.7408 291.977407 
L 93.312 291.234699 
L 96.8832 290.390516 
L 100.4544 289.565764 
L 104.0256 288.661128 
L 107.5968 287.588087 
L 111.168 286.294824 
L 114.7392 284.71441 
L 118.3104 283.159904 
L 121.8816 281.387335 
L 125.4528 279.407499 
L 129.024 277.326188 
L 132.5952 274.994429 
L 136.1664 272.470516 
L 139.7376 269.709108 
L 143.3088 266.507258 
L 146.88 263.09814 
L 150.4512 259.458005 
L 154.0224 255.647306 
L 157.5936 251.663884 
L 161.1648 247.488308 
L 164.736 242.956492 
L 168.3072 237.85253 
L 171.8784 232.904019 
L 175.4496 228.182207 
L 179.0208 223.531643 
L 182.592 218.816308 
L 186.1632 213.88507 
L 189.7344 209.094169 
L 193.3056 203.858506 
L 196.8768 198.886246 
L 200.448 193.918304 
L 204.0192 189.589436 
L 207.5904 185.48079 
L 211.1616 181.503846 
L 214.7328 177.777349 
L 218.304 174.480501 
L 221.8752 171.501031 
L 225.4464 168.759055 
L 229.0176 166.349571 
L 232.5888 164.186217 
L 236.16 162.370467 
L 239.7312 160.779258 
L 243.3024 159.42986 
L 246.8736 158.253186 
L 250.4448 157.266506 
L 254.016 156.461186 
L 257.5872 155.841542 
L 261.1584 155.256443 
L 264.7296 154.692935 
L 268.3008 154.291354 
L 271.872 153.950227 
L 275.4432 153.645802 
L 279.0144 153.352173 
L 282.5856 153.071499 
L 286.1568 152.862072 
L 289.728 152.663441 
L 293.2992 152.490718 
L 296.8704 152.333108 
L 300.4416 152.190612 
L 304.0128 152.084819 
L 307.584 151.985504 
L 311.1552 151.851643 
L 314.7264 151.719942 
L 318.2976 151.63574 
L 321.8688 151.588241 
L 325.44 151.512675 
L 329.0112 151.447904 
L 332.5824 151.376655 
L 336.1536 151.333475 
L 339.7248 151.296771 
L 343.296 151.266545 
L 346.8672 151.240636 
L 350.4384 151.214728 
L 354.0096 151.193137 
L 357.5808 151.182342 
L 361.152 151.178024 
L 364.7232 151.171547 
L 368.2944 151.167229 
L 371.8656 151.16507 
L 375.4368 151.16507 
L 379.008 151.160752 
L 382.5792 151.160752 
L 386.1504 151.160752 
L 389.7216 151.160752 
L 393.2928 151.160752 
L 396.864 151.160752 
L 400.4352 151.160752 
L 404.0064 151.160752 
L 407.5776 151.160752 
L 411.1488 151.160752 
" style="fill:none;stroke:#9467bd;stroke-linecap:square;stroke-width:1.5;"/>
   </g>
   <g id="line2d_22">
    <path clip-path="url(#pa2dd14fb72)" d="M 57.6 295.380048 
L 61.1712 295.15119 
L 64.7424 294.842448 
L 68.3136 294.61359 
L 71.8848 294.272463 
L 75.456 293.847133 
L 79.0272 293.369986 
L 82.5984 292.938178 
L 86.1696 292.476145 
L 89.7408 291.977407 
L 93.312 291.234699 
L 96.8832 290.390516 
L 100.4544 289.565764 
L 104.0256 288.661128 
L 107.5968 287.588087 
L 111.168 286.294824 
L 114.7392 284.71441 
L 118.3104 283.159904 
L 121.8816 281.387335 
L 125.4528 279.407499 
L 129.024 277.326188 
L 132.5952 274.994429 
L 136.1664 272.470516 
L 139.7376 269.709108 
L 143.3088 266.507258 
L 146.88 263.09814 
L 150.4512 259.458005 
L 154.0224 255.647306 
L 157.5936 251.663884 
L 161.1648 247.488308 
L 164.736 242.956492 
L 168.3072 237.85253 
L 171.8784 232.904019 
L 175.4496 228.182207 
L 179.0208 223.531643 
L 182.592 218.816308 
L 186.1632 213.88507 
L 189.7344 209.094169 
L 193.3056 203.858506 
L 196.8768 198.886246 
L 200.448 193.918304 
L 204.0192 189.589436 
L 207.5904 185.48079 
L 211.1616 181.503846 
L 214.7328 177.777349 
L 218.304 174.480501 
L 221.8752 171.501031 
L 225.4464 168.759055 
L 229.0176 166.349571 
L 232.5888 164.186217 
L 236.16 162.370467 
L 239.7312 160.779258 
L 243.3024 159.42986 
L 246.8736 158.253186 
L 250.4448 157.266506 
L 254.016 156.461186 
L 257.5872 155.841542 
L 261.1584 155.256443 
L 264.7296 154.692935 
L 268.3008 154.291354 
L 271.872 153.950227 
L 275.4432 153.645802 
L 279.0144 153.352173 
L 282.5856 153.071499 
L 286.1568 152.862072 
L 289.728 152.663441 
L 293.2992 152.490718 
L 296.8704 152.333108 
L 300.4416 152.190612 
L 304.0128 152.084819 
L 307.584 151.985504 
L 311.1552 151.851643 
L 314.7264 151.719942 
L 318.2976 151.63574 
L 321.8688 151.588241 
L 325.44 151.512675 
L 329.0112 151.447904 
L 332.5824 151.376655 
L 336.1536 151.333475 
L 339.7248 151.296771 
L 343.296 151.266545 
L 346.8672 151.240636 
L 350.4384 151.214728 
L 354.0096 151.193137 
L 357.5808 151.182342 
L 361.152 151.178024 
L 364.7232 151.171547 
L 368.2944 151.167229 
L 371.8656 151.16507 
L 375.4368 151.16507 
L 379.008 151.160752 
L 382.5792 151.160752 
L 386.1504 151.160752 
L 389.7216 151.160752 
L 393.2928 151.160752 
L 396.864 151.160752 
L 400.4352 151.160752 
L 404.0064 151.160752 
L 407.5776 151.160752 
L 411.1488 151.160752 
" style="fill:none;stroke:#ff0000;stroke-dasharray:32,8,5,8;stroke-dashoffset:0;stroke-width:5;"/>
   </g>
   <g id="line2d_23">
    <path clip-path="url(#pa2dd14fb72)" d="M 57.6 295.488 
L 61.1712 295.488 
L 64.7424 295.488 
L 68.3136 295.488 
L 71.8848 295.488 
L 75.456 295.488 
L 79.0272 295.488 
L 82.5984 295.488 
L 86.1696 295.488 
L 89.7408 295.488 
L 93.312 295.488 
L 96.8832 295.488 
L 100.4544 295.488 
L 104.0256 295.488 
L 107.5968 295.488 
L 111.168 295.488 
L 114.7392 295.488 
L 118.3104 295.488 
L 121.8816 295.483682 
L 125.4528 295.470728 
L 129.024 295.440501 
L 132.5952 295.37573 
L 136.1664 295.233234 
L 139.7376 295.086419 
L 143.3088 294.90506 
L 146.88 294.641658 
L 150.4512 294.332916 
L 154.0224 293.974516 
L 157.5936 293.635547 
L 161.1648 293.236125 
L 164.736 292.782728 
L 168.3072 292.230014 
L 171.8784 291.621166 
L 175.4496 290.906525 
L 179.0208 290.118477 
L 182.592 289.235431 
L 186.1632 288.214207 
L 189.7344 287.082872 
L 193.3056 285.783133 
L 196.8768 284.263171 
L 200.448 282.702188 
L 204.0192 280.946892 
L 207.5904 278.949783 
L 211.1616 276.78427 
L 214.7328 274.38774 
L 218.304 271.777465 
L 221.8752 268.934014 
L 225.4464 265.917841 
L 229.0176 262.631788 
L 232.5888 259.19892 
L 236.16 255.513446 
L 239.7312 251.601272 
L 243.3024 247.367402 
L 246.8736 243.124896 
L 250.4448 238.785234 
L 254.016 234.391595 
L 257.5872 229.87921 
L 261.1584 225.403528 
L 264.7296 220.776713 
L 268.3008 216.022516 
L 271.872 211.48854 
L 275.4432 206.928655 
L 279.0144 202.491836 
L 282.5856 198.352964 
L 286.1568 194.211933 
L 289.728 190.355894 
L 293.2992 186.834506 
L 296.8704 183.613224 
L 300.4416 180.543075 
L 304.0128 177.79894 
L 307.584 175.294458 
L 311.1552 173.014516 
L 314.7264 171.006612 
L 318.2976 169.268588 
L 321.8688 167.834988 
L 325.44 166.524453 
L 329.0112 165.473002 
L 332.5824 164.488482 
L 336.1536 163.661571 
L 339.7248 162.964202 
L 343.296 162.398535 
L 346.8672 161.891161 
L 350.4384 161.472308 
L 354.0096 161.098795 
L 357.5808 160.790053 
L 361.152 160.509378 
L 364.7232 160.252453 
L 368.2944 160.006323 
L 371.8656 159.814169 
L 375.4368 159.645764 
L 379.008 159.483836 
L 382.5792 159.34134 
L 386.1504 159.22907 
L 389.7216 159.121118 
L 393.2928 159.00453 
L 396.864 158.91601 
L 400.4352 158.829648 
L 404.0064 158.756241 
L 407.5776 158.689311 
L 411.1488 158.635335 
" style="fill:none;stroke:#8c564b;stroke-linecap:square;stroke-width:1.5;"/>
   </g>
   <g id="line2d_24">
    <path clip-path="url(#pa2dd14fb72)" d="M 57.6 295.488 
L 61.1712 295.488 
L 64.7424 295.488 
L 68.3136 295.488 
L 71.8848 295.488 
L 75.456 295.488 
L 79.0272 295.488 
L 82.5984 295.488 
L 86.1696 295.488 
L 89.7408 295.488 
L 93.312 295.488 
L 96.8832 295.488 
L 100.4544 295.488 
L 104.0256 295.488 
L 107.5968 295.488 
L 111.168 295.488 
L 114.7392 295.488 
L 118.3104 295.488 
L 121.8816 295.483682 
L 125.4528 295.470728 
L 129.024 295.440501 
L 132.5952 295.37573 
L 136.1664 295.233234 
L 139.7376 295.086419 
L 143.3088 294.90506 
L 146.88 294.641658 
L 150.4512 294.332916 
L 154.0224 293.974516 
L 157.5936 293.635547 
L 161.1648 293.236125 
L 164.736 292.782728 
L 168.3072 292.230014 
L 171.8784 291.621166 
L 175.4496 290.906525 
L 179.0208 290.118477 
L 182.592 289.235431 
L 186.1632 288.214207 
L 189.7344 287.082872 
L 193.3056 285.783133 
L 196.8768 284.263171 
L 200.448 282.702188 
L 204.0192 280.946892 
L 207.5904 278.949783 
L 211.1616 276.78427 
L 214.7328 274.38774 
L 218.304 271.777465 
L 221.8752 268.934014 
L 225.4464 265.917841 
L 229.0176 262.631788 
L 232.5888 259.19892 
L 236.16 255.513446 
L 239.7312 251.601272 
L 243.3024 247.367402 
L 246.8736 243.124896 
L 250.4448 238.785234 
L 254.016 234.391595 
L 257.5872 229.87921 
L 261.1584 225.403528 
L 264.7296 220.776713 
L 268.3008 216.022516 
L 271.872 211.48854 
L 275.4432 206.928655 
L 279.0144 202.491836 
L 282.5856 198.352964 
L 286.1568 194.211933 
L 289.728 190.355894 
L 293.2992 186.834506 
L 296.8704 183.613224 
L 300.4416 180.543075 
L 304.0128 177.79894 
L 307.584 175.294458 
L 311.1552 173.014516 
L 314.7264 171.006612 
L 318.2976 169.268588 
L 321.8688 167.834988 
L 325.44 166.524453 
L 329.0112 165.473002 
L 332.5824 164.488482 
L 336.1536 163.661571 
L 339.7248 162.964202 
L 343.296 162.398535 
L 346.8672 161.891161 
L 350.4384 161.472308 
L 354.0096 161.098795 
L 357.5808 160.790053 
L 361.152 160.509378 
L 364.7232 160.252453 
L 368.2944 160.006323 
L 371.8656 159.814169 
L 375.4368 159.645764 
L 379.008 159.483836 
L 382.5792 159.34134 
L 386.1504 159.22907 
L 389.7216 159.121118 
L 393.2928 159.00453 
L 396.864 158.91601 
L 400.4352 158.829648 
L 404.0064 158.756241 
L 407.5776 158.689311 
L 411.1488 158.635335 
" style="fill:none;stroke:#008000;stroke-linecap:square;stroke-width:4;"/>
   </g>
   <g id="line2d_25">
    <path clip-path="url(#pa2dd14fb72)" d="M 57.6 295.488 
L 61.1712 295.488 
L 64.7424 295.488 
L 68.3136 295.488 
L 71.8848 295.488 
L 75.456 295.488 
L 79.0272 295.488 
L 82.5984 295.488 
L 86.1696 295.488 
L 89.7408 295.488 
L 93.312 295.488 
L 96.8832 295.488 
L 100.4544 295.488 
L 104.0256 295.488 
L 107.5968 295.488 
L 111.168 295.488 
L 114.7392 295.488 
L 118.3104 295.488 
L 121.8816 295.488 
L 125.4528 295.488 
L 129.024 295.485841 
L 132.5952 295.483682 
L 136.1664 295.477205 
L 139.7376 295.464251 
L 143.3088 295.453455 
L 146.88 295.444819 
L 150.4512 295.425388 
L 154.0224 295.395161 
L 157.5936 295.364935 
L 161.1648 295.343345 
L 164.736 295.310959 
L 168.3072 295.293687 
L 171.8784 295.278573 
L 175.4496 295.246188 
L 179.0208 295.205166 
L 182.592 295.168463 
L 186.1632 295.112328 
L 189.7344 295.04108 
L 193.3056 294.965513 
L 196.8768 294.887788 
L 200.448 294.790631 
L 204.0192 294.689157 
L 207.5904 294.589841 
L 211.1616 294.490525 
L 214.7328 294.397687 
L 218.304 294.257349 
L 221.8752 294.084627 
L 225.4464 293.931335 
L 229.0176 293.769407 
L 232.5888 293.594525 
L 236.16 293.421802 
L 239.7312 293.199422 
L 243.3024 293.011586 
L 246.8736 292.828067 
L 250.4448 292.616482 
L 254.016 292.361716 
L 257.5872 292.109108 
L 261.1584 291.821957 
L 264.7296 291.560713 
L 268.3008 291.342651 
L 271.872 291.09868 
L 275.4432 290.85039 
L 279.0144 290.60426 
L 282.5856 290.407788 
L 286.1568 290.176771 
L 289.728 289.986776 
L 293.2992 289.792463 
L 296.8704 289.615422 
L 300.4416 289.453494 
L 304.0128 289.30668 
L 307.584 289.190092 
L 311.1552 289.060549 
L 314.7264 288.963393 
L 318.2976 288.870554 
L 321.8688 288.779875 
L 325.44 288.710786 
L 329.0112 288.652492 
L 332.5824 288.592039 
L 336.1536 288.551017 
L 339.7248 288.518631 
L 343.296 288.492723 
L 346.8672 288.45386 
L 350.4384 288.427952 
L 354.0096 288.406361 
L 357.5808 288.391248 
L 361.152 288.384771 
L 364.7232 288.373976 
L 368.2944 288.367499 
L 371.8656 288.358863 
L 375.4368 288.352386 
L 379.008 288.34159 
L 382.5792 288.335113 
L 386.1504 288.328636 
L 389.7216 288.324318 
L 393.2928 288.322159 
L 396.864 288.317841 
L 400.4352 288.311364 
L 404.0064 288.302728 
L 407.5776 288.300569 
L 411.1488 288.291933 
" style="fill:none;stroke:#e377c2;stroke-linecap:square;stroke-width:1.5;"/>
   </g>
   <g id="line2d_26">
    <path clip-path="url(#pa2dd14fb72)" d="M 57.6 295.488 
L 61.1712 295.488 
L 64.7424 295.488 
L 68.3136 295.488 
L 71.8848 295.488 
L 75.456 295.488 
L 79.0272 295.488 
L 82.5984 295.488 
L 86.1696 295.488 
L 89.7408 295.488 
L 93.312 295.488 
L 96.8832 295.488 
L 100.4544 295.488 
L 104.0256 295.488 
L 107.5968 295.488 
L 111.168 295.488 
L 114.7392 295.488 
L 118.3104 295.488 
L 121.8816 295.488 
L 125.4528 295.488 
L 129.024 295.485841 
L 132.5952 295.483682 
L 136.1664 295.477205 
L 139.7376 295.464251 
L 143.3088 295.453455 
L 146.88 295.444819 
L 150.4512 295.425388 
L 154.0224 295.395161 
L 157.5936 295.364935 
L 161.1648 295.343345 
L 164.736 295.310959 
L 168.3072 295.293687 
L 171.8784 295.278573 
L 175.4496 295.246188 
L 179.0208 295.205166 
L 182.592 295.168463 
L 186.1632 295.112328 
L 189.7344 295.04108 
L 193.3056 294.965513 
L 196.8768 294.887788 
L 200.448 294.790631 
L 204.0192 294.689157 
L 207.5904 294.589841 
L 211.1616 294.490525 
L 214.7328 294.397687 
L 218.304 294.257349 
L 221.8752 294.084627 
L 225.4464 293.931335 
L 229.0176 293.769407 
L 232.5888 293.594525 
L 236.16 293.421802 
L 239.7312 293.199422 
L 243.3024 293.011586 
L 246.8736 292.828067 
L 250.4448 292.616482 
L 254.016 292.361716 
L 257.5872 292.109108 
L 261.1584 291.821957 
L 264.7296 291.560713 
L 268.3008 291.342651 
L 271.872 291.09868 
L 275.4432 290.85039 
L 279.0144 290.60426 
L 282.5856 290.407788 
L 286.1568 290.176771 
L 289.728 289.986776 
L 293.2992 289.792463 
L 296.8704 289.615422 
L 300.4416 289.453494 
L 304.0128 289.30668 
L 307.584 289.190092 
L 311.1552 289.060549 
L 314.7264 288.963393 
L 318.2976 288.870554 
L 321.8688 288.779875 
L 325.44 288.710786 
L 329.0112 288.652492 
L 332.5824 288.592039 
L 336.1536 288.551017 
L 339.7248 288.518631 
L 343.296 288.492723 
L 346.8672 288.45386 
L 350.4384 288.427952 
L 354.0096 288.406361 
L 357.5808 288.391248 
L 361.152 288.384771 
L 364.7232 288.373976 
L 368.2944 288.367499 
L 371.8656 288.358863 
L 375.4368 288.352386 
L 379.008 288.34159 
L 382.5792 288.335113 
L 386.1504 288.328636 
L 389.7216 288.324318 
L 393.2928 288.322159 
L 396.864 288.317841 
L 400.4352 288.311364 
L 404.0064 288.302728 
L 407.5776 288.300569 
L 411.1488 288.291933 
" style="fill:none;stroke:#808080;stroke-linecap:square;stroke-width:4;"/>
   </g>
   <g id="patch_3">
    <path d="M 57.6 307.584 
L 57.6 41.472 
" style="fill:none;stroke:#000000;stroke-linecap:square;stroke-linejoin:miter;stroke-width:0.8;"/>
   </g>
   <g id="patch_4">
    <path d="M 414.72 307.584 
L 414.72 41.472 
" style="fill:none;stroke:#000000;stroke-linecap:square;stroke-linejoin:miter;stroke-width:0.8;"/>
   </g>
   <g id="patch_5">
    <path d="M 57.6 307.584 
L 414.72 307.584 
" style="fill:none;stroke:#000000;stroke-linecap:square;stroke-linejoin:miter;stroke-width:0.8;"/>
   </g>
   <g id="patch_6">
    <path d="M 57.6 41.472 
L 414.72 41.472 
" style="fill:none;stroke:#000000;stroke-linecap:square;stroke-linejoin:miter;stroke-width:0.8;"/>
   </g>
   <g id="text_15">
    <!-- 模型运行1次的感染情况 -->
    <g transform="translate(172.641562 35.472)scale(0.12 -0.12)">
     <defs>
      <path d="M 32.03125 15.375 
L 60.296875 15.375 
Q 60.9375 18.953125 61.140625 24.171875 
L 46.09375 24.171875 
L 46.09375 21.4375 
L 39.0625 21.4375 
L 39.0625 56.78125 
L 91.3125 56.78125 
L 91.3125 21.4375 
L 84.28125 21.4375 
L 84.28125 24.171875 
L 67.875 24.171875 
Q 67.578125 18.796875 67 15.375 
L 97.65625 15.375 
L 97.65625 9.125 
L 70.703125 9.125 
Q 81.296875 -2.734375 98.734375 -5.328125 
Q 96 -8.9375 93.953125 -12.640625 
Q 75.046875 -7.125 64.5 7.28125 
Q 57.515625 -6.734375 32.421875 -13.234375 
Q 30.765625 -9.8125 28.609375 -6.5 
Q 51.609375 -1.65625 58.015625 9.125 
L 32.03125 9.125 
z
M 0.984375 22.015625 
Q 9.421875 36.1875 14.40625 54.828125 
L 2.15625 54.828125 
L 2.15625 61.28125 
L 15.71875 61.28125 
L 15.71875 82.953125 
L 22.5625 82.953125 
L 22.5625 61.28125 
L 35.25 61.28125 
L 35.25 54.828125 
L 22.5625 54.828125 
L 22.5625 41.9375 
L 26.375 45.0625 
Q 31.9375 39.109375 36.71875 33.0625 
L 31.34375 28.5625 
Q 26.859375 35.0625 22.5625 40.046875 
L 22.5625 -12.84375 
L 15.71875 -12.84375 
L 15.71875 40.328125 
Q 10.5 22.46875 4.296875 13.421875 
Q 2.9375 17.625 0.984375 22.015625 
z
M 73.640625 82.859375 
L 80.46875 82.859375 
L 80.46875 73.484375 
L 97.265625 73.484375 
L 97.265625 67.234375 
L 80.46875 67.234375 
L 80.46875 59.328125 
L 73.640625 59.328125 
L 73.640625 67.234375 
L 56.25 67.234375 
L 56.25 59.328125 
L 49.421875 59.328125 
L 49.421875 67.234375 
L 33.984375 67.234375 
L 33.984375 73.484375 
L 49.421875 73.484375 
L 49.421875 82.953125 
L 56.25 82.953125 
L 56.25 73.484375 
L 73.640625 73.484375 
z
M 84.28125 50.734375 
L 46.09375 50.734375 
L 46.09375 43.40625 
L 84.28125 43.40625 
z
M 46.09375 30.21875 
L 84.28125 30.21875 
L 84.28125 37.546875 
L 46.09375 37.546875 
z
" id="MicrosoftYaHei-27169"/>
      <path d="M 2.34375 54.734375 
L 17.1875 54.734375 
Q 17.28125 56.84375 17.28125 71.046875 
L 6.453125 71.046875 
L 6.453125 77.484375 
L 57.421875 77.484375 
L 57.421875 71.046875 
L 46.78125 71.046875 
L 46.78125 54.734375 
L 60.640625 54.734375 
L 60.640625 48.296875 
L 46.78125 48.296875 
L 46.78125 27.296875 
L 39.65625 27.296875 
L 39.65625 48.296875 
L 23.875 48.296875 
Q 22.65625 34.234375 9.96875 23.96875 
Q 7.421875 26.8125 4.59375 29.640625 
Q 15.828125 38.328125 16.65625 48.296875 
L 2.34375 48.296875 
z
M 2.15625 -1.609375 
L 45.90625 -1.609375 
L 45.90625 11.578125 
L 11.03125 11.578125 
L 11.03125 18.3125 
L 45.90625 18.3125 
L 45.90625 25.921875 
L 53.515625 25.921875 
L 53.515625 18.3125 
L 89.265625 18.3125 
L 89.265625 11.578125 
L 53.515625 11.578125 
L 53.515625 -1.609375 
L 97.75 -1.609375 
L 97.75 -8.34375 
L 2.15625 -8.34375 
z
M 91.5 81.390625 
L 91.5 36.46875 
Q 91.5 26.125 81.25 25.921875 
Q 75.390625 25.734375 67.671875 25.921875 
Q 67.28125 29.640625 66.5 33.640625 
Q 74.703125 33.15625 78.8125 33.15625 
Q 84.375 33.15625 84.375 39.3125 
L 84.375 81.390625 
z
M 24.3125 54.734375 
L 39.65625 54.734375 
L 39.65625 71.046875 
L 24.421875 71.046875 
Q 24.421875 59.234375 24.3125 54.734375 
z
M 64.65625 75.921875 
L 71.6875 75.921875 
L 71.6875 42.140625 
L 64.65625 42.140625 
z
" id="MicrosoftYaHei-22411"/>
      <path d="M 67.484375 34.328125 
L 73.640625 38.234375 
Q 84.671875 23.78125 93.171875 10.40625 
L 86.140625 5.609375 
Q 83.9375 9.328125 81.640625 13.03125 
Q 53.90625 11.28125 41.890625 9.71875 
Q 38.578125 9.234375 34.96875 8.0625 
L 31.34375 15.09375 
Q 35.15625 17.71875 37.703125 21.34375 
Q 44.34375 31.390625 50.78125 44.671875 
L 29.984375 44.671875 
L 29.984375 52.09375 
L 96.875 52.09375 
L 96.875 44.671875 
L 60.0625 44.671875 
Q 51.609375 29.15625 43.75 17.4375 
Q 58.59375 18.3125 77.484375 19.578125 
Q 72.65625 27.046875 67.484375 34.328125 
z
M 43.0625 -2.203125 
L 71.6875 -2.78125 
L 98.640625 -1.703125 
Q 96.96875 -5.71875 95.515625 -9.515625 
L 66.40625 -9.71875 
L 41.40625 -9.421875 
Q 25.875 -9.03125 18.0625 1.90625 
Q 12.015625 -3.265625 5.765625 -10.890625 
L 1.5625 -2.59375 
Q 1.8125 -2.296875 14.546875 8.546875 
L 14.546875 41.84375 
L 2.046875 41.84375 
L 2.046875 49.078125 
L 22.359375 49.078125 
L 22.359375 7.171875 
Q 29.734375 -1.953125 43.0625 -2.203125 
z
M 36.53125 77.296875 
L 91.21875 77.296875 
L 91.21875 69.875 
L 36.53125 69.875 
z
M 12.40625 82.46875 
Q 19.921875 73.390625 27.25 63.71875 
L 20.3125 59.03125 
Q 13.765625 68.796875 6.453125 78.171875 
z
" id="MicrosoftYaHei-36816"/>
      <path d="M 36.921875 46.53125 
L 98.734375 46.53125 
L 98.734375 39.203125 
L 79.78125 39.203125 
L 79.78125 1.03125 
Q 79.78125 -11.078125 67.578125 -11.078125 
Q 59.375 -11.078125 50.875 -10.984375 
Q 50.296875 -7.078125 49.421875 -2.203125 
Q 57.03125 -2.984375 64.75 -2.984375 
Q 71.484375 -2.984375 71.484375 3.65625 
L 71.484375 39.203125 
L 36.921875 39.203125 
z
M 1.5625 24.65625 
Q 16.703125 37.0625 29.109375 59.515625 
L 35.9375 55.328125 
Q 30.90625 46.625 25.296875 39.0625 
L 25.296875 -12.640625 
L 17.1875 -12.640625 
L 17.1875 29 
Q 11.328125 22.359375 4.984375 16.75 
Q 3.421875 20.84375 1.5625 24.65625 
z
M 42.578125 76.03125 
L 93.265625 76.03125 
L 93.265625 68.703125 
L 42.578125 68.703125 
z
M 2.046875 55.609375 
Q 17.578125 67.625 27.046875 83.546875 
L 34.078125 79.25 
Q 22.75 61.859375 5.953125 48.09375 
Q 4.203125 51.8125 2.046875 55.609375 
z
" id="MicrosoftYaHei-34892"/>
      <path d="M 64.359375 54.25 
Q 64.265625 49.359375 63.921875 44.625 
Q 70.453125 11.375 98.734375 -4.4375 
Q 94.734375 -8.734375 92.390625 -12.0625 
Q 67.875 5.171875 60.9375 30.375 
Q 54.546875 3.125 25.78125 -13.53125 
Q 23.828125 -10.5 20.40625 -6.59375 
Q 50.390625 9.234375 55.078125 37.9375 
Q 56.453125 44.96875 56.546875 54.25 
z
M 77.25 41.359375 
Q 81.640625 49.46875 85.15625 58.84375 
L 46.734375 58.84375 
Q 42.484375 49.125 37.3125 40.1875 
Q 33.796875 42.71875 30.28125 44.390625 
Q 41.703125 63.03125 46.875 82.953125 
L 54.78125 80.71875 
Q 52.4375 73.046875 49.609375 65.765625 
L 93.5625 65.765625 
L 93.5625 58.84375 
Q 89.546875 48 84.765625 38.53125 
Q 81.453125 40.1875 77.25 41.359375 
z
M 21.6875 40.96875 
Q 26.171875 37.546875 29.296875 35.6875 
Q 16.796875 13.421875 8.984375 -2.78125 
L 1.078125 2.390625 
Q 11.140625 17.625 21.6875 40.96875 
z
M 10.0625 76.8125 
Q 17.96875 68.890625 27.828125 57.375 
L 21.484375 51.515625 
Q 12.015625 64.015625 4.390625 71.734375 
z
" id="MicrosoftYaHei-27425"/>
      <path d="M 5.5625 66.9375 
L 15.4375 66.9375 
Q 19.046875 75.828125 21.390625 83.15625 
L 29.59375 80.8125 
Q 26.515625 73.34375 23.640625 66.9375 
L 43.171875 66.9375 
L 43.171875 -10.796875 
L 35.359375 -10.796875 
L 35.359375 -3.171875 
L 13.375 -3.171875 
L 13.375 -11.46875 
L 5.5625 -11.46875 
z
M 44.625 46.921875 
Q 53.8125 61.46875 60.15625 83.15625 
L 68.359375 81.109375 
Q 65.875 73.734375 63.28125 67.234375 
L 94.734375 67.234375 
Q 93.5625 17.046875 92.78125 4.046875 
Q 92.09375 -11.28125 76.65625 -11.28125 
Q 67.78125 -11.28125 58.59375 -10.6875 
Q 58.015625 -5.8125 57.03125 -2 
L 57.328125 -2 
Q 67.09375 -3.375 75.203125 -3.375 
Q 84.078125 -3.375 84.765625 6 
Q 85.84375 20.5625 86.328125 59.90625 
L 60.15625 59.90625 
Q 55.90625 50.484375 51.375 43.3125 
Q 48.734375 45.171875 44.625 46.921875 
z
M 13.375 4.15625 
L 35.359375 4.15625 
L 35.359375 28.859375 
L 13.375 28.859375 
z
M 35.359375 59.625 
L 13.375 59.625 
L 13.375 35.890625 
L 35.359375 35.890625 
z
M 53.21875 40.28125 
L 59.1875 44.671875 
Q 70.015625 31.890625 76.46875 22.515625 
L 69.234375 17.4375 
Q 62.3125 28.765625 53.21875 40.28125 
z
" id="MicrosoftYaHei-30340"/>
     </defs>
     <use xlink:href="#MicrosoftYaHei-27169"/>
     <use x="100" xlink:href="#MicrosoftYaHei-22411"/>
     <use x="200" xlink:href="#MicrosoftYaHei-36816"/>
     <use x="300" xlink:href="#MicrosoftYaHei-34892"/>
     <use x="400" xlink:href="#MicrosoftYaHei-49"/>
     <use x="458.642578" xlink:href="#MicrosoftYaHei-27425"/>
     <use x="558.642578" xlink:href="#MicrosoftYaHei-30340"/>
     <use x="658.642578" xlink:href="#MicrosoftYaHei-24863"/>
     <use x="758.642578" xlink:href="#MicrosoftYaHei-26579"/>
     <use x="858.642578" xlink:href="#MicrosoftYaHei-24773"/>
     <use x="958.642578" xlink:href="#MicrosoftYaHei-20917"/>
    </g>
   </g>
   <g id="legend_1">
    <g id="patch_7">
     <path d="M 64.6 230.206906 
L 156.6 230.206906 
Q 158.6 230.206906 158.6 228.206906 
L 158.6 120.849094 
Q 158.6 118.849094 156.6 118.849094 
L 64.6 118.849094 
Q 62.6 118.849094 62.6 120.849094 
L 62.6 228.206906 
Q 62.6 230.206906 64.6 230.206906 
z
" style="fill:#ffffff;opacity:0.8;stroke:#cccccc;stroke-linejoin:miter;"/>
    </g>
    <g id="line2d_27">
     <path d="M 66.6 127.342844 
L 86.6 127.342844 
" style="fill:none;stroke:#000000;stroke-linecap:square;stroke-width:4;"/>
    </g>
    <g id="line2d_28"/>
    <g id="text_16">
     <!-- 易感人数 -->
     <g transform="translate(94.6 130.842844)scale(0.1 -0.1)">
      <defs>
       <path d="M 14.359375 78.46875 
L 86.234375 78.46875 
L 86.234375 37.84375 
L 78.609375 37.84375 
L 78.609375 41.75 
L 14.359375 41.75 
z
M 1.765625 17.046875 
Q 17.390625 25.53125 28.21875 40.09375 
L 35.15625 37.453125 
Q 33.203125 34.8125 31.25 32.375 
L 91.890625 32.375 
Q 91.015625 13.921875 90.046875 3.859375 
Q 88.765625 -11.859375 74.21875 -11.96875 
Q 66.109375 -12.0625 57.328125 -11.96875 
Q 56.734375 -7.765625 55.859375 -3.65625 
Q 64.359375 -4.4375 72.265625 -4.4375 
Q 81.453125 -4.4375 82.421875 4.734375 
Q 83.5 13.53125 83.890625 25.53125 
L 68.84375 25.53125 
Q 62.890625 -0.140625 34.1875 -13.921875 
Q 31.640625 -10.6875 28.71875 -7.28125 
Q 56.0625 3.953125 61.234375 25.53125 
L 46.390625 25.53125 
Q 39.265625 4.734375 8.6875 -7.078125 
Q 6.15625 -3.859375 3.21875 -0.53125 
Q 32.03125 10.203125 38.28125 25.53125 
L 25.09375 25.53125 
Q 16.796875 17.140625 6.640625 10.796875 
Q 4.59375 13.71875 1.765625 17.046875 
z
M 21.96875 48.578125 
L 78.609375 48.578125 
L 78.609375 56.78125 
L 21.96875 56.78125 
z
M 78.609375 71.625 
L 21.96875 71.625 
L 21.96875 63.625 
L 78.609375 63.625 
z
" id="MicrosoftYaHei-26131"/>
       <path d="M 1.5625 -4.734375 
Q 44.140625 19.875 46.578125 81.59375 
L 55.171875 81.59375 
Q 54.640625 71.140625 53.125 61.671875 
Q 65.234375 12.84375 98.640625 -2.59375 
Q 94.53125 -7.078125 91.40625 -11.078125 
Q 62.40625 5.328125 50.046875 46.96875 
Q 39.359375 6.734375 7.71875 -12.15625 
Q 5.078125 -8.546875 1.5625 -4.734375 
z
" id="MicrosoftYaHei-20154"/>
       <path d="M 65.234375 82.859375 
L 73.046875 81.6875 
Q 71 72.21875 68.265625 64.015625 
L 98.140625 64.015625 
L 98.140625 57.375 
L 92 57.375 
Q 89.546875 28.65625 79.5 11.765625 
Q 87.40625 1.03125 99.609375 -5.8125 
Q 96.484375 -10.109375 94.34375 -13.53125 
Q 82.421875 -5.8125 74.515625 4.828125 
Q 65.53125 -6.296875 53.125 -14.5 
Q 50.984375 -11.671875 47.5625 -8.34375 
Q 61.234375 0.640625 69.734375 12.0625 
Q 61.8125 25.734375 59.28125 43.609375 
Q 57.234375 39.984375 54.984375 36.859375 
Q 53.03125 39.703125 50.09375 43.109375 
Q 61.421875 59.421875 65.234375 82.859375 
z
M 2.34375 26.515625 
L 17.1875 26.515625 
Q 19.34375 30.21875 21.390625 34.125 
L 28.421875 31.890625 
Q 26.859375 29.15625 25.296875 26.515625 
L 49.21875 26.515625 
L 49.21875 20.171875 
Q 45.515625 10.59375 37.984375 3.375 
Q 43.359375 0.828125 48.921875 -1.703125 
L 44.625 -8.453125 
Q 38.578125 -5.03125 32.03125 -1.609375 
Q 21 -9.515625 4.203125 -14.109375 
Q 2.640625 -10.984375 0.875 -7.28125 
Q 15.140625 -4.046875 25 2 
Q 16.609375 6.296875 7.421875 10.796875 
Q 10.546875 15.28125 13.484375 20.0625 
L 2.34375 20.0625 
z
M 3.421875 60.109375 
L 25.875 60.109375 
L 25.875 81.984375 
L 33.109375 81.984375 
L 33.109375 60.109375 
L 51.859375 60.109375 
L 51.859375 53.65625 
L 33.109375 53.65625 
L 33.109375 47.703125 
L 36.03125 51.03125 
Q 45.125 44.390625 51.265625 39.3125 
L 46.578125 33.84375 
Q 41.21875 38.921875 33.109375 45.265625 
L 33.109375 34.125 
L 25.875 34.125 
L 25.875 47.796875 
Q 17 38.53125 5.171875 31.5 
Q 3.328125 34.328125 0.984375 37.453125 
Q 13.28125 44.09375 23.53125 53.65625 
L 3.421875 53.65625 
z
M 84.1875 57.375 
L 65.921875 57.375 
Q 65.4375 56.109375 64.84375 54.9375 
Q 66.609375 34.234375 74.609375 19.484375 
Q 82.421875 33.734375 84.1875 57.375 
z
M 17 13.03125 
Q 23.921875 9.90625 31.25 6.5 
Q 37.984375 12.25 41.796875 20.0625 
L 21.484375 20.0625 
Q 19.234375 16.453125 17 13.03125 
z
M 47.46875 79.546875 
L 53.515625 75.53125 
Q 48.140625 68.5 42.78125 62.546875 
Q 40.53125 64.5 37.5 66.65625 
Q 42.578125 72.609375 47.46875 79.546875 
z
M 5.953125 75.25 
L 11.53125 79.046875 
Q 15.921875 73.6875 20.609375 67.53125 
L 14.546875 63.234375 
Q 10.25 69.578125 5.953125 75.25 
z
" id="MicrosoftYaHei-25968"/>
      </defs>
      <use xlink:href="#MicrosoftYaHei-26131"/>
      <use x="100" xlink:href="#MicrosoftYaHei-24863"/>
      <use x="200" xlink:href="#MicrosoftYaHei-20154"/>
      <use x="300" xlink:href="#MicrosoftYaHei-25968"/>
     </g>
    </g>
    <g id="line2d_29">
     <path d="M 66.6 142.822531 
L 86.6 142.822531 
" style="fill:none;stroke:#0000ff;stroke-linecap:square;stroke-width:4;"/>
    </g>
    <g id="line2d_30"/>
    <g id="text_17">
     <!-- 潜伏患者人数 -->
     <g transform="translate(94.6 146.322531)scale(0.1 -0.1)">
      <defs>
       <path d="M 33.5 30.609375 
L 86.71875 30.609375 
L 86.71875 -12.75 
L 79.890625 -12.75 
L 79.890625 -7.5625 
L 40.328125 -7.5625 
L 40.328125 -12.9375 
L 33.5 -12.9375 
z
M 61.140625 57.765625 
L 72.65625 57.765625 
Q 73.296875 61.53125 73.390625 66.359375 
L 61.921875 66.359375 
L 61.921875 72.40625 
L 73.4375 72.40625 
L 73.4375 82.859375 
L 79.890625 82.859375 
L 79.890625 72.40625 
L 94.34375 72.40625 
L 94.34375 66.359375 
L 79.828125 66.359375 
Q 79.6875 61.765625 79.15625 57.765625 
L 96.09375 57.765625 
L 96.09375 51.703125 
L 82.859375 51.703125 
Q 87.984375 41.0625 98.921875 36.28125 
Q 96.875 33.84375 94.34375 30.03125 
Q 81 37.984375 77.6875 50.6875 
Q 74.078125 39.3125 61.234375 31.78125 
Q 59.46875 34.421875 56.84375 37.453125 
Q 67.578125 43.015625 71.140625 51.703125 
L 61.140625 51.703125 
z
M 25.390625 57.765625 
L 39.109375 57.765625 
Q 39.65625 61.578125 39.75 66.359375 
L 27.046875 66.359375 
L 27.046875 72.40625 
L 39.75 72.40625 
L 39.75 82.859375 
L 46.1875 82.859375 
L 46.1875 72.40625 
L 57.71875 72.40625 
L 57.71875 66.359375 
L 46.1875 66.359375 
Q 46.09375 61.671875 45.609375 57.765625 
L 58.296875 57.765625 
L 58.296875 51.703125 
L 44.53125 51.703125 
Q 44.28125 50.59375 44 49.609375 
Q 49.703125 45.609375 56.640625 39.703125 
L 52.046875 34.515625 
Q 47.171875 39.5 41.546875 44.046875 
Q 37.15625 36.328125 25.484375 29.046875 
Q 24.03125 31.203125 20.703125 34.90625 
Q 34.578125 41.65625 37.75 51.703125 
L 25.390625 51.703125 
z
M 40.328125 -1.125 
L 79.890625 -1.125 
L 79.890625 8.453125 
L 40.328125 8.453125 
z
M 79.890625 24.171875 
L 40.328125 24.171875 
L 40.328125 14.703125 
L 79.890625 14.703125 
z
M 4.5 -9.515625 
Q 10.25 8.0625 14.546875 28.265625 
Q 18.84375 26.421875 22.46875 25.25 
Q 17.28125 4.640625 13.09375 -12.15625 
z
M 5.078125 76.21875 
L 10.15625 81.390625 
Q 18.0625 75.140625 25.6875 68.21875 
L 19.828125 62.453125 
Q 12.703125 69.578125 5.078125 76.21875 
z
M 1.46875 50.828125 
L 6.0625 56.296875 
Q 13.875 50.34375 21.578125 43.796875 
L 16.3125 37.84375 
Q 8.890625 44.96875 1.46875 50.828125 
z
" id="MicrosoftYaHei-28508"/>
       <path d="M 28.8125 53.375 
L 57.671875 53.375 
Q 58.109375 67.921875 58.109375 83.0625 
L 66.015625 83.0625 
Q 65.921875 71.53125 65.578125 53.375 
L 97.953125 53.375 
L 97.953125 46.234375 
L 65.765625 46.234375 
Q 71.828125 12.203125 98.640625 -4.9375 
Q 94.734375 -9.125 92 -12.359375 
Q 69.390625 5.171875 62.5 31.59375 
Q 56.640625 5.90625 30.5625 -13.234375 
Q 28.21875 -10.015625 25.203125 -6.296875 
Q 54.734375 13.96875 57.328125 46.234375 
L 28.8125 46.234375 
z
M 1.375 36.375 
Q 16.5 56.78125 24.3125 82.5625 
L 32.234375 79.9375 
Q 27.390625 66.359375 21.6875 54.9375 
L 21.6875 -12.640625 
L 14.265625 -12.640625 
L 14.265625 41.546875 
Q 9.625 34.03125 4.5 27.6875 
Q 3.03125 31.890625 1.375 36.375 
z
M 78.21875 78.5625 
Q 86.234375 70.65625 92.390625 64.3125 
Q 89.359375 61.671875 86.421875 58.84375 
Q 79.78125 66.75 73.046875 73.875 
z
" id="MicrosoftYaHei-20239"/>
       <path d="M 10.75 46.046875 
L 46.390625 46.046875 
L 46.390625 53.65625 
L 18.75 53.65625 
L 18.75 50.921875 
L 11.71875 50.921875 
L 11.71875 74.5625 
L 46.390625 74.5625 
L 46.390625 82.765625 
L 53.609375 82.765625 
L 53.609375 74.5625 
L 88.28125 74.5625 
L 88.28125 50.921875 
L 81.25 50.921875 
L 81.25 53.65625 
L 53.609375 53.65625 
L 53.609375 46.046875 
L 89.265625 46.046875 
L 89.265625 20.84375 
L 82.234375 20.84375 
L 82.234375 24.5625 
L 53.609375 24.5625 
L 53.609375 18.5 
L 46.390625 18.5 
L 46.390625 24.5625 
L 17.78125 24.5625 
L 17.78125 20.84375 
L 10.75 20.84375 
z
M 25.203125 16.359375 
L 32.421875 16.359375 
L 32.421875 2.59375 
Q 32.421875 -3.375 39.15625 -3.375 
L 59.671875 -3.375 
Q 67 -3.375 67.96875 2.390625 
Q 68.75 5.71875 69.734375 12.75 
Q 73.046875 11.375 77.4375 9.8125 
Q 76.078125 2.984375 74.90625 -1.125 
Q 72.46875 -10.203125 60.9375 -10.203125 
L 37.3125 -10.203125 
Q 25.203125 -10.203125 25.203125 2.203125 
z
M 82.234375 39.796875 
L 53.609375 39.796875 
L 53.609375 30.8125 
L 82.234375 30.8125 
z
M 17.78125 30.8125 
L 46.390625 30.8125 
L 46.390625 39.796875 
L 17.78125 39.796875 
z
M 81.25 68.3125 
L 53.609375 68.3125 
L 53.609375 59.90625 
L 81.25 59.90625 
z
M 18.75 59.90625 
L 46.390625 59.90625 
L 46.390625 68.3125 
L 18.75 68.3125 
z
M 11.140625 15.375 
L 18.359375 12.9375 
Q 14.265625 0.640625 8.890625 -8.84375 
Q 6.34375 -7.46875 1.953125 -5.421875 
Q 7.8125 4.046875 11.140625 15.375 
z
M 80.078125 12.546875 
L 85.75 16.546875 
Q 92.671875 8.0625 98.734375 -0.25 
L 92.09375 -4.9375 
Q 86.234375 4.25 80.078125 12.546875 
z
M 39.265625 14.40625 
L 43.453125 19.875 
Q 53.03125 14.203125 59.578125 10.109375 
L 54.78125 3.859375 
Q 47.65625 9.03125 39.265625 14.40625 
z
" id="MicrosoftYaHei-24739"/>
       <path d="M 3.03125 51.609375 
L 40.140625 51.609375 
L 40.140625 63.921875 
L 12.703125 63.921875 
L 12.703125 70.5625 
L 40.140625 70.5625 
L 40.140625 82.953125 
L 47.953125 82.953125 
L 47.953125 70.5625 
L 71.875 70.5625 
L 71.875 63.921875 
L 47.953125 63.921875 
L 47.953125 51.609375 
L 57.515625 51.609375 
Q 73.53125 62.9375 83.796875 76.421875 
L 90.71875 71.734375 
Q 81.890625 61.140625 69.78125 51.609375 
L 97.75 51.609375 
L 97.75 44.96875 
L 60.75 44.96875 
Q 52.6875 39.40625 43.40625 34.234375 
L 82.125 34.234375 
L 82.125 -12.84375 
L 74.515625 -12.84375 
L 74.515625 -7.078125 
L 29.296875 -7.078125 
L 29.296875 -12.84375 
L 21.6875 -12.84375 
L 21.6875 23.390625 
Q 13.671875 19.828125 4.984375 16.453125 
Q 3.328125 19.484375 0.59375 23.578125 
Q 27.59375 32.953125 47.359375 44.96875 
L 3.03125 44.96875 
z
M 29.296875 -0.640625 
L 74.515625 -0.640625 
L 74.515625 10.59375 
L 29.296875 10.59375 
z
M 29.296875 26.90625 
L 29.296875 16.65625 
L 74.515625 16.65625 
L 74.515625 27.78125 
L 31.0625 27.78125 
Q 30.171875 27.34375 29.296875 26.90625 
z
" id="MicrosoftYaHei-32773"/>
      </defs>
      <use xlink:href="#MicrosoftYaHei-28508"/>
      <use x="100" xlink:href="#MicrosoftYaHei-20239"/>
      <use x="200" xlink:href="#MicrosoftYaHei-24739"/>
      <use x="300" xlink:href="#MicrosoftYaHei-32773"/>
      <use x="400" xlink:href="#MicrosoftYaHei-20154"/>
      <use x="500" xlink:href="#MicrosoftYaHei-25968"/>
     </g>
    </g>
    <g id="line2d_31">
     <path d="M 66.6 158.302219 
L 86.6 158.302219 
" style="fill:none;stroke:#ff0000;stroke-linecap:square;stroke-width:4;"/>
    </g>
    <g id="line2d_32"/>
    <g id="text_18">
     <!-- 发病人数 -->
     <g transform="translate(94.6 161.802219)scale(0.1 -0.1)">
      <defs>
       <path d="M 14.75 61.078125 
L 35.40625 61.078125 
Q 37.796875 71.296875 39.453125 83.34375 
L 47.75 82.28125 
Q 46.09375 71.1875 43.703125 61.078125 
L 97.65625 61.078125 
L 97.65625 53.859375 
L 41.84375 53.859375 
Q 40.09375 47.40625 37.984375 41.453125 
L 86.421875 41.453125 
L 86.421875 34.71875 
Q 79.984375 18.75 66.359375 7.125 
Q 80.078125 -1.171875 98.34375 -4.546875 
Q 93.953125 -9.421875 91.5 -12.75 
Q 75.875 -7.5625 60.0625 2.390625 
Q 47.359375 -5.953125 23.734375 -13.421875 
Q 21 -9.515625 17.875 -6.203125 
Q 41.890625 0.046875 53.765625 7.03125 
Q 40.921875 18.015625 35.453125 34.71875 
Q 24.75 7.953125 6.34375 -9.234375 
Q 3.71875 -5.515625 1.171875 -2.59375 
Q 23.1875 17.28125 33.546875 53.859375 
L 6.453125 53.859375 
L 6.453125 61.1875 
Q 10.453125 70.453125 13.765625 79.828125 
L 21.6875 77.6875 
Q 18.265625 69.09375 14.75 61.078125 
z
M 77.828125 34.71875 
L 42.53125 34.71875 
Q 46.921875 21.1875 59.96875 11.421875 
Q 72.609375 21.875 77.828125 34.71875 
z
M 62.796875 76.609375 
L 67.09375 82.078125 
Q 76.65625 76.03125 85.453125 69.484375 
L 80.171875 63.140625 
Q 71.6875 70.359375 62.796875 76.609375 
z
" id="MicrosoftYaHei-21457"/>
       <path d="M 26.953125 55.328125 
L 96.296875 55.328125 
L 96.296875 48.484375 
L 66.015625 48.484375 
Q 65.921875 42.625 65.578125 37.75 
L 93.453125 37.75 
L 93.453125 0.734375 
Q 93.453125 -10.6875 81.640625 -10.796875 
Q 74.8125 -10.890625 65.046875 -10.6875 
Q 64.453125 -7.28125 63.484375 -2.984375 
Q 71.296875 -3.5625 79.390625 -3.5625 
Q 86.03125 -3.5625 86.03125 2.296875 
L 86.03125 31.109375 
L 64.796875 31.109375 
Q 64.546875 29.34375 64.203125 27.734375 
Q 74.703125 16.5 82.03125 7.859375 
L 76.375 2.203125 
Q 69.1875 11.671875 61.921875 20.125 
Q 57.421875 9.234375 44.046875 -0.25 
Q 41.796875 2.59375 38.96875 5.90625 
Q 55.859375 16.265625 57.625 31.109375 
L 37.3125 31.109375 
L 37.3125 -11.96875 
L 29.890625 -11.96875 
L 29.890625 37.75 
L 58.5 37.75 
Q 58.890625 42.53125 58.984375 48.484375 
L 26.953125 48.484375 
z
M 23.140625 38.8125 
Q 23.140625 2.78125 7.90625 -12.15625 
Q 5.671875 -8.9375 2.546875 -5.71875 
Q 12.984375 5.125 15.140625 25.296875 
Q 10.40625 22.265625 3.328125 18.015625 
L 1.46875 26.21875 
Q 10.453125 30.515625 15.828125 33.734375 
L 15.828125 71.625 
L 54.25 71.625 
Q 51.703125 75.59375 48.34375 80.125 
L 54.78125 83.84375 
Q 58.984375 78.46875 61.921875 73.96875 
L 58.015625 71.625 
L 98.4375 71.625 
L 98.4375 64.796875 
L 23.140625 64.796875 
z
M 2.734375 59.90625 
L 9.078125 61.859375 
Q 11.71875 52.875 14.359375 42.625 
L 7.328125 40.578125 
Q 5.375 50.734375 2.734375 59.90625 
z
" id="MicrosoftYaHei-30149"/>
      </defs>
      <use xlink:href="#MicrosoftYaHei-21457"/>
      <use x="100" xlink:href="#MicrosoftYaHei-30149"/>
      <use x="200" xlink:href="#MicrosoftYaHei-20154"/>
      <use x="300" xlink:href="#MicrosoftYaHei-25968"/>
     </g>
    </g>
    <g id="line2d_33">
     <path d="M 66.6 173.781906 
L 86.6 173.781906 
" style="fill:none;stroke:#800080;stroke-linecap:square;stroke-width:4;"/>
    </g>
    <g id="line2d_34"/>
    <g id="text_19">
     <!-- 隔离人数 -->
     <g transform="translate(94.6 177.281906)scale(0.1 -0.1)">
      <defs>
       <path d="M 32.90625 28.5625 
Q 35.25 10.296875 24.21875 7.953125 
Q 20.40625 7.28125 15.328125 7.859375 
Q 14.546875 11.671875 13.28125 15.28125 
L 13.28125 -13.03125 
L 6.25 -13.03125 
L 6.25 78.65625 
L 32.8125 78.65625 
L 32.8125 72.125 
Q 28.03125 55.71875 24.90625 46.234375 
Q 31.9375 36.578125 32.90625 28.5625 
z
M 44.53125 -13.234375 
L 37.703125 -13.234375 
L 37.703125 37.453125 
L 94.34375 37.453125 
L 94.34375 -3.65625 
Q 94.34375 -12.84375 85.25 -12.84375 
Q 80.953125 -12.84375 74.609375 -12.75 
Q 74.125 -10.5 73.140625 -5.421875 
Q 79 -5.8125 83.5 -5.8125 
Q 87.5 -5.8125 87.5 -1.703125 
L 87.5 31.390625 
L 44.53125 31.390625 
z
M 43.359375 65.765625 
L 88.484375 65.765625 
L 88.484375 41.75 
L 81.453125 41.75 
L 81.453125 44.28125 
L 50.390625 44.28125 
L 50.390625 41.75 
L 43.359375 41.75 
z
M 21.484375 14.890625 
Q 27.734375 15.578125 25.6875 28.265625 
Q 24.421875 36.46875 17.671875 44.96875 
Q 21.875 57.46875 25.78125 72.125 
L 13.28125 72.125 
L 13.28125 15.671875 
Q 17.671875 14.5 21.484375 14.890625 
z
M 47.859375 15.28125 
L 67.578125 15.28125 
Q 72.515625 24.21875 75.296875 30.515625 
L 81.734375 27 
Q 78.078125 20.90625 74.46875 15.28125 
L 84.1875 15.28125 
L 84.1875 9.421875 
L 69.234375 9.421875 
L 69.234375 -11.671875 
L 62.59375 -11.671875 
L 62.59375 9.421875 
L 47.859375 9.421875 
z
M 37.109375 78.765625 
L 96.296875 78.765625 
L 96.296875 72.40625 
L 37.109375 72.40625 
z
M 81.453125 59.90625 
L 50.390625 59.90625 
L 50.390625 50.140625 
L 81.453125 50.140625 
z
M 50.390625 27.296875 
L 55.765625 30.421875 
Q 59.96875 24.859375 62.890625 19.390625 
L 57.03125 15.96875 
Q 54.296875 21.234375 50.390625 27.296875 
z
" id="MicrosoftYaHei-38548"/>
       <path d="M 37.203125 7.171875 
Q 48.53125 7.5625 60.59375 8.109375 
Q 58.0625 10.9375 55.46875 13.71875 
L 60.359375 17.53125 
Q 67.96875 9.90625 74.703125 2.296875 
L 69.53125 -2.203125 
Q 67.671875 0 65.828125 2.203125 
Q 53.375 1.609375 38.28125 0.640625 
Q 33.984375 0.34375 29.109375 -0.4375 
L 26.375 6.5 
Q 30.46875 9.03125 33.296875 12.84375 
Q 35.59375 16.015625 37.890625 19.96875 
L 16.5 19.96875 
L 16.5 -12.84375 
L 9.1875 -12.84375 
L 9.1875 26.421875 
L 41.40625 26.421875 
Q 43.5 30.46875 45.5625 35.203125 
L 12.890625 35.203125 
L 12.890625 63.53125 
L 20.015625 63.53125 
L 20.015625 41.453125 
L 79.890625 41.453125 
L 79.890625 63.625 
L 87.015625 63.625 
L 87.015625 31.6875 
L 79.890625 31.6875 
L 79.890625 35.203125 
L 54.25 35.203125 
Q 51.90625 30.671875 49.515625 26.421875 
L 90.625 26.421875 
L 90.625 -1.90625 
Q 90.625 -12.359375 80.859375 -12.359375 
Q 76.171875 -12.359375 70.609375 -12.15625 
Q 70.21875 -8.734375 69.234375 -4.640625 
Q 75 -5.21875 79.109375 -5.21875 
Q 83.296875 -5.21875 83.296875 -0.828125 
L 83.296875 19.96875 
L 45.75 19.96875 
Q 41.546875 13.09375 37.203125 7.171875 
z
M 3.125 73.96875 
L 45.609375 73.96875 
Q 43.5625 77.640625 41.703125 80.515625 
L 49.21875 83.9375 
Q 51.703125 80.328125 55.328125 73.96875 
L 96.875 73.96875 
L 96.875 67.328125 
L 3.125 67.328125 
z
M 25.203125 60.6875 
L 27.828125 65.875 
Q 39.0625 62.25 51.46875 57.8125 
Q 61.46875 61.8125 70.3125 66.359375 
L 73.25 61.375 
Q 66.703125 57.953125 59.625 54.890625 
Q 66.890625 52.203125 74.609375 49.265625 
L 71.96875 43.703125 
Q 61.53125 48 51.953125 51.609375 
Q 40.140625 46.875 27.046875 42.921875 
Q 25.296875 46.046875 23.53125 48.484375 
Q 33.890625 51.375 43.3125 54.734375 
Q 33.734375 58.109375 25.203125 60.6875 
z
" id="MicrosoftYaHei-31163"/>
      </defs>
      <use xlink:href="#MicrosoftYaHei-38548"/>
      <use x="100" xlink:href="#MicrosoftYaHei-31163"/>
      <use x="200" xlink:href="#MicrosoftYaHei-20154"/>
      <use x="300" xlink:href="#MicrosoftYaHei-25968"/>
     </g>
    </g>
    <g id="line2d_35">
     <path d="M 66.6 189.261594 
L 86.6 189.261594 
" style="fill:none;stroke:#ff0000;stroke-dasharray:32,8,5,8;stroke-dashoffset:0;stroke-width:5;"/>
    </g>
    <g id="line2d_36"/>
    <g id="text_20">
     <!-- 累计感染人数 -->
     <g transform="translate(94.6 192.761594)scale(0.1 -0.1)">
      <defs>
       <path d="M 71.09375 31.109375 
Q 84.765625 19.96875 92.875 12.0625 
L 87.5 6.59375 
Q 83.6875 10.546875 79.640625 14.40625 
Q 67.71875 13.921875 55.5625 13.375 
L 55.5625 0.34375 
Q 55.5625 -11.765625 43.359375 -11.765625 
Q 37.109375 -11.765625 29.390625 -11.671875 
Q 28.8125 -7.765625 27.9375 -3.5625 
Q 35.453125 -4.25 41.40625 -4.25 
Q 47.953125 -4.25 47.953125 2.875 
L 47.953125 13.03125 
Q 34.859375 12.40625 21.484375 11.765625 
Q 17.1875 11.578125 13.1875 10.984375 
L 10.546875 18.40625 
Q 16.5 19.09375 23.921875 21.921875 
Q 33.9375 25.78125 45.5625 31 
Q 33.40625 30.609375 23.921875 30.03125 
Q 19.234375 29.734375 16.890625 29.4375 
L 14.359375 35.890625 
Q 19.234375 36.859375 24.21875 39.109375 
Q 30.765625 42.046875 37.15625 45.453125 
L 18.84375 45.453125 
L 18.84375 42.625 
L 11.421875 42.625 
L 11.421875 79.734375 
L 88.671875 79.734375 
L 88.671875 42.625 
L 81.25 42.625 
L 81.25 45.453125 
L 48.828125 45.453125 
Q 38.03125 39.984375 27.546875 35.5 
Q 40.328125 35.84375 57.328125 36.46875 
Q 64.0625 39.65625 71.296875 43.3125 
L 76.375 38.03125 
Q 53.03125 27 28.515625 17.921875 
Q 53.171875 19 73.1875 20.265625 
Q 69.625 23.4375 65.921875 26.515625 
z
M 53.609375 51.125 
L 81.25 51.125 
L 81.25 60.015625 
L 53.609375 60.015625 
z
M 18.84375 51.125 
L 46.390625 51.125 
L 46.390625 60.015625 
L 18.84375 60.015625 
z
M 81.25 74.078125 
L 53.609375 74.078125 
L 53.609375 65.28125 
L 81.25 65.28125 
z
M 18.84375 65.28125 
L 46.390625 65.28125 
L 46.390625 74.078125 
L 18.84375 74.078125 
z
M 29.59375 8.9375 
L 33.984375 2.875 
Q 19.734375 -4.25 5.953125 -9.625 
Q 4.5 -6.59375 2.546875 -3.078125 
Q 17.09375 2.59375 29.59375 8.9375 
z
M 69.234375 8.546875 
Q 83.796875 3.65625 97.171875 -2.296875 
L 94.140625 -8.9375 
Q 81.0625 -2.984375 65.921875 2.09375 
z
" id="MicrosoftYaHei-32047"/>
       <path d="M 32.8125 49.265625 
L 61.234375 49.265625 
L 61.234375 82.859375 
L 69.625 82.859375 
L 69.625 49.265625 
L 98.25 49.265625 
L 98.25 42.234375 
L 69.625 42.234375 
L 69.625 -12.84375 
L 61.234375 -12.84375 
L 61.234375 42.234375 
L 32.8125 42.234375 
z
M 41.796875 14.109375 
Q 42.09375 9.03125 42.484375 5.609375 
Q 26.859375 -4.15625 16.703125 -11.375 
L 12.015625 -4.734375 
Q 15.4375 -1.8125 15.4375 4.15625 
L 15.4375 42.828125 
L 1.5625 42.828125 
L 1.5625 49.859375 
L 23.25 49.859375 
L 23.25 2.390625 
Q 31.734375 7.5625 41.796875 14.109375 
z
M 11.53125 81.59375 
Q 22.171875 70.65625 26.953125 65.375 
L 20.125 59.625 
Q 13.96875 67.71875 5.5625 76.421875 
z
" id="MicrosoftYaHei-35745"/>
      </defs>
      <use xlink:href="#MicrosoftYaHei-32047"/>
      <use x="100" xlink:href="#MicrosoftYaHei-35745"/>
      <use x="200" xlink:href="#MicrosoftYaHei-24863"/>
      <use x="300" xlink:href="#MicrosoftYaHei-26579"/>
      <use x="400" xlink:href="#MicrosoftYaHei-20154"/>
      <use x="500" xlink:href="#MicrosoftYaHei-25968"/>
     </g>
    </g>
    <g id="line2d_37">
     <path d="M 66.6 204.741281 
L 86.6 204.741281 
" style="fill:none;stroke:#008000;stroke-linecap:square;stroke-width:4;"/>
    </g>
    <g id="line2d_38"/>
    <g id="text_21">
     <!-- 累计治愈人数 -->
     <g transform="translate(94.6 208.241281)scale(0.1 -0.1)">
      <defs>
       <path d="M 34.859375 30.21875 
L 89.359375 30.21875 
L 89.359375 -12.84375 
L 81.9375 -12.84375 
L 81.9375 -6.296875 
L 42.28125 -6.296875 
L 42.28125 -12.84375 
L 34.859375 -12.84375 
z
M 78.421875 70.0625 
Q 89.546875 55.03125 98.828125 39.59375 
L 91.796875 35.296875 
Q 89.15625 39.890625 86.53125 44.34375 
Q 57.71875 43.109375 40.53125 41.65625 
Q 36.625 41.265625 32.515625 40.09375 
L 28.609375 47.703125 
Q 32.625 49.171875 35.75 52.6875 
Q 45.796875 64.703125 54.984375 83.34375 
L 62.796875 80.125 
Q 52.9375 63.421875 42.390625 49.265625 
Q 60.203125 49.859375 82.515625 50.921875 
Q 77.4375 58.984375 72.265625 66.359375 
z
M 81.9375 23.390625 
L 42.28125 23.390625 
L 42.28125 0.53125 
L 81.9375 0.53125 
z
M 15.828125 29.734375 
Q 19.734375 27.875 23.828125 26.3125 
Q 16.703125 4.34375 11.921875 -11.96875 
L 3.609375 -8.84375 
Q 10.25 7.953125 15.828125 29.734375 
z
M 10.359375 81.390625 
Q 20.90625 74.171875 28.421875 68.109375 
Q 25.296875 64.5 22.953125 61.765625 
Q 15.53125 68.40625 5.5625 75.828125 
z
M 6.34375 56.984375 
Q 15.328125 51.03125 23.828125 44.484375 
Q 22.359375 43.015625 18.5625 38.03125 
Q 8.796875 46.140625 1.5625 51.421875 
z
" id="MicrosoftYaHei-27835"/>
       <path d="M 19.234375 16.546875 
L 12.5 16.546875 
L 12.5 55.328125 
L 50 55.328125 
L 50 26.21875 
Q 50 16.15625 40.234375 16.15625 
Q 37.015625 16.15625 31.34375 16.359375 
Q 30.765625 19.671875 29.984375 23.09375 
Q 35.359375 22.515625 39.15625 22.515625 
Q 43.265625 22.515625 43.265625 26.90625 
L 43.265625 28.171875 
L 19.234375 28.171875 
z
M 56.734375 83.0625 
L 55.078125 81.6875 
Q 71.296875 68.703125 98.640625 62.359375 
Q 96.578125 59.8125 93.84375 55.609375 
Q 79 60.203125 67.96875 65.765625 
L 67.96875 61.1875 
L 31.9375 61.1875 
L 31.9375 66.359375 
Q 20.609375 60.6875 5.859375 55.21875 
Q 3.8125 58.453125 1.375 61.1875 
Q 29.6875 69.96875 46.96875 83.0625 
z
M 27.25 12.546875 
L 34.46875 12.546875 
L 34.46875 0.921875 
Q 34.46875 -4.734375 40.046875 -4.734375 
L 60.9375 -4.734375 
Q 67.96875 -4.734375 69.140625 0.828125 
Q 69.921875 4.640625 70.609375 10.203125 
Q 74.125 8.84375 77.9375 7.671875 
Q 76.953125 1.90625 75.78125 -2.390625 
Q 73.53125 -10.984375 62.203125 -10.984375 
L 39.15625 -10.984375 
Q 27.25 -10.984375 27.25 0.046875 
z
M 78.421875 55.609375 
L 85.359375 55.609375 
L 85.359375 26.703125 
Q 85.359375 15.96875 75.296875 15.96875 
Q 71.78125 15.96875 65.140625 16.15625 
Q 64.453125 20.0625 63.375 23.6875 
Q 69.34375 23 73.921875 23 
Q 78.421875 23 78.421875 27.984375 
z
M 50.203125 77.484375 
Q 41.703125 71.234375 32.328125 66.65625 
L 66.40625 66.65625 
Q 56.9375 71.625 50.203125 77.484375 
z
M 60.546875 52.984375 
L 67.28125 52.984375 
L 67.28125 28.65625 
L 60.546875 28.65625 
z
M 12.703125 12.25 
L 19.34375 9.8125 
Q 14.9375 -0.34375 9.1875 -8.84375 
Q 6.25 -7.078125 2.734375 -5.421875 
Q 8.890625 2.78125 12.703125 12.25 
z
M 79.890625 9.03125 
L 85.25 12.84375 
Q 92.1875 5.21875 98.046875 -2.390625 
L 92 -6.6875 
Q 87.015625 0.53125 79.890625 9.03125 
z
M 19.234375 33.453125 
L 43.265625 33.453125 
L 43.265625 39.015625 
L 19.234375 39.015625 
z
M 43.265625 49.859375 
L 19.234375 49.859375 
L 19.234375 44.28125 
L 43.265625 44.28125 
z
M 43.75 11.46875 
L 48.25 15.671875 
Q 55.171875 10.59375 61.234375 5.328125 
L 56.25 0.34375 
Q 50.296875 6 43.75 11.46875 
z
" id="MicrosoftYaHei-24840"/>
      </defs>
      <use xlink:href="#MicrosoftYaHei-32047"/>
      <use x="100" xlink:href="#MicrosoftYaHei-35745"/>
      <use x="200" xlink:href="#MicrosoftYaHei-27835"/>
      <use x="300" xlink:href="#MicrosoftYaHei-24840"/>
      <use x="400" xlink:href="#MicrosoftYaHei-20154"/>
      <use x="500" xlink:href="#MicrosoftYaHei-25968"/>
     </g>
    </g>
    <g id="line2d_39">
     <path d="M 66.6 220.220969 
L 86.6 220.220969 
" style="fill:none;stroke:#808080;stroke-linecap:square;stroke-width:4;"/>
    </g>
    <g id="line2d_40"/>
    <g id="text_22">
     <!-- 累计死亡人数 -->
     <g transform="translate(94.6 223.720969)scale(0.1 -0.1)">
      <defs>
       <path d="M 3.90625 75.734375 
L 96.09375 75.734375 
L 96.09375 68.703125 
L 66.703125 68.703125 
L 66.703125 32.953125 
Q 78.8125 42.140625 91.3125 55.03125 
L 97.078125 49.078125 
Q 81.34375 34.625 66.703125 24.078125 
L 66.703125 4.15625 
Q 66.703125 -2.203125 71.96875 -2.203125 
L 81.640625 -2.203125 
Q 87.703125 -2.203125 89.265625 4.546875 
Q 90.53125 11.1875 91.3125 20.5625 
Q 95.609375 18.5 99.21875 17.4375 
Q 98.046875 8.34375 96.578125 1.609375 
Q 94.046875 -9.625 82.8125 -9.625 
L 70.40625 -9.625 
Q 59.078125 -9.625 59.078125 3.859375 
L 59.078125 68.703125 
L 30.671875 68.703125 
Q 28.515625 60.984375 25.78125 53.953125 
L 51.171875 53.953125 
L 51.171875 47.21875 
Q 44.234375 8.9375 8.5 -12.9375 
Q 5.671875 -9.625 2.828125 -6.984375 
Q 20.40625 3.65625 30.171875 16.84375 
Q 23.046875 22.796875 16.21875 27.78125 
L 20.3125 33.734375 
Q 27.546875 28.46875 34.46875 23.1875 
Q 41.109375 34.234375 43.5625 47.125 
L 22.953125 47.125 
Q 16.703125 32.953125 6.546875 20.75 
Q 3.8125 24.46875 1.65625 26.90625 
Q 16.609375 45.359375 22.75 68.703125 
L 3.90625 68.703125 
z
" id="MicrosoftYaHei-27515"/>
       <path d="M 1.953125 63.421875 
L 97.953125 63.421875 
L 97.953125 55.71875 
L 25.09375 55.71875 
L 25.09375 0.4375 
L 93.359375 0.4375 
L 93.359375 -6.984375 
L 16.40625 -6.984375 
L 16.40625 55.71875 
L 1.953125 55.71875 
z
M 41.796875 78.859375 
L 48.25 83.25 
Q 55.46875 74.5625 59.46875 69 
L 52.34375 63.8125 
Q 46.6875 72.609375 41.796875 78.859375 
z
" id="MicrosoftYaHei-20129"/>
      </defs>
      <use xlink:href="#MicrosoftYaHei-32047"/>
      <use x="100" xlink:href="#MicrosoftYaHei-35745"/>
      <use x="200" xlink:href="#MicrosoftYaHei-27515"/>
      <use x="300" xlink:href="#MicrosoftYaHei-20129"/>
      <use x="400" xlink:href="#MicrosoftYaHei-20154"/>
      <use x="500" xlink:href="#MicrosoftYaHei-25968"/>
     </g>
    </g>
   </g>
  </g>
 </g>
 <defs>
  <clipPath id="pa2dd14fb72">
   <rect height="266.112" width="357.12" x="57.6" y="41.472"/>
  </clipPath>
 </defs>
</svg>
